G04*
G04 #@! TF.GenerationSoftware,Altium Limited,Altium Designer,19.1.7 (138)*
G04*
G04 Layer_Color=8388736*
%FSLAX25Y25*%
%MOIN*%
G70*
G01*
G75*
%ADD36R,0.05200X0.07900*%
%ADD37R,0.03000X0.08600*%
%ADD38R,0.06706X0.04737*%
%ADD39R,0.06587X0.01981*%
%ADD40R,0.06509X0.01981*%
%ADD41R,0.07900X0.05200*%
%ADD42R,0.02170X0.06300*%
%ADD43R,0.14186X0.08280*%
%ADD44R,0.08674X0.06312*%
%ADD45R,0.05524X0.06312*%
%ADD46R,0.06300X0.07100*%
%ADD47R,0.03556X0.02800*%
%ADD48R,0.07100X0.06300*%
%ADD49R,0.13000X0.07100*%
%ADD50R,0.04100X0.07100*%
%ADD51R,0.22847X0.09068*%
%ADD52R,0.06600X0.02800*%
%ADD53R,0.02800X0.06600*%
%ADD54R,0.07493X0.08280*%
%ADD55C,0.05556*%
%ADD56O,0.11099X0.11099*%
%ADD57C,0.11099*%
%ADD58C,0.07296*%
%ADD59C,0.10249*%
%ADD60C,0.11824*%
%ADD61C,0.07800*%
%ADD62C,0.06800*%
%ADD63C,0.05800*%
G36*
X261866Y273539D02*
Y279445D01*
X270134D01*
Y273539D01*
X261866D01*
D02*
G37*
G36*
X263441Y297555D02*
Y303461D01*
X268559D01*
Y297555D01*
X263441D01*
D02*
G37*
D36*
X192300Y259000D02*
D03*
X180500D02*
D03*
X3800Y183500D02*
D03*
X-8000D02*
D03*
X263700Y155500D02*
D03*
X275500D02*
D03*
X263200Y167000D02*
D03*
X275000D02*
D03*
X142000Y268000D02*
D03*
X130200D02*
D03*
X141800Y278000D02*
D03*
X130000D02*
D03*
X145200Y247000D02*
D03*
X157000D02*
D03*
X119800Y280500D02*
D03*
X108000D02*
D03*
X145200Y237500D02*
D03*
X157000D02*
D03*
X192300Y249500D02*
D03*
X180500D02*
D03*
X89700Y280500D02*
D03*
X101500D02*
D03*
X43200Y295000D02*
D03*
X55000D02*
D03*
X64200D02*
D03*
X76000D02*
D03*
X114500Y322500D02*
D03*
X102700D02*
D03*
X210000Y281500D02*
D03*
X221800D02*
D03*
X172000Y307500D02*
D03*
X160200D02*
D03*
X169200Y237500D02*
D03*
X181000D02*
D03*
X158700Y60500D02*
D03*
X170500D02*
D03*
X169500Y227000D02*
D03*
X181300D02*
D03*
X129800Y60000D02*
D03*
X118000D02*
D03*
X137500D02*
D03*
X149300D02*
D03*
D37*
X262000Y226200D02*
D03*
X267000D02*
D03*
X272000D02*
D03*
X277000D02*
D03*
Y206800D02*
D03*
X272000D02*
D03*
X267000D02*
D03*
X262000D02*
D03*
D38*
X275146Y265299D02*
D03*
Y252701D02*
D03*
X255854D02*
D03*
Y265299D02*
D03*
X6646Y286299D02*
D03*
Y273701D02*
D03*
X-12646D02*
D03*
Y286299D02*
D03*
X6791Y260598D02*
D03*
Y248000D02*
D03*
X-12500D02*
D03*
Y260598D02*
D03*
X7146Y235299D02*
D03*
Y222701D02*
D03*
X-12146D02*
D03*
Y235299D02*
D03*
X7146Y209299D02*
D03*
Y196701D02*
D03*
X-12146D02*
D03*
Y209299D02*
D03*
X275146Y323799D02*
D03*
Y311201D02*
D03*
X255854D02*
D03*
Y323799D02*
D03*
D39*
X257339Y178563D02*
D03*
Y180532D02*
D03*
Y182500D02*
D03*
Y184468D02*
D03*
Y186437D02*
D03*
X274661D02*
D03*
Y184468D02*
D03*
Y182500D02*
D03*
Y180532D02*
D03*
D40*
Y178563D02*
D03*
D41*
X146000Y157300D02*
D03*
Y145500D02*
D03*
X145000Y330700D02*
D03*
Y342500D02*
D03*
X19000Y196700D02*
D03*
Y208500D02*
D03*
Y222700D02*
D03*
Y234500D02*
D03*
Y247500D02*
D03*
Y259300D02*
D03*
X19500Y274000D02*
D03*
Y285800D02*
D03*
X235000Y244300D02*
D03*
Y232500D02*
D03*
X233000Y225000D02*
D03*
Y213200D02*
D03*
X234500Y251700D02*
D03*
Y263500D02*
D03*
Y331000D02*
D03*
Y342800D02*
D03*
Y303300D02*
D03*
Y291500D02*
D03*
Y271700D02*
D03*
Y283500D02*
D03*
Y311000D02*
D03*
Y322800D02*
D03*
X62000Y242700D02*
D03*
Y254500D02*
D03*
X145500Y314800D02*
D03*
Y303000D02*
D03*
X125500Y145500D02*
D03*
Y157300D02*
D03*
X135500D02*
D03*
Y145500D02*
D03*
D42*
X75366Y260394D02*
D03*
X77925D02*
D03*
X80484D02*
D03*
X83043D02*
D03*
X85602D02*
D03*
X88161D02*
D03*
X90720D02*
D03*
X93279D02*
D03*
X95839D02*
D03*
X98398D02*
D03*
X100957D02*
D03*
X103516D02*
D03*
X106075D02*
D03*
X108634D02*
D03*
X75366Y231606D02*
D03*
X77925D02*
D03*
X80484D02*
D03*
X83043D02*
D03*
X85602D02*
D03*
X90720D02*
D03*
X88161D02*
D03*
X93279D02*
D03*
X95839D02*
D03*
X98398D02*
D03*
X100957D02*
D03*
X103516D02*
D03*
X106075D02*
D03*
X108634D02*
D03*
D43*
X90500Y323323D02*
D03*
Y338677D02*
D03*
D44*
X266000Y276492D02*
D03*
D45*
Y300508D02*
D03*
D46*
X133400Y247000D02*
D03*
X121600D02*
D03*
X110900Y289500D02*
D03*
X99100D02*
D03*
X133400Y237500D02*
D03*
X121600D02*
D03*
X126100Y322500D02*
D03*
X137900D02*
D03*
X196900Y281500D02*
D03*
X185100D02*
D03*
X140400Y171000D02*
D03*
X128600D02*
D03*
D47*
X65801Y280516D02*
D03*
Y276776D02*
D03*
Y273035D02*
D03*
X56648D02*
D03*
Y276776D02*
D03*
Y280516D02*
D03*
D48*
X133000Y295100D02*
D03*
Y306900D02*
D03*
D49*
X164000Y318294D02*
D03*
D50*
X154900Y343494D02*
D03*
X164000D02*
D03*
X173100D02*
D03*
D51*
X162000Y76000D02*
D03*
X124598D02*
D03*
D52*
X111800Y105307D02*
D03*
Y108407D02*
D03*
Y111607D02*
D03*
Y114707D02*
D03*
Y117907D02*
D03*
Y121007D02*
D03*
Y124207D02*
D03*
Y127307D02*
D03*
X144200D02*
D03*
Y124207D02*
D03*
Y121007D02*
D03*
X144200Y117907D02*
D03*
X144200Y114707D02*
D03*
Y111607D02*
D03*
Y108407D02*
D03*
Y105307D02*
D03*
D53*
X117000Y132507D02*
D03*
X120100D02*
D03*
X123300D02*
D03*
X126400D02*
D03*
X129600Y132507D02*
D03*
X132700Y132507D02*
D03*
X135900D02*
D03*
X139000D02*
D03*
Y100107D02*
D03*
X135900D02*
D03*
X132700D02*
D03*
X129600D02*
D03*
X126400D02*
D03*
X123300D02*
D03*
X120100D02*
D03*
X117000D02*
D03*
D54*
X217323Y250826D02*
D03*
X205323D02*
D03*
X217323Y221826D02*
D03*
X205323D02*
D03*
D55*
X64799Y311500D02*
D03*
X58500D02*
D03*
X52201D02*
D03*
X61650Y316224D02*
D03*
X55350D02*
D03*
D56*
X73067Y333744D02*
D03*
Y315043D02*
D03*
X43933D02*
D03*
D57*
Y333744D02*
D03*
D58*
X129000Y337500D02*
D03*
X119000D02*
D03*
X109000D02*
D03*
X169500Y292000D02*
D03*
X159500D02*
D03*
X149500D02*
D03*
X117000Y306000D02*
D03*
X107000D02*
D03*
X97000D02*
D03*
D59*
X203500Y295000D02*
D03*
Y318500D02*
D03*
X184996Y306720D02*
D03*
D60*
X8000Y335500D02*
D03*
X-6000Y321000D02*
D03*
D61*
X124000Y12500D02*
D03*
Y22500D02*
D03*
X134000Y12500D02*
D03*
Y22500D02*
D03*
X144000Y12500D02*
D03*
Y22500D02*
D03*
D62*
X223500Y23000D02*
D03*
Y33000D02*
D03*
Y43000D02*
D03*
Y53000D02*
D03*
Y63000D02*
D03*
Y73000D02*
D03*
Y83000D02*
D03*
Y93000D02*
D03*
X18000Y73000D02*
D03*
Y63000D02*
D03*
Y53000D02*
D03*
Y43000D02*
D03*
Y33000D02*
D03*
Y23000D02*
D03*
X33500Y163000D02*
D03*
Y153000D02*
D03*
Y143000D02*
D03*
Y133000D02*
D03*
Y123000D02*
D03*
Y113000D02*
D03*
Y103000D02*
D03*
Y93000D02*
D03*
Y73000D02*
D03*
Y63000D02*
D03*
Y53000D02*
D03*
Y43000D02*
D03*
Y33000D02*
D03*
Y23000D02*
D03*
X223500Y107000D02*
D03*
Y117000D02*
D03*
Y127000D02*
D03*
Y137000D02*
D03*
Y147000D02*
D03*
Y157000D02*
D03*
Y167000D02*
D03*
Y177000D02*
D03*
Y187000D02*
D03*
Y197000D02*
D03*
X238000Y107000D02*
D03*
Y117000D02*
D03*
Y127000D02*
D03*
Y137000D02*
D03*
Y147000D02*
D03*
Y157000D02*
D03*
Y167000D02*
D03*
Y177000D02*
D03*
Y187000D02*
D03*
Y197000D02*
D03*
X18000Y163000D02*
D03*
Y153000D02*
D03*
Y143000D02*
D03*
Y133000D02*
D03*
Y123000D02*
D03*
Y113000D02*
D03*
Y103000D02*
D03*
Y93000D02*
D03*
X238000Y23000D02*
D03*
Y33000D02*
D03*
Y43000D02*
D03*
Y53000D02*
D03*
Y63000D02*
D03*
Y73000D02*
D03*
Y83000D02*
D03*
Y93000D02*
D03*
D63*
X79000Y132000D02*
D03*
X190000Y194000D02*
D03*
X190500Y182086D02*
D03*
X119500Y116000D02*
D03*
X119000Y123500D02*
D03*
X62000Y101000D02*
D03*
Y109000D02*
D03*
X155850Y330850D02*
D03*
X225000Y225500D02*
D03*
X277000Y192000D02*
D03*
X262500Y147000D02*
D03*
X53500Y262000D02*
D03*
X48500Y281500D02*
D03*
X45000Y267500D02*
D03*
X-14000Y171500D02*
D03*
X241500Y210000D02*
D03*
X242000Y219000D02*
D03*
X227000Y233000D02*
D03*
X85000Y253500D02*
D03*
X79000Y222000D02*
D03*
X97000Y253000D02*
D03*
X85500Y70000D02*
D03*
X81000Y81375D02*
D03*
X86000Y127500D02*
D03*
X150000Y265000D02*
D03*
X162000Y259500D02*
D03*
X115000Y261000D02*
D03*
X150500Y276500D02*
D03*
X73000Y163500D02*
D03*
X184000Y187500D02*
D03*
X118750Y107000D02*
D03*
X12500Y183500D02*
D03*
X106000Y267000D02*
D03*
X98000Y268000D02*
D03*
X136000Y111000D02*
D03*
X225000Y264500D02*
D03*
X189500Y267500D02*
D03*
X252300Y342800D02*
D03*
X242000Y307000D02*
D03*
X242500Y324500D02*
D03*
X134125Y34125D02*
D03*
X193500Y31500D02*
D03*
X192000Y23500D02*
D03*
X98500Y108500D02*
D03*
X180000Y60500D02*
D03*
X108500Y60000D02*
D03*
X193500Y237500D02*
D03*
Y227000D02*
D03*
X124000Y90500D02*
D03*
X62000Y158500D02*
D03*
X76000Y241000D02*
D03*
X106000Y239000D02*
D03*
X123000Y272500D02*
D03*
X173500Y249000D02*
D03*
X83500Y302500D02*
D03*
Y316000D02*
D03*
M02*
