G04*
G04 #@! TF.GenerationSoftware,Altium Limited,Altium Designer,19.1.7 (138)*
G04*
G04 Layer_Physical_Order=4*
G04 Layer_Color=16711680*
%FSLAX25Y25*%
%MOIN*%
G70*
G01*
G75*
%ADD10C,0.01000*%
%ADD13C,0.00600*%
%ADD64C,0.02000*%
%ADD66C,0.04756*%
%ADD67O,0.10299X0.10299*%
%ADD68C,0.10299*%
%ADD69C,0.06496*%
%ADD70C,0.09449*%
%ADD71C,0.11024*%
%ADD72C,0.07000*%
%ADD73C,0.06000*%
%ADD74C,0.05000*%
D10*
X190500Y182086D02*
Y193500D01*
X190000Y211000D02*
X199500Y220500D01*
X190000Y194000D02*
Y211000D01*
X190500Y180500D02*
Y182086D01*
X126000Y116000D02*
X190500Y180500D01*
X119500Y116000D02*
X126000D01*
X184000Y187500D02*
X184500Y188000D01*
X119000Y123500D02*
X130500D01*
X184000Y177000D01*
Y187500D01*
X96000Y108500D02*
X98500D01*
X73000Y131500D02*
X96000Y108500D01*
X73000Y131500D02*
Y163500D01*
X43000Y262000D02*
X53500D01*
X39500Y265500D02*
X43000Y262000D01*
X39500Y265500D02*
Y279000D01*
X-4000Y322500D02*
X39500Y279000D01*
X45000Y267500D02*
Y277000D01*
X8000Y314000D02*
X45000Y277000D01*
X8000Y314000D02*
Y336500D01*
X-5500Y322500D02*
X-4000D01*
X79000Y222000D02*
Y226000D01*
X97000Y244000D01*
Y253000D01*
X112000Y261000D02*
X115000D01*
X106000Y267000D02*
X112000Y261000D01*
X222500Y137000D02*
X223500D01*
X193500Y108000D02*
X222500Y137000D01*
X193500Y31500D02*
Y108000D01*
Y237500D02*
X199500Y231500D01*
Y220500D02*
Y231500D01*
X184500Y218000D02*
X193500Y227000D01*
X184500Y188000D02*
Y218000D01*
X98000Y268000D02*
X102500Y272500D01*
X134000Y34000D02*
X134125Y34125D01*
X134000Y22500D02*
Y34000D01*
X189500Y26000D02*
Y113000D01*
Y26000D02*
X192000Y23500D01*
X189500Y113000D02*
X223500Y147000D01*
X144000Y12500D02*
X183000D01*
X186500Y16000D01*
Y120000D01*
X223500Y157000D01*
X102500Y272500D02*
X123000D01*
X172500Y249000D02*
X173500D01*
X162000Y259500D02*
X172500Y249000D01*
X83500Y302500D02*
Y316000D01*
D13*
X239900Y223400D02*
Y299663D01*
X238200Y221700D02*
X239900Y223400D01*
X238200Y216800D02*
Y221700D01*
X79000Y156500D02*
X150000Y227500D01*
X79000Y132000D02*
Y156500D01*
X190000Y194000D02*
X190500Y193500D01*
X81000Y81375D02*
Y90000D01*
X62000Y109000D02*
X81000Y90000D01*
X84500Y70000D02*
X85500D01*
X62000Y92500D02*
X84500Y70000D01*
X62000Y92500D02*
Y101000D01*
X244501Y122000D02*
X269300Y146799D01*
X234500Y122000D02*
X244501D01*
X269300Y146799D02*
Y176826D01*
X234500Y211626D02*
X269300Y176826D01*
X241500Y210000D02*
Y213500D01*
X238200Y216800D02*
X241500Y213500D01*
X234500Y211626D02*
Y225500D01*
X227000Y233000D02*
X234500Y225500D01*
X242000Y219000D02*
Y299500D01*
X246500Y304000D01*
X239900Y299663D02*
X242000Y301763D01*
Y307000D01*
X246500Y304000D02*
Y310000D01*
X242500Y314000D02*
X246500Y310000D01*
X242500Y314000D02*
Y324500D01*
X86000Y127500D02*
Y158500D01*
X155500Y228000D01*
X150000Y227500D02*
Y265000D01*
X30500Y128000D02*
X72000D01*
X25000Y133500D02*
X30500Y128000D01*
X25000Y133500D02*
Y171000D01*
X96500Y103500D02*
X104893D01*
X72000Y128000D02*
X96500Y103500D01*
X104893D02*
X108393Y107000D01*
X155500Y228000D02*
Y271500D01*
X150500Y276500D02*
X155500Y271500D01*
X12500Y183500D02*
X25000Y171000D01*
X108393Y107000D02*
X118750D01*
X229500Y117000D02*
X234500Y122000D01*
X223500Y117000D02*
X229500D01*
D64*
X220000Y258688D02*
X225000Y263688D01*
X220000Y231312D02*
Y258688D01*
Y231312D02*
X225000Y226312D01*
X107000Y316000D02*
Y325500D01*
Y316000D02*
X117000Y306000D01*
X107000D02*
X117000D01*
X159500Y292000D02*
X169500D01*
X107000Y325500D02*
X119000Y337500D01*
X118500Y6000D02*
X127500D01*
X52000Y72500D02*
X118500Y6000D01*
X52000Y72500D02*
Y104500D01*
X127500Y6000D02*
X134000Y12500D01*
X33500Y123000D02*
X52000Y104500D01*
X113500Y111500D02*
X135500D01*
X136000Y111000D01*
X225000Y225500D02*
Y226312D01*
Y217071D02*
Y225500D01*
Y263688D02*
Y264500D01*
Y217071D02*
X262500Y179571D01*
Y147000D02*
Y179571D01*
X67500Y248000D02*
X97500Y278000D01*
X67500Y155500D02*
Y248000D01*
X44500Y132500D02*
X67500Y155500D01*
X189500Y267500D02*
X221188D01*
X224188Y264500D01*
X189500Y253000D02*
Y267500D01*
X224188Y264500D02*
X225000D01*
X135500Y278000D02*
X149500Y292000D01*
X97500Y278000D02*
X135500D01*
X34000Y132500D02*
X44500D01*
X94000Y131000D02*
X113500Y111500D01*
X94000Y131000D02*
Y157500D01*
X189500Y253000D01*
X62000Y158500D02*
Y246743D01*
X107000Y291743D01*
Y306000D01*
X182500Y294500D02*
X203000D01*
X203500Y295000D01*
X161430Y315570D02*
X182500Y294500D01*
X150930Y315570D02*
X161430D01*
X129000Y337500D02*
X150930Y315570D01*
X33500Y133000D02*
X34000Y132500D01*
D66*
X64799Y311500D02*
D03*
X58500D02*
D03*
X52201D02*
D03*
X61650Y316224D02*
D03*
X55350D02*
D03*
D67*
X73067Y333744D02*
D03*
Y315043D02*
D03*
X43933D02*
D03*
D68*
Y333744D02*
D03*
D69*
X129000Y337500D02*
D03*
X119000D02*
D03*
X109000D02*
D03*
X169500Y292000D02*
D03*
X159500D02*
D03*
X149500D02*
D03*
X117000Y306000D02*
D03*
X107000D02*
D03*
X97000D02*
D03*
D70*
X203500Y295000D02*
D03*
Y318500D02*
D03*
X184996Y306720D02*
D03*
D71*
X8000Y335500D02*
D03*
X-6000Y321000D02*
D03*
D72*
X124000Y12500D02*
D03*
Y22500D02*
D03*
X134000Y12500D02*
D03*
Y22500D02*
D03*
X144000Y12500D02*
D03*
Y22500D02*
D03*
D73*
X223500Y23000D02*
D03*
Y33000D02*
D03*
Y43000D02*
D03*
Y53000D02*
D03*
Y63000D02*
D03*
Y73000D02*
D03*
Y83000D02*
D03*
Y93000D02*
D03*
X18000Y73000D02*
D03*
Y63000D02*
D03*
Y53000D02*
D03*
Y43000D02*
D03*
Y33000D02*
D03*
Y23000D02*
D03*
X33500Y163000D02*
D03*
Y153000D02*
D03*
Y143000D02*
D03*
Y133000D02*
D03*
Y123000D02*
D03*
Y113000D02*
D03*
Y103000D02*
D03*
Y93000D02*
D03*
Y73000D02*
D03*
Y63000D02*
D03*
Y53000D02*
D03*
Y43000D02*
D03*
Y33000D02*
D03*
Y23000D02*
D03*
X223500Y107000D02*
D03*
Y117000D02*
D03*
Y127000D02*
D03*
Y137000D02*
D03*
Y147000D02*
D03*
Y157000D02*
D03*
Y167000D02*
D03*
Y177000D02*
D03*
Y187000D02*
D03*
Y197000D02*
D03*
X238000Y107000D02*
D03*
Y117000D02*
D03*
Y127000D02*
D03*
Y137000D02*
D03*
Y147000D02*
D03*
Y157000D02*
D03*
Y167000D02*
D03*
Y177000D02*
D03*
Y187000D02*
D03*
Y197000D02*
D03*
X18000Y163000D02*
D03*
Y153000D02*
D03*
Y143000D02*
D03*
Y133000D02*
D03*
Y123000D02*
D03*
Y113000D02*
D03*
Y103000D02*
D03*
Y93000D02*
D03*
X238000Y23000D02*
D03*
Y33000D02*
D03*
Y43000D02*
D03*
Y53000D02*
D03*
Y63000D02*
D03*
Y73000D02*
D03*
Y83000D02*
D03*
Y93000D02*
D03*
D74*
X79000Y132000D02*
D03*
X190000Y194000D02*
D03*
X190500Y182086D02*
D03*
X119500Y116000D02*
D03*
X119000Y123500D02*
D03*
X62000Y101000D02*
D03*
Y109000D02*
D03*
X155850Y330850D02*
D03*
X225000Y225500D02*
D03*
X277000Y192000D02*
D03*
X262500Y147000D02*
D03*
X53500Y262000D02*
D03*
X48500Y281500D02*
D03*
X45000Y267500D02*
D03*
X-14000Y171500D02*
D03*
X241500Y210000D02*
D03*
X242000Y219000D02*
D03*
X227000Y233000D02*
D03*
X85000Y253500D02*
D03*
X79000Y222000D02*
D03*
X97000Y253000D02*
D03*
X85500Y70000D02*
D03*
X81000Y81375D02*
D03*
X86000Y127500D02*
D03*
X150000Y265000D02*
D03*
X162000Y259500D02*
D03*
X115000Y261000D02*
D03*
X150500Y276500D02*
D03*
X73000Y163500D02*
D03*
X184000Y187500D02*
D03*
X118750Y107000D02*
D03*
X12500Y183500D02*
D03*
X106000Y267000D02*
D03*
X98000Y268000D02*
D03*
X136000Y111000D02*
D03*
X225000Y264500D02*
D03*
X189500Y267500D02*
D03*
X252300Y342800D02*
D03*
X242000Y307000D02*
D03*
X242500Y324500D02*
D03*
X134125Y34125D02*
D03*
X193500Y31500D02*
D03*
X192000Y23500D02*
D03*
X98500Y108500D02*
D03*
X180000Y60500D02*
D03*
X108500Y60000D02*
D03*
X193500Y237500D02*
D03*
Y227000D02*
D03*
X124000Y90500D02*
D03*
X62000Y158500D02*
D03*
X76000Y241000D02*
D03*
X106000Y239000D02*
D03*
X123000Y272500D02*
D03*
X173500Y249000D02*
D03*
X83500Y302500D02*
D03*
Y316000D02*
D03*
M02*
