M48
;Layer_Color=9474304
;FILE_FORMAT=2:5
INCH,LZ
;TYPE=PLATED
T1F00S00C0.02756
T2F00S00C0.02800
T3F00S00C0.04331
T4F00S00C0.05906
T5F00S00C0.06299
T6F00S00C0.08000
%
T01
X0052201Y03115
X00585
X005535Y0316224
X006165
X0064799Y03115
T02
X0134125Y0034125
X01935Y00315
X0192Y00235
X02625Y0147
X0277Y0192
X02415Y021
X019Y0194
X01905Y0182086
X0184Y01875
X0136Y0111
X011875Y0107
X01195Y0116
X0119Y01235
X00985Y01085
X0086Y01275
X0079Y0132
X0073Y01635
X0062Y01585
Y0109
Y0101
X0081Y0081375
X00855Y007
X01085Y006
X0124Y00905
X018Y00605
X00125Y01835
X-0014Y01715
X0045Y02675
X00535Y0262
X00485Y02815
X00835Y03025
Y0316
X0098Y0268
X0106Y0267
X0115Y0261
X0123Y02725
X01505Y02765
X015Y0265
X0162Y02595
X01735Y0249
X01935Y02375
Y0227
X01895Y02675
X015585Y033085
X0097Y0253
X0085Y02535
X0076Y0241
X0079Y0222
X0106Y0239
X0227Y0233
X0225Y02255
X0242Y0219
X0225Y02645
X0242Y0307
X02425Y03245
X02523Y03428
T03
X0018Y0023
Y0033
Y0043
Y0053
X00335
Y0043
Y0033
Y0023
X0124Y00225
Y00125
X0134
Y00225
X0144
Y00125
X02235Y0023
Y0033
Y0043
Y0053
X0238
Y0043
Y0033
Y0023
Y0063
Y0073
Y0083
Y0093
Y0107
Y0117
Y0127
Y0137
Y0147
Y0157
Y0167
Y0177
Y0187
Y0197
X02235
Y0187
Y0177
Y0167
Y0157
Y0147
Y0137
Y0127
Y0117
Y0107
Y0093
Y0083
Y0073
Y0063
X00335
Y0073
X0018
Y0063
Y0093
Y0103
Y0113
Y0123
Y0133
Y0143
Y0153
Y0163
X00335
Y0153
Y0143
Y0133
Y0123
Y0113
Y0103
Y0093
X0097Y0306
X0107
X0117
X0119Y03375
X0129
X0109
X01495Y0292
X01595
X01695
T04
X-0006Y0321
X0008Y03355
T05
X0184996Y030672
X02035Y0295
Y03185
T06
X0043933Y0315043
Y0333744
X0073067
Y0315043
M30
