G04*
G04 #@! TF.GenerationSoftware,Altium Limited,Altium Designer,19.1.7 (138)*
G04*
G04 Layer_Color=16711935*
%FSLAX25Y25*%
%MOIN*%
G70*
G01*
G75*
%ADD55C,0.05556*%
%ADD56O,0.11099X0.11099*%
%ADD57C,0.11099*%
%ADD58C,0.07296*%
%ADD59C,0.10249*%
%ADD60C,0.11824*%
%ADD61C,0.07800*%
%ADD62C,0.06800*%
%ADD63C,0.05800*%
D55*
X64799Y311500D02*
D03*
X58500D02*
D03*
X52201D02*
D03*
X61650Y316224D02*
D03*
X55350D02*
D03*
D56*
X73067Y333744D02*
D03*
Y315043D02*
D03*
X43933D02*
D03*
D57*
Y333744D02*
D03*
D58*
X129000Y337500D02*
D03*
X119000D02*
D03*
X109000D02*
D03*
X169500Y292000D02*
D03*
X159500D02*
D03*
X149500D02*
D03*
X117000Y306000D02*
D03*
X107000D02*
D03*
X97000D02*
D03*
D59*
X203500Y295000D02*
D03*
Y318500D02*
D03*
X184996Y306720D02*
D03*
D60*
X8000Y335500D02*
D03*
X-6000Y321000D02*
D03*
D61*
X124000Y12500D02*
D03*
Y22500D02*
D03*
X134000Y12500D02*
D03*
Y22500D02*
D03*
X144000Y12500D02*
D03*
Y22500D02*
D03*
D62*
X223500Y23000D02*
D03*
Y33000D02*
D03*
Y43000D02*
D03*
Y53000D02*
D03*
Y63000D02*
D03*
Y73000D02*
D03*
Y83000D02*
D03*
Y93000D02*
D03*
X18000Y73000D02*
D03*
Y63000D02*
D03*
Y53000D02*
D03*
Y43000D02*
D03*
Y33000D02*
D03*
Y23000D02*
D03*
X33500Y163000D02*
D03*
Y153000D02*
D03*
Y143000D02*
D03*
Y133000D02*
D03*
Y123000D02*
D03*
Y113000D02*
D03*
Y103000D02*
D03*
Y93000D02*
D03*
Y73000D02*
D03*
Y63000D02*
D03*
Y53000D02*
D03*
Y43000D02*
D03*
Y33000D02*
D03*
Y23000D02*
D03*
X223500Y107000D02*
D03*
Y117000D02*
D03*
Y127000D02*
D03*
Y137000D02*
D03*
Y147000D02*
D03*
Y157000D02*
D03*
Y167000D02*
D03*
Y177000D02*
D03*
Y187000D02*
D03*
Y197000D02*
D03*
X238000Y107000D02*
D03*
Y117000D02*
D03*
Y127000D02*
D03*
Y137000D02*
D03*
Y147000D02*
D03*
Y157000D02*
D03*
Y167000D02*
D03*
Y177000D02*
D03*
Y187000D02*
D03*
Y197000D02*
D03*
X18000Y163000D02*
D03*
Y153000D02*
D03*
Y143000D02*
D03*
Y133000D02*
D03*
Y123000D02*
D03*
Y113000D02*
D03*
Y103000D02*
D03*
Y93000D02*
D03*
X238000Y23000D02*
D03*
Y33000D02*
D03*
Y43000D02*
D03*
Y53000D02*
D03*
Y63000D02*
D03*
Y73000D02*
D03*
Y83000D02*
D03*
Y93000D02*
D03*
D63*
X79000Y132000D02*
D03*
X190000Y194000D02*
D03*
X190500Y182086D02*
D03*
X119500Y116000D02*
D03*
X119000Y123500D02*
D03*
X62000Y101000D02*
D03*
Y109000D02*
D03*
X155850Y330850D02*
D03*
X225000Y225500D02*
D03*
X277000Y192000D02*
D03*
X262500Y147000D02*
D03*
X53500Y262000D02*
D03*
X48500Y281500D02*
D03*
X45000Y267500D02*
D03*
X-14000Y171500D02*
D03*
X241500Y210000D02*
D03*
X242000Y219000D02*
D03*
X227000Y233000D02*
D03*
X85000Y253500D02*
D03*
X79000Y222000D02*
D03*
X97000Y253000D02*
D03*
X85500Y70000D02*
D03*
X81000Y81375D02*
D03*
X86000Y127500D02*
D03*
X150000Y265000D02*
D03*
X162000Y259500D02*
D03*
X115000Y261000D02*
D03*
X150500Y276500D02*
D03*
X73000Y163500D02*
D03*
X184000Y187500D02*
D03*
X118750Y107000D02*
D03*
X12500Y183500D02*
D03*
X106000Y267000D02*
D03*
X98000Y268000D02*
D03*
X136000Y111000D02*
D03*
X225000Y264500D02*
D03*
X189500Y267500D02*
D03*
X252300Y342800D02*
D03*
X242000Y307000D02*
D03*
X242500Y324500D02*
D03*
X134125Y34125D02*
D03*
X193500Y31500D02*
D03*
X192000Y23500D02*
D03*
X98500Y108500D02*
D03*
X180000Y60500D02*
D03*
X108500Y60000D02*
D03*
X193500Y237500D02*
D03*
Y227000D02*
D03*
X124000Y90500D02*
D03*
X62000Y158500D02*
D03*
X76000Y241000D02*
D03*
X106000Y239000D02*
D03*
X123000Y272500D02*
D03*
X173500Y249000D02*
D03*
X83500Y302500D02*
D03*
Y316000D02*
D03*
M02*
