G04*
G04 #@! TF.GenerationSoftware,Altium Limited,Altium Designer,19.1.7 (138)*
G04*
G04 Layer_Color=255*
%FSLAX25Y25*%
%MOIN*%
G70*
G01*
G75*
%ADD66C,0.04756*%
%ADD67O,0.10299X0.10299*%
%ADD68C,0.10299*%
%ADD69C,0.06496*%
%ADD70C,0.09449*%
%ADD71C,0.11024*%
%ADD72C,0.07000*%
%ADD73C,0.06000*%
D66*
X64799Y311500D02*
D03*
X58500D02*
D03*
X52201D02*
D03*
X61650Y316224D02*
D03*
X55350D02*
D03*
D67*
X73067Y333744D02*
D03*
Y315043D02*
D03*
X43933D02*
D03*
D68*
Y333744D02*
D03*
D69*
X129000Y337500D02*
D03*
X119000D02*
D03*
X109000D02*
D03*
X169500Y292000D02*
D03*
X159500D02*
D03*
X149500D02*
D03*
X117000Y306000D02*
D03*
X107000D02*
D03*
X97000D02*
D03*
D70*
X203500Y295000D02*
D03*
Y318500D02*
D03*
X184996Y306720D02*
D03*
D71*
X8000Y335500D02*
D03*
X-6000Y321000D02*
D03*
D72*
X124000Y12500D02*
D03*
Y22500D02*
D03*
X134000Y12500D02*
D03*
Y22500D02*
D03*
X144000Y12500D02*
D03*
Y22500D02*
D03*
D73*
X223500Y23000D02*
D03*
Y33000D02*
D03*
Y43000D02*
D03*
Y53000D02*
D03*
Y63000D02*
D03*
Y73000D02*
D03*
Y83000D02*
D03*
Y93000D02*
D03*
X18000Y73000D02*
D03*
Y63000D02*
D03*
Y53000D02*
D03*
Y43000D02*
D03*
Y33000D02*
D03*
Y23000D02*
D03*
X33500Y163000D02*
D03*
Y153000D02*
D03*
Y143000D02*
D03*
Y133000D02*
D03*
Y123000D02*
D03*
Y113000D02*
D03*
Y103000D02*
D03*
Y93000D02*
D03*
Y73000D02*
D03*
Y63000D02*
D03*
Y53000D02*
D03*
Y43000D02*
D03*
Y33000D02*
D03*
Y23000D02*
D03*
X223500Y107000D02*
D03*
Y117000D02*
D03*
Y127000D02*
D03*
Y137000D02*
D03*
Y147000D02*
D03*
Y157000D02*
D03*
Y167000D02*
D03*
Y177000D02*
D03*
Y187000D02*
D03*
Y197000D02*
D03*
X238000Y107000D02*
D03*
Y117000D02*
D03*
Y127000D02*
D03*
Y137000D02*
D03*
Y147000D02*
D03*
Y157000D02*
D03*
Y167000D02*
D03*
Y177000D02*
D03*
Y187000D02*
D03*
Y197000D02*
D03*
X18000Y163000D02*
D03*
Y153000D02*
D03*
Y143000D02*
D03*
Y133000D02*
D03*
Y123000D02*
D03*
Y113000D02*
D03*
Y103000D02*
D03*
Y93000D02*
D03*
X238000Y23000D02*
D03*
Y33000D02*
D03*
Y43000D02*
D03*
Y53000D02*
D03*
Y63000D02*
D03*
Y73000D02*
D03*
Y83000D02*
D03*
Y93000D02*
D03*
M02*
