G04*
G04 #@! TF.GenerationSoftware,Altium Limited,Altium Designer,19.1.7 (138)*
G04*
G04 Layer_Physical_Order=1*
G04 Layer_Color=255*
%FSLAX25Y25*%
%MOIN*%
G70*
G01*
G75*
%ADD10C,0.01000*%
%ADD13C,0.00600*%
%ADD17R,0.04400X0.07100*%
%ADD18R,0.02200X0.07800*%
%ADD19R,0.05906X0.03937*%
%ADD20R,0.05787X0.01181*%
%ADD21R,0.05709X0.01181*%
%ADD22R,0.07100X0.04400*%
%ADD23R,0.01370X0.05500*%
%ADD24R,0.13386X0.07480*%
%ADD25R,0.07874X0.05512*%
%ADD26R,0.04724X0.05512*%
%ADD27R,0.05500X0.06300*%
%ADD28R,0.02756X0.02000*%
%ADD29R,0.06300X0.05500*%
%ADD30R,0.12200X0.06300*%
%ADD31R,0.03300X0.06300*%
%ADD32R,0.22047X0.08268*%
%ADD33R,0.05800X0.02000*%
%ADD34R,0.02000X0.05800*%
%ADD35R,0.06693X0.07480*%
%ADD64C,0.02000*%
%ADD65C,0.01500*%
%ADD66C,0.04756*%
%ADD67O,0.10299X0.10299*%
%ADD68C,0.10299*%
%ADD69C,0.06496*%
%ADD70C,0.09449*%
%ADD71C,0.11024*%
%ADD72C,0.07000*%
%ADD73C,0.06000*%
%ADD74C,0.05000*%
D10*
X65500Y33000D02*
Y82500D01*
X55407Y22907D02*
X65500Y33000D01*
X33593Y22907D02*
X55407D01*
X146000Y141500D02*
Y145500D01*
X143500Y139000D02*
X146000Y141500D01*
X141000Y139000D02*
X143500D01*
X120000Y133407D02*
Y136000D01*
X114000Y142000D02*
X120000Y136000D01*
X109172Y142000D02*
X114000D01*
X117000Y132507D02*
Y136000D01*
X113500Y139500D02*
X117000Y136000D01*
X109500Y139500D02*
X113500D01*
X57500Y87500D02*
X109500Y139500D01*
X114175Y268000D02*
X130200D01*
X108634Y262459D02*
X114175Y268000D01*
X216500Y194000D02*
X219500Y197000D01*
X190000Y194000D02*
X216500D01*
X45727Y266773D02*
X50273D01*
X45000Y261500D02*
X50273Y266773D01*
X45000Y236500D02*
Y261500D01*
X65801Y268301D02*
Y273035D01*
X48500Y251000D02*
X65801Y268301D01*
X48500Y241500D02*
Y251000D01*
X43200Y296200D02*
X58500Y311500D01*
X43200Y295000D02*
Y296200D01*
X219500Y197000D02*
X223500D01*
X193407Y237407D02*
X193500Y237500D01*
X33500Y23000D02*
X33593Y22907D01*
X119407Y115907D02*
X119500Y116000D01*
X123500Y100307D02*
Y124500D01*
X123300Y100107D02*
X123500Y100307D01*
Y124500D02*
X126500Y127500D01*
X118593Y115907D02*
X119407D01*
X116593Y117907D02*
X118593Y115907D01*
X116507Y121007D02*
X119000Y123500D01*
X111800Y117907D02*
X116593D01*
X111800Y121007D02*
X116507D01*
X262500Y167000D02*
X267000Y171500D01*
X262500Y155000D02*
Y167000D01*
X274300Y155500D02*
Y167000D01*
X52724Y277276D02*
X56148D01*
X48500Y281500D02*
X52724Y277276D01*
X56270Y273035D02*
X56648D01*
X50385Y266773D02*
X55770Y272158D01*
Y272535D01*
X45000Y267500D02*
X45727Y266773D01*
X53500Y262000D02*
X59000D01*
X55770Y272535D02*
X56270Y273035D01*
X56148Y277276D02*
X56648Y276776D01*
X225949Y213200D02*
X234800D01*
X125500Y157300D02*
X135500D01*
X79500Y222000D02*
X85500Y228000D01*
X79000Y222000D02*
X79500D01*
X79000D02*
Y223191D01*
X80484Y224675D01*
Y231606D01*
X85500Y228000D02*
Y231504D01*
X100957Y256957D02*
Y260394D01*
X97000Y253000D02*
X100957Y256957D01*
X90905Y234789D02*
X95117Y239000D01*
X90905Y231791D02*
Y234789D01*
X76000Y86000D02*
X98500Y108500D01*
X76000Y55500D02*
Y86000D01*
Y55500D02*
X94500Y37000D01*
X85500Y70000D02*
Y85028D01*
Y53500D02*
Y70000D01*
X81000Y54000D02*
Y81375D01*
Y83628D01*
Y54000D02*
X95500Y39500D01*
X81000Y83628D02*
X108479Y111107D01*
X85500Y85028D02*
X108379Y107907D01*
X85500Y53500D02*
X96500Y42500D01*
X209000Y23000D02*
X223500D01*
X192500Y39500D02*
X209000Y23000D01*
X95500Y39500D02*
X192500D01*
X53875Y163500D02*
X73000D01*
X33500Y143125D02*
X53875Y163500D01*
X73000D02*
Y182750D01*
X108836Y218586D01*
X202476D01*
X184000Y187500D02*
X223000D01*
X223500Y187000D01*
X106000Y267000D02*
X106075Y266925D01*
Y260394D02*
Y266925D01*
X108634Y260394D02*
Y262459D01*
X98000Y266000D02*
Y268000D01*
X91400Y270894D02*
X93279Y269015D01*
Y260394D02*
Y269015D01*
X274884Y306116D02*
X277146Y303854D01*
Y265299D02*
Y303854D01*
X235000Y244300D02*
X248469D01*
X256870Y252701D01*
X256370D02*
X257354D01*
X263923Y306116D02*
X274884D01*
X258839Y311201D02*
X263923Y306116D01*
X257854Y311201D02*
X258839D01*
X234500Y283500D02*
Y291500D01*
X235000Y283000D02*
X248500D01*
X234500Y283500D02*
X235000Y283000D01*
X248500D02*
X255008Y276492D01*
X268000D01*
X265000Y182500D02*
X267000Y180500D01*
X257339Y182500D02*
X265000D01*
X267000Y171500D02*
Y180500D01*
X262000Y206800D02*
X262600Y206200D01*
X257453Y178449D02*
X257531D01*
X257582Y178500D01*
X257339Y178563D02*
X257453Y178449D01*
X193500Y45500D02*
X196000Y43000D01*
X97000Y45500D02*
X193500D01*
X196000Y43000D02*
X223500D01*
X193000Y48500D02*
X197500Y53000D01*
X97500Y48500D02*
X193000D01*
X197500Y53000D02*
X223500D01*
X192500Y51500D02*
X204500Y63500D01*
X97500Y51500D02*
X192500D01*
X204500Y63500D02*
X223000D01*
X193500Y42500D02*
X203500Y32500D01*
X96500Y42500D02*
X193500D01*
X203500Y32500D02*
X223000D01*
X170500Y117000D02*
X223500D01*
X169593Y117907D02*
X170500Y117000D01*
X144200Y117907D02*
X169593D01*
X168507Y121007D02*
X174500Y127000D01*
X144200Y121007D02*
X168507D01*
X174500Y127000D02*
X223500D01*
X166207Y124207D02*
X179000Y137000D01*
X144200Y124207D02*
X166207D01*
X179000Y137000D02*
X223500D01*
X131250Y37000D02*
X134125Y34125D01*
X94500Y37000D02*
X131250D01*
X191500Y29500D02*
X193500Y31500D01*
X131000Y29500D02*
X191500D01*
X124000Y22500D02*
X131000Y29500D01*
X89593Y52907D02*
X97000Y45500D01*
X191500Y23000D02*
X192000Y23500D01*
X144500Y23000D02*
X191500D01*
X144000Y22500D02*
X144500Y23000D01*
X33500Y143000D02*
Y143125D01*
X98500Y108500D02*
X104707Y114707D01*
X111800D01*
X53500Y43000D02*
X61500Y51000D01*
X33500Y43000D02*
X53500D01*
X61500Y51000D02*
Y84328D01*
X111653Y124354D02*
X111800Y124207D01*
X55000Y33000D02*
X63500Y41500D01*
X33500Y33000D02*
X55000D01*
X63500Y41500D02*
Y83500D01*
X180000Y60500D02*
X180500Y61000D01*
X170500Y60500D02*
X180000D01*
X108500Y60000D02*
X118000D01*
X163500Y66650D02*
Y74500D01*
X162000Y76000D02*
X163500Y74500D01*
X158700Y61850D02*
X163500Y66650D01*
X158700Y60500D02*
Y61850D01*
X158200Y60000D02*
X158700Y60500D01*
X149300Y60000D02*
X158200D01*
X129800D02*
X137500D01*
X124598Y66552D02*
X129800Y61350D01*
Y60000D02*
Y61350D01*
X124598Y66552D02*
Y76000D01*
X162000D02*
Y83000D01*
X157000Y88000D02*
X162000Y83000D01*
X143500Y88000D02*
X157000D01*
X139000Y92500D02*
X143500Y88000D01*
X139000Y92500D02*
Y100107D01*
X125500Y76902D02*
Y82000D01*
X124598Y76000D02*
X125500Y76902D01*
Y82000D02*
X135900Y92400D01*
Y100107D01*
X181000Y236200D02*
X182207Y237407D01*
X193407D01*
X181300Y227000D02*
X193500D01*
X181000Y236200D02*
Y237500D01*
X202476Y218586D02*
X205323Y221432D01*
Y221826D02*
Y250826D01*
Y221432D02*
Y221826D01*
X124000Y90500D02*
Y91000D01*
X127500Y94500D01*
X129207Y96207D02*
Y99714D01*
X127500Y94500D02*
X129207Y96207D01*
X125000Y94500D02*
X127500D01*
X123300Y96200D02*
X125000Y94500D01*
X123300Y96200D02*
Y100107D01*
X129207Y99714D02*
X129600Y100107D01*
X126500Y127500D02*
Y132407D01*
X126400Y132507D02*
X126500Y132407D01*
X121000Y157000D02*
X125200D01*
X125500Y157300D01*
X117000Y153000D02*
X121000Y157000D01*
X117000Y146000D02*
Y153000D01*
Y146000D02*
X126093Y136907D01*
Y132814D02*
Y136907D01*
Y132814D02*
X126400Y132507D01*
X126000Y157800D02*
Y164000D01*
X125500Y157300D02*
X126000Y157800D01*
Y164000D02*
X128600Y166600D01*
Y172000D01*
X140400D02*
X141000Y171400D01*
Y167000D02*
Y171400D01*
Y167000D02*
X146000Y162000D01*
Y157300D02*
Y162000D01*
X175500Y151500D02*
X201000Y177000D01*
X223500D01*
X132850Y151500D02*
X175500D01*
X126850Y145500D02*
X132850Y151500D01*
X125500Y145500D02*
X126850D01*
X175500D02*
X187000Y157000D01*
X223500D01*
X146000Y145500D02*
X175500D01*
X163307Y127307D02*
X183000Y147000D01*
X223500D01*
X144200Y127307D02*
X163307D01*
X175000Y107000D02*
X223500D01*
X167293Y114707D02*
X175000Y107000D01*
X144200Y114707D02*
X167293D01*
X183500Y93000D02*
X223500D01*
X164893Y111607D02*
X183500Y93000D01*
X144200Y111607D02*
X164893D01*
X188000Y83000D02*
X223500D01*
X162593Y108407D02*
X188000Y83000D01*
X144200Y108407D02*
X162593D01*
X193914Y72914D02*
X194000Y73000D01*
X193086Y72914D02*
X193914D01*
X194000Y73000D02*
X223500D01*
X160693Y105307D02*
X193086Y72914D01*
X144200Y105307D02*
X160693D01*
X223000Y63500D02*
X223500Y63000D01*
X94000Y55000D02*
X97500Y51500D01*
X94000Y55000D02*
Y83500D01*
X101000Y90500D01*
X115328D01*
X120100Y95272D01*
Y100107D01*
X92000Y54000D02*
X97500Y48500D01*
X92000Y54000D02*
Y84579D01*
X100211Y92789D01*
X114789D01*
X117000Y95000D01*
Y100107D01*
X89593Y52907D02*
Y85000D01*
X109900Y105307D01*
X111800D01*
X223000Y32500D02*
X223500Y33000D01*
X108379Y107907D02*
X111300D01*
X111800Y108407D01*
X108479Y111107D02*
X111300D01*
X111800Y111607D01*
X50000Y73000D02*
X55500Y78500D01*
X33500Y73000D02*
X50000D01*
X55500Y78500D02*
Y88328D01*
X109172Y142000D01*
X57500Y69000D02*
Y87500D01*
X51500Y63000D02*
X57500Y69000D01*
X33500Y63000D02*
X51500D01*
X33500Y53000D02*
X53500D01*
X59500Y59000D01*
Y85614D01*
X101193Y127307D01*
X111386Y124207D02*
X111593Y124000D01*
X61500Y84328D02*
X101379Y124207D01*
X111386D01*
X65500Y82500D02*
X100907Y117907D01*
X63500Y83500D02*
X101007Y121007D01*
X100907Y117907D02*
X111800D01*
X101007Y121007D02*
X111800D01*
X101193Y127307D02*
X111800D01*
X120000Y133407D02*
X120500Y132907D01*
X111593Y124000D02*
X111800Y124207D01*
X181000Y237500D02*
Y238300D01*
X182700Y240000D01*
X120100Y132507D02*
X120500Y132907D01*
X139000Y137000D02*
X141000Y139000D01*
X139000Y132507D02*
Y137000D01*
X125500Y142000D02*
Y145500D01*
Y142000D02*
X129600Y137900D01*
Y132507D02*
Y137900D01*
X102000Y266048D02*
Y270157D01*
X100957Y265005D02*
X102000Y266048D01*
X100957Y271200D02*
X102000Y270157D01*
X82858Y231791D02*
Y234789D01*
X76647Y241000D02*
X82858Y234789D01*
X63700Y241000D02*
X76647D01*
X62000Y242700D02*
X63700Y241000D01*
X48500Y241500D02*
X53500Y236500D01*
X76029D01*
X144500Y237500D02*
X146000Y236000D01*
X133400Y237500D02*
X144500D01*
X133400Y247000D02*
X146000D01*
X220563Y218586D02*
X225949Y213200D01*
X220169Y218586D02*
X220563D01*
X217323Y221432D02*
X220169Y218586D01*
X217323Y221432D02*
Y221826D01*
Y250826D01*
X200200Y266000D02*
X213500D01*
X217323Y262177D01*
Y250826D02*
Y262177D01*
X185100Y281100D02*
X200200Y266000D01*
X185100Y281100D02*
Y281500D01*
X100500Y239000D02*
X106000D01*
X203997Y249500D02*
X205323Y250826D01*
X192300Y249500D02*
X203997D01*
X192300D02*
Y259000D01*
X180000Y249000D02*
X180500Y249500D01*
X173500Y249000D02*
X180000D01*
X123000Y272500D02*
X123765Y273265D01*
X126615D01*
X130000Y276650D01*
Y278000D01*
X98000Y266000D02*
X98398Y265602D01*
X100957Y271200D02*
Y279957D01*
Y260394D02*
Y265005D01*
X98398Y260394D02*
Y265602D01*
X45000Y236500D02*
X53500Y228000D01*
X74914D01*
X75500Y228586D01*
Y231472D01*
X75366Y231606D02*
X75500Y231472D01*
X76029Y236500D02*
X77740Y234789D01*
Y231791D02*
Y234789D01*
Y231791D02*
X77925Y231606D01*
X97808Y239000D02*
X100500D01*
X95117D02*
X97808D01*
X100952Y235856D01*
Y231611D02*
Y235856D01*
Y231611D02*
X100957Y231606D01*
X103516D02*
Y235984D01*
X100500Y239000D02*
X103516Y235984D01*
X90720Y231606D02*
X90905Y231791D01*
X85500Y231504D02*
X85602Y231606D01*
X117500Y237500D02*
X121600D01*
X116500Y236500D02*
X117500Y237500D01*
X116500Y227000D02*
Y236500D01*
X112500Y223000D02*
X116500Y227000D01*
X96000Y223000D02*
X112500D01*
X93279Y225721D02*
X96000Y223000D01*
X93279Y225721D02*
Y231606D01*
X117500Y247000D02*
X121600D01*
X114000Y243500D02*
X117500Y247000D01*
X114000Y228000D02*
Y243500D01*
X111500Y225500D02*
X114000Y228000D01*
X97500Y225500D02*
X111500D01*
X95839Y227161D02*
X97500Y225500D01*
X95839Y227161D02*
Y231606D01*
X82858Y231791D02*
X83043Y231606D01*
X91400Y270894D02*
Y278800D01*
X89700Y280500D02*
X91400Y278800D01*
X100957Y279957D02*
X101500Y280500D01*
X119800D02*
Y286200D01*
X116500Y289500D02*
X119800Y286200D01*
X110900Y289500D02*
X116500D01*
X101500Y280500D02*
X108000D01*
X90000Y286000D02*
X93500Y289500D01*
X99100D01*
X90000Y280800D02*
Y286000D01*
X89700Y280500D02*
X90000Y280800D01*
X82150Y302500D02*
X83500D01*
X76000Y296350D02*
X82150Y302500D01*
X63200Y295000D02*
X65801Y292399D01*
Y280516D02*
Y292399D01*
X76000Y295000D02*
Y296350D01*
X76500Y323000D02*
X83500Y316000D01*
X68425Y323000D02*
X76500D01*
X61650Y316224D02*
X68425Y323000D01*
X56648Y280516D02*
Y293352D01*
X55000Y295000D02*
X56648Y293352D01*
X196900Y281500D02*
X210000D01*
X184996Y281604D02*
Y306720D01*
Y281604D02*
X185100Y281500D01*
X133600Y294500D02*
X138000D01*
X133000Y295100D02*
X133600Y294500D01*
X138000D02*
X142450Y298950D01*
Y301300D01*
X144150Y303000D01*
X145500D01*
X138000Y316500D02*
Y322400D01*
X137900Y322500D02*
X138000Y322400D01*
X133000Y311500D02*
X138000Y316500D01*
X133000Y306900D02*
Y311500D01*
X145000Y325000D02*
Y330700D01*
X142500Y322500D02*
X145000Y325000D01*
X137900Y322500D02*
X142500D01*
X114500D02*
X126100D01*
D13*
X79000Y126500D02*
Y132000D01*
X62000Y109500D02*
X79000Y126500D01*
X248914Y182086D02*
X252437Y178563D01*
X190500Y182086D02*
X248914D01*
X253545Y186455D02*
X257320D01*
X252500Y187500D02*
X253545Y186455D01*
X252500Y187500D02*
Y206937D01*
X252031Y184468D02*
X257339D01*
X250500Y186000D02*
X252031Y184468D01*
X250500Y186000D02*
Y206000D01*
X252969Y180532D02*
X257339D01*
X241500Y192000D02*
X252969Y180532D01*
X228500Y192000D02*
X241500D01*
X252437Y178563D02*
X257339D01*
X223500Y187000D02*
X228500Y192000D01*
X221569Y250826D02*
X226410Y255666D01*
Y256760D01*
X233150Y263500D01*
X234500D01*
X217323Y250826D02*
X221569D01*
X254186Y263631D02*
X255854Y265299D01*
X234631Y263631D02*
X254186D01*
X234500Y263500D02*
X234631Y263631D01*
X62000Y102500D02*
X86000Y126500D01*
X62000Y101000D02*
Y102500D01*
Y109000D02*
Y109500D01*
X155700Y330700D02*
X156000Y331000D01*
X145000Y330700D02*
X155700D01*
X234500Y213500D02*
X234800Y213200D01*
X235937Y212063D01*
X279500Y181500D02*
Y189500D01*
X277000Y192000D02*
X279500Y189500D01*
X277000Y192000D02*
Y203000D01*
X277500Y203500D01*
X277000Y204000D02*
X277500Y203500D01*
X273600Y153600D02*
X275500Y155500D01*
X277000Y204000D02*
Y206800D01*
X274661Y186437D02*
X274739Y186359D01*
X-14000Y171500D02*
Y172500D01*
X-18000Y176500D02*
X-14000Y172500D01*
X246500Y210000D02*
X250500Y206000D01*
X241500Y210000D02*
X246500D01*
X242000Y217437D02*
X252500Y206937D01*
X242000Y217437D02*
Y219000D01*
X227000Y233000D02*
X234500D01*
X235000Y232500D01*
X85000Y253500D02*
X89100D01*
X92895Y257294D01*
Y260009D01*
X93279Y260394D01*
X-18000Y176500D02*
Y211000D01*
X18500Y206000D02*
Y208000D01*
X19000Y208500D01*
X16500Y204000D02*
X18500Y206000D01*
X-5862Y204000D02*
X16500D01*
X-11161Y209299D02*
X-5862Y204000D01*
X-12146Y209299D02*
X-11161D01*
X19000Y232000D02*
Y234500D01*
X17500Y230500D02*
X19000Y232000D01*
X-6362Y230500D02*
X17500D01*
X-11161Y235299D02*
X-6362Y230500D01*
X-12146Y235299D02*
X-11161D01*
X18500Y256500D02*
Y258800D01*
X19000Y259300D01*
X17500Y255500D02*
X18500Y256500D01*
X-6417Y255500D02*
X17500D01*
X-11516Y260598D02*
X-6417Y255500D01*
X-12500Y260598D02*
X-11516D01*
X19500Y283500D02*
Y285800D01*
X18000Y282000D02*
X19500Y283500D01*
X-7362Y282000D02*
X18000D01*
X-11661Y286299D02*
X-7362Y282000D01*
X-12646Y286299D02*
X-11661D01*
X86000Y126500D02*
Y127500D01*
X150500Y276500D02*
X151000Y276000D01*
X149000Y278000D02*
X150500Y276500D01*
X161250Y260250D02*
X162000Y259500D01*
X115750Y260250D02*
X161250D01*
X115000Y261000D02*
X115750Y260250D01*
X147000Y268000D02*
X150000Y265000D01*
X142000Y268000D02*
X147000D01*
X141800Y278000D02*
X149000D01*
X118500Y107000D02*
X118750D01*
X116807Y105307D02*
X118500Y107000D01*
X111800Y105307D02*
X116807D01*
X3800Y183500D02*
X12500D01*
X-12146Y188996D02*
Y196701D01*
Y188996D02*
X-8000Y184850D01*
Y183500D02*
Y184850D01*
X7500Y209653D02*
Y214500D01*
X7146Y209299D02*
X7500Y209653D01*
X5500Y216500D02*
X7500Y214500D01*
X-10000Y216500D02*
X5500D01*
X-12146Y218646D02*
X-10000Y216500D01*
X-12146Y218646D02*
Y222701D01*
X7000Y235445D02*
Y240500D01*
Y235445D02*
X7146Y235299D01*
X5500Y242000D02*
X7000Y240500D01*
X-11000Y242000D02*
X5500D01*
X-12500Y243500D02*
X-11000Y242000D01*
X-12500Y243500D02*
Y248000D01*
X6791Y260598D02*
Y264209D01*
X4000Y267000D02*
X6791Y264209D01*
X-10000Y267000D02*
X4000D01*
X-12646Y269646D02*
X-10000Y267000D01*
X-12646Y269646D02*
Y273701D01*
X-16500Y285500D02*
X-13445D01*
X-18000Y284000D02*
X-16500Y285500D01*
X-18000Y259000D02*
Y284000D01*
X-13445Y285500D02*
X-12646Y286299D01*
X-16249Y209248D02*
X-12196D01*
X-12146Y209299D01*
X-18000Y211000D02*
X-16249Y209248D01*
X-18000Y211000D02*
Y236500D01*
Y259000D02*
X-16402Y260598D01*
X-12500D01*
X-18000Y236500D02*
Y259000D01*
Y236500D02*
X-16799Y235299D01*
X-12146D01*
X245200Y342800D02*
X252300D01*
X255854Y323799D02*
Y332146D01*
X245200Y342800D02*
X255854Y332146D01*
X234500Y342800D02*
X245200D01*
X256370Y265299D02*
X257354D01*
X259492Y300508D02*
X268000D01*
X242500Y317500D02*
X259492Y300508D01*
X242500Y317500D02*
Y324500D01*
X268400Y187376D02*
X271229Y184546D01*
X268400Y187376D02*
Y197100D01*
X271229Y184546D02*
X274584D01*
X262000Y203500D02*
X268400Y197100D01*
X262000Y203500D02*
Y206800D01*
X270000Y197000D02*
X277000Y204000D01*
X270000Y188203D02*
Y197000D01*
Y188203D02*
X271844Y186359D01*
X257320Y186455D02*
X257339Y186437D01*
X236096Y309404D02*
X239596D01*
X234500Y311000D02*
X236096Y309404D01*
X239596D02*
X242000Y307000D01*
X234500Y303300D02*
Y311000D01*
X274724Y186500D02*
X275000D01*
X274661Y186437D02*
X274724Y186500D01*
X271844Y186359D02*
X272000D01*
X236800Y324500D02*
X242500D01*
X234800Y322500D02*
X236800Y324500D01*
X234500Y322800D02*
X234800Y322500D01*
X279500Y177500D02*
Y181500D01*
X278500Y182500D02*
X279500Y181500D01*
X274661Y182500D02*
X278500D01*
X274300Y167000D02*
X278000D01*
X279500Y168500D01*
Y177500D01*
X278437Y178563D02*
X279500Y177500D01*
X274661Y178563D02*
X278437D01*
X274584Y184546D02*
X274661Y184468D01*
D17*
X192300Y259000D02*
D03*
X180500D02*
D03*
X3800Y183500D02*
D03*
X-8000D02*
D03*
X263700Y155500D02*
D03*
X275500D02*
D03*
X263200Y167000D02*
D03*
X275000D02*
D03*
X142000Y268000D02*
D03*
X130200D02*
D03*
X141800Y278000D02*
D03*
X130000D02*
D03*
X145200Y247000D02*
D03*
X157000D02*
D03*
X119800Y280500D02*
D03*
X108000D02*
D03*
X145200Y237500D02*
D03*
X157000D02*
D03*
X192300Y249500D02*
D03*
X180500D02*
D03*
X89700Y280500D02*
D03*
X101500D02*
D03*
X43200Y295000D02*
D03*
X55000D02*
D03*
X64200D02*
D03*
X76000D02*
D03*
X114500Y322500D02*
D03*
X102700D02*
D03*
X210000Y281500D02*
D03*
X221800D02*
D03*
X172000Y307500D02*
D03*
X160200D02*
D03*
X169200Y237500D02*
D03*
X181000D02*
D03*
X158700Y60500D02*
D03*
X170500D02*
D03*
X169500Y227000D02*
D03*
X181300D02*
D03*
X129800Y60000D02*
D03*
X118000D02*
D03*
X137500D02*
D03*
X149300D02*
D03*
D18*
X262000Y226200D02*
D03*
X267000D02*
D03*
X272000D02*
D03*
X277000D02*
D03*
Y206800D02*
D03*
X272000D02*
D03*
X267000D02*
D03*
X262000D02*
D03*
D19*
X275146Y265299D02*
D03*
Y252701D02*
D03*
X255854D02*
D03*
Y265299D02*
D03*
X6646Y286299D02*
D03*
Y273701D02*
D03*
X-12646D02*
D03*
Y286299D02*
D03*
X6791Y260598D02*
D03*
Y248000D02*
D03*
X-12500D02*
D03*
Y260598D02*
D03*
X7146Y235299D02*
D03*
Y222701D02*
D03*
X-12146D02*
D03*
Y235299D02*
D03*
X7146Y209299D02*
D03*
Y196701D02*
D03*
X-12146D02*
D03*
Y209299D02*
D03*
X275146Y323799D02*
D03*
Y311201D02*
D03*
X255854D02*
D03*
Y323799D02*
D03*
D20*
X257339Y178563D02*
D03*
Y180532D02*
D03*
Y182500D02*
D03*
Y184468D02*
D03*
Y186437D02*
D03*
X274661D02*
D03*
Y184468D02*
D03*
Y182500D02*
D03*
Y180532D02*
D03*
D21*
Y178563D02*
D03*
D22*
X146000Y157300D02*
D03*
Y145500D02*
D03*
X145000Y330700D02*
D03*
Y342500D02*
D03*
X19000Y196700D02*
D03*
Y208500D02*
D03*
Y222700D02*
D03*
Y234500D02*
D03*
Y247500D02*
D03*
Y259300D02*
D03*
X19500Y274000D02*
D03*
Y285800D02*
D03*
X235000Y244300D02*
D03*
Y232500D02*
D03*
X233000Y225000D02*
D03*
Y213200D02*
D03*
X234500Y251700D02*
D03*
Y263500D02*
D03*
Y331000D02*
D03*
Y342800D02*
D03*
Y303300D02*
D03*
Y291500D02*
D03*
Y271700D02*
D03*
Y283500D02*
D03*
Y311000D02*
D03*
Y322800D02*
D03*
X62000Y242700D02*
D03*
Y254500D02*
D03*
X145500Y314800D02*
D03*
Y303000D02*
D03*
X125500Y145500D02*
D03*
Y157300D02*
D03*
X135500D02*
D03*
Y145500D02*
D03*
D23*
X75366Y260394D02*
D03*
X77925D02*
D03*
X80484D02*
D03*
X83043D02*
D03*
X85602D02*
D03*
X88161D02*
D03*
X90720D02*
D03*
X93279D02*
D03*
X95839D02*
D03*
X98398D02*
D03*
X100957D02*
D03*
X103516D02*
D03*
X106075D02*
D03*
X108634D02*
D03*
X75366Y231606D02*
D03*
X77925D02*
D03*
X80484D02*
D03*
X83043D02*
D03*
X85602D02*
D03*
X90720D02*
D03*
X88161D02*
D03*
X93279D02*
D03*
X95839D02*
D03*
X98398D02*
D03*
X100957D02*
D03*
X103516D02*
D03*
X106075D02*
D03*
X108634D02*
D03*
D24*
X90500Y323323D02*
D03*
Y338677D02*
D03*
D25*
X266000Y276492D02*
D03*
D26*
Y300508D02*
D03*
D27*
X133400Y247000D02*
D03*
X121600D02*
D03*
X110900Y289500D02*
D03*
X99100D02*
D03*
X133400Y237500D02*
D03*
X121600D02*
D03*
X126100Y322500D02*
D03*
X137900D02*
D03*
X196900Y281500D02*
D03*
X185100D02*
D03*
X140400Y171000D02*
D03*
X128600D02*
D03*
D28*
X65801Y280516D02*
D03*
Y276776D02*
D03*
Y273035D02*
D03*
X56648D02*
D03*
Y276776D02*
D03*
Y280516D02*
D03*
D29*
X133000Y295100D02*
D03*
Y306900D02*
D03*
D30*
X164000Y318294D02*
D03*
D31*
X154900Y343494D02*
D03*
X164000D02*
D03*
X173100D02*
D03*
D32*
X162000Y76000D02*
D03*
X124598D02*
D03*
D33*
X111800Y105307D02*
D03*
Y108407D02*
D03*
Y111607D02*
D03*
Y114707D02*
D03*
Y117907D02*
D03*
Y121007D02*
D03*
Y124207D02*
D03*
Y127307D02*
D03*
X144200D02*
D03*
Y124207D02*
D03*
Y121007D02*
D03*
X144200Y117907D02*
D03*
X144200Y114707D02*
D03*
Y111607D02*
D03*
Y108407D02*
D03*
Y105307D02*
D03*
D34*
X117000Y132507D02*
D03*
X120100D02*
D03*
X123300D02*
D03*
X126400D02*
D03*
X129600Y132507D02*
D03*
X132700Y132507D02*
D03*
X135900D02*
D03*
X139000D02*
D03*
Y100107D02*
D03*
X135900D02*
D03*
X132700D02*
D03*
X129600D02*
D03*
X126400D02*
D03*
X123300D02*
D03*
X120100D02*
D03*
X117000D02*
D03*
D35*
X217323Y250826D02*
D03*
X205323D02*
D03*
X217323Y221826D02*
D03*
X205323D02*
D03*
D64*
X145650Y343150D02*
X154900D01*
X145000Y342500D02*
X145650Y343150D01*
X229700Y271700D02*
X234500D01*
X228328Y270328D02*
X229700Y271700D01*
X160550Y300950D02*
Y307150D01*
X160200Y307500D02*
X160550Y307150D01*
Y300950D02*
X169500Y292000D01*
X173100Y308600D02*
Y343494D01*
X172000Y307500D02*
X173100Y308600D01*
X60564Y196700D02*
X88161Y224297D01*
X143500Y344000D02*
X145000Y342500D01*
X125500Y344000D02*
X143500D01*
X267862Y259000D02*
X274161Y252701D01*
X275146D01*
X243150Y259000D02*
X267862D01*
X235850Y251700D02*
X243150Y259000D01*
X234500Y251700D02*
X235850D01*
X233000Y225000D02*
X254500D01*
X225500D02*
X233000D01*
X228328Y268640D02*
Y270328D01*
X225000Y265312D02*
X228328Y268640D01*
X225000Y264500D02*
Y265312D01*
X274500Y311846D02*
Y314000D01*
Y311846D02*
X275146Y311201D01*
X159500Y292000D02*
X159850Y292350D01*
X225000Y225500D02*
X225500Y225000D01*
X254500D02*
X262100Y232600D01*
X262500Y147000D02*
Y155000D01*
X249000Y320500D02*
Y326000D01*
X244000Y331000D02*
X249000Y326000D01*
X234500Y331000D02*
X244000D01*
X118422Y252550D02*
X152800D01*
X157000Y248350D01*
X68000Y248500D02*
X83500D01*
X114372D01*
X118422Y252550D01*
X157000Y237500D02*
Y247000D01*
X38200Y196700D02*
X60564D01*
X62000Y254500D02*
X68000Y248500D01*
X83500D02*
X88161Y243839D01*
X8130Y196700D02*
X14831Y190000D01*
X8130Y196701D02*
X8130Y196700D01*
X19000D01*
X26500Y185000D02*
Y188500D01*
X25000Y190000D02*
X26500Y188500D01*
X14831Y190000D02*
X25000D01*
X7146Y196701D02*
X8130D01*
X31000Y211000D02*
Y236000D01*
Y189500D02*
Y211000D01*
X8130Y222700D02*
X14831Y216000D01*
X8130Y222701D02*
X8130Y222700D01*
X19000D01*
X26000Y216000D02*
X31000Y211000D01*
X14831Y216000D02*
X26000D01*
X7146Y222701D02*
X8130D01*
X31000Y236000D02*
Y262500D01*
X8026Y247750D02*
X14776Y241000D01*
X7776Y248000D02*
X8026Y247750D01*
X18750D01*
X26000Y241000D02*
X31000Y236000D01*
X14776Y241000D02*
X26000D01*
X6791Y248000D02*
X7776D01*
X25750Y267750D02*
X31000Y262500D01*
X13581Y267750D02*
X25750D01*
X7630Y273701D02*
X13581Y267750D01*
X6646Y273701D02*
X7630D01*
X19350Y273850D02*
X19500Y274000D01*
X6795Y273850D02*
X19350D01*
X6646Y273701D02*
X6795Y273850D01*
X18750Y247750D02*
X19000Y247500D01*
X19000Y222700D02*
X19000Y222700D01*
X19000Y196700D02*
X19000Y196700D01*
X31000Y189500D02*
X38200Y196700D01*
X26500Y185000D02*
X31000Y189500D01*
X252000Y317500D02*
X271000D01*
X249000Y320500D02*
X252000Y317500D01*
X275468Y311201D02*
X276630D01*
X271000Y317500D02*
X274500Y314000D01*
X157000Y247000D02*
X169000Y259000D01*
X135900Y110088D02*
Y119900D01*
X132700Y100107D02*
Y106888D01*
X135900Y110088D01*
X180500Y260350D02*
X187650Y267500D01*
X189500D01*
X180500Y259000D02*
Y260350D01*
X203500Y318500D02*
X204000D01*
X277100Y252655D02*
X280098Y255654D01*
Y307732D01*
X276630Y311201D02*
X280098Y307732D01*
X277100Y245500D02*
Y252655D01*
Y226300D02*
Y245500D01*
X275000D02*
X277100D01*
X262100Y232600D02*
X275000Y245500D01*
X262100Y226300D02*
Y232600D01*
X262000Y226200D02*
X262100Y226300D01*
X277000Y226200D02*
X277100Y226300D01*
X157000Y237500D02*
X169200D01*
X169350Y227150D02*
X169500Y227000D01*
X169350Y227150D02*
Y237350D01*
X169200Y237500D02*
X169350Y237350D01*
X126400Y110400D02*
X135900Y119900D01*
Y132507D01*
X126400Y100107D02*
Y110400D01*
X26500Y147500D02*
Y185000D01*
X61500Y158000D02*
X62000Y158500D01*
X26500Y147500D02*
X28406Y149406D01*
X28824D01*
X32418Y153000D01*
X33500D01*
X26500Y125500D02*
Y147500D01*
Y125500D02*
X28235Y123765D01*
X32735D01*
X33500Y123000D01*
X61500Y121000D02*
Y158000D01*
X33500Y93000D02*
X61500Y121000D01*
X135500Y145500D02*
X135900Y145100D01*
Y132507D02*
Y145100D01*
X119000Y337500D02*
X125500Y344000D01*
X169000Y259000D02*
X180500D01*
X62000Y255850D02*
X62675Y255175D01*
X62000Y256500D02*
X75500Y270000D01*
X62000Y255850D02*
Y256500D01*
X75500Y270000D02*
Y276642D01*
X97000Y298142D01*
Y306000D01*
X68654Y276776D02*
X88500Y296622D01*
X65801Y276776D02*
X68654D01*
X88500Y296622D02*
Y306950D01*
X102700Y321150D01*
X80000Y306000D02*
X90500Y316500D01*
X70299Y306000D02*
X80000D01*
X64799Y311500D02*
X70299Y306000D01*
X90500Y316500D02*
Y323323D01*
X102700Y321150D02*
Y322500D01*
X221800Y281500D02*
Y282850D01*
X211075Y293575D02*
X221800Y282850D01*
X204925Y293575D02*
X211075D01*
X203500Y295000D02*
X204925Y293575D01*
X178506Y343494D02*
X203500Y318500D01*
X173100Y343494D02*
X178506D01*
X164000Y318294D02*
Y343494D01*
X154900Y343150D02*
Y343494D01*
Y318294D02*
X162350D01*
X164000D01*
X160200Y316144D02*
X162350Y318294D01*
X160200Y307500D02*
Y316144D01*
X152050Y315444D02*
X154900Y318294D01*
X146144Y315444D02*
X152050D01*
X145500Y314800D02*
X146144Y315444D01*
X102700Y331200D02*
X109000Y337500D01*
X102700Y322500D02*
Y331200D01*
X107000Y306000D02*
X108500Y307500D01*
X117000Y306000D02*
Y307217D01*
X90500Y338677D02*
X91677Y337500D01*
X109000D01*
D65*
X88161Y224297D02*
Y231606D01*
Y243839D01*
D66*
X64799Y311500D02*
D03*
X58500D02*
D03*
X52201D02*
D03*
X61650Y316224D02*
D03*
X55350D02*
D03*
D67*
X73067Y333744D02*
D03*
Y315043D02*
D03*
X43933D02*
D03*
D68*
Y333744D02*
D03*
D69*
X129000Y337500D02*
D03*
X119000D02*
D03*
X109000D02*
D03*
X169500Y292000D02*
D03*
X159500D02*
D03*
X149500D02*
D03*
X117000Y306000D02*
D03*
X107000D02*
D03*
X97000D02*
D03*
D70*
X203500Y295000D02*
D03*
Y318500D02*
D03*
X184996Y306720D02*
D03*
D71*
X8000Y335500D02*
D03*
X-6000Y321000D02*
D03*
D72*
X124000Y12500D02*
D03*
Y22500D02*
D03*
X134000Y12500D02*
D03*
Y22500D02*
D03*
X144000Y12500D02*
D03*
Y22500D02*
D03*
D73*
X223500Y23000D02*
D03*
Y33000D02*
D03*
Y43000D02*
D03*
Y53000D02*
D03*
Y63000D02*
D03*
Y73000D02*
D03*
Y83000D02*
D03*
Y93000D02*
D03*
X18000Y73000D02*
D03*
Y63000D02*
D03*
Y53000D02*
D03*
Y43000D02*
D03*
Y33000D02*
D03*
Y23000D02*
D03*
X33500Y163000D02*
D03*
Y153000D02*
D03*
Y143000D02*
D03*
Y133000D02*
D03*
Y123000D02*
D03*
Y113000D02*
D03*
Y103000D02*
D03*
Y93000D02*
D03*
Y73000D02*
D03*
Y63000D02*
D03*
Y53000D02*
D03*
Y43000D02*
D03*
Y33000D02*
D03*
Y23000D02*
D03*
X223500Y107000D02*
D03*
Y117000D02*
D03*
Y127000D02*
D03*
Y137000D02*
D03*
Y147000D02*
D03*
Y157000D02*
D03*
Y167000D02*
D03*
Y177000D02*
D03*
Y187000D02*
D03*
Y197000D02*
D03*
X238000Y107000D02*
D03*
Y117000D02*
D03*
Y127000D02*
D03*
Y137000D02*
D03*
Y147000D02*
D03*
Y157000D02*
D03*
Y167000D02*
D03*
Y177000D02*
D03*
Y187000D02*
D03*
Y197000D02*
D03*
X18000Y163000D02*
D03*
Y153000D02*
D03*
Y143000D02*
D03*
Y133000D02*
D03*
Y123000D02*
D03*
Y113000D02*
D03*
Y103000D02*
D03*
Y93000D02*
D03*
X238000Y23000D02*
D03*
Y33000D02*
D03*
Y43000D02*
D03*
Y53000D02*
D03*
Y63000D02*
D03*
Y73000D02*
D03*
Y83000D02*
D03*
Y93000D02*
D03*
D74*
X79000Y132000D02*
D03*
X190000Y194000D02*
D03*
X190500Y182086D02*
D03*
X119500Y116000D02*
D03*
X119000Y123500D02*
D03*
X62000Y101000D02*
D03*
Y109000D02*
D03*
X155850Y330850D02*
D03*
X225000Y225500D02*
D03*
X277000Y192000D02*
D03*
X262500Y147000D02*
D03*
X53500Y262000D02*
D03*
X48500Y281500D02*
D03*
X45000Y267500D02*
D03*
X-14000Y171500D02*
D03*
X241500Y210000D02*
D03*
X242000Y219000D02*
D03*
X227000Y233000D02*
D03*
X85000Y253500D02*
D03*
X79000Y222000D02*
D03*
X97000Y253000D02*
D03*
X85500Y70000D02*
D03*
X81000Y81375D02*
D03*
X86000Y127500D02*
D03*
X150000Y265000D02*
D03*
X162000Y259500D02*
D03*
X115000Y261000D02*
D03*
X150500Y276500D02*
D03*
X73000Y163500D02*
D03*
X184000Y187500D02*
D03*
X118750Y107000D02*
D03*
X12500Y183500D02*
D03*
X106000Y267000D02*
D03*
X98000Y268000D02*
D03*
X136000Y111000D02*
D03*
X225000Y264500D02*
D03*
X189500Y267500D02*
D03*
X252300Y342800D02*
D03*
X242000Y307000D02*
D03*
X242500Y324500D02*
D03*
X134125Y34125D02*
D03*
X193500Y31500D02*
D03*
X192000Y23500D02*
D03*
X98500Y108500D02*
D03*
X180000Y60500D02*
D03*
X108500Y60000D02*
D03*
X193500Y237500D02*
D03*
Y227000D02*
D03*
X124000Y90500D02*
D03*
X62000Y158500D02*
D03*
X76000Y241000D02*
D03*
X106000Y239000D02*
D03*
X123000Y272500D02*
D03*
X173500Y249000D02*
D03*
X83500Y302500D02*
D03*
Y316000D02*
D03*
M02*
