G04*
G04 #@! TF.GenerationSoftware,Altium Limited,Altium Designer,19.1.7 (138)*
G04*
G04 Layer_Color=32896*
%FSLAX25Y25*%
%MOIN*%
G70*
G01*
G75*
%ADD11C,0.00000*%
%ADD12C,0.00787*%
%ADD13C,0.00600*%
%ADD14C,0.00500*%
%ADD16C,0.00800*%
%ADD76C,0.00400*%
G36*
X97009Y336708D02*
X84008D01*
Y340440D01*
X97009D01*
Y336708D01*
D02*
G37*
G36*
X97006Y321592D02*
X84008D01*
Y325340D01*
X97006D01*
Y321592D01*
D02*
G37*
G36*
X66835Y279925D02*
X64374D01*
Y281106D01*
X66835D01*
Y279925D01*
D02*
G37*
G36*
X58075D02*
X55614D01*
Y281106D01*
X58075D01*
Y279925D01*
D02*
G37*
G36*
X66835Y276185D02*
X64374D01*
Y277366D01*
X66835D01*
Y276185D01*
D02*
G37*
G36*
X58075D02*
X55614D01*
Y277366D01*
X58075D01*
Y276185D01*
D02*
G37*
G36*
X66835Y272445D02*
X64374D01*
Y273626D01*
X66835D01*
Y272445D01*
D02*
G37*
G36*
X58075D02*
X55614D01*
Y273626D01*
X58075D01*
Y272445D01*
D02*
G37*
G36*
X109290Y257676D02*
X107994D01*
Y261369D01*
X109290D01*
Y257676D01*
D02*
G37*
G36*
X106736D02*
X105435D01*
Y261377D01*
X106736D01*
Y257676D01*
D02*
G37*
G36*
X104164D02*
X102876D01*
Y261366D01*
X104164D01*
Y257676D01*
D02*
G37*
G36*
X101601D02*
X100317D01*
Y261362D01*
X101601D01*
Y257676D01*
D02*
G37*
G36*
X99046D02*
X97758D01*
Y261374D01*
X99046D01*
Y257676D01*
D02*
G37*
G36*
X96484D02*
X95199D01*
Y261373D01*
X96484D01*
Y257676D01*
D02*
G37*
G36*
X93921D02*
X92640D01*
Y261369D01*
X93921D01*
Y257676D01*
D02*
G37*
G36*
X91360D02*
X90081D01*
Y261358D01*
X91360D01*
Y257676D01*
D02*
G37*
G36*
X88798D02*
X87522D01*
Y261367D01*
X88798D01*
Y257676D01*
D02*
G37*
G36*
X86242D02*
X84963D01*
Y261356D01*
X86242D01*
Y257676D01*
D02*
G37*
G36*
X83676D02*
X82403D01*
Y261367D01*
X83676D01*
Y257676D01*
D02*
G37*
G36*
X81112D02*
X79844D01*
Y261371D01*
X81112D01*
Y257676D01*
D02*
G37*
G36*
X78563D02*
X77285D01*
Y261357D01*
X78563D01*
Y257676D01*
D02*
G37*
G36*
X76003D02*
X74726D01*
Y261357D01*
X76003D01*
Y257676D01*
D02*
G37*
G36*
X109280Y230646D02*
X107994D01*
Y234320D01*
X109280D01*
Y230646D01*
D02*
G37*
G36*
X106737D02*
X105435D01*
Y234307D01*
X106737D01*
Y230646D01*
D02*
G37*
G36*
X104161D02*
X102876D01*
Y234319D01*
X104161D01*
Y230646D01*
D02*
G37*
G36*
X101604D02*
X100317D01*
Y234315D01*
X101604D01*
Y230646D01*
D02*
G37*
G36*
X99039D02*
X97758D01*
Y234321D01*
X99039D01*
Y230646D01*
D02*
G37*
G36*
X96482D02*
X95199D01*
Y234316D01*
X96482D01*
Y230646D01*
D02*
G37*
G36*
X93923D02*
X92640D01*
Y234305D01*
X93923D01*
Y230646D01*
D02*
G37*
G36*
X91359D02*
X90081D01*
Y234310D01*
X91359D01*
Y230646D01*
D02*
G37*
G36*
X88798D02*
X87522D01*
Y234313D01*
X88798D01*
Y230646D01*
D02*
G37*
G36*
X86236D02*
X84963D01*
Y234312D01*
X86236D01*
Y230646D01*
D02*
G37*
G36*
X83671D02*
X82403D01*
Y234307D01*
X83671D01*
Y230646D01*
D02*
G37*
G36*
X81112D02*
X79844D01*
Y234311D01*
X81112D01*
Y230646D01*
D02*
G37*
G36*
X78562D02*
X77285D01*
Y234322D01*
X78562D01*
Y230646D01*
D02*
G37*
G36*
X75996D02*
X74726D01*
Y234317D01*
X75996D01*
Y230646D01*
D02*
G37*
D11*
X259700Y215300D02*
G03*
X259700Y217700I0J1200D01*
G01*
Y215300D02*
G03*
X259700Y217700I0J1200D01*
G01*
X116100Y102507D02*
X139900D01*
X114200Y106207D02*
Y126407D01*
X119200Y130107D02*
X136800D01*
X141800Y109307D02*
Y123307D01*
X114200Y107507D02*
X119200Y102507D01*
X116100Y134007D02*
X116100Y130107D01*
X116100Y134007D02*
X117900D01*
Y130107D02*
Y134007D01*
X116100Y130107D02*
X117900D01*
X119200D02*
Y134007D01*
X121000Y134007D01*
Y130107D02*
Y134007D01*
X119200Y130107D02*
X121000D01*
X122400D02*
Y134007D01*
X124200D01*
Y130107D02*
Y134007D01*
X122400Y130107D02*
X124200Y130107D01*
X125500Y130107D02*
Y134007D01*
X127300D01*
Y130107D02*
Y134007D01*
X125500Y130107D02*
X127300Y130107D01*
X128700D02*
Y134007D01*
X130500D01*
Y130107D02*
Y134007D01*
X128700Y130107D02*
X130500D01*
X131800D02*
Y134007D01*
X133600D01*
Y130107D02*
Y134007D01*
X131800Y130107D02*
X133600Y130107D01*
X135000D02*
Y134007D01*
X136800D01*
X136800Y130107D01*
X135000D02*
X136800D01*
X138100D02*
Y134007D01*
X139900Y134007D01*
Y130107D02*
Y134007D01*
X138100Y130107D02*
X139900D01*
X141800Y128207D02*
X145700D01*
X145700Y126407D01*
X141800D02*
X145700D01*
X141800D02*
Y128207D01*
Y125107D02*
X145700Y125107D01*
Y123307D02*
Y125107D01*
X141800Y123307D02*
X145700D01*
X141800D02*
Y125107D01*
Y121907D02*
X145700D01*
Y120107D02*
Y121907D01*
X141800Y120107D02*
X145700D01*
X141800D02*
X141800Y121907D01*
X141800Y118807D02*
X145700D01*
Y117007D02*
Y118807D01*
X141800Y117007D02*
X145700D01*
X141800D02*
Y118807D01*
Y115607D02*
X145700D01*
Y113807D02*
Y115607D01*
X141800Y113807D02*
X145700D01*
X141800Y115607D02*
X141800Y113807D01*
X141800Y112507D02*
X145700D01*
Y110707D02*
Y112507D01*
X141800Y110707D02*
X145700D01*
X141800Y112507D02*
X141800Y110707D01*
Y109307D02*
X145700D01*
X145700Y107507D02*
X145700Y109307D01*
X141800Y107507D02*
X145700D01*
X141800D02*
Y109307D01*
Y106207D02*
X145700D01*
Y104407D02*
Y106207D01*
X141800Y104407D02*
X145700Y104407D01*
X141800Y104407D02*
Y106207D01*
X139900Y98607D02*
Y102507D01*
X138100Y98607D02*
X139900Y98607D01*
X138100Y98607D02*
Y102507D01*
X139900D01*
X136800Y98607D02*
X136800Y102507D01*
X135000Y98607D02*
X136800D01*
X135000D02*
Y102507D01*
X136800D01*
X133600Y98607D02*
Y102507D01*
X131800Y98607D02*
X133600D01*
X131800D02*
Y102507D01*
X133600Y102507D01*
X130500Y98607D02*
Y102507D01*
X128700Y98607D02*
X130500D01*
X128700D02*
Y102507D01*
X130500Y102507D01*
X127300Y98607D02*
Y102507D01*
X125500Y98607D02*
X127300D01*
X125500D02*
Y102507D01*
X127300Y102507D01*
X124200Y102507D02*
X124200Y98607D01*
X122400D02*
X124200D01*
X122400D02*
Y102507D01*
X124200D01*
X121000Y98607D02*
Y102507D01*
X119200Y98607D02*
X121000Y98607D01*
X119200Y98607D02*
Y102507D01*
X121000D01*
X117900Y98607D02*
Y102507D01*
X116100Y98607D02*
X117900D01*
X116100D02*
X116100Y102507D01*
X117900D01*
X110300Y104407D02*
X114200Y104407D01*
X110300Y104407D02*
Y106207D01*
X114200D01*
Y104407D02*
Y106207D01*
X110300Y107507D02*
X114200D01*
X110300D02*
X110300Y109307D01*
X114200D01*
Y107507D02*
Y109307D01*
X110300Y110707D02*
X114200D01*
X110300D02*
Y112507D01*
X114200Y112507D01*
Y110707D02*
Y112507D01*
X110300Y113807D02*
X114200D01*
X110300D02*
Y115607D01*
X114200D01*
X114200Y113807D02*
X114200Y115607D01*
X110300Y117007D02*
X114200D01*
X110300D02*
Y118807D01*
X114200D01*
X114200Y117007D01*
X110300Y120107D02*
X114200D01*
X110300D02*
Y121907D01*
X114200D01*
X114200Y120107D01*
X110300Y123307D02*
X114200D01*
X110300D02*
Y125107D01*
X114200Y125107D01*
Y123307D02*
Y125107D01*
X110300Y126407D02*
X114200D01*
X110300Y128207D02*
X110300Y126407D01*
X110300Y128207D02*
X114200D01*
Y126407D02*
Y128207D01*
X139900Y102507D02*
X141800D01*
X136800D02*
X138100D01*
X133600D02*
X135000D01*
X130500D02*
X131800Y102507D01*
X127300D02*
X128700D01*
X124200Y102507D02*
X125500D01*
X121000D02*
X122400D01*
X117900D02*
X119200D01*
X114200D02*
X116100D01*
X114200Y104407D02*
X114200Y102507D01*
X114200Y106207D02*
Y107507D01*
Y109307D02*
Y110707D01*
Y112507D02*
Y113807D01*
X114200Y115607D02*
Y117007D01*
X114200Y118807D02*
X114200Y120107D01*
X114200Y121907D02*
Y123307D01*
Y125107D02*
Y126407D01*
Y128207D02*
Y130107D01*
X116100Y130107D01*
X117900D02*
X119200D01*
X121000D02*
X122400D01*
X124200Y130107D02*
X125500Y130107D01*
X127300Y130107D02*
X128700D01*
X130500D02*
X131800D01*
X133600Y130107D02*
X135000D01*
X136800D02*
X138100D01*
X139900D02*
X141800Y130107D01*
Y128207D02*
Y130107D01*
Y125107D02*
Y126407D01*
Y121907D02*
Y123307D01*
X141800Y118807D02*
Y120107D01*
Y115607D02*
Y117007D01*
Y112507D02*
X141800Y113807D01*
Y109307D02*
Y110707D01*
Y106207D02*
Y107507D01*
X141800Y102507D02*
X141800Y104407D01*
X116100Y102507D02*
X139900D01*
X114200Y106207D02*
Y126407D01*
X119200Y130107D02*
X136800D01*
X141800Y109307D02*
Y123307D01*
X114200Y107507D02*
X119200Y102507D01*
X116100Y134007D02*
X116100Y130107D01*
X116100Y134007D02*
X117900D01*
Y130107D02*
Y134007D01*
X116100Y130107D02*
X117900D01*
X119200D02*
Y134007D01*
X121000Y134007D01*
Y130107D02*
Y134007D01*
X119200Y130107D02*
X121000D01*
X122400D02*
Y134007D01*
X124200D01*
Y130107D02*
Y134007D01*
X122400Y130107D02*
X124200Y130107D01*
X125500Y130107D02*
Y134007D01*
X127300D01*
Y130107D02*
Y134007D01*
X125500Y130107D02*
X127300Y130107D01*
X128700D02*
Y134007D01*
X130500D01*
Y130107D02*
Y134007D01*
X128700Y130107D02*
X130500D01*
X131800D02*
Y134007D01*
X133600D01*
Y130107D02*
Y134007D01*
X131800Y130107D02*
X133600Y130107D01*
X135000D02*
Y134007D01*
X136800D01*
X136800Y130107D01*
X135000D02*
X136800D01*
X138100D02*
Y134007D01*
X139900Y134007D01*
Y130107D02*
Y134007D01*
X138100Y130107D02*
X139900D01*
X141800Y128207D02*
X145700D01*
X145700Y126407D01*
X141800D02*
X145700D01*
X141800D02*
Y128207D01*
Y125107D02*
X145700Y125107D01*
Y123307D02*
Y125107D01*
X141800Y123307D02*
X145700D01*
X141800D02*
Y125107D01*
Y121907D02*
X145700D01*
Y120107D02*
Y121907D01*
X141800Y120107D02*
X145700D01*
X141800D02*
X141800Y121907D01*
X141800Y118807D02*
X145700D01*
Y117007D02*
Y118807D01*
X141800Y117007D02*
X145700D01*
X141800D02*
Y118807D01*
Y115607D02*
X145700D01*
Y113807D02*
Y115607D01*
X141800Y113807D02*
X145700D01*
X141800Y115607D02*
X141800Y113807D01*
X141800Y112507D02*
X145700D01*
Y110707D02*
Y112507D01*
X141800Y110707D02*
X145700D01*
X141800Y112507D02*
X141800Y110707D01*
Y109307D02*
X145700D01*
X145700Y107507D02*
X145700Y109307D01*
X141800Y107507D02*
X145700D01*
X141800D02*
Y109307D01*
Y106207D02*
X145700D01*
Y104407D02*
Y106207D01*
X141800Y104407D02*
X145700Y104407D01*
X141800Y104407D02*
Y106207D01*
X139900Y98607D02*
Y102507D01*
X138100Y98607D02*
X139900Y98607D01*
X138100Y98607D02*
Y102507D01*
X139900D01*
X136800Y98607D02*
X136800Y102507D01*
X135000Y98607D02*
X136800D01*
X135000D02*
Y102507D01*
X136800D01*
X133600Y98607D02*
Y102507D01*
X131800Y98607D02*
X133600D01*
X131800D02*
Y102507D01*
X133600Y102507D01*
X130500Y98607D02*
Y102507D01*
X128700Y98607D02*
X130500D01*
X128700D02*
Y102507D01*
X130500Y102507D01*
X127300Y98607D02*
Y102507D01*
X125500Y98607D02*
X127300D01*
X125500D02*
Y102507D01*
X127300Y102507D01*
X124200Y102507D02*
X124200Y98607D01*
X122400D02*
X124200D01*
X122400D02*
Y102507D01*
X124200D01*
X121000Y98607D02*
Y102507D01*
X119200Y98607D02*
X121000Y98607D01*
X119200Y98607D02*
Y102507D01*
X121000D01*
X117900Y98607D02*
Y102507D01*
X116100Y98607D02*
X117900D01*
X116100D02*
X116100Y102507D01*
X117900D01*
X110300Y104407D02*
X114200Y104407D01*
X110300Y104407D02*
Y106207D01*
X114200D01*
Y104407D02*
Y106207D01*
X110300Y107507D02*
X114200D01*
X110300D02*
X110300Y109307D01*
X114200D01*
Y107507D02*
Y109307D01*
X110300Y110707D02*
X114200D01*
X110300D02*
Y112507D01*
X114200Y112507D01*
Y110707D02*
Y112507D01*
X110300Y113807D02*
X114200D01*
X110300D02*
Y115607D01*
X114200D01*
X114200Y113807D02*
X114200Y115607D01*
X110300Y117007D02*
X114200D01*
X110300D02*
Y118807D01*
X114200D01*
X114200Y117007D01*
X110300Y120107D02*
X114200D01*
X110300D02*
Y121907D01*
X114200D01*
X114200Y120107D01*
X110300Y123307D02*
X114200D01*
X110300D02*
Y125107D01*
X114200Y125107D01*
Y123307D02*
Y125107D01*
X110300Y126407D02*
X114200D01*
X110300Y128207D02*
X110300Y126407D01*
X110300Y128207D02*
X114200D01*
Y126407D02*
Y128207D01*
X139900Y102507D02*
X141800D01*
X136800D02*
X138100D01*
X133600D02*
X135000D01*
X130500D02*
X131800Y102507D01*
X127300D02*
X128700D01*
X124200Y102507D02*
X125500D01*
X121000D02*
X122400D01*
X117900D02*
X119200D01*
X114200D02*
X116100D01*
X114200Y104407D02*
X114200Y102507D01*
X114200Y106207D02*
Y107507D01*
Y109307D02*
Y110707D01*
Y112507D02*
Y113807D01*
X114200Y115607D02*
Y117007D01*
X114200Y118807D02*
X114200Y120107D01*
X114200Y121907D02*
Y123307D01*
Y125107D02*
Y126407D01*
Y128207D02*
Y130107D01*
X116100Y130107D01*
X117900D02*
X119200D01*
X121000D02*
X122400D01*
X124200Y130107D02*
X125500Y130107D01*
X127300Y130107D02*
X128700D01*
X130500D02*
X131800D01*
X133600Y130107D02*
X135000D01*
X136800D02*
X138100D01*
X139900D02*
X141800Y130107D01*
Y128207D02*
Y130107D01*
Y125107D02*
Y126407D01*
Y121907D02*
Y123307D01*
X141800Y118807D02*
Y120107D01*
Y115607D02*
Y117007D01*
Y112507D02*
X141800Y113807D01*
Y109307D02*
Y110707D01*
Y106207D02*
Y107507D01*
X141800Y102507D02*
X141800Y104407D01*
D12*
X266394Y271965D02*
G03*
X266394Y271965I-394J0D01*
G01*
D02*
G03*
X266394Y271965I-394J0D01*
G01*
D13*
X179700Y255500D02*
Y262500D01*
X182700D02*
X190100D01*
X193100Y255500D02*
Y262500D01*
X182700Y255500D02*
X190100D01*
Y262500D02*
X193100D01*
X190100Y255500D02*
X193100D01*
X190100D02*
Y262500D01*
X179700Y255500D02*
X182700D01*
X179700Y262500D02*
X182700D01*
Y255500D02*
Y262500D01*
X179700Y255500D02*
Y262500D01*
X182700D02*
X190100D01*
X193100Y255500D02*
Y262500D01*
X182700Y255500D02*
X190100D01*
Y262500D02*
X193100D01*
X190100Y255500D02*
X193100D01*
X190100D02*
Y262500D01*
X179700Y255500D02*
X182700D01*
X179700Y262500D02*
X182700D01*
Y255500D02*
Y262500D01*
X259700Y208600D02*
X279300D01*
X259700D02*
Y215300D01*
Y217700D01*
Y224400D01*
X279300D01*
Y208600D02*
Y224400D01*
X261000D02*
Y228700D01*
X263000D01*
Y224400D02*
Y228700D01*
X261000Y224400D02*
X263000D01*
X266000D02*
Y228700D01*
X268000D01*
Y224400D02*
Y228700D01*
X266000Y224400D02*
X268000D01*
X271000D02*
Y228700D01*
X273000D01*
Y224400D02*
Y228700D01*
X271000Y224400D02*
X273000D01*
X276000D02*
Y228700D01*
X278000D01*
Y224400D02*
Y228700D01*
X276000Y224400D02*
X278000D01*
Y204300D02*
Y208600D01*
X276000Y204300D02*
X278000D01*
X276000D02*
Y208600D01*
X278000D01*
X273000Y204300D02*
Y208600D01*
X271000Y204300D02*
X273000D01*
X271000D02*
Y208600D01*
X273000D01*
X268000Y204300D02*
Y208600D01*
X266000Y204300D02*
X268000D01*
X266000D02*
Y208600D01*
X268000D01*
X263000Y204300D02*
Y208600D01*
X261000Y204300D02*
X263000D01*
X261000D02*
Y208600D01*
X263000D01*
X259700D02*
X279300D01*
X259700D02*
Y215300D01*
Y217700D01*
Y224400D01*
X279300D01*
Y208600D02*
Y224400D01*
X261000D02*
Y228700D01*
X263000D01*
Y224400D02*
Y228700D01*
X261000Y224400D02*
X263000D01*
X266000D02*
Y228700D01*
X268000D01*
Y224400D02*
Y228700D01*
X266000Y224400D02*
X268000D01*
X271000D02*
Y228700D01*
X273000D01*
Y224400D02*
Y228700D01*
X271000Y224400D02*
X273000D01*
X276000D02*
Y228700D01*
X278000D01*
Y224400D02*
Y228700D01*
X276000Y224400D02*
X278000D01*
Y204300D02*
Y208600D01*
X276000Y204300D02*
X278000D01*
X276000D02*
Y208600D01*
X278000D01*
X273000Y204300D02*
Y208600D01*
X271000Y204300D02*
X273000D01*
X271000D02*
Y208600D01*
X273000D01*
X268000Y204300D02*
Y208600D01*
X266000Y204300D02*
X268000D01*
X266000D02*
Y208600D01*
X268000D01*
X263000Y204300D02*
Y208600D01*
X261000Y204300D02*
X263000D01*
X261000D02*
Y208600D01*
X263000D01*
X142500Y155100D02*
X149500D01*
Y158100D01*
X142500Y155100D02*
Y158100D01*
Y147700D02*
X149500D01*
X142500Y144700D02*
Y147700D01*
X149500Y144700D02*
Y147700D01*
X142500D02*
Y155100D01*
Y144700D02*
X149500D01*
Y147700D02*
Y155100D01*
X142500Y158100D02*
X149500D01*
X142500Y155100D02*
X149500D01*
Y158100D01*
X142500Y155100D02*
Y158100D01*
Y147700D02*
X149500D01*
X142500Y144700D02*
Y147700D01*
X149500Y144700D02*
Y147700D01*
X142500D02*
Y155100D01*
Y144700D02*
X149500D01*
Y147700D02*
Y155100D01*
X142500Y158100D02*
X149500D01*
X141500Y343300D02*
X148500D01*
Y332900D02*
Y340300D01*
X141500Y329900D02*
X148500D01*
X141500Y332900D02*
Y340300D01*
X148500Y329900D02*
Y332900D01*
X141500Y329900D02*
Y332900D01*
X148500D01*
X141500Y340300D02*
Y343300D01*
X148500Y340300D02*
Y343300D01*
X141500Y340300D02*
X148500D01*
X141500Y343300D02*
X148500D01*
Y332900D02*
Y340300D01*
X141500Y329900D02*
X148500D01*
X141500Y332900D02*
Y340300D01*
X148500Y329900D02*
Y332900D01*
X141500Y329900D02*
Y332900D01*
X148500D01*
X141500Y340300D02*
Y343300D01*
X148500Y340300D02*
Y343300D01*
X141500Y340300D02*
X148500D01*
X15500Y209300D02*
X22500D01*
Y198900D02*
Y206300D01*
X15500Y195900D02*
X22500D01*
X15500Y198900D02*
Y206300D01*
X22500Y195900D02*
Y198900D01*
X15500Y195900D02*
Y198900D01*
X22500D01*
X15500Y206300D02*
Y209300D01*
X22500Y206300D02*
Y209300D01*
X15500Y206300D02*
X22500D01*
X15500Y209300D02*
X22500D01*
Y198900D02*
Y206300D01*
X15500Y195900D02*
X22500D01*
X15500Y198900D02*
Y206300D01*
X22500Y195900D02*
Y198900D01*
X15500Y195900D02*
Y198900D01*
X22500D01*
X15500Y206300D02*
Y209300D01*
X22500Y206300D02*
Y209300D01*
X15500Y206300D02*
X22500D01*
X15500Y235300D02*
X22500D01*
Y224900D02*
Y232300D01*
X15500Y221900D02*
X22500D01*
X15500Y224900D02*
Y232300D01*
X22500Y221900D02*
Y224900D01*
X15500Y221900D02*
Y224900D01*
X22500D01*
X15500Y232300D02*
Y235300D01*
X22500Y232300D02*
Y235300D01*
X15500Y232300D02*
X22500D01*
X15500Y235300D02*
X22500D01*
Y224900D02*
Y232300D01*
X15500Y221900D02*
X22500D01*
X15500Y224900D02*
Y232300D01*
X22500Y221900D02*
Y224900D01*
X15500Y221900D02*
Y224900D01*
X22500D01*
X15500Y232300D02*
Y235300D01*
X22500Y232300D02*
Y235300D01*
X15500Y232300D02*
X22500D01*
X15500Y260100D02*
X22500D01*
Y249700D02*
Y257100D01*
X15500Y246700D02*
X22500D01*
X15500Y249700D02*
Y257100D01*
X22500Y246700D02*
Y249700D01*
X15500Y246700D02*
Y249700D01*
X22500D01*
X15500Y257100D02*
Y260100D01*
X22500Y257100D02*
Y260100D01*
X15500Y257100D02*
X22500D01*
X15500Y260100D02*
X22500D01*
Y249700D02*
Y257100D01*
X15500Y246700D02*
X22500D01*
X15500Y249700D02*
Y257100D01*
X22500Y246700D02*
Y249700D01*
X15500Y246700D02*
Y249700D01*
X22500D01*
X15500Y257100D02*
Y260100D01*
X22500Y257100D02*
Y260100D01*
X15500Y257100D02*
X22500D01*
X16000Y286600D02*
X23000D01*
Y276200D02*
Y283600D01*
X16000Y273200D02*
X23000D01*
X16000Y276200D02*
Y283600D01*
X23000Y273200D02*
Y276200D01*
X16000Y273200D02*
Y276200D01*
X23000D01*
X16000Y283600D02*
Y286600D01*
X23000Y283600D02*
Y286600D01*
X16000Y283600D02*
X23000D01*
X16000Y286600D02*
X23000D01*
Y276200D02*
Y283600D01*
X16000Y273200D02*
X23000D01*
X16000Y276200D02*
Y283600D01*
X23000Y273200D02*
Y276200D01*
X16000Y273200D02*
Y276200D01*
X23000D01*
X16000Y283600D02*
Y286600D01*
X23000Y283600D02*
Y286600D01*
X16000Y283600D02*
X23000D01*
X-8800Y180000D02*
Y187000D01*
X-5800D02*
X1600D01*
X4600Y180000D02*
Y187000D01*
X-5800Y180000D02*
X1600D01*
Y187000D02*
X4600D01*
X1600Y180000D02*
X4600D01*
X1600D02*
Y187000D01*
X-8800Y180000D02*
X-5800D01*
X-8800Y187000D02*
X-5800D01*
Y180000D02*
Y187000D01*
X-8800Y180000D02*
Y187000D01*
X-5800D02*
X1600D01*
X4600Y180000D02*
Y187000D01*
X-5800Y180000D02*
X1600D01*
Y187000D02*
X4600D01*
X1600Y180000D02*
X4600D01*
X1600D02*
Y187000D01*
X-8800Y180000D02*
X-5800D01*
X-8800Y187000D02*
X-5800D01*
Y180000D02*
Y187000D01*
X231500Y231700D02*
X238500D01*
X231500Y234700D02*
Y242100D01*
Y245100D02*
X238500D01*
Y234700D02*
Y242100D01*
X231500D02*
Y245100D01*
X238500Y242100D02*
Y245100D01*
X231500Y242100D02*
X238500D01*
Y231700D02*
Y234700D01*
X231500Y231700D02*
Y234700D01*
X238500D01*
X231500Y231700D02*
X238500D01*
X231500Y234700D02*
Y242100D01*
Y245100D02*
X238500D01*
Y234700D02*
Y242100D01*
X231500D02*
Y245100D01*
X238500Y242100D02*
Y245100D01*
X231500Y242100D02*
X238500D01*
Y231700D02*
Y234700D01*
X231500Y231700D02*
Y234700D01*
X238500D01*
X229500Y212400D02*
X236500D01*
X229500Y215400D02*
Y222800D01*
Y225800D02*
X236500D01*
Y215400D02*
Y222800D01*
X229500D02*
Y225800D01*
X236500Y222800D02*
Y225800D01*
X229500Y222800D02*
X236500D01*
Y212400D02*
Y215400D01*
X229500Y212400D02*
Y215400D01*
X236500D01*
X229500Y212400D02*
X236500D01*
X229500Y215400D02*
Y222800D01*
Y225800D02*
X236500D01*
Y215400D02*
Y222800D01*
X229500D02*
Y225800D01*
X236500Y222800D02*
Y225800D01*
X229500Y222800D02*
X236500D01*
Y212400D02*
Y215400D01*
X229500Y212400D02*
Y215400D01*
X236500D01*
X276300Y152000D02*
Y159000D01*
X265900Y152000D02*
X273300D01*
X262900D02*
Y159000D01*
X265900D02*
X273300D01*
X262900Y152000D02*
X265900D01*
X262900Y159000D02*
X265900D01*
Y152000D02*
Y159000D01*
X273300D02*
X276300D01*
X273300Y152000D02*
X276300D01*
X273300D02*
Y159000D01*
X276300Y152000D02*
Y159000D01*
X265900Y152000D02*
X273300D01*
X262900D02*
Y159000D01*
X265900D02*
X273300D01*
X262900Y152000D02*
X265900D01*
X262900Y159000D02*
X265900D01*
Y152000D02*
Y159000D01*
X273300D02*
X276300D01*
X273300Y152000D02*
X276300D01*
X273300D02*
Y159000D01*
X275800Y163500D02*
Y170500D01*
X265400Y163500D02*
X272800D01*
X262400D02*
Y170500D01*
X265400D02*
X272800D01*
X262400Y163500D02*
X265400D01*
X262400Y170500D02*
X265400D01*
Y163500D02*
Y170500D01*
X272800D02*
X275800D01*
X272800Y163500D02*
X275800D01*
X272800D02*
Y170500D01*
X275800Y163500D02*
Y170500D01*
X265400Y163500D02*
X272800D01*
X262400D02*
Y170500D01*
X265400D02*
X272800D01*
X262400Y163500D02*
X265400D01*
X262400Y170500D02*
X265400D01*
Y163500D02*
Y170500D01*
X272800D02*
X275800D01*
X272800Y163500D02*
X275800D01*
X272800D02*
Y170500D01*
X231000Y264300D02*
X238000D01*
Y253900D02*
Y261300D01*
X231000Y250900D02*
X238000D01*
X231000Y253900D02*
Y261300D01*
X238000Y250900D02*
Y253900D01*
X231000Y250900D02*
Y253900D01*
X238000D01*
X231000Y261300D02*
Y264300D01*
X238000Y261300D02*
Y264300D01*
X231000Y261300D02*
X238000D01*
X231000Y264300D02*
X238000D01*
Y253900D02*
Y261300D01*
X231000Y250900D02*
X238000D01*
X231000Y253900D02*
Y261300D01*
X238000Y250900D02*
Y253900D01*
X231000Y250900D02*
Y253900D01*
X238000D01*
X231000Y261300D02*
Y264300D01*
X238000Y261300D02*
Y264300D01*
X231000Y261300D02*
X238000D01*
X231000Y343600D02*
X238000D01*
Y333200D02*
Y340600D01*
X231000Y330200D02*
X238000D01*
X231000Y333200D02*
Y340600D01*
X238000Y330200D02*
Y333200D01*
X231000Y330200D02*
Y333200D01*
X238000D01*
X231000Y340600D02*
Y343600D01*
X238000Y340600D02*
Y343600D01*
X231000Y340600D02*
X238000D01*
X231000Y343600D02*
X238000D01*
Y333200D02*
Y340600D01*
X231000Y330200D02*
X238000D01*
X231000Y333200D02*
Y340600D01*
X238000Y330200D02*
Y333200D01*
X231000Y330200D02*
Y333200D01*
X238000D01*
X231000Y340600D02*
Y343600D01*
X238000Y340600D02*
Y343600D01*
X231000Y340600D02*
X238000D01*
X231000Y290700D02*
X238000D01*
X231000Y293700D02*
Y301100D01*
Y304100D02*
X238000D01*
Y293700D02*
Y301100D01*
X231000D02*
Y304100D01*
X238000Y301100D02*
Y304100D01*
X231000Y301100D02*
X238000D01*
Y290700D02*
Y293700D01*
X231000Y290700D02*
Y293700D01*
X238000D01*
X231000Y290700D02*
X238000D01*
X231000Y293700D02*
Y301100D01*
Y304100D02*
X238000D01*
Y293700D02*
Y301100D01*
X231000D02*
Y304100D01*
X238000Y301100D02*
Y304100D01*
X231000Y301100D02*
X238000D01*
Y290700D02*
Y293700D01*
X231000Y290700D02*
Y293700D01*
X238000D01*
X231000Y284300D02*
X238000D01*
Y273900D02*
Y281300D01*
X231000Y270900D02*
X238000D01*
X231000Y273900D02*
Y281300D01*
X238000Y270900D02*
Y273900D01*
X231000Y270900D02*
Y273900D01*
X238000D01*
X231000Y281300D02*
Y284300D01*
X238000Y281300D02*
Y284300D01*
X231000Y281300D02*
X238000D01*
X231000Y284300D02*
X238000D01*
Y273900D02*
Y281300D01*
X231000Y270900D02*
X238000D01*
X231000Y273900D02*
Y281300D01*
X238000Y270900D02*
Y273900D01*
X231000Y270900D02*
Y273900D01*
X238000D01*
X231000Y281300D02*
Y284300D01*
X238000Y281300D02*
Y284300D01*
X231000Y281300D02*
X238000D01*
X231000Y323600D02*
X238000D01*
Y313200D02*
Y320600D01*
X231000Y310200D02*
X238000D01*
X231000Y313200D02*
Y320600D01*
X238000Y310200D02*
Y313200D01*
X231000Y310200D02*
Y313200D01*
X238000D01*
X231000Y320600D02*
Y323600D01*
X238000Y320600D02*
Y323600D01*
X231000Y320600D02*
X238000D01*
X231000Y323600D02*
X238000D01*
Y313200D02*
Y320600D01*
X231000Y310200D02*
X238000D01*
X231000Y313200D02*
Y320600D01*
X238000Y310200D02*
Y313200D01*
X231000Y310200D02*
Y313200D01*
X238000D01*
X231000Y320600D02*
Y323600D01*
X238000Y320600D02*
Y323600D01*
X231000Y320600D02*
X238000D01*
X129400Y264500D02*
Y271500D01*
X132400D02*
X139800D01*
X142800Y264500D02*
Y271500D01*
X132400Y264500D02*
X139800D01*
Y271500D02*
X142800D01*
X139800Y264500D02*
X142800D01*
X139800D02*
Y271500D01*
X129400Y264500D02*
X132400D01*
X129400Y271500D02*
X132400D01*
Y264500D02*
Y271500D01*
X129400Y264500D02*
Y271500D01*
X132400D02*
X139800D01*
X142800Y264500D02*
Y271500D01*
X132400Y264500D02*
X139800D01*
Y271500D02*
X142800D01*
X139800Y264500D02*
X142800D01*
X139800D02*
Y271500D01*
X129400Y264500D02*
X132400D01*
X129400Y271500D02*
X132400D01*
Y264500D02*
Y271500D01*
X129200Y274500D02*
Y281500D01*
X132200D02*
X139600D01*
X142600Y274500D02*
Y281500D01*
X132200Y274500D02*
X139600D01*
Y281500D02*
X142600D01*
X139600Y274500D02*
X142600D01*
X139600D02*
Y281500D01*
X129200Y274500D02*
X132200D01*
X129200Y281500D02*
X132200D01*
Y274500D02*
Y281500D01*
X129200Y274500D02*
Y281500D01*
X132200D02*
X139600D01*
X142600Y274500D02*
Y281500D01*
X132200Y274500D02*
X139600D01*
Y281500D02*
X142600D01*
X139600Y274500D02*
X142600D01*
X139600D02*
Y281500D01*
X129200Y274500D02*
X132200D01*
X129200Y281500D02*
X132200D01*
Y274500D02*
Y281500D01*
X121600Y244000D02*
Y250000D01*
X133400D01*
Y244000D02*
Y250000D01*
X121600Y244000D02*
X133400D01*
X139400Y245300D02*
Y248300D01*
X137900Y246800D02*
X140900D01*
X121600Y244000D02*
Y250000D01*
X133400D01*
Y244000D02*
Y250000D01*
X121600Y244000D02*
X133400D01*
X139400Y245300D02*
Y248300D01*
X137900Y246800D02*
X140900D01*
X157800Y243500D02*
Y250500D01*
X147400Y243500D02*
X154800D01*
X144400D02*
Y250500D01*
X147400D02*
X154800D01*
X144400Y243500D02*
X147400D01*
X144400Y250500D02*
X147400D01*
Y243500D02*
Y250500D01*
X154800D02*
X157800D01*
X154800Y243500D02*
X157800D01*
X154800D02*
Y250500D01*
X157800Y243500D02*
Y250500D01*
X147400Y243500D02*
X154800D01*
X144400D02*
Y250500D01*
X147400D02*
X154800D01*
X144400Y243500D02*
X147400D01*
X144400Y250500D02*
X147400D01*
Y243500D02*
Y250500D01*
X154800D02*
X157800D01*
X154800Y243500D02*
X157800D01*
X154800D02*
Y250500D01*
X107200Y277000D02*
Y284000D01*
X110200D02*
X117600D01*
X120600Y277000D02*
Y284000D01*
X110200Y277000D02*
X117600D01*
Y284000D02*
X120600D01*
X117600Y277000D02*
X120600D01*
X117600D02*
Y284000D01*
X107200Y277000D02*
X110200D01*
X107200Y284000D02*
X110200D01*
Y277000D02*
Y284000D01*
X107200Y277000D02*
Y284000D01*
X110200D02*
X117600D01*
X120600Y277000D02*
Y284000D01*
X110200Y277000D02*
X117600D01*
Y284000D02*
X120600D01*
X117600Y277000D02*
X120600D01*
X117600D02*
Y284000D01*
X107200Y277000D02*
X110200D01*
X107200Y284000D02*
X110200D01*
Y277000D02*
Y284000D01*
X99100Y286500D02*
Y292500D01*
X110900D01*
Y286500D02*
Y292500D01*
X99100Y286500D02*
X110900D01*
X116900Y287800D02*
Y290800D01*
X115400Y289300D02*
X118400D01*
X99100Y286500D02*
Y292500D01*
X110900D01*
Y286500D02*
Y292500D01*
X99100Y286500D02*
X110900D01*
X116900Y287800D02*
Y290800D01*
X115400Y289300D02*
X118400D01*
X157800Y234000D02*
Y241000D01*
X147400Y234000D02*
X154800D01*
X144400D02*
Y241000D01*
X147400D02*
X154800D01*
X144400Y234000D02*
X147400D01*
X144400Y241000D02*
X147400D01*
Y234000D02*
Y241000D01*
X154800D02*
X157800D01*
X154800Y234000D02*
X157800D01*
X154800D02*
Y241000D01*
X157800Y234000D02*
Y241000D01*
X147400Y234000D02*
X154800D01*
X144400D02*
Y241000D01*
X147400D02*
X154800D01*
X144400Y234000D02*
X147400D01*
X144400Y241000D02*
X147400D01*
Y234000D02*
Y241000D01*
X154800D02*
X157800D01*
X154800Y234000D02*
X157800D01*
X154800D02*
Y241000D01*
X121600Y234500D02*
Y240500D01*
X133400D01*
Y234500D02*
Y240500D01*
X121600Y234500D02*
X133400D01*
X139400Y235800D02*
Y238800D01*
X137900Y237300D02*
X140900D01*
X121600Y234500D02*
Y240500D01*
X133400D01*
Y234500D02*
Y240500D01*
X121600Y234500D02*
X133400D01*
X139400Y235800D02*
Y238800D01*
X137900Y237300D02*
X140900D01*
X179700Y246000D02*
Y253000D01*
X182700D02*
X190100D01*
X193100Y246000D02*
Y253000D01*
X182700Y246000D02*
X190100D01*
Y253000D02*
X193100D01*
X190100Y246000D02*
X193100D01*
X190100D02*
Y253000D01*
X179700Y246000D02*
X182700D01*
X179700Y253000D02*
X182700D01*
Y246000D02*
Y253000D01*
X179700Y246000D02*
Y253000D01*
X182700D02*
X190100D01*
X193100Y246000D02*
Y253000D01*
X182700Y246000D02*
X190100D01*
Y253000D02*
X193100D01*
X190100Y246000D02*
X193100D01*
X190100D02*
Y253000D01*
X179700Y246000D02*
X182700D01*
X179700Y253000D02*
X182700D01*
Y246000D02*
Y253000D01*
X102300Y277000D02*
Y284000D01*
X91900Y277000D02*
X99300D01*
X88900D02*
Y284000D01*
X91900D02*
X99300D01*
X88900Y277000D02*
X91900D01*
X88900Y284000D02*
X91900D01*
Y277000D02*
Y284000D01*
X99300D02*
X102300D01*
X99300Y277000D02*
X102300D01*
X99300D02*
Y284000D01*
X102300Y277000D02*
Y284000D01*
X91900Y277000D02*
X99300D01*
X88900D02*
Y284000D01*
X91900D02*
X99300D01*
X88900Y277000D02*
X91900D01*
X88900Y284000D02*
X91900D01*
Y277000D02*
Y284000D01*
X99300D02*
X102300D01*
X99300Y277000D02*
X102300D01*
X99300D02*
Y284000D01*
X58500Y255300D02*
X65500D01*
Y244900D02*
Y252300D01*
X58500Y241900D02*
X65500D01*
X58500Y244900D02*
Y252300D01*
X65500Y241900D02*
Y244900D01*
X58500Y241900D02*
Y244900D01*
X65500D01*
X58500Y252300D02*
Y255300D01*
X65500Y252300D02*
Y255300D01*
X58500Y252300D02*
X65500D01*
X58500Y255300D02*
X65500D01*
Y244900D02*
Y252300D01*
X58500Y241900D02*
X65500D01*
X58500Y244900D02*
Y252300D01*
X65500Y241900D02*
Y244900D01*
X58500Y241900D02*
Y244900D01*
X65500D01*
X58500Y252300D02*
Y255300D01*
X65500Y252300D02*
Y255300D01*
X58500Y252300D02*
X65500D01*
X55800Y291500D02*
Y298500D01*
X45400Y291500D02*
X52800D01*
X42400D02*
Y298500D01*
X45400D02*
X52800D01*
X42400Y291500D02*
X45400D01*
X42400Y298500D02*
X45400D01*
Y291500D02*
Y298500D01*
X52800D02*
X55800D01*
X52800Y291500D02*
X55800D01*
X52800D02*
Y298500D01*
X55800Y291500D02*
Y298500D01*
X45400Y291500D02*
X52800D01*
X42400D02*
Y298500D01*
X45400D02*
X52800D01*
X42400Y291500D02*
X45400D01*
X42400Y298500D02*
X45400D01*
Y291500D02*
Y298500D01*
X52800D02*
X55800D01*
X52800Y291500D02*
X55800D01*
X52800D02*
Y298500D01*
X76800Y291500D02*
Y298500D01*
X66400Y291500D02*
X73800D01*
X63400D02*
Y298500D01*
X66400D02*
X73800D01*
X63400Y291500D02*
X66400D01*
X63400Y298500D02*
X66400D01*
Y291500D02*
Y298500D01*
X73800D02*
X76800D01*
X73800Y291500D02*
X76800D01*
X73800D02*
Y298500D01*
X76800Y291500D02*
Y298500D01*
X66400Y291500D02*
X73800D01*
X63400D02*
Y298500D01*
X66400D02*
X73800D01*
X63400Y291500D02*
X66400D01*
X63400Y298500D02*
X66400D01*
Y291500D02*
Y298500D01*
X73800D02*
X76800D01*
X73800Y291500D02*
X76800D01*
X73800D02*
Y298500D01*
X142000Y302200D02*
X149000D01*
X142000Y305200D02*
Y312600D01*
Y315600D02*
X149000D01*
Y305200D02*
Y312600D01*
X142000D02*
Y315600D01*
X149000Y312600D02*
Y315600D01*
X142000Y312600D02*
X149000D01*
Y302200D02*
Y305200D01*
X142000Y302200D02*
Y305200D01*
X149000D01*
X142000Y302200D02*
X149000D01*
X142000Y305200D02*
Y312600D01*
Y315600D02*
X149000D01*
Y305200D02*
Y312600D01*
X142000D02*
Y315600D01*
X149000Y312600D02*
Y315600D01*
X142000Y312600D02*
X149000D01*
Y302200D02*
Y305200D01*
X142000Y302200D02*
Y305200D01*
X149000D01*
X130000Y306900D02*
X136000D01*
Y295100D02*
Y306900D01*
X130000Y295100D02*
X136000D01*
X130000D02*
Y306900D01*
X131300Y289100D02*
X134300D01*
X132800Y287600D02*
Y290600D01*
X130000Y306900D02*
X136000D01*
Y295100D02*
Y306900D01*
X130000Y295100D02*
X136000D01*
X130000D02*
Y306900D01*
X131300Y289100D02*
X134300D01*
X132800Y287600D02*
Y290600D01*
X150800Y338194D02*
X177200D01*
Y323594D02*
Y338194D01*
X150800Y323594D02*
X177200D01*
X150800D02*
Y338194D01*
X170100Y316494D02*
Y323594D01*
X157900Y316494D02*
X170100D01*
X157900D02*
Y323594D01*
X170100D01*
X153400Y338194D02*
Y345294D01*
X156500D01*
Y338194D02*
Y345294D01*
X153400Y338194D02*
X156500D01*
X162500D02*
Y345294D01*
X165600D01*
Y338194D02*
Y345294D01*
X162500Y338194D02*
X165600D01*
X171500D02*
Y345294D01*
X174600D01*
Y338194D02*
Y345294D01*
X171500Y338194D02*
X174600D01*
X150800D02*
X177200D01*
Y323594D02*
Y338194D01*
X150800Y323594D02*
X177200D01*
X150800D02*
Y338194D01*
X170100Y316494D02*
Y323594D01*
X157900Y316494D02*
X170100D01*
X157900D02*
Y323594D01*
X170100D01*
X153400Y338194D02*
Y345294D01*
X156500D01*
Y338194D02*
Y345294D01*
X153400Y338194D02*
X156500D01*
X162500D02*
Y345294D01*
X165600D01*
Y338194D02*
Y345294D01*
X162500Y338194D02*
X165600D01*
X171500D02*
Y345294D01*
X174600D01*
Y338194D02*
Y345294D01*
X171500Y338194D02*
X174600D01*
X137900Y319500D02*
Y325500D01*
X126100Y319500D02*
X137900D01*
X126100D02*
Y325500D01*
X137900D01*
X120100Y321200D02*
Y324200D01*
X118600Y322700D02*
X121600D01*
X137900Y319500D02*
Y325500D01*
X126100Y319500D02*
X137900D01*
X126100D02*
Y325500D01*
X137900D01*
X120100Y321200D02*
Y324200D01*
X118600Y322700D02*
X121600D01*
X101900Y319000D02*
Y326000D01*
X104900D02*
X112300D01*
X115300Y319000D02*
Y326000D01*
X104900Y319000D02*
X112300D01*
Y326000D02*
X115300D01*
X112300Y319000D02*
X115300D01*
X112300D02*
Y326000D01*
X101900Y319000D02*
X104900D01*
X101900Y326000D02*
X104900D01*
Y319000D02*
Y326000D01*
X101900Y319000D02*
Y326000D01*
X104900D02*
X112300D01*
X115300Y319000D02*
Y326000D01*
X104900Y319000D02*
X112300D01*
Y326000D02*
X115300D01*
X112300Y319000D02*
X115300D01*
X112300D02*
Y326000D01*
X101900Y319000D02*
X104900D01*
X101900Y326000D02*
X104900D01*
Y319000D02*
Y326000D01*
X185100Y278500D02*
Y284500D01*
X196900D01*
Y278500D02*
Y284500D01*
X185100Y278500D02*
X196900D01*
X202900Y279800D02*
Y282800D01*
X201400Y281300D02*
X204400D01*
X185100Y278500D02*
Y284500D01*
X196900D01*
Y278500D02*
Y284500D01*
X185100Y278500D02*
X196900D01*
X202900Y279800D02*
Y282800D01*
X201400Y281300D02*
X204400D01*
X222600Y278000D02*
Y285000D01*
X212200Y278000D02*
X219600D01*
X209200D02*
Y285000D01*
X212200D02*
X219600D01*
X209200Y278000D02*
X212200D01*
X209200Y285000D02*
X212200D01*
Y278000D02*
Y285000D01*
X219600D02*
X222600D01*
X219600Y278000D02*
X222600D01*
X219600D02*
Y285000D01*
X222600Y278000D02*
Y285000D01*
X212200Y278000D02*
X219600D01*
X209200D02*
Y285000D01*
X212200D02*
X219600D01*
X209200Y278000D02*
X212200D01*
X209200Y285000D02*
X212200D01*
Y278000D02*
Y285000D01*
X219600D02*
X222600D01*
X219600Y278000D02*
X222600D01*
X219600D02*
Y285000D01*
X159400Y304000D02*
Y311000D01*
X162400D02*
X169800D01*
X172800Y304000D02*
Y311000D01*
X162400Y304000D02*
X169800D01*
Y311000D02*
X172800D01*
X169800Y304000D02*
X172800D01*
X169800D02*
Y311000D01*
X159400Y304000D02*
X162400D01*
X159400Y311000D02*
X162400D01*
Y304000D02*
Y311000D01*
X159400Y304000D02*
Y311000D01*
X162400D02*
X169800D01*
X172800Y304000D02*
Y311000D01*
X162400Y304000D02*
X169800D01*
Y311000D02*
X172800D01*
X169800Y304000D02*
X172800D01*
X169800D02*
Y311000D01*
X159400Y304000D02*
X162400D01*
X159400Y311000D02*
X162400D01*
Y304000D02*
Y311000D01*
X128600Y168000D02*
Y174000D01*
X140400D01*
Y168000D02*
Y174000D01*
X128600Y168000D02*
X140400D01*
X146400Y169300D02*
Y172300D01*
X144900Y170800D02*
X147900D01*
X128600Y168000D02*
Y174000D01*
X140400D01*
Y168000D02*
Y174000D01*
X128600Y168000D02*
X140400D01*
X146400Y169300D02*
Y172300D01*
X144900Y170800D02*
X147900D01*
X122000Y158100D02*
X129000D01*
Y147700D02*
Y155100D01*
X122000Y144700D02*
X129000D01*
X122000Y147700D02*
Y155100D01*
X129000Y144700D02*
Y147700D01*
X122000Y144700D02*
Y147700D01*
X129000D01*
X122000Y155100D02*
Y158100D01*
X129000Y155100D02*
Y158100D01*
X122000Y155100D02*
X129000D01*
X122000Y158100D02*
X129000D01*
Y147700D02*
Y155100D01*
X122000Y144700D02*
X129000D01*
X122000Y147700D02*
Y155100D01*
X129000Y144700D02*
Y147700D01*
X122000Y144700D02*
Y147700D01*
X129000D01*
X122000Y155100D02*
Y158100D01*
X129000Y155100D02*
Y158100D01*
X122000Y155100D02*
X129000D01*
X132000Y144700D02*
X139000D01*
X132000Y147700D02*
Y155100D01*
Y158100D02*
X139000D01*
Y147700D02*
Y155100D01*
X132000D02*
Y158100D01*
X139000Y155100D02*
Y158100D01*
X132000Y155100D02*
X139000D01*
Y144700D02*
Y147700D01*
X132000Y144700D02*
Y147700D01*
X139000D01*
X132000Y144700D02*
X139000D01*
X132000Y147700D02*
Y155100D01*
Y158100D02*
X139000D01*
Y147700D02*
Y155100D01*
X132000D02*
Y158100D01*
X139000Y155100D02*
Y158100D01*
X132000Y155100D02*
X139000D01*
Y144700D02*
Y147700D01*
X132000Y144700D02*
Y147700D01*
X139000D01*
X181800Y234000D02*
Y241000D01*
X171400Y234000D02*
X178800Y234000D01*
X168400Y234000D02*
X168400Y241000D01*
X171400D02*
X178800D01*
X168400Y234000D02*
X171400D01*
X168400Y241000D02*
X171400D01*
X171400Y234000D02*
X171400Y241000D01*
X178800D02*
X181800D01*
X178800Y234000D02*
X181800D01*
X178800D02*
Y241000D01*
X181800Y234000D02*
Y241000D01*
X171400Y234000D02*
X178800Y234000D01*
X168400Y234000D02*
X168400Y241000D01*
X171400D02*
X178800D01*
X168400Y234000D02*
X171400D01*
X168400Y241000D02*
X171400D01*
X171400Y234000D02*
X171400Y241000D01*
X178800D02*
X181800D01*
X178800Y234000D02*
X181800D01*
X178800D02*
Y241000D01*
X171300Y57000D02*
X171300Y64000D01*
X160900Y57000D02*
X168300D01*
X157900D02*
Y64000D01*
X160900D02*
X168300D01*
X157900Y57000D02*
X160900D01*
X157900Y64000D02*
X160900D01*
Y57000D02*
Y64000D01*
X168300D02*
X171300Y64000D01*
X168300Y57000D02*
X171300D01*
X168300D02*
Y64000D01*
X171300Y57000D02*
X171300Y64000D01*
X160900Y57000D02*
X168300D01*
X157900D02*
Y64000D01*
X160900D02*
X168300D01*
X157900Y57000D02*
X160900D01*
X157900Y64000D02*
X160900D01*
Y57000D02*
Y64000D01*
X168300D02*
X171300Y64000D01*
X168300Y57000D02*
X171300D01*
X168300D02*
Y64000D01*
X182100Y223500D02*
Y230500D01*
X171700Y223500D02*
X179100Y223500D01*
X168700Y223500D02*
Y230500D01*
X171700D02*
X179100Y230500D01*
X168700Y223500D02*
X171700D01*
X168700Y230500D02*
X171700D01*
Y223500D02*
Y230500D01*
X179100Y230500D02*
X182100D01*
X179100Y223500D02*
X182100D01*
X179100D02*
Y230500D01*
X182100Y223500D02*
Y230500D01*
X171700Y223500D02*
X179100Y223500D01*
X168700Y223500D02*
Y230500D01*
X171700D02*
X179100Y230500D01*
X168700Y223500D02*
X171700D01*
X168700Y230500D02*
X171700D01*
Y223500D02*
Y230500D01*
X179100Y230500D02*
X182100D01*
X179100Y223500D02*
X182100D01*
X179100D02*
Y230500D01*
X117200Y56500D02*
Y63500D01*
X120200D02*
X127600D01*
X130600Y56500D02*
Y63500D01*
X120200Y56500D02*
X127600D01*
Y63500D02*
X130600D01*
X127600Y56500D02*
X130600D01*
X127600D02*
Y63500D01*
X117200Y56500D02*
X120200D01*
X117200Y63500D02*
X120200D01*
Y56500D02*
Y63500D01*
X117200Y56500D02*
Y63500D01*
X120200D02*
X127600D01*
X130600Y56500D02*
Y63500D01*
X120200Y56500D02*
X127600D01*
Y63500D02*
X130600D01*
X127600Y56500D02*
X130600D01*
X127600D02*
Y63500D01*
X117200Y56500D02*
X120200D01*
X117200Y63500D02*
X120200D01*
Y56500D02*
Y63500D01*
X150100Y56500D02*
Y63500D01*
X139700Y56500D02*
X147100D01*
X136700D02*
Y63500D01*
X139700D02*
X147100D01*
X136700Y56500D02*
X139700D01*
X136700Y63500D02*
X139700D01*
Y56500D02*
Y63500D01*
X147100D02*
X150100D01*
X147100Y56500D02*
X150100D01*
X147100D02*
Y63500D01*
X150100Y56500D02*
Y63500D01*
X139700Y56500D02*
X147100D01*
X136700D02*
Y63500D01*
X139700D02*
X147100D01*
X136700Y56500D02*
X139700D01*
X136700Y63500D02*
X139700D01*
Y56500D02*
Y63500D01*
X147100D02*
X150100D01*
X147100Y56500D02*
X150100D01*
X147100D02*
Y63500D01*
D14*
X255658Y249158D02*
Y268843D01*
X275342Y249158D02*
Y268843D01*
X255658Y249158D02*
Y268843D01*
X275342Y249158D02*
Y268843D01*
X43343Y310319D02*
X73658D01*
Y349098D01*
X43343D02*
X73658D01*
X43343Y310319D02*
Y349098D01*
Y310319D02*
X73658D01*
Y349098D01*
X43343D02*
X73658D01*
X43343Y310319D02*
Y349098D01*
X-12843Y270158D02*
Y289843D01*
X6842Y270158D02*
Y289843D01*
X-12843Y270158D02*
Y289843D01*
X6842Y270158D02*
Y289843D01*
X-12697Y244457D02*
Y264142D01*
X6988Y244457D02*
Y264142D01*
X-12697Y244457D02*
Y264142D01*
X6988Y244457D02*
Y264142D01*
X-12342Y219158D02*
Y238843D01*
X7343Y219158D02*
Y238843D01*
X-12342Y219158D02*
Y238843D01*
X7343Y219158D02*
Y238843D01*
X-12342Y193157D02*
Y212842D01*
X7343Y193157D02*
Y212842D01*
X-12342Y193157D02*
Y212842D01*
X7343Y193157D02*
Y212842D01*
X258126Y297358D02*
X273874D01*
X258126Y279642D02*
Y297358D01*
Y279642D02*
X273874D01*
Y297358D01*
X258126D02*
X273874D01*
X258126Y279642D02*
Y297358D01*
Y279642D02*
X273874D01*
Y297358D01*
X255658Y307658D02*
Y327343D01*
X275342Y307658D02*
Y327343D01*
X255658Y307658D02*
Y327343D01*
X275342Y307658D02*
Y327343D01*
D16*
X58272Y271264D02*
Y282287D01*
X64177Y271264D02*
Y282287D01*
X58272Y271264D02*
Y282287D01*
X64177Y271264D02*
Y282287D01*
D76*
X84200Y325200D02*
Y336800D01*
X96800Y325300D02*
Y336800D01*
X84200Y325200D02*
Y336800D01*
X96800Y325300D02*
Y336800D01*
M02*
