G04*
G04 #@! TF.GenerationSoftware,Altium Limited,Altium Designer,19.1.7 (138)*
G04*
G04 Layer_Color=16711935*
%FSLAX25Y25*%
%MOIN*%
G70*
G01*
G75*
%ADD17C,0.00000*%
%ADD31C,0.06800*%
%ADD32C,0.07296*%
%ADD33C,0.07800*%
%ADD34C,0.11800*%
%ADD35C,0.10249*%
%ADD36C,0.11099*%
%ADD37O,0.11099X0.11099*%
%ADD38C,0.05556*%
%ADD39C,0.05800*%
D17*
X102291Y329760D02*
Y337240D01*
X105441D01*
Y329760D02*
Y337240D01*
X102291Y329760D02*
X105441D01*
X131425Y311059D02*
Y318539D01*
X134575D01*
Y311059D02*
Y318539D01*
X131425Y311059D02*
X134575D01*
X131425Y329760D02*
Y337240D01*
X134575D01*
Y329760D02*
Y337240D01*
X131425Y329760D02*
X134575D01*
X102291Y311059D02*
Y318539D01*
X105441D01*
Y311059D02*
Y318539D01*
X102291Y311059D02*
X105441D01*
D31*
X281000Y193500D02*
D03*
Y183500D02*
D03*
Y173500D02*
D03*
Y163500D02*
D03*
Y153500D02*
D03*
Y143500D02*
D03*
Y133500D02*
D03*
Y123500D02*
D03*
Y113500D02*
D03*
Y103500D02*
D03*
X263500D02*
D03*
Y113500D02*
D03*
Y123500D02*
D03*
Y133500D02*
D03*
Y143500D02*
D03*
Y153500D02*
D03*
Y163500D02*
D03*
Y173500D02*
D03*
Y183500D02*
D03*
Y193500D02*
D03*
X56500Y69500D02*
D03*
Y59500D02*
D03*
Y49500D02*
D03*
Y39500D02*
D03*
Y29500D02*
D03*
Y19500D02*
D03*
Y160000D02*
D03*
Y150000D02*
D03*
Y140000D02*
D03*
Y130000D02*
D03*
Y120000D02*
D03*
Y110000D02*
D03*
Y100000D02*
D03*
Y90000D02*
D03*
X73500D02*
D03*
Y100000D02*
D03*
Y110000D02*
D03*
Y120000D02*
D03*
Y130000D02*
D03*
Y140000D02*
D03*
Y150000D02*
D03*
Y160000D02*
D03*
X263500Y89500D02*
D03*
Y79500D02*
D03*
Y69500D02*
D03*
Y59500D02*
D03*
Y49500D02*
D03*
Y39500D02*
D03*
Y29500D02*
D03*
Y19500D02*
D03*
X73500Y70000D02*
D03*
Y60000D02*
D03*
Y50000D02*
D03*
Y40000D02*
D03*
Y30000D02*
D03*
Y20000D02*
D03*
X281000Y89500D02*
D03*
Y79500D02*
D03*
Y69500D02*
D03*
Y59500D02*
D03*
Y49500D02*
D03*
Y39500D02*
D03*
Y29500D02*
D03*
Y19500D02*
D03*
D32*
X178500Y272000D02*
D03*
Y262000D02*
D03*
Y252000D02*
D03*
X259500D02*
D03*
Y262000D02*
D03*
Y272000D02*
D03*
X214500Y338000D02*
D03*
X204500D02*
D03*
X194500D02*
D03*
D33*
X184000Y19500D02*
D03*
Y9500D02*
D03*
X174000Y19500D02*
D03*
Y9500D02*
D03*
X164000Y19500D02*
D03*
Y9500D02*
D03*
D34*
X14000Y197500D02*
D03*
Y211500D02*
D03*
D35*
X261496Y306221D02*
D03*
X280000Y318000D02*
D03*
Y294500D02*
D03*
D36*
X103866Y333500D02*
D03*
D37*
Y314799D02*
D03*
X133000D02*
D03*
Y333500D02*
D03*
D38*
X115284Y315980D02*
D03*
X121583D02*
D03*
X112134Y311256D02*
D03*
X118433D02*
D03*
X124732D02*
D03*
D39*
X328500Y318500D02*
D03*
X329000Y273000D02*
D03*
X327326Y228326D02*
D03*
X210000Y182000D02*
D03*
Y192500D02*
D03*
X227000Y190000D02*
D03*
X190000Y187500D02*
D03*
X223500Y179500D02*
D03*
X239000D02*
D03*
X168000Y209500D02*
D03*
X92000Y138500D02*
D03*
X288500Y226500D02*
D03*
X181000Y90500D02*
D03*
X190500Y155000D02*
D03*
X195500Y149500D02*
D03*
X189500Y87000D02*
D03*
X204500Y169000D02*
D03*
X172000D02*
D03*
X124500Y50500D02*
D03*
X97000Y37500D02*
D03*
X110500Y41000D02*
D03*
X135750Y82750D02*
D03*
X129000Y77000D02*
D03*
X22500Y91500D02*
D03*
X33000D02*
D03*
X185000Y33000D02*
D03*
X192000Y41500D02*
D03*
X140500Y113500D02*
D03*
X174500Y144500D02*
D03*
X160500Y219500D02*
D03*
X170000Y114000D02*
D03*
X165500Y128000D02*
D03*
X160500Y111500D02*
D03*
X66500Y235500D02*
D03*
X55500Y220500D02*
D03*
X84000Y231000D02*
D03*
X83000Y219500D02*
D03*
X82950Y213000D02*
D03*
X65500Y225500D02*
D03*
X99500Y262500D02*
D03*
X189500Y238000D02*
D03*
X113000Y266000D02*
D03*
X86500Y252000D02*
D03*
X56000Y234500D02*
D03*
X68500Y245000D02*
D03*
X139000Y301000D02*
D03*
X180000Y317000D02*
D03*
Y296500D02*
D03*
X106000Y276000D02*
D03*
X204000Y268500D02*
D03*
X303500Y330000D02*
D03*
X233500Y304000D02*
D03*
X99500D02*
D03*
X122500D02*
D03*
M02*
