M48
;Layer_Color=9474304
;FILE_FORMAT=2:5
INCH,LZ
;TYPE=PLATED
T1F00S00C0.02756
T2F00S00C0.02800
T3F00S00C0.04331
T4F00S00C0.06000
T5F00S00C0.06299
T6F00S00C0.08000
%
T01
X0112134Y0311256
X0118433
X0124732
X0121583Y031598
X0115284
T02
X0097Y00375
X01105Y0041
X01245Y00505
X0192Y00415
X0185Y0033
X02235Y01795
X0227Y019
X0239Y01795
X021Y0182
Y01925
X019Y01875
X01905Y0155
X01955Y01495
X01745Y01445
X01655Y0128
X017Y0114
X01605Y01115
X01405Y01135
X013575Y008275
X0129Y0077
X0181Y00905
X01895Y0087
X02045Y0169
X0172
X0168Y02095
X0092Y01385
X0033Y00915
X00225
X00555Y02205
X0056Y02345
X00665Y02355
X00655Y02255
X00685Y0245
X00865Y0252
X0084Y0231
X0083Y02195
X008295Y0213
X00995Y02625
X0113Y0266
X0106Y0276
X00995Y0304
X01225
X0139Y0301
X018Y02965
Y0317
X0204Y02685
X01895Y0238
X01605Y02195
X02885Y02265
X0327326Y0228326
X0329Y0273
X03285Y03185
X03035Y033
X02335Y0304
T03
X00565Y00195
Y00295
Y00395
Y00495
X00735Y005
Y004
Y003
Y002
X0164Y00195
X0174
X0184
Y00095
X0174
X0164
X02635Y00195
Y00295
Y00395
Y00495
X0281
Y00395
Y00295
Y00195
Y00595
Y00695
Y00795
Y00895
Y01035
Y01135
Y01235
Y01335
Y01435
Y01535
Y01635
Y01735
Y01835
Y01935
X02635
Y01835
Y01735
Y01635
Y01535
Y01435
Y01335
Y01235
Y01135
Y01035
Y00895
Y00795
Y00695
Y00595
X00735Y006
Y007
Y009
Y01
Y011
Y012
Y013
Y014
Y015
Y016
X00565
Y015
Y014
Y013
Y012
Y011
Y01
Y009
Y00695
Y00595
X01785Y0252
Y0262
Y0272
X01945Y0338
X02045
X02145
X02595Y0272
Y0262
Y0252
T04
X0014Y01975
Y02115
T05
X0261496Y0306221
X028Y02945
Y0318
T06
X0103866Y0314799
Y03335
X0133
Y0314799
M30
