G04*
G04 #@! TF.GenerationSoftware,Altium Limited,Altium Designer,19.1.7 (138)*
G04*
G04 Layer_Physical_Order=1*
G04 Layer_Color=255*
%FSLAX25Y25*%
%MOIN*%
G70*
G01*
G75*
%ADD11C,0.00600*%
%ADD17C,0.00000*%
%ADD40R,0.07100X0.04400*%
%ADD41R,0.06300X0.05500*%
%ADD42R,0.05500X0.01370*%
%ADD43R,0.04400X0.07100*%
%ADD44R,0.05800X0.02000*%
%ADD45R,0.02000X0.05800*%
%ADD46R,0.05500X0.06300*%
%ADD47R,0.12200X0.06300*%
%ADD48R,0.03300X0.06300*%
%ADD49R,0.22047X0.08268*%
%ADD50R,0.06693X0.07480*%
%ADD51R,0.02756X0.02000*%
%ADD52R,0.07480X0.13386*%
%ADD53C,0.02000*%
%ADD54C,0.06000*%
%ADD55C,0.06496*%
%ADD56C,0.07000*%
%ADD57C,0.11000*%
%ADD58C,0.09449*%
%ADD59C,0.10299*%
%ADD60O,0.10299X0.10299*%
%ADD61C,0.04756*%
%ADD62C,0.05000*%
D11*
X139000Y301000D02*
X151600D01*
X273000Y201500D02*
X281000Y193500D01*
X250500Y201500D02*
X273000D01*
X245200Y196200D02*
X250500Y201500D01*
X238000Y196200D02*
X245200D01*
X227000Y190000D02*
X230450D01*
X236650Y196200D01*
X238000D01*
X220000Y183000D02*
Y201000D01*
X214625Y177625D02*
X220000Y183000D01*
X201625Y177625D02*
X214625D01*
X190000Y187500D02*
X190500Y188000D01*
X181900Y187500D02*
X190000D01*
X181500Y187900D02*
X181900Y187500D01*
X206300Y199100D02*
X208200Y201000D01*
X206300Y198300D02*
Y199100D01*
X197000Y189000D02*
X206300Y198300D01*
X208200Y201000D02*
Y202350D01*
X190500Y188000D02*
Y195200D01*
X189500Y196200D02*
X190500Y195200D01*
X195500Y171500D02*
X201625Y177625D01*
X195500Y149500D02*
Y171500D01*
X197000Y178950D02*
Y189000D01*
X190500Y172450D02*
X197000Y178950D01*
X235500Y222000D02*
X238000Y219500D01*
Y208000D02*
Y219500D01*
X189500Y218166D02*
X193334Y222000D01*
X198098D01*
X189500Y208000D02*
Y218166D01*
X193950Y208000D02*
X197700Y204250D01*
X206300D01*
X208200Y202350D01*
X189500Y208000D02*
X193950D01*
X229800Y204250D02*
X233550Y208000D01*
X221900Y204250D02*
X229800D01*
X220000Y202350D02*
X221900Y204250D01*
X220000Y201000D02*
Y202350D01*
X233550Y208000D02*
X238000D01*
X151600Y301000D02*
X152600Y302000D01*
X186700Y196400D02*
X188300D01*
X223500Y179500D02*
X233000Y189000D01*
X259000D01*
X242500Y183000D02*
X263000D01*
X239000Y179500D02*
X242500Y183000D01*
X263000D02*
X263500Y183500D01*
X259000Y189000D02*
X263500Y193500D01*
X263000Y133000D02*
X263500Y133500D01*
X262500Y112500D02*
X263500Y113500D01*
X263000Y143000D02*
X263500Y143500D01*
X181500Y163800D02*
Y176100D01*
X174800Y96700D02*
X181000Y90500D01*
X190500Y155000D02*
Y172450D01*
X177900Y98600D02*
X189500Y87000D01*
X177900Y98600D02*
Y103100D01*
X174800Y96700D02*
Y103100D01*
X89500Y20000D02*
X110500Y41000D01*
X89500Y30000D02*
X97000Y37500D01*
X107000Y47500D01*
X110500Y88874D02*
X142526Y120900D01*
X110500Y41000D02*
Y88874D01*
X178600Y134500D02*
Y136200D01*
X145000Y141500D02*
X154500D01*
X97500Y94000D02*
X145000Y141500D01*
X97500Y69000D02*
Y94000D01*
X144000Y143500D02*
X155000D01*
X95000Y94500D02*
X144000Y143500D01*
X95000Y75500D02*
Y94500D01*
X135750Y82750D02*
X136000Y83000D01*
X135750Y60750D02*
Y82750D01*
X129000Y64000D02*
X141000Y52000D01*
X129000Y64000D02*
Y77000D01*
X136000Y83000D02*
Y101000D01*
X129000Y96500D02*
X147100Y114600D01*
X129000Y77000D02*
Y96500D01*
X136000Y101000D02*
X146400Y111400D01*
X135750Y60750D02*
X142500Y54000D01*
X22500Y91500D02*
X22500Y237200D01*
X185000Y20500D02*
Y33000D01*
X192000Y17500D02*
Y41500D01*
X184000Y9500D02*
X192000Y17500D01*
X184000Y19500D02*
X185000Y20500D01*
X146400Y111400D02*
X150700D01*
X147100Y114600D02*
X150700D01*
X142526Y120900D02*
X150700D01*
X158300Y136200D02*
Y140200D01*
X155000Y143500D02*
X158300Y140200D01*
X154500Y141500D02*
X155900Y140100D01*
X73500Y20000D02*
X89500D01*
X73500Y30000D02*
X89500D01*
X107000Y47500D02*
Y89000D01*
X142000Y124000D01*
X150700D01*
X74000Y39500D02*
X89500D01*
X73500Y40000D02*
X74000Y39500D01*
X89500D02*
X104000Y54000D01*
Y89500D01*
X141700Y127200D01*
X150700D01*
X89500Y50000D02*
X101000Y61500D01*
X73500Y50000D02*
X89500D01*
X101000Y61500D02*
Y90500D01*
X140800Y130300D01*
X150700D01*
X73500Y60000D02*
X88500D01*
X97500Y69000D01*
X155900Y135500D02*
Y140100D01*
X73500Y70000D02*
X89500D01*
X95000Y75500D01*
X158300Y136200D02*
X159000Y135500D01*
X209500Y134500D02*
X228500Y153500D01*
X178600Y134500D02*
X209500D01*
X178600Y138100D02*
Y150100D01*
X180500Y152000D02*
X181500D01*
X178600Y150100D02*
X180500Y152000D01*
X177900Y135500D02*
X178600Y136200D01*
X228500Y153500D02*
X263500D01*
X222000Y143000D02*
X263000D01*
X209300Y130300D02*
X222000Y143000D01*
X183100Y130300D02*
X209300D01*
X215500Y133000D02*
X263000D01*
X209700Y127200D02*
X215500Y133000D01*
X183100Y127200D02*
X209700D01*
X183600Y123500D02*
X263500D01*
X183100Y124000D02*
X183600Y123500D01*
X218000Y112500D02*
X262500D01*
X209600Y120900D02*
X218000Y112500D01*
X183100Y120900D02*
X209600D01*
X224000Y103500D02*
X263500D01*
X209800Y117700D02*
X224000Y103500D01*
X183100Y117700D02*
X209800D01*
X213500Y89500D02*
X263500D01*
X188400Y114600D02*
X213500Y89500D01*
X183100Y114600D02*
X188400D01*
X220000Y79500D02*
X263500D01*
X188100Y111400D02*
X220000Y79500D01*
X183100Y111400D02*
X188100D01*
X226500Y69500D02*
X263500D01*
X187700Y108300D02*
X226500Y69500D01*
X183100Y108300D02*
X187700D01*
X210000Y52000D02*
X242000Y20000D01*
X141000Y52000D02*
X210000D01*
X217500Y54000D02*
X242000Y29500D01*
X142500Y54000D02*
X217500Y54000D01*
X242000Y20000D02*
X263000D01*
X242000Y29500D02*
X263500D01*
X147500Y60000D02*
X263500Y60000D01*
X145000Y62500D02*
X147500Y60000D01*
X263500Y60000D02*
X264000D01*
X140000Y102237D02*
X146063Y108300D01*
X140000Y59000D02*
Y102237D01*
Y59000D02*
X143000Y56000D01*
X145000Y86462D02*
X158300Y99761D01*
X145000Y62500D02*
Y86462D01*
X241500Y40000D02*
X263000D01*
X225500Y56000D02*
X241500Y40000D01*
X143000Y56000D02*
X225500D01*
X241548Y49500D02*
X263500D01*
X233149Y57900D02*
X241548Y49500D01*
X142500Y60000D02*
X144600Y57900D01*
X233149D01*
X158300Y99761D02*
Y102400D01*
X159000Y103100D01*
X142500Y60000D02*
Y87800D01*
X155900Y101200D01*
Y103100D01*
X263000Y40000D02*
X263500Y39500D01*
X146063Y108300D02*
X150700D01*
X263000Y20000D02*
X263500Y19500D01*
X133300Y220000D02*
X140400Y212900D01*
X100350Y220000D02*
X133300D01*
X94350Y226000D02*
X100350Y220000D01*
X94647Y236854D02*
X101600Y229900D01*
X82217Y236854D02*
X94647D01*
X94339Y238839D02*
X101600Y246100D01*
X76394Y238839D02*
X94339D01*
X81643Y236280D02*
X82217Y236854D01*
X76394Y236280D02*
X81643D01*
X68500Y238900D02*
Y245000D01*
Y238900D02*
X73294Y234105D01*
X76009D01*
X76394Y233720D01*
X64213Y230587D02*
X64787Y231161D01*
X76650Y226300D02*
X92700D01*
X76394Y226043D02*
X76650Y226300D01*
X92700D02*
X93000Y226000D01*
X82880Y235254D02*
X90000D01*
X81346Y233720D02*
X82880Y235254D01*
X76394Y233720D02*
X81346D01*
X81412Y221088D02*
X83000Y219500D01*
X78459Y218366D02*
X82950Y213875D01*
X76556Y221088D02*
X81412D01*
X76394Y218366D02*
X78459D01*
X82950Y213000D02*
Y213875D01*
X76394Y220925D02*
X76556Y221088D01*
X92500Y226500D02*
Y232753D01*
X90000Y235254D02*
X92500Y232753D01*
X99800Y262200D02*
X118200D01*
X122500Y266500D01*
X99500Y262500D02*
X99800Y262200D01*
X311500Y307500D02*
Y315100D01*
Y307500D02*
X313500Y305500D01*
X311500Y315100D02*
X314000Y317600D01*
X33000Y91500D02*
Y225700D01*
X140400Y212500D02*
Y212900D01*
X93000Y226000D02*
X94350D01*
X122301Y272035D02*
X122500Y271837D01*
Y266500D02*
Y271837D01*
X113000Y271888D02*
X113148Y272035D01*
X113000Y266000D02*
Y271888D01*
X27500Y249000D02*
X30134Y251634D01*
X47606D01*
X22500Y249000D02*
X27500D01*
X41895Y241398D02*
X47606D01*
X39897Y239400D02*
X41895Y241398D01*
X34900Y239400D02*
X39897D01*
X33000Y237500D02*
X34900Y239400D01*
X101600Y229500D02*
Y229900D01*
Y246100D02*
Y246500D01*
X113400Y229500D02*
X114400Y228500D01*
X127500D01*
X113400Y246500D02*
X114400Y247500D01*
X127500D01*
X113300Y212500D02*
X128600D01*
X55500Y207000D02*
X56000Y207500D01*
X55059Y234500D02*
X56000D01*
X53280Y236280D02*
X55059Y234500D01*
X47606Y236280D02*
X53280D01*
X68500Y245000D02*
X69691D01*
X71206Y246516D01*
X76394D01*
X68500Y245000D02*
X69158Y244342D01*
X76009D01*
X76394Y243957D01*
X204000Y250100D02*
X204400Y250500D01*
X231000D01*
X312700Y294500D02*
X313500Y293700D01*
X122301Y279516D02*
X122500Y279715D01*
Y286500D01*
X112448Y280216D02*
X113148Y279516D01*
X112448Y280216D02*
Y286052D01*
X112000Y286500D02*
X112448Y286052D01*
X162400Y302000D02*
X184950D01*
X193150Y310200D01*
X194500D01*
X191500Y322800D02*
X192850D01*
X106000Y276000D02*
X106224Y275776D01*
X204000Y261900D02*
Y268500D01*
X313400Y330000D02*
X314000Y329400D01*
X150000Y315047D02*
Y318000D01*
X96000Y319000D02*
X99000Y322000D01*
X96000Y307500D02*
Y319000D01*
Y307500D02*
X99500Y304000D01*
X115563Y322000D02*
X121583Y315980D01*
X99000Y322000D02*
X115563D01*
X122500Y298300D02*
Y304000D01*
X112000Y299650D02*
X113350Y298300D01*
X112000Y300634D02*
X118433Y307067D01*
X112000Y299650D02*
Y300634D01*
Y298300D02*
X113350D01*
X118433Y307067D02*
Y311256D01*
X112000Y298300D02*
X112500Y297800D01*
D17*
X102291Y329760D02*
Y337240D01*
X105441D01*
Y329760D02*
Y337240D01*
X102291Y329760D02*
X105441D01*
X131425Y311059D02*
Y318539D01*
X134575D01*
Y311059D02*
Y318539D01*
X131425Y311059D02*
X134575D01*
X131425Y329760D02*
Y337240D01*
X134575D01*
Y329760D02*
Y337240D01*
X131425Y329760D02*
X134575D01*
X102291Y311059D02*
Y318539D01*
X105441D01*
Y311059D02*
Y318539D01*
X102291Y311059D02*
X105441D01*
D40*
X22500Y237200D02*
D03*
Y249000D02*
D03*
X181500Y163800D02*
D03*
Y152000D02*
D03*
X33000Y225700D02*
D03*
Y237500D02*
D03*
X240000Y289500D02*
D03*
Y277700D02*
D03*
X291000Y261700D02*
D03*
Y273500D02*
D03*
X189500Y196200D02*
D03*
Y208000D02*
D03*
X238000Y196200D02*
D03*
Y208000D02*
D03*
X93000Y214200D02*
D03*
Y226000D02*
D03*
X231000Y250500D02*
D03*
Y262300D02*
D03*
X194500Y322000D02*
D03*
Y310200D02*
D03*
X112000Y286500D02*
D03*
Y298300D02*
D03*
X122500D02*
D03*
Y286500D02*
D03*
X313500Y293700D02*
D03*
Y305500D02*
D03*
D41*
X181500Y187900D02*
D03*
Y176100D02*
D03*
X204000Y261900D02*
D03*
Y250100D02*
D03*
X314000Y329400D02*
D03*
Y317600D02*
D03*
D42*
X47606Y218366D02*
D03*
Y220925D02*
D03*
Y223484D02*
D03*
Y226043D02*
D03*
Y228602D02*
D03*
Y231161D02*
D03*
Y233720D02*
D03*
Y236280D02*
D03*
Y238839D02*
D03*
Y241398D02*
D03*
Y243957D02*
D03*
Y246516D02*
D03*
Y249075D02*
D03*
Y251634D02*
D03*
X76394Y218366D02*
D03*
Y220925D02*
D03*
Y223484D02*
D03*
Y226043D02*
D03*
Y228602D02*
D03*
Y233720D02*
D03*
Y231161D02*
D03*
Y236280D02*
D03*
Y238839D02*
D03*
Y241398D02*
D03*
Y243957D02*
D03*
Y246516D02*
D03*
Y249075D02*
D03*
Y251634D02*
D03*
D43*
X127500Y228500D02*
D03*
X139300D02*
D03*
X113300Y212500D02*
D03*
X101500D02*
D03*
X139300Y245000D02*
D03*
X127500D02*
D03*
X304700Y273500D02*
D03*
X316500D02*
D03*
X162000Y87500D02*
D03*
X173800D02*
D03*
X160200Y153000D02*
D03*
X172000D02*
D03*
X220000Y201000D02*
D03*
X208200D02*
D03*
X67300Y207000D02*
D03*
X55500D02*
D03*
X212200Y313500D02*
D03*
X224000D02*
D03*
D44*
X150700Y108300D02*
D03*
Y111400D02*
D03*
Y114600D02*
D03*
Y117700D02*
D03*
Y120900D02*
D03*
Y124000D02*
D03*
Y127200D02*
D03*
Y130300D02*
D03*
X183100D02*
D03*
Y127200D02*
D03*
Y124000D02*
D03*
Y120900D02*
D03*
Y117700D02*
D03*
Y114600D02*
D03*
Y111400D02*
D03*
Y108300D02*
D03*
D45*
X155900Y135500D02*
D03*
X159000D02*
D03*
X162200D02*
D03*
X165300D02*
D03*
X168500D02*
D03*
X171600D02*
D03*
X174800D02*
D03*
X177900D02*
D03*
Y103100D02*
D03*
X174800D02*
D03*
X171600D02*
D03*
X168500D02*
D03*
X165300D02*
D03*
X162200D02*
D03*
X159000D02*
D03*
X155900D02*
D03*
D46*
X113400Y229500D02*
D03*
X101600D02*
D03*
X101700Y245500D02*
D03*
X113500D02*
D03*
X140400Y212500D02*
D03*
X128600D02*
D03*
X150600Y302000D02*
D03*
X162400D02*
D03*
D47*
X217500Y270294D02*
D03*
D48*
X208400Y295494D02*
D03*
X217500D02*
D03*
X226600D02*
D03*
D49*
X235500Y222000D02*
D03*
X198098D02*
D03*
D50*
X316323Y257326D02*
D03*
X304323D02*
D03*
X316323Y228326D02*
D03*
X304323D02*
D03*
D51*
X113148Y279516D02*
D03*
Y275776D02*
D03*
Y272035D02*
D03*
X122301D02*
D03*
Y275776D02*
D03*
Y279516D02*
D03*
D52*
X165354Y318000D02*
D03*
X150000D02*
D03*
D53*
X325300Y318500D02*
X328500D01*
X314400Y329400D02*
X325300Y318500D01*
X314000Y329400D02*
X314400D01*
X328500Y273500D02*
X329000Y273000D01*
X316500Y273500D02*
X328500D01*
X316323Y228326D02*
X327326D01*
X316323D02*
Y257326D01*
X210000Y182000D02*
Y192500D01*
X302149Y226500D02*
X304149Y228500D01*
X55500Y208000D02*
X56000Y207500D01*
X174000Y247500D02*
X178500Y252000D01*
X174000Y201250D02*
Y247500D01*
X96000Y123250D02*
X174000Y201250D01*
X168000Y204500D02*
Y209500D01*
X93500Y130000D02*
X168000Y204500D01*
X73500Y130000D02*
X93500D01*
X51500Y69500D02*
X56500D01*
X48000Y73000D02*
X51500Y69500D01*
X48000Y73000D02*
Y85000D01*
X52600Y89600D01*
X56100D01*
X56500Y90000D01*
X73500Y140000D02*
X75000Y138500D01*
X92000D01*
X73500Y150000D02*
X91000D01*
X160500Y219500D01*
X304323Y228326D02*
Y257326D01*
X288500Y226500D02*
X302149D01*
X168500Y94150D02*
X172500Y90150D01*
Y88800D02*
Y90150D01*
Y88800D02*
X173800Y87500D01*
X204500Y169000D02*
X233500D01*
X238000Y173500D02*
X263500D01*
X233500Y169000D02*
X238000Y173500D01*
X172000Y153000D02*
Y169000D01*
X140500Y34500D02*
X168000D01*
X124500Y50500D02*
X140500Y34500D01*
X124500Y50500D02*
Y97500D01*
X140500Y113500D01*
X65000Y10000D02*
X71000Y4000D01*
X168500D01*
X174000Y9500D01*
X65000Y10000D02*
Y111500D01*
X73500Y120000D01*
X174000Y19500D02*
Y28500D01*
X168000Y34500D02*
X174000Y28500D01*
X140500Y113500D02*
X144700Y117700D01*
X150700D01*
X65000Y127500D02*
X72500Y120000D01*
X73500D01*
X65000Y127500D02*
Y141500D01*
X73500Y150000D01*
X83758Y231081D02*
X83839Y231161D01*
X73500Y90000D02*
X85500D01*
X96000Y100500D01*
Y123250D01*
X174500Y144500D02*
X174800Y144200D01*
Y135500D02*
Y144200D01*
X160200Y151650D02*
Y153000D01*
Y151650D02*
X165300Y146550D01*
Y135500D02*
Y146550D01*
X172000Y151650D02*
Y152000D01*
X168500Y148150D02*
X172000Y151650D01*
X168500Y135500D02*
Y148150D01*
Y94150D02*
Y103100D01*
X162000Y87500D02*
Y88850D01*
X165300Y92150D01*
Y103100D01*
X168500Y112500D02*
X170000Y114000D01*
X171600Y108100D02*
X175000Y111500D01*
X171600Y103100D02*
Y108100D01*
X175000Y111500D02*
Y127600D01*
X174800Y127800D02*
X175000Y127600D01*
X165300Y118300D02*
X174800Y127800D01*
Y135500D01*
X165300Y103100D02*
Y118300D01*
X168500Y103100D02*
Y112500D01*
X160500Y111500D02*
X162200Y109800D01*
Y103100D02*
Y109800D01*
X165300Y128200D02*
X165500Y128000D01*
X165300Y128200D02*
Y135500D01*
X173800Y85000D02*
Y87500D01*
X139300Y249300D02*
X148000Y258000D01*
X139300Y245000D02*
Y249300D01*
X139800Y228000D02*
X147000D01*
X139300Y228500D02*
X139800Y228000D01*
X147000D02*
X148500Y229500D01*
Y243500D01*
X147000Y245000D02*
X148500Y243500D01*
X139300Y245000D02*
X147000D01*
X289500Y260200D02*
X291000Y261700D01*
X265950Y238000D02*
X289650Y261700D01*
X65500Y235500D02*
X66500D01*
X57043Y243957D02*
X65500Y235500D01*
X64787Y231161D02*
X76394D01*
X66602Y228602D02*
X76394D01*
X65000Y227000D02*
X66602Y228602D01*
X60000Y226374D02*
X64213Y230587D01*
X60000Y223000D02*
Y226374D01*
X55500Y208000D02*
Y220500D01*
X83839Y231161D02*
X84000Y231000D01*
X92700Y215500D02*
X93800Y214400D01*
X80614Y224000D02*
X85250D01*
X80098Y223484D02*
X80614Y224000D01*
X85250D02*
X87800Y221450D01*
X76394Y223484D02*
X80098D01*
X87800Y216700D02*
Y221450D01*
Y216700D02*
X89000Y215500D01*
X65500Y225500D02*
Y226500D01*
X65000Y227000D02*
X65500Y226500D01*
Y225500D02*
X67516Y223484D01*
X76394D01*
X148000Y258000D02*
X160500Y270500D01*
X92500Y258000D02*
X148000D01*
X86500Y252000D02*
X92500Y258000D01*
X160500Y270500D02*
X162000Y272000D01*
X160500Y219500D02*
Y270500D01*
X304323Y257326D02*
X304700Y257703D01*
Y273500D01*
X291000D02*
X304700D01*
X289650Y261700D02*
X291000D01*
X189500Y238000D02*
X265950D01*
X304149Y228500D02*
X304323Y228326D01*
X89000Y215500D02*
X92700D01*
X162000Y272000D02*
X178500D01*
X76474Y231081D02*
X83758D01*
X76394Y231161D02*
X76474Y231081D01*
X99600Y214400D02*
X101500Y212500D01*
X93800Y214400D02*
X99600D01*
X67300Y207000D02*
Y215700D01*
X60000Y223000D02*
X67300Y215700D01*
X47606Y243957D02*
X57043D01*
X280000Y294500D02*
X312700D01*
X259500Y262000D02*
Y272000D01*
X254808Y268144D02*
X258664Y272000D01*
X222600Y268144D02*
X254808D01*
X217500Y270294D02*
X219206Y272000D01*
X234450D01*
X222600Y268144D02*
X227244Y263500D01*
X219650Y268144D02*
X222600D01*
X258664Y272000D02*
X259500D01*
X217500Y270294D02*
X219650Y268144D01*
X234450Y272000D02*
X238650Y277700D01*
X240000D01*
X229800Y263500D02*
X231000Y262300D01*
X227244Y263500D02*
X229800D01*
X208400Y295494D02*
Y296994D01*
X212200Y300794D01*
Y313500D01*
X204500Y300894D02*
X208400Y296994D01*
X217500Y270294D02*
Y295494D01*
X165354Y318000D02*
X166354Y317000D01*
X180000D01*
X176000Y296500D02*
X180000D01*
X194500Y322000D02*
Y338000D01*
X155276Y275776D02*
X176000Y296500D01*
X122301Y275776D02*
X155276D01*
X165354Y318000D02*
Y320953D01*
X182402Y338000D02*
X194500D01*
X165354Y320953D02*
X182402Y338000D01*
X190500Y287000D02*
X198994Y295494D01*
X208400D01*
X190500Y256500D02*
Y287000D01*
X186000Y252000D02*
X190500Y256500D01*
X178500Y252000D02*
X186000D01*
X178500D02*
Y262000D01*
X212200Y313500D02*
Y314850D01*
X204500Y300894D02*
Y338000D01*
X106224Y275776D02*
X113148D01*
X279500Y295000D02*
Y302500D01*
Y295000D02*
X280000Y294500D01*
X244000Y338000D02*
X279500Y302500D01*
X214500Y338000D02*
X244000D01*
X303500Y330000D02*
X313400D01*
X226600Y296994D02*
X233500Y303894D01*
Y304000D01*
X226600Y295494D02*
Y296994D01*
Y295494D02*
X232656D01*
X238650Y289500D01*
X240000D01*
X224000Y299594D02*
X226600Y296994D01*
X224000Y299594D02*
Y313500D01*
X124732Y311256D02*
X129488Y306500D01*
X138000D01*
X148274Y316774D01*
D54*
X281000Y193500D02*
D03*
Y183500D02*
D03*
Y173500D02*
D03*
Y163500D02*
D03*
Y153500D02*
D03*
Y143500D02*
D03*
Y133500D02*
D03*
Y123500D02*
D03*
Y113500D02*
D03*
Y103500D02*
D03*
X263500D02*
D03*
Y113500D02*
D03*
Y123500D02*
D03*
Y133500D02*
D03*
Y143500D02*
D03*
Y153500D02*
D03*
Y163500D02*
D03*
Y173500D02*
D03*
Y183500D02*
D03*
Y193500D02*
D03*
X56500Y69500D02*
D03*
Y59500D02*
D03*
Y49500D02*
D03*
Y39500D02*
D03*
Y29500D02*
D03*
Y19500D02*
D03*
Y160000D02*
D03*
Y150000D02*
D03*
Y140000D02*
D03*
Y130000D02*
D03*
Y120000D02*
D03*
Y110000D02*
D03*
Y100000D02*
D03*
Y90000D02*
D03*
X73500D02*
D03*
Y100000D02*
D03*
Y110000D02*
D03*
Y120000D02*
D03*
Y130000D02*
D03*
Y140000D02*
D03*
Y150000D02*
D03*
Y160000D02*
D03*
X263500Y89500D02*
D03*
Y79500D02*
D03*
Y69500D02*
D03*
Y59500D02*
D03*
Y49500D02*
D03*
Y39500D02*
D03*
Y29500D02*
D03*
Y19500D02*
D03*
X73500Y70000D02*
D03*
Y60000D02*
D03*
Y50000D02*
D03*
Y40000D02*
D03*
Y30000D02*
D03*
Y20000D02*
D03*
X281000Y89500D02*
D03*
Y79500D02*
D03*
Y69500D02*
D03*
Y59500D02*
D03*
Y49500D02*
D03*
Y39500D02*
D03*
Y29500D02*
D03*
Y19500D02*
D03*
D55*
X178500Y272000D02*
D03*
Y262000D02*
D03*
Y252000D02*
D03*
X259500D02*
D03*
Y262000D02*
D03*
Y272000D02*
D03*
X214500Y338000D02*
D03*
X204500D02*
D03*
X194500D02*
D03*
D56*
X184000Y19500D02*
D03*
Y9500D02*
D03*
X174000Y19500D02*
D03*
Y9500D02*
D03*
X164000Y19500D02*
D03*
Y9500D02*
D03*
D57*
X14000Y197500D02*
D03*
Y211500D02*
D03*
D58*
X261496Y306221D02*
D03*
X280000Y318000D02*
D03*
Y294500D02*
D03*
D59*
X103866Y333500D02*
D03*
D60*
Y314799D02*
D03*
X133000D02*
D03*
Y333500D02*
D03*
D61*
X115284Y315980D02*
D03*
X121583D02*
D03*
X112134Y311256D02*
D03*
X118433D02*
D03*
X124732D02*
D03*
D62*
X328500Y318500D02*
D03*
X329000Y273000D02*
D03*
X327326Y228326D02*
D03*
X210000Y182000D02*
D03*
Y192500D02*
D03*
X227000Y190000D02*
D03*
X190000Y187500D02*
D03*
X223500Y179500D02*
D03*
X239000D02*
D03*
X168000Y209500D02*
D03*
X92000Y138500D02*
D03*
X288500Y226500D02*
D03*
X181000Y90500D02*
D03*
X190500Y155000D02*
D03*
X195500Y149500D02*
D03*
X189500Y87000D02*
D03*
X204500Y169000D02*
D03*
X172000D02*
D03*
X124500Y50500D02*
D03*
X97000Y37500D02*
D03*
X110500Y41000D02*
D03*
X135750Y82750D02*
D03*
X129000Y77000D02*
D03*
X22500Y91500D02*
D03*
X33000D02*
D03*
X185000Y33000D02*
D03*
X192000Y41500D02*
D03*
X140500Y113500D02*
D03*
X174500Y144500D02*
D03*
X160500Y219500D02*
D03*
X170000Y114000D02*
D03*
X165500Y128000D02*
D03*
X160500Y111500D02*
D03*
X66500Y235500D02*
D03*
X55500Y220500D02*
D03*
X84000Y231000D02*
D03*
X83000Y219500D02*
D03*
X82950Y213000D02*
D03*
X65500Y225500D02*
D03*
X99500Y262500D02*
D03*
X189500Y238000D02*
D03*
X113000Y266000D02*
D03*
X86500Y252000D02*
D03*
X56000Y234500D02*
D03*
X68500Y245000D02*
D03*
X139000Y301000D02*
D03*
X180000Y317000D02*
D03*
Y296500D02*
D03*
X106000Y276000D02*
D03*
X204000Y268500D02*
D03*
X303500Y330000D02*
D03*
X233500Y304000D02*
D03*
X99500D02*
D03*
X122500D02*
D03*
M02*
