G04*
G04 #@! TF.GenerationSoftware,Altium Limited,Altium Designer,19.1.7 (138)*
G04*
G04 Layer_Color=16711935*
%FSLAX25Y25*%
%MOIN*%
G70*
G01*
G75*
%ADD44C,0.06800*%
%ADD45C,0.07296*%
%ADD46C,0.07800*%
%ADD47C,0.11800*%
%ADD48C,0.10249*%
%ADD49C,0.11099*%
%ADD50O,0.11099X0.11099*%
%ADD51C,0.05556*%
%ADD52C,0.05800*%
D44*
X281000Y193500D02*
D03*
Y183500D02*
D03*
Y173500D02*
D03*
Y163500D02*
D03*
Y153500D02*
D03*
Y143500D02*
D03*
Y133500D02*
D03*
Y123500D02*
D03*
Y113500D02*
D03*
Y103500D02*
D03*
X263500D02*
D03*
Y113500D02*
D03*
Y123500D02*
D03*
Y133500D02*
D03*
Y143500D02*
D03*
Y153500D02*
D03*
Y163500D02*
D03*
Y173500D02*
D03*
Y183500D02*
D03*
Y193500D02*
D03*
X56500Y69500D02*
D03*
Y59500D02*
D03*
Y49500D02*
D03*
Y39500D02*
D03*
Y29500D02*
D03*
Y19500D02*
D03*
Y160000D02*
D03*
Y150000D02*
D03*
Y140000D02*
D03*
Y130000D02*
D03*
Y120000D02*
D03*
Y110000D02*
D03*
Y100000D02*
D03*
Y90000D02*
D03*
X73500D02*
D03*
Y100000D02*
D03*
Y110000D02*
D03*
Y120000D02*
D03*
Y130000D02*
D03*
Y140000D02*
D03*
Y150000D02*
D03*
Y160000D02*
D03*
X263500Y89500D02*
D03*
Y79500D02*
D03*
Y69500D02*
D03*
Y59500D02*
D03*
Y49500D02*
D03*
Y39500D02*
D03*
Y29500D02*
D03*
Y19500D02*
D03*
X73500Y70000D02*
D03*
Y60000D02*
D03*
Y50000D02*
D03*
Y40000D02*
D03*
Y30000D02*
D03*
Y20000D02*
D03*
X281000Y89500D02*
D03*
Y79500D02*
D03*
Y69500D02*
D03*
Y59500D02*
D03*
Y49500D02*
D03*
Y39500D02*
D03*
Y29500D02*
D03*
Y19500D02*
D03*
D45*
X174000Y278000D02*
D03*
Y268000D02*
D03*
Y258000D02*
D03*
X237000Y259500D02*
D03*
Y269500D02*
D03*
Y279500D02*
D03*
X214500Y338000D02*
D03*
X204500D02*
D03*
X194500D02*
D03*
D46*
X184000Y19500D02*
D03*
Y9500D02*
D03*
X174000Y19500D02*
D03*
Y9500D02*
D03*
X164000Y19500D02*
D03*
Y9500D02*
D03*
D47*
X49000Y197500D02*
D03*
Y183500D02*
D03*
D48*
X234996Y307220D02*
D03*
X253500Y319000D02*
D03*
Y295500D02*
D03*
D49*
X119083Y333520D02*
D03*
D50*
Y314819D02*
D03*
X148217D02*
D03*
Y333520D02*
D03*
D51*
X130500Y316000D02*
D03*
X136799D02*
D03*
X127350Y311276D02*
D03*
X133650D02*
D03*
X139949D02*
D03*
D52*
X165500Y211500D02*
D03*
X130500Y215500D02*
D03*
X206000Y20000D02*
D03*
X220500Y38500D02*
D03*
X215000Y44500D02*
D03*
X198000Y27500D02*
D03*
X228000Y51500D02*
D03*
X220500Y58000D02*
D03*
X214000Y64000D02*
D03*
X226000Y75500D02*
D03*
X219000Y83000D02*
D03*
Y101500D02*
D03*
X226500Y134375D02*
D03*
X232250Y89250D02*
D03*
X232500Y70000D02*
D03*
X226000Y95000D02*
D03*
X175000Y32500D02*
D03*
X243500Y126500D02*
D03*
X235400Y130400D02*
D03*
X164000Y29500D02*
D03*
X161000Y125000D02*
D03*
X160500Y145000D02*
D03*
X196500Y148500D02*
D03*
Y140000D02*
D03*
X183000Y138000D02*
D03*
X169500Y123500D02*
D03*
X205500Y140500D02*
D03*
Y149000D02*
D03*
X190500Y134500D02*
D03*
X227000Y169500D02*
D03*
Y177000D02*
D03*
X238000D02*
D03*
Y169500D02*
D03*
X104000Y132000D02*
D03*
X112500Y128000D02*
D03*
X131000Y149000D02*
D03*
X122000Y140500D02*
D03*
X93000Y154500D02*
D03*
X99000Y149000D02*
D03*
X109500Y139000D02*
D03*
X179500Y191000D02*
D03*
X170000Y190500D02*
D03*
X180000Y200000D02*
D03*
X169500D02*
D03*
X156500Y173500D02*
D03*
X144000Y182000D02*
D03*
X179500Y180500D02*
D03*
X169500D02*
D03*
X108500Y156000D02*
D03*
X174000Y173500D02*
D03*
X132500Y92500D02*
D03*
X234500Y238000D02*
D03*
X221000D02*
D03*
X178500Y238500D02*
D03*
X169500D02*
D03*
X142500Y102000D02*
D03*
X129000Y100000D02*
D03*
X124500Y155000D02*
D03*
X97000Y125000D02*
D03*
X174500Y110000D02*
D03*
X165000Y109000D02*
D03*
X194500Y88000D02*
D03*
X207500Y70500D02*
D03*
X101500Y163000D02*
D03*
X114500Y150000D02*
D03*
X90000Y130000D02*
D03*
X105500Y110000D02*
D03*
X103000Y119000D02*
D03*
X112500Y117000D02*
D03*
X140000Y112500D02*
D03*
X181000Y92500D02*
D03*
X145000Y77500D02*
D03*
X72500Y177000D02*
D03*
X64500Y189000D02*
D03*
X125500Y128000D02*
D03*
X80500Y177500D02*
D03*
X71500Y189000D02*
D03*
X165000Y117000D02*
D03*
X173000Y145000D02*
D03*
X42500Y253000D02*
D03*
X53000Y253500D02*
D03*
X113500Y217500D02*
D03*
X112500Y184500D02*
D03*
X103500Y193500D02*
D03*
X90000Y224000D02*
D03*
X83500Y218500D02*
D03*
X97543Y211043D02*
D03*
X136000Y304000D02*
D03*
X121000D02*
D03*
X91000Y216500D02*
D03*
X97000Y203500D02*
D03*
X206500Y46500D02*
D03*
X132500D02*
D03*
X96000Y230000D02*
D03*
X116500Y270000D02*
D03*
X189500Y259000D02*
D03*
X220500Y297000D02*
D03*
X159000Y294000D02*
D03*
X278500Y333500D02*
D03*
M02*
