G04*
G04 #@! TF.GenerationSoftware,Altium Limited,Altium Designer,19.1.7 (138)*
G04*
G04 Layer_Color=255*
%FSLAX25Y25*%
%MOIN*%
G70*
G01*
G75*
%ADD55C,0.06000*%
%ADD56C,0.06496*%
%ADD57C,0.07000*%
%ADD58C,0.11000*%
%ADD59C,0.09449*%
%ADD60C,0.10299*%
%ADD61O,0.10299X0.10299*%
%ADD62C,0.04756*%
D55*
X281000Y193500D02*
D03*
Y183500D02*
D03*
Y173500D02*
D03*
Y163500D02*
D03*
Y153500D02*
D03*
Y143500D02*
D03*
Y133500D02*
D03*
Y123500D02*
D03*
Y113500D02*
D03*
Y103500D02*
D03*
X263500D02*
D03*
Y113500D02*
D03*
Y123500D02*
D03*
Y133500D02*
D03*
Y143500D02*
D03*
Y153500D02*
D03*
Y163500D02*
D03*
Y173500D02*
D03*
Y183500D02*
D03*
Y193500D02*
D03*
X56500Y69500D02*
D03*
Y59500D02*
D03*
Y49500D02*
D03*
Y39500D02*
D03*
Y29500D02*
D03*
Y19500D02*
D03*
Y160000D02*
D03*
Y150000D02*
D03*
Y140000D02*
D03*
Y130000D02*
D03*
Y120000D02*
D03*
Y110000D02*
D03*
Y100000D02*
D03*
Y90000D02*
D03*
X73500D02*
D03*
Y100000D02*
D03*
Y110000D02*
D03*
Y120000D02*
D03*
Y130000D02*
D03*
Y140000D02*
D03*
Y150000D02*
D03*
Y160000D02*
D03*
X263500Y89500D02*
D03*
Y79500D02*
D03*
Y69500D02*
D03*
Y59500D02*
D03*
Y49500D02*
D03*
Y39500D02*
D03*
Y29500D02*
D03*
Y19500D02*
D03*
X73500Y70000D02*
D03*
Y60000D02*
D03*
Y50000D02*
D03*
Y40000D02*
D03*
Y30000D02*
D03*
Y20000D02*
D03*
X281000Y89500D02*
D03*
Y79500D02*
D03*
Y69500D02*
D03*
Y59500D02*
D03*
Y49500D02*
D03*
Y39500D02*
D03*
Y29500D02*
D03*
Y19500D02*
D03*
D56*
X174000Y278000D02*
D03*
Y268000D02*
D03*
Y258000D02*
D03*
X237000Y259500D02*
D03*
Y269500D02*
D03*
Y279500D02*
D03*
X214500Y338000D02*
D03*
X204500D02*
D03*
X194500D02*
D03*
D57*
X184000Y19500D02*
D03*
Y9500D02*
D03*
X174000Y19500D02*
D03*
Y9500D02*
D03*
X164000Y19500D02*
D03*
Y9500D02*
D03*
D58*
X49000Y197500D02*
D03*
Y183500D02*
D03*
D59*
X234996Y307220D02*
D03*
X253500Y319000D02*
D03*
Y295500D02*
D03*
D60*
X119083Y333520D02*
D03*
D61*
Y314819D02*
D03*
X148217D02*
D03*
Y333520D02*
D03*
D62*
X130500Y316000D02*
D03*
X136799D02*
D03*
X127350Y311276D02*
D03*
X133650D02*
D03*
X139949D02*
D03*
M02*
