G04*
G04 #@! TF.GenerationSoftware,Altium Limited,Altium Designer,19.1.7 (138)*
G04*
G04 Layer_Physical_Order=2*
G04 Layer_Color=16711680*
%FSLAX25Y25*%
%MOIN*%
G70*
G01*
G75*
%ADD11C,0.00600*%
%ADD54C,0.02000*%
%ADD55C,0.06000*%
%ADD56C,0.06496*%
%ADD57C,0.07000*%
%ADD58C,0.11000*%
%ADD59C,0.09449*%
%ADD60C,0.10299*%
%ADD61O,0.10299X0.10299*%
%ADD62C,0.04756*%
%ADD63C,0.05000*%
G36*
X295971Y2029D02*
X37529D01*
Y347971D01*
X295971D01*
Y2029D01*
D02*
G37*
%LPC*%
G36*
X148717Y339650D02*
Y334020D01*
X154347D01*
X154277Y334725D01*
X153926Y335884D01*
X153355Y336953D01*
X152586Y337889D01*
X151650Y338657D01*
X150581Y339229D01*
X149422Y339580D01*
X148717Y339650D01*
D02*
G37*
G36*
X119583D02*
Y334020D01*
X125213D01*
X125143Y334725D01*
X124792Y335884D01*
X124221Y336953D01*
X123452Y337889D01*
X122516Y338657D01*
X121447Y339229D01*
X120288Y339580D01*
X119583Y339650D01*
D02*
G37*
G36*
X147717D02*
X147011Y339580D01*
X145852Y339229D01*
X144783Y338657D01*
X143847Y337889D01*
X143079Y336953D01*
X142508Y335884D01*
X142156Y334725D01*
X142087Y334020D01*
X147717D01*
Y339650D01*
D02*
G37*
G36*
X118583D02*
X117877Y339580D01*
X116718Y339229D01*
X115649Y338657D01*
X114713Y337889D01*
X113945Y336953D01*
X113374Y335884D01*
X113022Y334725D01*
X112952Y334020D01*
X118583D01*
Y339650D01*
D02*
G37*
G36*
X279000Y336964D02*
Y334000D01*
X281964D01*
X281910Y334414D01*
X281557Y335265D01*
X280996Y335996D01*
X280265Y336557D01*
X279414Y336910D01*
X279000Y336964D01*
D02*
G37*
G36*
X278000D02*
X277586Y336910D01*
X276735Y336557D01*
X276004Y335996D01*
X275443Y335265D01*
X275090Y334414D01*
X275036Y334000D01*
X278000D01*
Y336964D01*
D02*
G37*
G36*
X214500Y342285D02*
X213391Y342139D01*
X212358Y341711D01*
X211470Y341030D01*
X210789Y340142D01*
X210361Y339109D01*
X210215Y338000D01*
X210361Y336891D01*
X210789Y335858D01*
X211470Y334970D01*
X212358Y334289D01*
X213391Y333861D01*
X214500Y333715D01*
X215609Y333861D01*
X216642Y334289D01*
X217530Y334970D01*
X218211Y335858D01*
X218639Y336891D01*
X218785Y338000D01*
X218639Y339109D01*
X218211Y340142D01*
X217530Y341030D01*
X216642Y341711D01*
X215609Y342139D01*
X214500Y342285D01*
D02*
G37*
G36*
X204500D02*
X203391Y342139D01*
X202358Y341711D01*
X201470Y341030D01*
X200789Y340142D01*
X200361Y339109D01*
X200215Y338000D01*
X200361Y336891D01*
X200789Y335858D01*
X201470Y334970D01*
X202358Y334289D01*
X203391Y333861D01*
X204500Y333715D01*
X205609Y333861D01*
X206642Y334289D01*
X207530Y334970D01*
X208211Y335858D01*
X208639Y336891D01*
X208785Y338000D01*
X208639Y339109D01*
X208211Y340142D01*
X207530Y341030D01*
X206642Y341711D01*
X205609Y342139D01*
X204500Y342285D01*
D02*
G37*
G36*
X194500D02*
X193391Y342139D01*
X192358Y341711D01*
X191470Y341030D01*
X190789Y340142D01*
X190361Y339109D01*
X190215Y338000D01*
X190361Y336891D01*
X190789Y335858D01*
X191470Y334970D01*
X192358Y334289D01*
X193391Y333861D01*
X194500Y333715D01*
X195609Y333861D01*
X196642Y334289D01*
X197530Y334970D01*
X198211Y335858D01*
X198639Y336891D01*
X198785Y338000D01*
X198639Y339109D01*
X198211Y340142D01*
X197530Y341030D01*
X196642Y341711D01*
X195609Y342139D01*
X194500Y342285D01*
D02*
G37*
G36*
X281964Y333000D02*
X279000D01*
Y330036D01*
X279414Y330090D01*
X280265Y330443D01*
X280996Y331004D01*
X281557Y331735D01*
X281910Y332586D01*
X281964Y333000D01*
D02*
G37*
G36*
X278000D02*
X275036D01*
X275090Y332586D01*
X275443Y331735D01*
X276004Y331004D01*
X276735Y330443D01*
X277586Y330090D01*
X278000Y330036D01*
Y333000D01*
D02*
G37*
G36*
X125213Y333020D02*
X119583D01*
Y327390D01*
X120288Y327459D01*
X121447Y327811D01*
X122516Y328382D01*
X123452Y329150D01*
X124221Y330086D01*
X124792Y331155D01*
X125143Y332314D01*
X125213Y333020D01*
D02*
G37*
G36*
X154347D02*
X148717D01*
Y327390D01*
X149422Y327459D01*
X150581Y327811D01*
X151650Y328382D01*
X152586Y329150D01*
X153355Y330086D01*
X153926Y331155D01*
X154277Y332314D01*
X154347Y333020D01*
D02*
G37*
G36*
X147717D02*
X142087D01*
X142156Y332314D01*
X142508Y331155D01*
X143079Y330086D01*
X143847Y329150D01*
X144783Y328382D01*
X145852Y327811D01*
X147011Y327459D01*
X147717Y327390D01*
Y333020D01*
D02*
G37*
G36*
X118583D02*
X112952D01*
X113022Y332314D01*
X113374Y331155D01*
X113945Y330086D01*
X114713Y329150D01*
X115649Y328382D01*
X116718Y327811D01*
X117877Y327459D01*
X118583Y327390D01*
Y333020D01*
D02*
G37*
G36*
X254000Y324708D02*
Y319500D01*
X259208D01*
X259077Y320494D01*
X258500Y321887D01*
X257583Y323083D01*
X256387Y324000D01*
X254994Y324577D01*
X254000Y324708D01*
D02*
G37*
G36*
X253000D02*
X252006Y324577D01*
X250613Y324000D01*
X249417Y323083D01*
X248500Y321887D01*
X247923Y320494D01*
X247792Y319500D01*
X253000D01*
Y324708D01*
D02*
G37*
G36*
X136799Y319407D02*
X135917Y319291D01*
X135096Y318951D01*
X134390Y318409D01*
X133942Y317825D01*
X133765Y317781D01*
X133535D01*
X133358Y317825D01*
X132909Y318409D01*
X132203Y318951D01*
X131382Y319291D01*
X130500Y319407D01*
X129618Y319291D01*
X128797Y318951D01*
X128091Y318409D01*
X127549Y317704D01*
X127209Y316882D01*
X127093Y316000D01*
X127209Y315118D01*
X126874Y314620D01*
X126469Y314567D01*
X125708Y314252D01*
X125552Y314319D01*
X119583D01*
Y308689D01*
X120288Y308758D01*
X121447Y309110D01*
X122516Y309681D01*
X123452Y310450D01*
X123570Y310594D01*
X124051Y310456D01*
X124059Y310394D01*
X124400Y309572D01*
X124941Y308866D01*
X125647Y308325D01*
X126469Y307985D01*
X126850Y307934D01*
Y311276D01*
X127850D01*
Y307934D01*
X128232Y307985D01*
X129054Y308325D01*
X129760Y308866D01*
X130208Y309451D01*
X130385Y309494D01*
X130615D01*
X130792Y309451D01*
X131240Y308866D01*
X131946Y308325D01*
X132768Y307985D01*
X133650Y307869D01*
X134531Y307985D01*
X135353Y308325D01*
X136059Y308866D01*
X136507Y309451D01*
X136684Y309494D01*
X136914D01*
X137091Y309451D01*
X137540Y308866D01*
X138245Y308325D01*
X139067Y307985D01*
X139949Y307869D01*
X140831Y307985D01*
X141652Y308325D01*
X142358Y308866D01*
X142899Y309572D01*
X143240Y310394D01*
X143248Y310456D01*
X143729Y310594D01*
X143847Y310450D01*
X144783Y309681D01*
X145852Y309110D01*
X147011Y308758D01*
X147717Y308689D01*
Y314319D01*
X141747D01*
X141591Y314252D01*
X140831Y314567D01*
X140425Y314620D01*
X140090Y315118D01*
X140206Y316000D01*
X140090Y316882D01*
X139750Y317704D01*
X139208Y318409D01*
X138503Y318951D01*
X137681Y319291D01*
X136799Y319407D01*
D02*
G37*
G36*
X148717Y320949D02*
Y315319D01*
X154347D01*
X154277Y316024D01*
X153926Y317184D01*
X153355Y318252D01*
X152586Y319188D01*
X151650Y319957D01*
X150581Y320528D01*
X149422Y320880D01*
X148717Y320949D01*
D02*
G37*
G36*
X119583D02*
Y315319D01*
X125213D01*
X125143Y316024D01*
X124792Y317184D01*
X124221Y318252D01*
X123452Y319188D01*
X122516Y319957D01*
X121447Y320528D01*
X120288Y320880D01*
X119583Y320949D01*
D02*
G37*
G36*
X147717D02*
X147011Y320880D01*
X145852Y320528D01*
X144783Y319957D01*
X143847Y319188D01*
X143079Y318252D01*
X142508Y317184D01*
X142156Y316024D01*
X142087Y315319D01*
X147717D01*
Y320949D01*
D02*
G37*
G36*
X118583D02*
X117877Y320880D01*
X116718Y320528D01*
X115649Y319957D01*
X114713Y319188D01*
X113945Y318252D01*
X113374Y317184D01*
X113022Y316024D01*
X112952Y315319D01*
X118583D01*
Y320949D01*
D02*
G37*
G36*
X259208Y318500D02*
X254000D01*
Y313292D01*
X254994Y313423D01*
X256387Y314000D01*
X257583Y314917D01*
X258500Y316113D01*
X259077Y317506D01*
X259208Y318500D01*
D02*
G37*
G36*
X253000D02*
X247792D01*
X247923Y317506D01*
X248500Y316113D01*
X249417Y314917D01*
X250613Y314000D01*
X252006Y313423D01*
X253000Y313292D01*
Y318500D01*
D02*
G37*
G36*
X154347Y314319D02*
X148717D01*
Y308689D01*
X149422Y308758D01*
X150581Y309110D01*
X151650Y309681D01*
X152586Y310450D01*
X153355Y311386D01*
X153926Y312454D01*
X154277Y313614D01*
X154347Y314319D01*
D02*
G37*
G36*
X118583D02*
X112952D01*
X113022Y313614D01*
X113374Y312454D01*
X113945Y311386D01*
X114713Y310450D01*
X115649Y309681D01*
X116718Y309110D01*
X117877Y308758D01*
X118583Y308689D01*
Y314319D01*
D02*
G37*
G36*
X235496Y312928D02*
Y307720D01*
X240704D01*
X240573Y308715D01*
X239996Y310107D01*
X239079Y311303D01*
X237883Y312221D01*
X236490Y312797D01*
X235496Y312928D01*
D02*
G37*
G36*
X234496D02*
X233502Y312797D01*
X232109Y312221D01*
X230913Y311303D01*
X229996Y310107D01*
X229419Y308715D01*
X229288Y307720D01*
X234496D01*
Y312928D01*
D02*
G37*
G36*
X136000Y307530D02*
X135086Y307410D01*
X134235Y307057D01*
X133504Y306496D01*
X132943Y305765D01*
X132761Y305326D01*
X124239D01*
X124057Y305765D01*
X123496Y306496D01*
X122765Y307057D01*
X121914Y307410D01*
X121000Y307530D01*
X120086Y307410D01*
X119235Y307057D01*
X118504Y306496D01*
X117943Y305765D01*
X117590Y304914D01*
X117470Y304000D01*
X117590Y303086D01*
X117943Y302235D01*
X118504Y301504D01*
X119235Y300943D01*
X120086Y300590D01*
X121000Y300470D01*
X121914Y300590D01*
X122765Y300943D01*
X123496Y301504D01*
X124057Y302235D01*
X124239Y302675D01*
X132761D01*
X132943Y302235D01*
X133504Y301504D01*
X134235Y300943D01*
X135086Y300590D01*
X136000Y300470D01*
X136914Y300590D01*
X137765Y300943D01*
X138496Y301504D01*
X139057Y302235D01*
X139410Y303086D01*
X139530Y304000D01*
X139410Y304914D01*
X139057Y305765D01*
X138496Y306496D01*
X137765Y307057D01*
X136914Y307410D01*
X136000Y307530D01*
D02*
G37*
G36*
X240704Y306720D02*
X235496D01*
Y301512D01*
X236490Y301643D01*
X237883Y302220D01*
X239079Y303138D01*
X239996Y304333D01*
X240573Y305726D01*
X240704Y306720D01*
D02*
G37*
G36*
X234496D02*
X229288D01*
X229419Y305726D01*
X229996Y304333D01*
X230913Y303138D01*
X232109Y302220D01*
X233502Y301643D01*
X234496Y301512D01*
Y306720D01*
D02*
G37*
G36*
X221000Y300464D02*
Y297500D01*
X223964D01*
X223910Y297914D01*
X223557Y298765D01*
X222996Y299496D01*
X222265Y300057D01*
X221414Y300410D01*
X221000Y300464D01*
D02*
G37*
G36*
X220000D02*
X219586Y300410D01*
X218735Y300057D01*
X218004Y299496D01*
X217443Y298765D01*
X217090Y297914D01*
X217036Y297500D01*
X220000D01*
Y300464D01*
D02*
G37*
G36*
X159500Y297464D02*
Y294500D01*
X162464D01*
X162410Y294914D01*
X162057Y295765D01*
X161496Y296496D01*
X160765Y297057D01*
X159914Y297410D01*
X159500Y297464D01*
D02*
G37*
G36*
X158500D02*
X158086Y297410D01*
X157235Y297057D01*
X156504Y296496D01*
X155943Y295765D01*
X155590Y294914D01*
X155536Y294500D01*
X158500D01*
Y297464D01*
D02*
G37*
G36*
X223964Y296500D02*
X221000D01*
Y293536D01*
X221414Y293590D01*
X222265Y293943D01*
X222996Y294504D01*
X223557Y295235D01*
X223910Y296086D01*
X223964Y296500D01*
D02*
G37*
G36*
X220000D02*
X217036D01*
X217090Y296086D01*
X217443Y295235D01*
X218004Y294504D01*
X218735Y293943D01*
X219586Y293590D01*
X220000Y293536D01*
Y296500D01*
D02*
G37*
G36*
X162464Y293500D02*
X159500D01*
Y290536D01*
X159914Y290590D01*
X160765Y290943D01*
X161496Y291504D01*
X162057Y292235D01*
X162410Y293086D01*
X162464Y293500D01*
D02*
G37*
G36*
X158500D02*
X155536D01*
X155590Y293086D01*
X155943Y292235D01*
X156504Y291504D01*
X157235Y290943D01*
X158086Y290590D01*
X158500Y290536D01*
Y293500D01*
D02*
G37*
G36*
X253500Y301274D02*
X252006Y301077D01*
X250613Y300500D01*
X249417Y299583D01*
X248500Y298387D01*
X247923Y296994D01*
X247726Y295500D01*
X247923Y294006D01*
X248500Y292613D01*
X249417Y291417D01*
X250613Y290500D01*
X252006Y289923D01*
X253500Y289726D01*
X254994Y289923D01*
X256387Y290500D01*
X257583Y291417D01*
X258500Y292613D01*
X259077Y294006D01*
X259274Y295500D01*
X259077Y296994D01*
X258500Y298387D01*
X257583Y299583D01*
X256387Y300500D01*
X254994Y301077D01*
X253500Y301274D01*
D02*
G37*
G36*
X237000Y283785D02*
X235891Y283639D01*
X234858Y283211D01*
X233970Y282530D01*
X233289Y281642D01*
X232861Y280609D01*
X232715Y279500D01*
X232861Y278391D01*
X233289Y277358D01*
X233970Y276470D01*
X234858Y275789D01*
X235891Y275361D01*
X237000Y275215D01*
X238109Y275361D01*
X239142Y275789D01*
X240030Y276470D01*
X240711Y277358D01*
X241139Y278391D01*
X241285Y279500D01*
X241139Y280609D01*
X240711Y281642D01*
X240030Y282530D01*
X239142Y283211D01*
X238109Y283639D01*
X237000Y283785D01*
D02*
G37*
G36*
X174000Y282285D02*
X172891Y282139D01*
X171858Y281711D01*
X170970Y281030D01*
X170289Y280142D01*
X169861Y279109D01*
X169715Y278000D01*
X169861Y276891D01*
X170289Y275858D01*
X170970Y274970D01*
X171858Y274289D01*
X172891Y273861D01*
X174000Y273715D01*
X175109Y273861D01*
X176142Y274289D01*
X177030Y274970D01*
X177711Y275858D01*
X178139Y276891D01*
X178285Y278000D01*
X178139Y279109D01*
X177711Y280142D01*
X177030Y281030D01*
X176142Y281711D01*
X175109Y282139D01*
X174000Y282285D01*
D02*
G37*
G36*
X117000Y273464D02*
Y270500D01*
X119964D01*
X119910Y270914D01*
X119557Y271765D01*
X118996Y272496D01*
X118265Y273057D01*
X117414Y273410D01*
X117000Y273464D01*
D02*
G37*
G36*
X116000D02*
X115586Y273410D01*
X114735Y273057D01*
X114004Y272496D01*
X113443Y271765D01*
X113090Y270914D01*
X113036Y270500D01*
X116000D01*
Y273464D01*
D02*
G37*
G36*
X119964Y269500D02*
X117000D01*
Y266536D01*
X117414Y266590D01*
X118265Y266943D01*
X118996Y267504D01*
X119557Y268235D01*
X119910Y269086D01*
X119964Y269500D01*
D02*
G37*
G36*
X116000D02*
X113036D01*
X113090Y269086D01*
X113443Y268235D01*
X114004Y267504D01*
X114735Y266943D01*
X115586Y266590D01*
X116000Y266536D01*
Y269500D01*
D02*
G37*
G36*
X237000Y273785D02*
X235891Y273639D01*
X234858Y273211D01*
X233970Y272530D01*
X233289Y271642D01*
X232861Y270609D01*
X232715Y269500D01*
X232861Y268391D01*
X233289Y267358D01*
X233970Y266470D01*
X234858Y265789D01*
X235891Y265361D01*
X237000Y265215D01*
X238109Y265361D01*
X239142Y265789D01*
X240030Y266470D01*
X240711Y267358D01*
X241139Y268391D01*
X241285Y269500D01*
X241139Y270609D01*
X240711Y271642D01*
X240030Y272530D01*
X239142Y273211D01*
X238109Y273639D01*
X237000Y273785D01*
D02*
G37*
G36*
X174000Y272285D02*
X172891Y272139D01*
X171858Y271711D01*
X170970Y271030D01*
X170289Y270142D01*
X169861Y269109D01*
X169715Y268000D01*
X169861Y266891D01*
X170289Y265858D01*
X170970Y264970D01*
X171858Y264289D01*
X172891Y263861D01*
X174000Y263715D01*
X175109Y263861D01*
X176142Y264289D01*
X177030Y264970D01*
X177711Y265858D01*
X178139Y266891D01*
X178285Y268000D01*
X178139Y269109D01*
X177711Y270142D01*
X177030Y271030D01*
X176142Y271711D01*
X175109Y272139D01*
X174000Y272285D01*
D02*
G37*
G36*
X190000Y262464D02*
Y259500D01*
X192964D01*
X192910Y259914D01*
X192557Y260765D01*
X191996Y261496D01*
X191265Y262057D01*
X190414Y262410D01*
X190000Y262464D01*
D02*
G37*
G36*
X189000D02*
X188586Y262410D01*
X187735Y262057D01*
X187004Y261496D01*
X186443Y260765D01*
X186090Y259914D01*
X186036Y259500D01*
X189000D01*
Y262464D01*
D02*
G37*
G36*
X192964Y258500D02*
X190000D01*
Y255536D01*
X190414Y255590D01*
X191265Y255943D01*
X191996Y256504D01*
X192557Y257235D01*
X192910Y258086D01*
X192964Y258500D01*
D02*
G37*
G36*
X189000D02*
X186036D01*
X186090Y258086D01*
X186443Y257235D01*
X187004Y256504D01*
X187735Y255943D01*
X188586Y255590D01*
X189000Y255536D01*
Y258500D01*
D02*
G37*
G36*
X237000Y263785D02*
X235891Y263639D01*
X234858Y263211D01*
X233970Y262530D01*
X233289Y261642D01*
X232861Y260609D01*
X232715Y259500D01*
X232861Y258391D01*
X233289Y257358D01*
X233970Y256470D01*
X234858Y255789D01*
X235891Y255361D01*
X237000Y255215D01*
X238109Y255361D01*
X239142Y255789D01*
X240030Y256470D01*
X240711Y257358D01*
X241139Y258391D01*
X241285Y259500D01*
X241139Y260609D01*
X240711Y261642D01*
X240030Y262530D01*
X239142Y263211D01*
X238109Y263639D01*
X237000Y263785D01*
D02*
G37*
G36*
X53000Y257030D02*
X52086Y256910D01*
X51235Y256557D01*
X50504Y255996D01*
X49943Y255265D01*
X49657Y254575D01*
X45636D01*
X45557Y254765D01*
X44996Y255496D01*
X44265Y256057D01*
X43414Y256410D01*
X42500Y256530D01*
X41586Y256410D01*
X40735Y256057D01*
X40004Y255496D01*
X39443Y254765D01*
X39090Y253914D01*
X38970Y253000D01*
X39090Y252086D01*
X39443Y251235D01*
X40004Y250504D01*
X40735Y249943D01*
X41586Y249590D01*
X42500Y249470D01*
X43414Y249590D01*
X44265Y249943D01*
X44996Y250504D01*
X45557Y251235D01*
X45843Y251924D01*
X49864D01*
X49943Y251735D01*
X50504Y251004D01*
X51235Y250443D01*
X52086Y250090D01*
X53000Y249970D01*
X53914Y250090D01*
X54765Y250443D01*
X55496Y251004D01*
X56057Y251735D01*
X56410Y252586D01*
X56530Y253500D01*
X56410Y254414D01*
X56057Y255265D01*
X55496Y255996D01*
X54765Y256557D01*
X53914Y256910D01*
X53000Y257030D01*
D02*
G37*
G36*
X174000Y262285D02*
X172891Y262139D01*
X171858Y261711D01*
X170970Y261030D01*
X170289Y260142D01*
X169861Y259109D01*
X169715Y258000D01*
X169861Y256891D01*
X170289Y255858D01*
X170970Y254970D01*
X171858Y254289D01*
X172891Y253861D01*
X174000Y253715D01*
X175109Y253861D01*
X176142Y254289D01*
X177030Y254970D01*
X177711Y255858D01*
X178139Y256891D01*
X178285Y258000D01*
X178139Y259109D01*
X177711Y260142D01*
X177030Y261030D01*
X176142Y261711D01*
X175109Y262139D01*
X174000Y262285D01*
D02*
G37*
G36*
X178500Y242030D02*
X177586Y241910D01*
X176735Y241557D01*
X176004Y240996D01*
X175653Y240539D01*
X172347D01*
X171996Y240996D01*
X171265Y241557D01*
X170414Y241910D01*
X169500Y242030D01*
X168586Y241910D01*
X167735Y241557D01*
X167004Y240996D01*
X166443Y240265D01*
X166090Y239414D01*
X165970Y238500D01*
X166090Y237586D01*
X166443Y236735D01*
X167004Y236004D01*
X167735Y235443D01*
X168586Y235090D01*
X169500Y234970D01*
X170414Y235090D01*
X171265Y235443D01*
X171996Y236004D01*
X172347Y236461D01*
X175653D01*
X176004Y236004D01*
X176735Y235443D01*
X177586Y235090D01*
X178500Y234970D01*
X179414Y235090D01*
X180265Y235443D01*
X180996Y236004D01*
X181557Y236735D01*
X181910Y237586D01*
X182030Y238500D01*
X181910Y239414D01*
X181557Y240265D01*
X180996Y240996D01*
X180265Y241557D01*
X179414Y241910D01*
X178500Y242030D01*
D02*
G37*
G36*
X234500Y241530D02*
X233586Y241410D01*
X232735Y241057D01*
X232004Y240496D01*
X231653Y240039D01*
X223847D01*
X223496Y240496D01*
X222765Y241057D01*
X221914Y241410D01*
X221000Y241530D01*
X220086Y241410D01*
X219235Y241057D01*
X218504Y240496D01*
X217943Y239765D01*
X217590Y238914D01*
X217470Y238000D01*
X217590Y237086D01*
X217943Y236235D01*
X218504Y235504D01*
X219235Y234943D01*
X220086Y234590D01*
X221000Y234470D01*
X221914Y234590D01*
X222765Y234943D01*
X223496Y235504D01*
X223847Y235961D01*
X231653D01*
X232004Y235504D01*
X232735Y234943D01*
X233586Y234590D01*
X234500Y234470D01*
X235414Y234590D01*
X236265Y234943D01*
X236996Y235504D01*
X237557Y236235D01*
X237910Y237086D01*
X238030Y238000D01*
X237910Y238914D01*
X237557Y239765D01*
X236996Y240496D01*
X236265Y241057D01*
X235414Y241410D01*
X234500Y241530D01*
D02*
G37*
G36*
X96500Y233464D02*
Y230500D01*
X99464D01*
X99410Y230914D01*
X99057Y231765D01*
X98496Y232496D01*
X97765Y233057D01*
X96914Y233410D01*
X96500Y233464D01*
D02*
G37*
G36*
X95500D02*
X95086Y233410D01*
X94235Y233057D01*
X93504Y232496D01*
X92943Y231765D01*
X92590Y230914D01*
X92536Y230500D01*
X95500D01*
Y233464D01*
D02*
G37*
G36*
X99464Y229500D02*
X92536D01*
X92590Y229086D01*
X92943Y228235D01*
X93504Y227504D01*
X94235Y226943D01*
X95086Y226590D01*
X95473Y226539D01*
X95440Y226039D01*
X92847D01*
X92496Y226496D01*
X91765Y227057D01*
X90914Y227410D01*
X90000Y227530D01*
X89086Y227410D01*
X88235Y227057D01*
X87504Y226496D01*
X86943Y225765D01*
X86590Y224914D01*
X86470Y224000D01*
X86590Y223086D01*
X86943Y222235D01*
X87504Y221504D01*
X88235Y220943D01*
X89086Y220590D01*
X90000Y220470D01*
X90914Y220590D01*
X91765Y220943D01*
X92496Y221504D01*
X92847Y221961D01*
X106155D01*
X110045Y218071D01*
X109970Y217500D01*
X110090Y216586D01*
X110443Y215735D01*
X111004Y215004D01*
X111735Y214443D01*
X112586Y214090D01*
X113500Y213970D01*
X114414Y214090D01*
X115265Y214443D01*
X115996Y215004D01*
X116557Y215735D01*
X116910Y216586D01*
X117030Y217500D01*
X116910Y218414D01*
X116557Y219265D01*
X115996Y219996D01*
X115265Y220557D01*
X114414Y220910D01*
X113500Y221030D01*
X112929Y220955D01*
X108442Y225442D01*
X107780Y225884D01*
X107000Y226039D01*
X96560D01*
X96527Y226539D01*
X96914Y226590D01*
X97765Y226943D01*
X98496Y227504D01*
X99057Y228235D01*
X99410Y229086D01*
X99464Y229500D01*
D02*
G37*
G36*
X84000Y221964D02*
Y219000D01*
X86964D01*
X86910Y219414D01*
X86557Y220265D01*
X85996Y220996D01*
X85265Y221557D01*
X84414Y221910D01*
X84000Y221964D01*
D02*
G37*
G36*
X83000D02*
X82586Y221910D01*
X81735Y221557D01*
X81004Y220996D01*
X80443Y220265D01*
X80090Y219414D01*
X80036Y219000D01*
X83000D01*
Y221964D01*
D02*
G37*
G36*
X131000Y218964D02*
Y216000D01*
X133964D01*
X133910Y216414D01*
X133557Y217265D01*
X132996Y217996D01*
X132265Y218557D01*
X131414Y218910D01*
X131000Y218964D01*
D02*
G37*
G36*
X130000D02*
X129586Y218910D01*
X128735Y218557D01*
X128004Y217996D01*
X127443Y217265D01*
X127090Y216414D01*
X127036Y216000D01*
X130000D01*
Y218964D01*
D02*
G37*
G36*
X86964Y218000D02*
X84000D01*
Y215036D01*
X84414Y215090D01*
X85265Y215443D01*
X85996Y216004D01*
X86557Y216735D01*
X86910Y217586D01*
X86964Y218000D01*
D02*
G37*
G36*
X83000D02*
X80036D01*
X80090Y217586D01*
X80443Y216735D01*
X81004Y216004D01*
X81735Y215443D01*
X82586Y215090D01*
X83000Y215036D01*
Y218000D01*
D02*
G37*
G36*
X133964Y215000D02*
X131000D01*
Y212036D01*
X131414Y212090D01*
X132265Y212443D01*
X132996Y213004D01*
X133557Y213735D01*
X133910Y214586D01*
X133964Y215000D01*
D02*
G37*
G36*
X130000D02*
X127036D01*
X127090Y214586D01*
X127443Y213735D01*
X128004Y213004D01*
X128735Y212443D01*
X129586Y212090D01*
X130000Y212036D01*
Y215000D01*
D02*
G37*
G36*
X166000Y214964D02*
Y212000D01*
X168964D01*
X168910Y212414D01*
X168557Y213265D01*
X167996Y213996D01*
X167265Y214557D01*
X166414Y214910D01*
X166000Y214964D01*
D02*
G37*
G36*
X165000D02*
X164586Y214910D01*
X163735Y214557D01*
X163004Y213996D01*
X162443Y213265D01*
X162090Y212414D01*
X162036Y212000D01*
X165000D01*
Y214964D01*
D02*
G37*
G36*
X98043Y214508D02*
Y211543D01*
X101008D01*
X100953Y211957D01*
X100601Y212808D01*
X100040Y213540D01*
X99309Y214101D01*
X98457Y214453D01*
X98043Y214508D01*
D02*
G37*
G36*
X97043D02*
X96630Y214453D01*
X95778Y214101D01*
X95047Y213540D01*
X94486Y212808D01*
X94134Y211957D01*
X94079Y211543D01*
X97043D01*
Y214508D01*
D02*
G37*
G36*
X168964Y211000D02*
X166000D01*
Y208036D01*
X166414Y208090D01*
X167265Y208443D01*
X167996Y209004D01*
X168557Y209735D01*
X168910Y210586D01*
X168964Y211000D01*
D02*
G37*
G36*
X165000D02*
X162036D01*
X162090Y210586D01*
X162443Y209735D01*
X163004Y209004D01*
X163735Y208443D01*
X164586Y208090D01*
X165000Y208036D01*
Y211000D01*
D02*
G37*
G36*
X101008Y210543D02*
X98043D01*
Y207579D01*
X98457Y207633D01*
X99309Y207986D01*
X100040Y208547D01*
X100601Y209278D01*
X100953Y210130D01*
X101008Y210543D01*
D02*
G37*
G36*
X91000Y220030D02*
X90086Y219910D01*
X89235Y219557D01*
X88504Y218996D01*
X87943Y218265D01*
X87590Y217414D01*
X87470Y216500D01*
X87590Y215586D01*
X87943Y214735D01*
X88504Y214004D01*
X88961Y213653D01*
Y209500D01*
X89116Y208720D01*
X89558Y208058D01*
X93545Y204071D01*
X93470Y203500D01*
X93590Y202586D01*
X93943Y201735D01*
X94504Y201004D01*
X95235Y200443D01*
X96086Y200090D01*
X97000Y199970D01*
X97914Y200090D01*
X98765Y200443D01*
X99496Y201004D01*
X100057Y201735D01*
X100410Y202586D01*
X100530Y203500D01*
X100410Y204414D01*
X100057Y205265D01*
X99496Y205996D01*
X98765Y206557D01*
X97914Y206910D01*
X97000Y207030D01*
X96429Y206955D01*
X96052Y207331D01*
X96336Y207755D01*
X96630Y207633D01*
X97043Y207579D01*
Y210543D01*
X94079D01*
X94134Y210130D01*
X94255Y209836D01*
X93831Y209552D01*
X93039Y210345D01*
Y213653D01*
X93496Y214004D01*
X94057Y214735D01*
X94410Y215586D01*
X94530Y216500D01*
X94410Y217414D01*
X94057Y218265D01*
X93496Y218996D01*
X92765Y219557D01*
X91914Y219910D01*
X91000Y220030D01*
D02*
G37*
G36*
X180000Y203530D02*
X179086Y203410D01*
X178235Y203057D01*
X177504Y202496D01*
X177153Y202039D01*
X172347D01*
X171996Y202496D01*
X171265Y203057D01*
X170414Y203410D01*
X169500Y203530D01*
X168586Y203410D01*
X167735Y203057D01*
X167004Y202496D01*
X166443Y201765D01*
X166090Y200914D01*
X165970Y200000D01*
X166090Y199086D01*
X166443Y198235D01*
X167004Y197504D01*
X167735Y196943D01*
X168586Y196590D01*
X169500Y196470D01*
X170414Y196590D01*
X171265Y196943D01*
X171996Y197504D01*
X172347Y197961D01*
X177153D01*
X177504Y197504D01*
X178235Y196943D01*
X179086Y196590D01*
X180000Y196470D01*
X180914Y196590D01*
X181765Y196943D01*
X182496Y197504D01*
X183057Y198235D01*
X183410Y199086D01*
X183530Y200000D01*
X183410Y200914D01*
X183057Y201765D01*
X182496Y202496D01*
X181765Y203057D01*
X180914Y203410D01*
X180000Y203530D01*
D02*
G37*
G36*
X281500Y197469D02*
Y194000D01*
X284969D01*
X284897Y194544D01*
X284494Y195517D01*
X283853Y196353D01*
X283017Y196994D01*
X282044Y197397D01*
X281500Y197469D01*
D02*
G37*
G36*
X280500D02*
X279956Y197397D01*
X278983Y196994D01*
X278147Y196353D01*
X277506Y195517D01*
X277103Y194544D01*
X277031Y194000D01*
X280500D01*
Y197469D01*
D02*
G37*
G36*
X179500Y194530D02*
X178586Y194410D01*
X177735Y194057D01*
X177004Y193496D01*
X176443Y192765D01*
X176349Y192539D01*
X172847D01*
X172496Y192996D01*
X171765Y193557D01*
X170914Y193910D01*
X170000Y194030D01*
X169086Y193910D01*
X168235Y193557D01*
X167504Y192996D01*
X166943Y192265D01*
X166590Y191414D01*
X166470Y190500D01*
X166590Y189586D01*
X166943Y188735D01*
X167504Y188004D01*
X168235Y187443D01*
X169086Y187090D01*
X170000Y186970D01*
X170914Y187090D01*
X171765Y187443D01*
X172496Y188004D01*
X172847Y188461D01*
X177060D01*
X177735Y187943D01*
X178586Y187590D01*
X179500Y187470D01*
X180414Y187590D01*
X181265Y187943D01*
X181996Y188504D01*
X182557Y189235D01*
X182910Y190086D01*
X183030Y191000D01*
X182910Y191914D01*
X182557Y192765D01*
X181996Y193496D01*
X181265Y194057D01*
X180414Y194410D01*
X179500Y194530D01*
D02*
G37*
G36*
X49000Y204031D02*
X47726Y203906D01*
X46501Y203534D01*
X45371Y202931D01*
X44382Y202118D01*
X43569Y201129D01*
X42966Y199999D01*
X42594Y198774D01*
X42469Y197500D01*
X42594Y196226D01*
X42966Y195001D01*
X43569Y193871D01*
X44382Y192882D01*
X45371Y192069D01*
X46501Y191466D01*
X47726Y191094D01*
X49000Y190969D01*
X50274Y191094D01*
X51499Y191466D01*
X52629Y192069D01*
X53618Y192882D01*
X54431Y193871D01*
X55034Y195001D01*
X55406Y196226D01*
X55531Y197500D01*
X55406Y198774D01*
X55034Y199999D01*
X54431Y201129D01*
X53618Y202118D01*
X52629Y202931D01*
X51499Y203534D01*
X50274Y203906D01*
X49000Y204031D01*
D02*
G37*
G36*
X71500Y192530D02*
X70586Y192410D01*
X69735Y192057D01*
X69004Y191496D01*
X68443Y190765D01*
X68271Y190349D01*
X67729D01*
X67557Y190765D01*
X66996Y191496D01*
X66265Y192057D01*
X65414Y192410D01*
X64500Y192530D01*
X63586Y192410D01*
X62735Y192057D01*
X62004Y191496D01*
X61443Y190765D01*
X61090Y189914D01*
X60970Y189000D01*
X61090Y188086D01*
X61443Y187235D01*
X62004Y186504D01*
X62735Y185943D01*
X63174Y185761D01*
Y185000D01*
X63275Y184493D01*
X63563Y184063D01*
X69272Y178353D01*
X69090Y177914D01*
X68970Y177000D01*
X69090Y176086D01*
X69443Y175235D01*
X70004Y174504D01*
X70735Y173943D01*
X71586Y173590D01*
X72500Y173470D01*
X73414Y173590D01*
X74265Y173943D01*
X74996Y174504D01*
X75557Y175235D01*
X75910Y176086D01*
X76030Y177000D01*
X75910Y177914D01*
X75557Y178765D01*
X74996Y179496D01*
X74265Y180057D01*
X73414Y180410D01*
X72500Y180530D01*
X71586Y180410D01*
X71147Y180228D01*
X66058Y185316D01*
X66174Y185905D01*
X66265Y185943D01*
X66996Y186504D01*
X67557Y187235D01*
X67729Y187651D01*
X68271D01*
X68443Y187235D01*
X69004Y186504D01*
X69735Y185943D01*
X70586Y185590D01*
X71500Y185470D01*
X72414Y185590D01*
X72853Y185772D01*
X78001Y180624D01*
X78004Y179996D01*
X77443Y179265D01*
X77090Y178414D01*
X76970Y177500D01*
X77090Y176586D01*
X77443Y175735D01*
X78004Y175004D01*
X78735Y174443D01*
X79586Y174090D01*
X80500Y173970D01*
X81414Y174090D01*
X82265Y174443D01*
X82996Y175004D01*
X83557Y175735D01*
X83910Y176586D01*
X84030Y177500D01*
X83910Y178414D01*
X83557Y179265D01*
X82996Y179996D01*
X82265Y180557D01*
X81414Y180910D01*
X80958Y180970D01*
X80883Y181349D01*
X80595Y181779D01*
X74728Y187647D01*
X74910Y188086D01*
X75030Y189000D01*
X74910Y189914D01*
X74557Y190765D01*
X73996Y191496D01*
X73265Y192057D01*
X72414Y192410D01*
X71500Y192530D01*
D02*
G37*
G36*
X284969Y193000D02*
X281500D01*
Y189531D01*
X282044Y189603D01*
X283017Y190006D01*
X283853Y190647D01*
X284494Y191483D01*
X284897Y192456D01*
X284969Y193000D01*
D02*
G37*
G36*
X280500D02*
X277031D01*
X277103Y192456D01*
X277506Y191483D01*
X278147Y190647D01*
X278983Y190006D01*
X279956Y189603D01*
X280500Y189531D01*
Y193000D01*
D02*
G37*
G36*
X263500Y197535D02*
X262456Y197397D01*
X261483Y196994D01*
X260647Y196353D01*
X260006Y195517D01*
X259603Y194544D01*
X259466Y193500D01*
X259603Y192456D01*
X260006Y191483D01*
X260647Y190647D01*
X261483Y190006D01*
X262456Y189603D01*
X263500Y189465D01*
X264544Y189603D01*
X265517Y190006D01*
X266353Y190647D01*
X266994Y191483D01*
X267397Y192456D01*
X267534Y193500D01*
X267397Y194544D01*
X266994Y195517D01*
X266353Y196353D01*
X265517Y196994D01*
X264544Y197397D01*
X263500Y197535D01*
D02*
G37*
G36*
X281500Y187469D02*
Y184000D01*
X284969D01*
X284897Y184544D01*
X284494Y185517D01*
X283853Y186353D01*
X283017Y186994D01*
X282044Y187397D01*
X281500Y187469D01*
D02*
G37*
G36*
X280500D02*
X279956Y187397D01*
X278983Y186994D01*
X278147Y186353D01*
X277506Y185517D01*
X277103Y184544D01*
X277031Y184000D01*
X280500D01*
Y187469D01*
D02*
G37*
G36*
X179500Y184030D02*
X178586Y183910D01*
X177735Y183557D01*
X177004Y182996D01*
X176653Y182539D01*
X172347D01*
X171996Y182996D01*
X171265Y183557D01*
X170414Y183910D01*
X169500Y184030D01*
X168586Y183910D01*
X167735Y183557D01*
X167004Y182996D01*
X166443Y182265D01*
X166090Y181414D01*
X165970Y180500D01*
X166090Y179586D01*
X166443Y178735D01*
X167004Y178004D01*
X167735Y177443D01*
X168586Y177090D01*
X169500Y176970D01*
X170414Y177090D01*
X171265Y177443D01*
X171996Y178004D01*
X172347Y178461D01*
X176653D01*
X177004Y178004D01*
X177735Y177443D01*
X178586Y177090D01*
X179500Y176970D01*
X180414Y177090D01*
X181265Y177443D01*
X181996Y178004D01*
X182557Y178735D01*
X182910Y179586D01*
X183030Y180500D01*
X182910Y181414D01*
X182557Y182265D01*
X181996Y182996D01*
X181265Y183557D01*
X180414Y183910D01*
X179500Y184030D01*
D02*
G37*
G36*
X103500Y197030D02*
X102586Y196910D01*
X101735Y196557D01*
X101004Y195996D01*
X100443Y195265D01*
X100090Y194414D01*
X99970Y193500D01*
X100090Y192586D01*
X100443Y191735D01*
X101004Y191004D01*
X101735Y190443D01*
X102586Y190090D01*
X103500Y189970D01*
X104071Y190045D01*
X109045Y185071D01*
X108970Y184500D01*
X109090Y183586D01*
X109443Y182735D01*
X110004Y182004D01*
X110735Y181443D01*
X111586Y181090D01*
X112500Y180970D01*
X113414Y181090D01*
X114265Y181443D01*
X114996Y182004D01*
X115557Y182735D01*
X115910Y183586D01*
X116030Y184500D01*
X115910Y185414D01*
X115557Y186265D01*
X114996Y186996D01*
X114265Y187557D01*
X113414Y187910D01*
X112500Y188030D01*
X111929Y187955D01*
X106955Y192929D01*
X107030Y193500D01*
X106910Y194414D01*
X106557Y195265D01*
X105996Y195996D01*
X105265Y196557D01*
X104414Y196910D01*
X103500Y197030D01*
D02*
G37*
G36*
X284969Y183000D02*
X281500D01*
Y179531D01*
X282044Y179603D01*
X283017Y180006D01*
X283853Y180647D01*
X284494Y181483D01*
X284897Y182456D01*
X284969Y183000D01*
D02*
G37*
G36*
X280500D02*
X277031D01*
X277103Y182456D01*
X277506Y181483D01*
X278147Y180647D01*
X278983Y180006D01*
X279956Y179603D01*
X280500Y179531D01*
Y183000D01*
D02*
G37*
G36*
X263500Y187534D02*
X262456Y187397D01*
X261483Y186994D01*
X260647Y186353D01*
X260006Y185517D01*
X259603Y184544D01*
X259466Y183500D01*
X259603Y182456D01*
X260006Y181483D01*
X260647Y180647D01*
X261483Y180006D01*
X262456Y179603D01*
X263500Y179465D01*
X264544Y179603D01*
X265517Y180006D01*
X266353Y180647D01*
X266994Y181483D01*
X267397Y182456D01*
X267534Y183500D01*
X267397Y184544D01*
X266994Y185517D01*
X266353Y186353D01*
X265517Y186994D01*
X264544Y187397D01*
X263500Y187534D01*
D02*
G37*
G36*
X49000Y190031D02*
X47726Y189906D01*
X46501Y189534D01*
X45371Y188931D01*
X44382Y188118D01*
X43569Y187129D01*
X42966Y186000D01*
X42594Y184774D01*
X42469Y183500D01*
X42594Y182226D01*
X42966Y181000D01*
X43569Y179871D01*
X44382Y178882D01*
X45371Y178069D01*
X46501Y177466D01*
X47726Y177094D01*
X49000Y176969D01*
X50274Y177094D01*
X51499Y177466D01*
X52629Y178069D01*
X53618Y178882D01*
X54431Y179871D01*
X55034Y181000D01*
X55406Y182226D01*
X55531Y183500D01*
X55406Y184774D01*
X55034Y186000D01*
X54431Y187129D01*
X53618Y188118D01*
X52629Y188931D01*
X51499Y189534D01*
X50274Y189906D01*
X49000Y190031D01*
D02*
G37*
G36*
X281500Y177469D02*
Y174000D01*
X284969D01*
X284897Y174544D01*
X284494Y175517D01*
X283853Y176353D01*
X283017Y176994D01*
X282044Y177397D01*
X281500Y177469D01*
D02*
G37*
G36*
X280500D02*
X279956Y177397D01*
X278983Y176994D01*
X278147Y176353D01*
X277506Y175517D01*
X277103Y174544D01*
X277031Y174000D01*
X280500D01*
Y177469D01*
D02*
G37*
G36*
X144000Y185530D02*
X143086Y185410D01*
X142235Y185057D01*
X141504Y184496D01*
X140943Y183765D01*
X140590Y182914D01*
X140470Y182000D01*
X140590Y181086D01*
X140943Y180235D01*
X141504Y179504D01*
X142235Y178943D01*
X143086Y178590D01*
X144000Y178470D01*
X144571Y178545D01*
X147169Y175947D01*
X147830Y175505D01*
X148611Y175350D01*
X151766D01*
X153045Y174071D01*
X152970Y173500D01*
X153090Y172586D01*
X153443Y171735D01*
X154004Y171004D01*
X154735Y170443D01*
X155586Y170090D01*
X156500Y169970D01*
X157414Y170090D01*
X158265Y170443D01*
X158996Y171004D01*
X159557Y171735D01*
X159910Y172586D01*
X160030Y173500D01*
X159910Y174414D01*
X159557Y175265D01*
X158996Y175996D01*
X158265Y176557D01*
X157414Y176910D01*
X156500Y177030D01*
X155929Y176955D01*
X154053Y178831D01*
X153391Y179273D01*
X152611Y179428D01*
X149456D01*
X147455Y181429D01*
X147530Y182000D01*
X147410Y182914D01*
X147057Y183765D01*
X146496Y184496D01*
X145765Y185057D01*
X144914Y185410D01*
X144000Y185530D01*
D02*
G37*
G36*
X284969Y173000D02*
X281500D01*
Y169531D01*
X282044Y169603D01*
X283017Y170006D01*
X283853Y170647D01*
X284494Y171483D01*
X284897Y172456D01*
X284969Y173000D01*
D02*
G37*
G36*
X280500D02*
X277031D01*
X277103Y172456D01*
X277506Y171483D01*
X278147Y170647D01*
X278983Y170006D01*
X279956Y169603D01*
X280500Y169531D01*
Y173000D01*
D02*
G37*
G36*
X263500Y177534D02*
X262456Y177397D01*
X261483Y176994D01*
X260647Y176353D01*
X260006Y175517D01*
X259603Y174544D01*
X259466Y173500D01*
X259603Y172456D01*
X260006Y171483D01*
X260647Y170647D01*
X261483Y170006D01*
X262456Y169603D01*
X263500Y169465D01*
X264544Y169603D01*
X265517Y170006D01*
X266353Y170647D01*
X266994Y171483D01*
X267397Y172456D01*
X267534Y173500D01*
X267397Y174544D01*
X266994Y175517D01*
X266353Y176353D01*
X265517Y176994D01*
X264544Y177397D01*
X263500Y177534D01*
D02*
G37*
G36*
X238000Y180530D02*
X237086Y180410D01*
X236235Y180057D01*
X235504Y179496D01*
X234943Y178765D01*
X234590Y177914D01*
X234470Y177000D01*
X234590Y176086D01*
X234943Y175235D01*
X235504Y174504D01*
X236235Y173943D01*
X236674Y173761D01*
Y172739D01*
X236235Y172557D01*
X235504Y171996D01*
X234943Y171265D01*
X234590Y170414D01*
X234470Y169500D01*
X234590Y168586D01*
X234943Y167735D01*
X235504Y167004D01*
X236235Y166443D01*
X237086Y166090D01*
X238000Y165970D01*
X238914Y166090D01*
X239765Y166443D01*
X240496Y167004D01*
X241057Y167735D01*
X241410Y168586D01*
X241530Y169500D01*
X241410Y170414D01*
X241057Y171265D01*
X240496Y171996D01*
X239765Y172557D01*
X239325Y172739D01*
Y173761D01*
X239765Y173943D01*
X240496Y174504D01*
X241057Y175235D01*
X241410Y176086D01*
X241530Y177000D01*
X241410Y177914D01*
X241057Y178765D01*
X240496Y179496D01*
X239765Y180057D01*
X238914Y180410D01*
X238000Y180530D01*
D02*
G37*
G36*
X227000D02*
X226086Y180410D01*
X225235Y180057D01*
X224504Y179496D01*
X223943Y178765D01*
X223590Y177914D01*
X223470Y177000D01*
X223590Y176086D01*
X223943Y175235D01*
X224504Y174504D01*
X225235Y173943D01*
X225675Y173761D01*
Y172739D01*
X225235Y172557D01*
X224504Y171996D01*
X223943Y171265D01*
X223590Y170414D01*
X223470Y169500D01*
X223590Y168586D01*
X223943Y167735D01*
X224504Y167004D01*
X225235Y166443D01*
X226086Y166090D01*
X227000Y165970D01*
X227914Y166090D01*
X228765Y166443D01*
X229496Y167004D01*
X230057Y167735D01*
X230410Y168586D01*
X230530Y169500D01*
X230410Y170414D01*
X230057Y171265D01*
X229496Y171996D01*
X228765Y172557D01*
X228326Y172739D01*
Y173761D01*
X228765Y173943D01*
X229496Y174504D01*
X230057Y175235D01*
X230410Y176086D01*
X230530Y177000D01*
X230410Y177914D01*
X230057Y178765D01*
X229496Y179496D01*
X228765Y180057D01*
X227914Y180410D01*
X227000Y180530D01*
D02*
G37*
G36*
X281500Y167469D02*
Y164000D01*
X284969D01*
X284897Y164544D01*
X284494Y165517D01*
X283853Y166353D01*
X283017Y166994D01*
X282044Y167397D01*
X281500Y167469D01*
D02*
G37*
G36*
X264000D02*
Y164000D01*
X267469D01*
X267397Y164544D01*
X266994Y165517D01*
X266353Y166353D01*
X265517Y166994D01*
X264544Y167397D01*
X264000Y167469D01*
D02*
G37*
G36*
X263000D02*
X262456Y167397D01*
X261483Y166994D01*
X260647Y166353D01*
X260006Y165517D01*
X259603Y164544D01*
X259531Y164000D01*
X263000D01*
Y167469D01*
D02*
G37*
G36*
X280500D02*
X279956Y167397D01*
X278983Y166994D01*
X278147Y166353D01*
X277506Y165517D01*
X277103Y164544D01*
X277031Y164000D01*
X280500D01*
Y167469D01*
D02*
G37*
G36*
X57000Y163969D02*
Y160500D01*
X60469D01*
X60397Y161044D01*
X59994Y162017D01*
X59353Y162853D01*
X58517Y163494D01*
X57544Y163897D01*
X57000Y163969D01*
D02*
G37*
G36*
X56000D02*
X55456Y163897D01*
X54483Y163494D01*
X53647Y162853D01*
X53006Y162017D01*
X52603Y161044D01*
X52531Y160500D01*
X56000D01*
Y163969D01*
D02*
G37*
G36*
X284969Y163000D02*
X281500D01*
Y159531D01*
X282044Y159603D01*
X283017Y160006D01*
X283853Y160647D01*
X284494Y161483D01*
X284897Y162456D01*
X284969Y163000D01*
D02*
G37*
G36*
X267469D02*
X264000D01*
Y159531D01*
X264544Y159603D01*
X265517Y160006D01*
X266353Y160647D01*
X266994Y161483D01*
X267397Y162456D01*
X267469Y163000D01*
D02*
G37*
G36*
X263000D02*
X259531D01*
X259603Y162456D01*
X260006Y161483D01*
X260647Y160647D01*
X261483Y160006D01*
X262456Y159603D01*
X263000Y159531D01*
Y163000D01*
D02*
G37*
G36*
X280500D02*
X277031D01*
X277103Y162456D01*
X277506Y161483D01*
X278147Y160647D01*
X278983Y160006D01*
X279956Y159603D01*
X280500Y159531D01*
Y163000D01*
D02*
G37*
G36*
X101500Y166530D02*
X100586Y166410D01*
X99735Y166057D01*
X99004Y165496D01*
X98443Y164765D01*
X98090Y163914D01*
X97970Y163000D01*
X98045Y162429D01*
X93571Y157955D01*
X93000Y158030D01*
X92086Y157910D01*
X91235Y157557D01*
X90504Y156996D01*
X89943Y156265D01*
X89590Y155414D01*
X89470Y154500D01*
X89590Y153586D01*
X89943Y152735D01*
X90504Y152004D01*
X91235Y151443D01*
X92086Y151090D01*
X93000Y150970D01*
X93914Y151090D01*
X94765Y151443D01*
X95496Y152004D01*
X96057Y152735D01*
X96410Y153586D01*
X96530Y154500D01*
X96455Y155071D01*
X100929Y159545D01*
X101500Y159470D01*
X102414Y159590D01*
X103265Y159943D01*
X103996Y160504D01*
X104557Y161235D01*
X104910Y162086D01*
X105030Y163000D01*
X104910Y163914D01*
X104557Y164765D01*
X103996Y165496D01*
X103265Y166057D01*
X102414Y166410D01*
X101500Y166530D01*
D02*
G37*
G36*
X60469Y159500D02*
X57000D01*
Y156031D01*
X57544Y156103D01*
X58517Y156506D01*
X59353Y157147D01*
X59994Y157983D01*
X60397Y158956D01*
X60469Y159500D01*
D02*
G37*
G36*
X56000D02*
X52531D01*
X52603Y158956D01*
X53006Y157983D01*
X53647Y157147D01*
X54483Y156506D01*
X55456Y156103D01*
X56000Y156031D01*
Y159500D01*
D02*
G37*
G36*
X73500Y164034D02*
X72456Y163897D01*
X71483Y163494D01*
X70647Y162853D01*
X70006Y162017D01*
X69603Y161044D01*
X69466Y160000D01*
X69603Y158956D01*
X70006Y157983D01*
X70647Y157147D01*
X71483Y156506D01*
X72456Y156103D01*
X73500Y155965D01*
X74544Y156103D01*
X75517Y156506D01*
X76353Y157147D01*
X76994Y157983D01*
X77397Y158956D01*
X77535Y160000D01*
X77397Y161044D01*
X76994Y162017D01*
X76353Y162853D01*
X75517Y163494D01*
X74544Y163897D01*
X73500Y164034D01*
D02*
G37*
G36*
X281500Y157469D02*
Y154000D01*
X284969D01*
X284897Y154544D01*
X284494Y155517D01*
X283853Y156353D01*
X283017Y156994D01*
X282044Y157397D01*
X281500Y157469D01*
D02*
G37*
G36*
X280500D02*
X279956Y157397D01*
X278983Y156994D01*
X278147Y156353D01*
X277506Y155517D01*
X277103Y154544D01*
X277031Y154000D01*
X280500D01*
Y157469D01*
D02*
G37*
G36*
X108500Y159530D02*
X107586Y159410D01*
X106735Y159057D01*
X106004Y158496D01*
X105443Y157765D01*
X105309Y157442D01*
X104646Y157310D01*
X103984Y156868D01*
X99571Y152455D01*
X99000Y152530D01*
X98086Y152410D01*
X97235Y152057D01*
X96504Y151496D01*
X95943Y150765D01*
X95590Y149914D01*
X95470Y149000D01*
X95590Y148086D01*
X95943Y147235D01*
X96504Y146504D01*
X97235Y145943D01*
X98086Y145590D01*
X99000Y145470D01*
X99914Y145590D01*
X100765Y145943D01*
X101496Y146504D01*
X102057Y147235D01*
X102410Y148086D01*
X102530Y149000D01*
X102455Y149571D01*
X106221Y153337D01*
X106735Y152943D01*
X107586Y152590D01*
X108500Y152470D01*
X109414Y152590D01*
X110265Y152943D01*
X110996Y153504D01*
X111557Y154235D01*
X111910Y155086D01*
X112030Y156000D01*
X111910Y156914D01*
X111557Y157765D01*
X110996Y158496D01*
X110265Y159057D01*
X109414Y159410D01*
X108500Y159530D01*
D02*
G37*
G36*
X57000Y153969D02*
Y150500D01*
X60469D01*
X60397Y151044D01*
X59994Y152017D01*
X59353Y152853D01*
X58517Y153494D01*
X57544Y153897D01*
X57000Y153969D01*
D02*
G37*
G36*
X56000D02*
X55456Y153897D01*
X54483Y153494D01*
X53647Y152853D01*
X53006Y152017D01*
X52603Y151044D01*
X52531Y150500D01*
X56000D01*
Y153969D01*
D02*
G37*
G36*
X284969Y153000D02*
X281500D01*
Y149531D01*
X282044Y149603D01*
X283017Y150006D01*
X283853Y150647D01*
X284494Y151483D01*
X284897Y152456D01*
X284969Y153000D01*
D02*
G37*
G36*
X280500D02*
X277031D01*
X277103Y152456D01*
X277506Y151483D01*
X278147Y150647D01*
X278983Y150006D01*
X279956Y149603D01*
X280500Y149531D01*
Y153000D01*
D02*
G37*
G36*
X263500Y157535D02*
X262456Y157397D01*
X261483Y156994D01*
X260647Y156353D01*
X260006Y155517D01*
X259603Y154544D01*
X259466Y153500D01*
X259603Y152456D01*
X260006Y151483D01*
X260647Y150647D01*
X261483Y150006D01*
X262456Y149603D01*
X263500Y149466D01*
X264544Y149603D01*
X265517Y150006D01*
X266353Y150647D01*
X266994Y151483D01*
X267397Y152456D01*
X267534Y153500D01*
X267397Y154544D01*
X266994Y155517D01*
X266353Y156353D01*
X265517Y156994D01*
X264544Y157397D01*
X263500Y157535D01*
D02*
G37*
G36*
X114500Y153530D02*
X113586Y153410D01*
X112735Y153057D01*
X112004Y152496D01*
X111443Y151765D01*
X111319Y151465D01*
X109426D01*
X108646Y151310D01*
X107984Y150868D01*
X107984Y150868D01*
X90571Y133455D01*
X90000Y133530D01*
X89086Y133410D01*
X88235Y133057D01*
X87504Y132496D01*
X86943Y131765D01*
X86590Y130914D01*
X86470Y130000D01*
X86590Y129086D01*
X86943Y128235D01*
X87504Y127504D01*
X88235Y126943D01*
X89086Y126590D01*
X90000Y126470D01*
X90914Y126590D01*
X91765Y126943D01*
X92496Y127504D01*
X93057Y128235D01*
X93410Y129086D01*
X93530Y130000D01*
X93455Y130571D01*
X110271Y147387D01*
X112156D01*
X112735Y146943D01*
X113586Y146590D01*
X114500Y146470D01*
X115414Y146590D01*
X116265Y146943D01*
X116996Y147504D01*
X117557Y148235D01*
X117910Y149086D01*
X118030Y150000D01*
X117910Y150914D01*
X117557Y151765D01*
X116996Y152496D01*
X116265Y153057D01*
X115414Y153410D01*
X114500Y153530D01*
D02*
G37*
G36*
X60469Y149500D02*
X57000D01*
Y146031D01*
X57544Y146103D01*
X58517Y146506D01*
X59353Y147147D01*
X59994Y147983D01*
X60397Y148956D01*
X60469Y149500D01*
D02*
G37*
G36*
X56000D02*
X52531D01*
X52603Y148956D01*
X53006Y147983D01*
X53647Y147147D01*
X54483Y146506D01*
X55456Y146103D01*
X56000Y146031D01*
Y149500D01*
D02*
G37*
G36*
X73500Y154034D02*
X72456Y153897D01*
X71483Y153494D01*
X70647Y152853D01*
X70006Y152017D01*
X69603Y151044D01*
X69466Y150000D01*
X69603Y148956D01*
X70006Y147983D01*
X70647Y147147D01*
X71483Y146506D01*
X72456Y146103D01*
X73500Y145966D01*
X74544Y146103D01*
X75517Y146506D01*
X76353Y147147D01*
X76994Y147983D01*
X77397Y148956D01*
X77535Y150000D01*
X77397Y151044D01*
X76994Y152017D01*
X76353Y152853D01*
X75517Y153494D01*
X74544Y153897D01*
X73500Y154034D01*
D02*
G37*
G36*
X161000Y148464D02*
Y145500D01*
X163964D01*
X163910Y145914D01*
X163557Y146765D01*
X162996Y147496D01*
X162265Y148057D01*
X161414Y148410D01*
X161000Y148464D01*
D02*
G37*
G36*
X160000D02*
X159586Y148410D01*
X158735Y148057D01*
X158004Y147496D01*
X157443Y146765D01*
X157090Y145914D01*
X157036Y145500D01*
X160000D01*
Y148464D01*
D02*
G37*
G36*
X124500Y158530D02*
X123586Y158410D01*
X122735Y158057D01*
X122004Y157496D01*
X121443Y156765D01*
X121090Y155914D01*
X120970Y155000D01*
X121090Y154086D01*
X121443Y153235D01*
X122004Y152504D01*
X122735Y151943D01*
X123586Y151590D01*
X124500Y151470D01*
X125414Y151590D01*
X125493Y151623D01*
X127545Y149571D01*
X127470Y149000D01*
X127590Y148086D01*
X127943Y147235D01*
X128504Y146504D01*
X129235Y145943D01*
X130086Y145590D01*
X131000Y145470D01*
X131914Y145590D01*
X132765Y145943D01*
X133496Y146504D01*
X134057Y147235D01*
X134410Y148086D01*
X134530Y149000D01*
X134410Y149914D01*
X134057Y150765D01*
X133496Y151496D01*
X132765Y152057D01*
X131914Y152410D01*
X131000Y152530D01*
X130429Y152455D01*
X128013Y154871D01*
X128030Y155000D01*
X127910Y155914D01*
X127557Y156765D01*
X126996Y157496D01*
X126265Y158057D01*
X125414Y158410D01*
X124500Y158530D01*
D02*
G37*
G36*
X281500Y147469D02*
Y144000D01*
X284969D01*
X284897Y144544D01*
X284494Y145517D01*
X283853Y146353D01*
X283017Y146994D01*
X282044Y147397D01*
X281500Y147469D01*
D02*
G37*
G36*
X280500D02*
X279956Y147397D01*
X278983Y146994D01*
X278147Y146353D01*
X277506Y145517D01*
X277103Y144544D01*
X277031Y144000D01*
X280500D01*
Y147469D01*
D02*
G37*
G36*
X163964Y144500D02*
X161000D01*
Y141536D01*
X161414Y141590D01*
X162265Y141943D01*
X162996Y142504D01*
X163557Y143235D01*
X163910Y144086D01*
X163964Y144500D01*
D02*
G37*
G36*
X160000D02*
X157036D01*
X157090Y144086D01*
X157443Y143235D01*
X158004Y142504D01*
X158735Y141943D01*
X159586Y141590D01*
X160000Y141536D01*
Y144500D01*
D02*
G37*
G36*
X174000Y177030D02*
X173086Y176910D01*
X172235Y176557D01*
X171504Y175996D01*
X170943Y175265D01*
X170590Y174414D01*
X170470Y173500D01*
X170590Y172586D01*
X170943Y171735D01*
X171461Y171060D01*
Y148151D01*
X171235Y148057D01*
X170504Y147496D01*
X169943Y146765D01*
X169590Y145914D01*
X169470Y145000D01*
X169590Y144086D01*
X169943Y143235D01*
X170504Y142504D01*
X171235Y141943D01*
X172086Y141590D01*
X173000Y141470D01*
X173914Y141590D01*
X174765Y141943D01*
X175496Y142504D01*
X176057Y143235D01*
X176410Y144086D01*
X176530Y145000D01*
X176410Y145914D01*
X176057Y146765D01*
X175539Y147440D01*
Y170349D01*
X175765Y170443D01*
X176496Y171004D01*
X177057Y171735D01*
X177410Y172586D01*
X177530Y173500D01*
X177410Y174414D01*
X177057Y175265D01*
X176496Y175996D01*
X175765Y176557D01*
X174914Y176910D01*
X174000Y177030D01*
D02*
G37*
G36*
X122000Y144030D02*
X121086Y143910D01*
X120235Y143557D01*
X119504Y142996D01*
X118943Y142265D01*
X118590Y141414D01*
X118541Y141039D01*
X112347D01*
X111996Y141496D01*
X111265Y142057D01*
X110414Y142410D01*
X109500Y142530D01*
X108586Y142410D01*
X107735Y142057D01*
X107004Y141496D01*
X106443Y140765D01*
X106090Y139914D01*
X105970Y139000D01*
X106090Y138086D01*
X106443Y137235D01*
X107004Y136504D01*
X107735Y135943D01*
X108586Y135590D01*
X109500Y135470D01*
X110414Y135590D01*
X111265Y135943D01*
X111996Y136504D01*
X112347Y136961D01*
X119688D01*
X120469Y137116D01*
X120681Y137258D01*
X121086Y137090D01*
X122000Y136970D01*
X122914Y137090D01*
X123765Y137443D01*
X124496Y138004D01*
X125057Y138735D01*
X125410Y139586D01*
X125530Y140500D01*
X125410Y141414D01*
X125057Y142265D01*
X124496Y142996D01*
X123765Y143557D01*
X122914Y143910D01*
X122000Y144030D01*
D02*
G37*
G36*
X57000Y143969D02*
Y140500D01*
X60469D01*
X60397Y141044D01*
X59994Y142017D01*
X59353Y142853D01*
X58517Y143494D01*
X57544Y143897D01*
X57000Y143969D01*
D02*
G37*
G36*
X56000D02*
X55456Y143897D01*
X54483Y143494D01*
X53647Y142853D01*
X53006Y142017D01*
X52603Y141044D01*
X52531Y140500D01*
X56000D01*
Y143969D01*
D02*
G37*
G36*
X284969Y143000D02*
X281500D01*
Y139531D01*
X282044Y139603D01*
X283017Y140006D01*
X283853Y140647D01*
X284494Y141483D01*
X284897Y142456D01*
X284969Y143000D01*
D02*
G37*
G36*
X280500D02*
X277031D01*
X277103Y142456D01*
X277506Y141483D01*
X278147Y140647D01*
X278983Y140006D01*
X279956Y139603D01*
X280500Y139531D01*
Y143000D01*
D02*
G37*
G36*
X263500Y147535D02*
X262456Y147397D01*
X261483Y146994D01*
X260647Y146353D01*
X260006Y145517D01*
X259603Y144544D01*
X259466Y143500D01*
X259603Y142456D01*
X260006Y141483D01*
X260647Y140647D01*
X261483Y140006D01*
X262456Y139603D01*
X263500Y139465D01*
X264544Y139603D01*
X265517Y140006D01*
X266353Y140647D01*
X266994Y141483D01*
X267397Y142456D01*
X267534Y143500D01*
X267397Y144544D01*
X266994Y145517D01*
X266353Y146353D01*
X265517Y146994D01*
X264544Y147397D01*
X263500Y147535D01*
D02*
G37*
G36*
X205500Y152530D02*
X204586Y152410D01*
X203735Y152057D01*
X203004Y151496D01*
X202443Y150765D01*
X202090Y149914D01*
X201970Y149000D01*
X202090Y148086D01*
X202443Y147235D01*
X203004Y146504D01*
X203735Y145943D01*
X204174Y145761D01*
Y143739D01*
X203735Y143557D01*
X203004Y142996D01*
X202443Y142265D01*
X202090Y141414D01*
X201970Y140500D01*
X202090Y139586D01*
X202443Y138735D01*
X203004Y138004D01*
X203735Y137443D01*
X204586Y137090D01*
X205500Y136970D01*
X206414Y137090D01*
X207265Y137443D01*
X207996Y138004D01*
X208557Y138735D01*
X208910Y139586D01*
X209030Y140500D01*
X208910Y141414D01*
X208557Y142265D01*
X207996Y142996D01*
X207265Y143557D01*
X206825Y143739D01*
Y145761D01*
X207265Y145943D01*
X207996Y146504D01*
X208557Y147235D01*
X208910Y148086D01*
X209030Y149000D01*
X208910Y149914D01*
X208557Y150765D01*
X207996Y151496D01*
X207265Y152057D01*
X206414Y152410D01*
X205500Y152530D01*
D02*
G37*
G36*
X196500Y152030D02*
X195586Y151910D01*
X194735Y151557D01*
X194004Y150996D01*
X193443Y150265D01*
X193090Y149414D01*
X192970Y148500D01*
X193090Y147586D01*
X193443Y146735D01*
X194004Y146004D01*
X194735Y145443D01*
X195175Y145261D01*
Y143239D01*
X194735Y143057D01*
X194004Y142496D01*
X193443Y141765D01*
X193090Y140914D01*
X192970Y140000D01*
X193090Y139086D01*
X193443Y138235D01*
X194004Y137504D01*
X194735Y136943D01*
X195586Y136590D01*
X196500Y136470D01*
X197414Y136590D01*
X198265Y136943D01*
X198996Y137504D01*
X199557Y138235D01*
X199910Y139086D01*
X200030Y140000D01*
X199910Y140914D01*
X199557Y141765D01*
X198996Y142496D01*
X198265Y143057D01*
X197826Y143239D01*
Y145261D01*
X198265Y145443D01*
X198996Y146004D01*
X199557Y146735D01*
X199910Y147586D01*
X200030Y148500D01*
X199910Y149414D01*
X199557Y150265D01*
X198996Y150996D01*
X198265Y151557D01*
X197414Y151910D01*
X196500Y152030D01*
D02*
G37*
G36*
X60469Y139500D02*
X57000D01*
Y136031D01*
X57544Y136103D01*
X58517Y136506D01*
X59353Y137147D01*
X59994Y137983D01*
X60397Y138956D01*
X60469Y139500D01*
D02*
G37*
G36*
X56000D02*
X52531D01*
X52603Y138956D01*
X53006Y137983D01*
X53647Y137147D01*
X54483Y136506D01*
X55456Y136103D01*
X56000Y136031D01*
Y139500D01*
D02*
G37*
G36*
X73500Y144035D02*
X72456Y143897D01*
X71483Y143494D01*
X70647Y142853D01*
X70006Y142017D01*
X69603Y141044D01*
X69466Y140000D01*
X69603Y138956D01*
X70006Y137983D01*
X70647Y137147D01*
X71483Y136506D01*
X72456Y136103D01*
X73500Y135966D01*
X74544Y136103D01*
X75517Y136506D01*
X76353Y137147D01*
X76994Y137983D01*
X77397Y138956D01*
X77535Y140000D01*
X77397Y141044D01*
X76994Y142017D01*
X76353Y142853D01*
X75517Y143494D01*
X74544Y143897D01*
X73500Y144035D01*
D02*
G37*
G36*
X183000Y141530D02*
X182086Y141410D01*
X181235Y141057D01*
X180504Y140496D01*
X179943Y139765D01*
X179590Y138914D01*
X179470Y138000D01*
X179590Y137086D01*
X179772Y136647D01*
X174951Y131825D01*
X166500D01*
X165993Y131725D01*
X165563Y131437D01*
X162353Y128228D01*
X161914Y128410D01*
X161000Y128530D01*
X160086Y128410D01*
X159235Y128057D01*
X158504Y127496D01*
X157943Y126765D01*
X157590Y125914D01*
X157470Y125000D01*
X157590Y124086D01*
X157943Y123235D01*
X158504Y122504D01*
X159235Y121943D01*
X160086Y121590D01*
X161000Y121470D01*
X161914Y121590D01*
X162765Y121943D01*
X163496Y122504D01*
X164057Y123235D01*
X164410Y124086D01*
X164530Y125000D01*
X164410Y125914D01*
X164228Y126353D01*
X167049Y129174D01*
X175500D01*
X176007Y129275D01*
X176437Y129563D01*
X181647Y134772D01*
X182086Y134590D01*
X183000Y134470D01*
X183914Y134590D01*
X184765Y134943D01*
X185496Y135504D01*
X186057Y136235D01*
X186410Y137086D01*
X186530Y138000D01*
X186410Y138914D01*
X186057Y139765D01*
X185496Y140496D01*
X184765Y141057D01*
X183914Y141410D01*
X183000Y141530D01*
D02*
G37*
G36*
X281500Y137469D02*
Y134000D01*
X284969D01*
X284897Y134544D01*
X284494Y135517D01*
X283853Y136353D01*
X283017Y136994D01*
X282044Y137397D01*
X281500Y137469D01*
D02*
G37*
G36*
X280500D02*
X279956Y137397D01*
X278983Y136994D01*
X278147Y136353D01*
X277506Y135517D01*
X277103Y134544D01*
X277031Y134000D01*
X280500D01*
Y137469D01*
D02*
G37*
G36*
X190500Y138030D02*
X189586Y137910D01*
X188735Y137557D01*
X188004Y136996D01*
X187443Y136265D01*
X187239Y135774D01*
X186993Y135725D01*
X186563Y135437D01*
X175951Y124826D01*
X172739D01*
X172557Y125265D01*
X171996Y125996D01*
X171265Y126557D01*
X170414Y126910D01*
X169500Y127030D01*
X168586Y126910D01*
X167735Y126557D01*
X167004Y125996D01*
X166443Y125265D01*
X166090Y124414D01*
X165970Y123500D01*
X166090Y122586D01*
X166443Y121735D01*
X167004Y121004D01*
X167735Y120443D01*
X168586Y120090D01*
X169500Y119970D01*
X170414Y120090D01*
X171265Y120443D01*
X171996Y121004D01*
X172557Y121735D01*
X172739Y122175D01*
X176500D01*
X177007Y122275D01*
X177437Y122563D01*
X187247Y132372D01*
X187746Y132340D01*
X188004Y132004D01*
X188735Y131443D01*
X189586Y131090D01*
X190500Y130970D01*
X191414Y131090D01*
X192265Y131443D01*
X192996Y132004D01*
X193557Y132735D01*
X193910Y133586D01*
X194030Y134500D01*
X193910Y135414D01*
X193557Y136265D01*
X192996Y136996D01*
X192265Y137557D01*
X191414Y137910D01*
X190500Y138030D01*
D02*
G37*
G36*
X226500Y137905D02*
X225586Y137785D01*
X224735Y137432D01*
X224004Y136871D01*
X223443Y136140D01*
X223090Y135289D01*
X222970Y134375D01*
X223090Y133461D01*
X223272Y133022D01*
X218563Y128312D01*
X218275Y127882D01*
X218175Y127375D01*
Y104921D01*
X218086Y104910D01*
X217235Y104557D01*
X216504Y103996D01*
X215943Y103265D01*
X215590Y102414D01*
X215470Y101500D01*
X215590Y100586D01*
X215943Y99735D01*
X216504Y99004D01*
X217235Y98443D01*
X218086Y98090D01*
X219000Y97970D01*
X219914Y98090D01*
X220765Y98443D01*
X221496Y99004D01*
X222057Y99735D01*
X222410Y100586D01*
X222530Y101500D01*
X222410Y102414D01*
X222057Y103265D01*
X221496Y103996D01*
X220826Y104511D01*
Y126826D01*
X225147Y131147D01*
X225586Y130965D01*
X226500Y130845D01*
X227414Y130965D01*
X228265Y131318D01*
X228996Y131879D01*
X229557Y132610D01*
X229910Y133461D01*
X230030Y134375D01*
X229910Y135289D01*
X229557Y136140D01*
X228996Y136871D01*
X228265Y137432D01*
X227414Y137785D01*
X226500Y137905D01*
D02*
G37*
G36*
X57000Y133969D02*
Y130500D01*
X60469D01*
X60397Y131044D01*
X59994Y132017D01*
X59353Y132853D01*
X58517Y133494D01*
X57544Y133897D01*
X57000Y133969D01*
D02*
G37*
G36*
X56000D02*
X55456Y133897D01*
X54483Y133494D01*
X53647Y132853D01*
X53006Y132017D01*
X52603Y131044D01*
X52531Y130500D01*
X56000D01*
Y133969D01*
D02*
G37*
G36*
X284969Y133000D02*
X281500D01*
Y129531D01*
X282044Y129603D01*
X283017Y130006D01*
X283853Y130647D01*
X284494Y131483D01*
X284897Y132456D01*
X284969Y133000D01*
D02*
G37*
G36*
X280500D02*
X277031D01*
X277103Y132456D01*
X277506Y131483D01*
X278147Y130647D01*
X278983Y130006D01*
X279956Y129603D01*
X280500Y129531D01*
Y133000D01*
D02*
G37*
G36*
X263500Y137534D02*
X262456Y137397D01*
X261483Y136994D01*
X260647Y136353D01*
X260006Y135517D01*
X259603Y134544D01*
X259466Y133500D01*
X259603Y132456D01*
X260006Y131483D01*
X260647Y130647D01*
X261483Y130006D01*
X262456Y129603D01*
X263500Y129465D01*
X264544Y129603D01*
X265517Y130006D01*
X266353Y130647D01*
X266994Y131483D01*
X267397Y132456D01*
X267534Y133500D01*
X267397Y134544D01*
X266994Y135517D01*
X266353Y136353D01*
X265517Y136994D01*
X264544Y137397D01*
X263500Y137534D01*
D02*
G37*
G36*
X104000Y135530D02*
X103086Y135410D01*
X102235Y135057D01*
X101504Y134496D01*
X100943Y133765D01*
X100590Y132914D01*
X100470Y132000D01*
X100545Y131429D01*
X97571Y128455D01*
X97000Y128530D01*
X96086Y128410D01*
X95235Y128057D01*
X94504Y127496D01*
X93943Y126765D01*
X93590Y125914D01*
X93470Y125000D01*
X93590Y124086D01*
X93943Y123235D01*
X94504Y122504D01*
X95235Y121943D01*
X96086Y121590D01*
X97000Y121470D01*
X97914Y121590D01*
X98765Y121943D01*
X99496Y122504D01*
X100057Y123235D01*
X100410Y124086D01*
X100530Y125000D01*
X100455Y125571D01*
X103429Y128545D01*
X104000Y128470D01*
X104914Y128590D01*
X105765Y128943D01*
X106496Y129504D01*
X107057Y130235D01*
X107410Y131086D01*
X107530Y132000D01*
X107410Y132914D01*
X107057Y133765D01*
X106496Y134496D01*
X105765Y135057D01*
X104914Y135410D01*
X104000Y135530D01*
D02*
G37*
G36*
X235400Y133930D02*
X234486Y133810D01*
X233635Y133457D01*
X232904Y132896D01*
X232343Y132165D01*
X231990Y131314D01*
X231870Y130400D01*
X231990Y129486D01*
X232172Y129047D01*
X225063Y121937D01*
X224775Y121507D01*
X224675Y121000D01*
Y98239D01*
X224235Y98057D01*
X223504Y97496D01*
X222943Y96765D01*
X222590Y95914D01*
X222470Y95000D01*
X222590Y94086D01*
X222943Y93235D01*
X223504Y92504D01*
X224235Y91943D01*
X225086Y91590D01*
X226000Y91470D01*
X226914Y91590D01*
X227765Y91943D01*
X228496Y92504D01*
X229057Y93235D01*
X229410Y94086D01*
X229530Y95000D01*
X229410Y95914D01*
X229057Y96765D01*
X228496Y97496D01*
X227765Y98057D01*
X227326Y98239D01*
Y120451D01*
X234047Y127172D01*
X234486Y126990D01*
X235400Y126870D01*
X236314Y126990D01*
X237165Y127343D01*
X237896Y127904D01*
X238457Y128635D01*
X238810Y129486D01*
X238930Y130400D01*
X238810Y131314D01*
X238457Y132165D01*
X237896Y132896D01*
X237165Y133457D01*
X236314Y133810D01*
X235400Y133930D01*
D02*
G37*
G36*
X60469Y129500D02*
X57000D01*
Y126031D01*
X57544Y126103D01*
X58517Y126506D01*
X59353Y127147D01*
X59994Y127983D01*
X60397Y128956D01*
X60469Y129500D01*
D02*
G37*
G36*
X56000D02*
X52531D01*
X52603Y128956D01*
X53006Y127983D01*
X53647Y127147D01*
X54483Y126506D01*
X55456Y126103D01*
X56000Y126031D01*
Y129500D01*
D02*
G37*
G36*
X73500Y134035D02*
X72456Y133897D01*
X71483Y133494D01*
X70647Y132853D01*
X70006Y132017D01*
X69603Y131044D01*
X69466Y130000D01*
X69603Y128956D01*
X70006Y127983D01*
X70647Y127147D01*
X71483Y126506D01*
X72456Y126103D01*
X73500Y125965D01*
X74544Y126103D01*
X75517Y126506D01*
X76353Y127147D01*
X76994Y127983D01*
X77397Y128956D01*
X77535Y130000D01*
X77397Y131044D01*
X76994Y132017D01*
X76353Y132853D01*
X75517Y133494D01*
X74544Y133897D01*
X73500Y134035D01*
D02*
G37*
G36*
X112500Y131530D02*
X111586Y131410D01*
X110735Y131057D01*
X110004Y130496D01*
X109443Y129765D01*
X109090Y128914D01*
X108970Y128000D01*
X109090Y127086D01*
X109272Y126647D01*
X104707Y122081D01*
X103914Y122410D01*
X103000Y122530D01*
X102086Y122410D01*
X101235Y122057D01*
X100504Y121496D01*
X99943Y120765D01*
X99590Y119914D01*
X99470Y119000D01*
X99590Y118086D01*
X99943Y117235D01*
X100504Y116504D01*
X101235Y115943D01*
X102086Y115590D01*
X103000Y115470D01*
X103914Y115590D01*
X104765Y115943D01*
X105496Y116504D01*
X106057Y117235D01*
X106410Y118086D01*
X106530Y119000D01*
X106410Y119914D01*
X106374Y120000D01*
X111147Y124772D01*
X111586Y124590D01*
X112500Y124470D01*
X113414Y124590D01*
X114265Y124943D01*
X114996Y125504D01*
X115557Y126235D01*
X115910Y127086D01*
X116030Y128000D01*
X115910Y128914D01*
X115557Y129765D01*
X114996Y130496D01*
X114265Y131057D01*
X113414Y131410D01*
X112500Y131530D01*
D02*
G37*
G36*
X281500Y127469D02*
Y124000D01*
X284969D01*
X284897Y124544D01*
X284494Y125517D01*
X283853Y126353D01*
X283017Y126994D01*
X282044Y127397D01*
X281500Y127469D01*
D02*
G37*
G36*
X280500D02*
X279956Y127397D01*
X278983Y126994D01*
X278147Y126353D01*
X277506Y125517D01*
X277103Y124544D01*
X277031Y124000D01*
X280500D01*
Y127469D01*
D02*
G37*
G36*
X57000Y123969D02*
Y120500D01*
X60469D01*
X60397Y121044D01*
X59994Y122017D01*
X59353Y122853D01*
X58517Y123494D01*
X57544Y123897D01*
X57000Y123969D01*
D02*
G37*
G36*
X56000D02*
X55456Y123897D01*
X54483Y123494D01*
X53647Y122853D01*
X53006Y122017D01*
X52603Y121044D01*
X52531Y120500D01*
X56000D01*
Y123969D01*
D02*
G37*
G36*
X284969Y123000D02*
X281500D01*
Y119531D01*
X282044Y119603D01*
X283017Y120006D01*
X283853Y120647D01*
X284494Y121483D01*
X284897Y122456D01*
X284969Y123000D01*
D02*
G37*
G36*
X280500D02*
X277031D01*
X277103Y122456D01*
X277506Y121483D01*
X278147Y120647D01*
X278983Y120006D01*
X279956Y119603D01*
X280500Y119531D01*
Y123000D01*
D02*
G37*
G36*
X263500Y127534D02*
X262456Y127397D01*
X261483Y126994D01*
X260647Y126353D01*
X260006Y125517D01*
X259603Y124544D01*
X259466Y123500D01*
X259603Y122456D01*
X260006Y121483D01*
X260647Y120647D01*
X261483Y120006D01*
X262456Y119603D01*
X263500Y119465D01*
X264544Y119603D01*
X265517Y120006D01*
X266353Y120647D01*
X266994Y121483D01*
X267397Y122456D01*
X267534Y123500D01*
X267397Y124544D01*
X266994Y125517D01*
X266353Y126353D01*
X265517Y126994D01*
X264544Y127397D01*
X263500Y127534D01*
D02*
G37*
G36*
X165500Y120464D02*
Y117500D01*
X168464D01*
X168410Y117914D01*
X168057Y118765D01*
X167496Y119496D01*
X166765Y120057D01*
X165914Y120410D01*
X165500Y120464D01*
D02*
G37*
G36*
X164500D02*
X164086Y120410D01*
X163235Y120057D01*
X162504Y119496D01*
X161943Y118765D01*
X161590Y117914D01*
X161536Y117500D01*
X164500D01*
Y120464D01*
D02*
G37*
G36*
X60469Y119500D02*
X57000D01*
Y116031D01*
X57544Y116103D01*
X58517Y116506D01*
X59353Y117147D01*
X59994Y117983D01*
X60397Y118956D01*
X60469Y119500D01*
D02*
G37*
G36*
X56000D02*
X52531D01*
X52603Y118956D01*
X53006Y117983D01*
X53647Y117147D01*
X54483Y116506D01*
X55456Y116103D01*
X56000Y116031D01*
Y119500D01*
D02*
G37*
G36*
X73500Y124035D02*
X72456Y123897D01*
X71483Y123494D01*
X70647Y122853D01*
X70006Y122017D01*
X69603Y121044D01*
X69466Y120000D01*
X69603Y118956D01*
X70006Y117983D01*
X70647Y117147D01*
X71483Y116506D01*
X72456Y116103D01*
X73500Y115965D01*
X74544Y116103D01*
X75517Y116506D01*
X76353Y117147D01*
X76994Y117983D01*
X77397Y118956D01*
X77535Y120000D01*
X77397Y121044D01*
X76994Y122017D01*
X76353Y122853D01*
X75517Y123494D01*
X74544Y123897D01*
X73500Y124035D01*
D02*
G37*
G36*
X281500Y117469D02*
Y114000D01*
X284969D01*
X284897Y114544D01*
X284494Y115517D01*
X283853Y116353D01*
X283017Y116994D01*
X282044Y117397D01*
X281500Y117469D01*
D02*
G37*
G36*
X280500D02*
X279956Y117397D01*
X278983Y116994D01*
X278147Y116353D01*
X277506Y115517D01*
X277103Y114544D01*
X277031Y114000D01*
X280500D01*
Y117469D01*
D02*
G37*
G36*
X168464Y116500D02*
X165500D01*
Y113536D01*
X165914Y113590D01*
X166765Y113943D01*
X167496Y114504D01*
X168057Y115235D01*
X168410Y116086D01*
X168464Y116500D01*
D02*
G37*
G36*
X164500D02*
X161536D01*
X161590Y116086D01*
X161943Y115235D01*
X162504Y114504D01*
X163235Y113943D01*
X164086Y113590D01*
X164500Y113536D01*
Y116500D01*
D02*
G37*
G36*
X174500Y113530D02*
X173586Y113410D01*
X172735Y113057D01*
X172004Y112496D01*
X171443Y111765D01*
X171349Y111539D01*
X167440D01*
X166765Y112057D01*
X165914Y112410D01*
X165000Y112530D01*
X164086Y112410D01*
X163235Y112057D01*
X162504Y111496D01*
X161943Y110765D01*
X161590Y109914D01*
X161470Y109000D01*
X161590Y108086D01*
X161943Y107235D01*
X162504Y106504D01*
X163235Y105943D01*
X164086Y105590D01*
X165000Y105470D01*
X165914Y105590D01*
X166765Y105943D01*
X167496Y106504D01*
X168057Y107235D01*
X168151Y107461D01*
X172060D01*
X172735Y106943D01*
X173586Y106590D01*
X174500Y106470D01*
X175414Y106590D01*
X176265Y106943D01*
X176996Y107504D01*
X177557Y108235D01*
X177910Y109086D01*
X178030Y110000D01*
X177910Y110914D01*
X177557Y111765D01*
X176996Y112496D01*
X176265Y113057D01*
X175414Y113410D01*
X174500Y113530D01*
D02*
G37*
G36*
X57000Y113969D02*
Y110500D01*
X60469D01*
X60397Y111044D01*
X59994Y112017D01*
X59353Y112853D01*
X58517Y113494D01*
X57544Y113897D01*
X57000Y113969D01*
D02*
G37*
G36*
X74000D02*
Y110500D01*
X77469D01*
X77397Y111044D01*
X76994Y112017D01*
X76353Y112853D01*
X75517Y113494D01*
X74544Y113897D01*
X74000Y113969D01*
D02*
G37*
G36*
X73000D02*
X72456Y113897D01*
X71483Y113494D01*
X70647Y112853D01*
X70006Y112017D01*
X69603Y111044D01*
X69531Y110500D01*
X73000D01*
Y113969D01*
D02*
G37*
G36*
X56000D02*
X55456Y113897D01*
X54483Y113494D01*
X53647Y112853D01*
X53006Y112017D01*
X52603Y111044D01*
X52531Y110500D01*
X56000D01*
Y113969D01*
D02*
G37*
G36*
X284969Y113000D02*
X281500D01*
Y109531D01*
X282044Y109603D01*
X283017Y110006D01*
X283853Y110647D01*
X284494Y111483D01*
X284897Y112456D01*
X284969Y113000D01*
D02*
G37*
G36*
X280500D02*
X277031D01*
X277103Y112456D01*
X277506Y111483D01*
X278147Y110647D01*
X278983Y110006D01*
X279956Y109603D01*
X280500Y109531D01*
Y113000D01*
D02*
G37*
G36*
X263500Y117534D02*
X262456Y117397D01*
X261483Y116994D01*
X260647Y116353D01*
X260006Y115517D01*
X259603Y114544D01*
X259466Y113500D01*
X259603Y112456D01*
X260006Y111483D01*
X260647Y110647D01*
X261483Y110006D01*
X262456Y109603D01*
X263500Y109466D01*
X264544Y109603D01*
X265517Y110006D01*
X266353Y110647D01*
X266994Y111483D01*
X267397Y112456D01*
X267534Y113500D01*
X267397Y114544D01*
X266994Y115517D01*
X266353Y116353D01*
X265517Y116994D01*
X264544Y117397D01*
X263500Y117534D01*
D02*
G37*
G36*
X112500Y120530D02*
X111586Y120410D01*
X110735Y120057D01*
X110004Y119496D01*
X109443Y118765D01*
X109090Y117914D01*
X108970Y117000D01*
X109090Y116086D01*
X109443Y115235D01*
X110004Y114504D01*
X110735Y113943D01*
X111586Y113590D01*
X112500Y113470D01*
X113414Y113590D01*
X114265Y113943D01*
X114996Y114504D01*
X115347Y114961D01*
X134655D01*
X136545Y113071D01*
X136470Y112500D01*
X136577Y111683D01*
X134808Y109914D01*
X134366Y109252D01*
X134211Y108472D01*
Y97373D01*
X132825Y95987D01*
X132500Y96030D01*
X131586Y95910D01*
X130735Y95557D01*
X130004Y94996D01*
X129443Y94265D01*
X129090Y93414D01*
X128970Y92500D01*
X129090Y91586D01*
X129443Y90735D01*
X130004Y90004D01*
X130735Y89443D01*
X131586Y89090D01*
X132500Y88970D01*
X133414Y89090D01*
X134265Y89443D01*
X134996Y90004D01*
X135557Y90735D01*
X135910Y91586D01*
X136030Y92500D01*
X135923Y93317D01*
X137692Y95086D01*
X137692Y95086D01*
X138134Y95748D01*
X138289Y96528D01*
X138289Y96528D01*
Y107627D01*
X139675Y109013D01*
X140000Y108970D01*
X140914Y109090D01*
X141765Y109443D01*
X142496Y110004D01*
X143057Y110735D01*
X143410Y111586D01*
X143530Y112500D01*
X143410Y113414D01*
X143057Y114265D01*
X142496Y114996D01*
X141765Y115557D01*
X140914Y115910D01*
X140000Y116030D01*
X139429Y115955D01*
X136942Y118442D01*
X136280Y118884D01*
X135500Y119039D01*
X115347D01*
X114996Y119496D01*
X114265Y120057D01*
X113414Y120410D01*
X112500Y120530D01*
D02*
G37*
G36*
X60469Y109500D02*
X57000D01*
Y106031D01*
X57544Y106103D01*
X58517Y106506D01*
X59353Y107147D01*
X59994Y107983D01*
X60397Y108956D01*
X60469Y109500D01*
D02*
G37*
G36*
X77469D02*
X74000D01*
Y106031D01*
X74544Y106103D01*
X75517Y106506D01*
X76353Y107147D01*
X76994Y107983D01*
X77397Y108956D01*
X77469Y109500D01*
D02*
G37*
G36*
X73000D02*
X69531D01*
X69603Y108956D01*
X70006Y107983D01*
X70647Y107147D01*
X71483Y106506D01*
X72456Y106103D01*
X73000Y106031D01*
Y109500D01*
D02*
G37*
G36*
X56000D02*
X52531D01*
X52603Y108956D01*
X53006Y107983D01*
X53647Y107147D01*
X54483Y106506D01*
X55456Y106103D01*
X56000Y106031D01*
Y109500D01*
D02*
G37*
G36*
X125500Y131530D02*
X124586Y131410D01*
X123735Y131057D01*
X123004Y130496D01*
X122443Y129765D01*
X122090Y128914D01*
X121970Y128000D01*
X122090Y127086D01*
X122443Y126235D01*
X123004Y125504D01*
X123735Y124943D01*
X124586Y124590D01*
X125500Y124470D01*
X126414Y124590D01*
X127265Y124943D01*
X127996Y125504D01*
X128557Y126235D01*
X128739Y126674D01*
X133451D01*
X145675Y114451D01*
Y107049D01*
X143853Y105228D01*
X143414Y105410D01*
X142500Y105530D01*
X141586Y105410D01*
X140735Y105057D01*
X140004Y104496D01*
X139443Y103765D01*
X139090Y102914D01*
X138970Y102000D01*
X139090Y101086D01*
X139443Y100235D01*
X140004Y99504D01*
X140735Y98943D01*
X141586Y98590D01*
X142500Y98470D01*
X143414Y98590D01*
X144265Y98943D01*
X144996Y99504D01*
X145557Y100235D01*
X145910Y101086D01*
X146030Y102000D01*
X145910Y102914D01*
X145728Y103353D01*
X147937Y105563D01*
X148225Y105993D01*
X148326Y106500D01*
Y115000D01*
X148225Y115507D01*
X147937Y115937D01*
X134937Y128937D01*
X134507Y129225D01*
X134000Y129325D01*
X128739D01*
X128557Y129765D01*
X127996Y130496D01*
X127265Y131057D01*
X126414Y131410D01*
X125500Y131530D01*
D02*
G37*
G36*
X281500Y107469D02*
Y104000D01*
X284969D01*
X284897Y104544D01*
X284494Y105517D01*
X283853Y106353D01*
X283017Y106994D01*
X282044Y107397D01*
X281500Y107469D01*
D02*
G37*
G36*
X280500D02*
X279956Y107397D01*
X278983Y106994D01*
X278147Y106353D01*
X277506Y105517D01*
X277103Y104544D01*
X277031Y104000D01*
X280500D01*
Y107469D01*
D02*
G37*
G36*
X57000Y103969D02*
Y100500D01*
X60469D01*
X60397Y101044D01*
X59994Y102017D01*
X59353Y102853D01*
X58517Y103494D01*
X57544Y103897D01*
X57000Y103969D01*
D02*
G37*
G36*
X74000D02*
Y100500D01*
X77469D01*
X77397Y101044D01*
X76994Y102017D01*
X76353Y102853D01*
X75517Y103494D01*
X74544Y103897D01*
X74000Y103969D01*
D02*
G37*
G36*
X73000D02*
X72456Y103897D01*
X71483Y103494D01*
X70647Y102853D01*
X70006Y102017D01*
X69603Y101044D01*
X69531Y100500D01*
X73000D01*
Y103969D01*
D02*
G37*
G36*
X56000D02*
X55456Y103897D01*
X54483Y103494D01*
X53647Y102853D01*
X53006Y102017D01*
X52603Y101044D01*
X52531Y100500D01*
X56000D01*
Y103969D01*
D02*
G37*
G36*
X284969Y103000D02*
X281500D01*
Y99531D01*
X282044Y99603D01*
X283017Y100006D01*
X283853Y100647D01*
X284494Y101483D01*
X284897Y102456D01*
X284969Y103000D01*
D02*
G37*
G36*
X280500D02*
X277031D01*
X277103Y102456D01*
X277506Y101483D01*
X278147Y100647D01*
X278983Y100006D01*
X279956Y99603D01*
X280500Y99531D01*
Y103000D01*
D02*
G37*
G36*
X263500Y107535D02*
X262456Y107397D01*
X261483Y106994D01*
X260647Y106353D01*
X260006Y105517D01*
X259603Y104544D01*
X259466Y103500D01*
X259603Y102456D01*
X260006Y101483D01*
X260647Y100647D01*
X261483Y100006D01*
X262456Y99603D01*
X263500Y99466D01*
X264544Y99603D01*
X265517Y100006D01*
X266353Y100647D01*
X266994Y101483D01*
X267397Y102456D01*
X267534Y103500D01*
X267397Y104544D01*
X266994Y105517D01*
X266353Y106353D01*
X265517Y106994D01*
X264544Y107397D01*
X263500Y107535D01*
D02*
G37*
G36*
X105500Y113530D02*
X104586Y113410D01*
X103735Y113057D01*
X103004Y112496D01*
X102443Y111765D01*
X102090Y110914D01*
X101970Y110000D01*
X102090Y109086D01*
X102443Y108235D01*
X103004Y107504D01*
X103735Y106943D01*
X104586Y106590D01*
X105500Y106470D01*
X106414Y106590D01*
X106853Y106772D01*
X114563Y99063D01*
X114993Y98775D01*
X115500Y98674D01*
X125761D01*
X125943Y98235D01*
X126504Y97504D01*
X127235Y96943D01*
X128086Y96590D01*
X129000Y96470D01*
X129914Y96590D01*
X130765Y96943D01*
X131496Y97504D01*
X132057Y98235D01*
X132410Y99086D01*
X132530Y100000D01*
X132410Y100914D01*
X132057Y101765D01*
X131496Y102496D01*
X130765Y103057D01*
X129914Y103410D01*
X129000Y103530D01*
X128086Y103410D01*
X127235Y103057D01*
X126504Y102496D01*
X125943Y101765D01*
X125761Y101326D01*
X116049D01*
X108728Y108647D01*
X108910Y109086D01*
X109030Y110000D01*
X108910Y110914D01*
X108557Y111765D01*
X107996Y112496D01*
X107265Y113057D01*
X106414Y113410D01*
X105500Y113530D01*
D02*
G37*
G36*
X60469Y99500D02*
X57000D01*
Y96031D01*
X57544Y96103D01*
X58517Y96506D01*
X59353Y97147D01*
X59994Y97983D01*
X60397Y98956D01*
X60469Y99500D01*
D02*
G37*
G36*
X77469D02*
X74000D01*
Y96031D01*
X74544Y96103D01*
X75517Y96506D01*
X76353Y97147D01*
X76994Y97983D01*
X77397Y98956D01*
X77469Y99500D01*
D02*
G37*
G36*
X73000D02*
X69531D01*
X69603Y98956D01*
X70006Y97983D01*
X70647Y97147D01*
X71483Y96506D01*
X72456Y96103D01*
X73000Y96031D01*
Y99500D01*
D02*
G37*
G36*
X56000D02*
X52531D01*
X52603Y98956D01*
X53006Y97983D01*
X53647Y97147D01*
X54483Y96506D01*
X55456Y96103D01*
X56000Y96031D01*
Y99500D01*
D02*
G37*
G36*
X57000Y93969D02*
Y90500D01*
X60469D01*
X60397Y91044D01*
X59994Y92017D01*
X59353Y92853D01*
X58517Y93494D01*
X57544Y93897D01*
X57000Y93969D01*
D02*
G37*
G36*
X56000D02*
X55456Y93897D01*
X54483Y93494D01*
X53647Y92853D01*
X53006Y92017D01*
X52603Y91044D01*
X52531Y90500D01*
X56000D01*
Y93969D01*
D02*
G37*
G36*
X281500Y93469D02*
Y90000D01*
X284969D01*
X284897Y90544D01*
X284494Y91517D01*
X283853Y92353D01*
X283017Y92994D01*
X282044Y93397D01*
X281500Y93469D01*
D02*
G37*
G36*
X280500D02*
X279956Y93397D01*
X278983Y92994D01*
X278147Y92353D01*
X277506Y91517D01*
X277103Y90544D01*
X277031Y90000D01*
X280500D01*
Y93469D01*
D02*
G37*
G36*
X181000Y96030D02*
X180086Y95910D01*
X179235Y95557D01*
X178504Y94996D01*
X177943Y94265D01*
X177761Y93826D01*
X160000D01*
X159493Y93725D01*
X159063Y93437D01*
X146353Y80728D01*
X145914Y80910D01*
X145000Y81030D01*
X144086Y80910D01*
X143235Y80557D01*
X142504Y79996D01*
X141943Y79265D01*
X141590Y78414D01*
X141470Y77500D01*
X141590Y76586D01*
X141943Y75735D01*
X142504Y75004D01*
X143235Y74443D01*
X144086Y74090D01*
X145000Y73970D01*
X145914Y74090D01*
X146765Y74443D01*
X147496Y75004D01*
X148057Y75735D01*
X148410Y76586D01*
X148530Y77500D01*
X148410Y78414D01*
X148228Y78853D01*
X160549Y91175D01*
X177761D01*
X177943Y90735D01*
X178504Y90004D01*
X179235Y89443D01*
X180086Y89090D01*
X181000Y88970D01*
X181914Y89090D01*
X182765Y89443D01*
X183496Y90004D01*
X184057Y90735D01*
X184410Y91586D01*
X184530Y92500D01*
X184410Y93414D01*
X184057Y94265D01*
X183496Y94996D01*
X182765Y95557D01*
X181914Y95910D01*
X181000Y96030D01*
D02*
G37*
G36*
X60469Y89500D02*
X57000D01*
Y86031D01*
X57544Y86103D01*
X58517Y86506D01*
X59353Y87147D01*
X59994Y87983D01*
X60397Y88956D01*
X60469Y89500D01*
D02*
G37*
G36*
X56000D02*
X52531D01*
X52603Y88956D01*
X53006Y87983D01*
X53647Y87147D01*
X54483Y86506D01*
X55456Y86103D01*
X56000Y86031D01*
Y89500D01*
D02*
G37*
G36*
X73500Y94034D02*
X72456Y93897D01*
X71483Y93494D01*
X70647Y92853D01*
X70006Y92017D01*
X69603Y91044D01*
X69466Y90000D01*
X69603Y88956D01*
X70006Y87983D01*
X70647Y87147D01*
X71483Y86506D01*
X72456Y86103D01*
X73500Y85966D01*
X74544Y86103D01*
X75517Y86506D01*
X76353Y87147D01*
X76994Y87983D01*
X77397Y88956D01*
X77535Y90000D01*
X77397Y91044D01*
X76994Y92017D01*
X76353Y92853D01*
X75517Y93494D01*
X74544Y93897D01*
X73500Y94034D01*
D02*
G37*
G36*
X243500Y130030D02*
X242586Y129910D01*
X241735Y129557D01*
X241004Y128996D01*
X240443Y128265D01*
X240090Y127414D01*
X239970Y126500D01*
X240090Y125586D01*
X240443Y124735D01*
X241004Y124004D01*
X241735Y123443D01*
X242175Y123261D01*
Y121549D01*
X231313Y110687D01*
X231025Y110257D01*
X230925Y109750D01*
Y92489D01*
X230485Y92307D01*
X229754Y91746D01*
X229193Y91015D01*
X228840Y90164D01*
X228720Y89250D01*
X228840Y88336D01*
X229193Y87485D01*
X229754Y86754D01*
X230485Y86193D01*
X231336Y85840D01*
X232250Y85720D01*
X233164Y85840D01*
X234015Y86193D01*
X234746Y86754D01*
X235307Y87485D01*
X235660Y88336D01*
X235780Y89250D01*
X235660Y90164D01*
X235307Y91015D01*
X234746Y91746D01*
X234015Y92307D01*
X233576Y92489D01*
Y109201D01*
X244437Y120063D01*
X244725Y120493D01*
X244826Y121000D01*
Y123261D01*
X245265Y123443D01*
X245996Y124004D01*
X246557Y124735D01*
X246910Y125586D01*
X247030Y126500D01*
X246910Y127414D01*
X246557Y128265D01*
X245996Y128996D01*
X245265Y129557D01*
X244414Y129910D01*
X243500Y130030D01*
D02*
G37*
G36*
X284969Y89000D02*
X281500D01*
Y85531D01*
X282044Y85603D01*
X283017Y86006D01*
X283853Y86647D01*
X284494Y87483D01*
X284897Y88456D01*
X284969Y89000D01*
D02*
G37*
G36*
X280500D02*
X277031D01*
X277103Y88456D01*
X277506Y87483D01*
X278147Y86647D01*
X278983Y86006D01*
X279956Y85603D01*
X280500Y85531D01*
Y89000D01*
D02*
G37*
G36*
X263500Y93534D02*
X262456Y93397D01*
X261483Y92994D01*
X260647Y92353D01*
X260006Y91517D01*
X259603Y90544D01*
X259466Y89500D01*
X259603Y88456D01*
X260006Y87483D01*
X260647Y86647D01*
X261483Y86006D01*
X262456Y85603D01*
X263500Y85466D01*
X264544Y85603D01*
X265517Y86006D01*
X266353Y86647D01*
X266994Y87483D01*
X267397Y88456D01*
X267534Y89500D01*
X267397Y90544D01*
X266994Y91517D01*
X266353Y92353D01*
X265517Y92994D01*
X264544Y93397D01*
X263500Y93534D01*
D02*
G37*
G36*
X281500Y83469D02*
Y80000D01*
X284969D01*
X284897Y80544D01*
X284494Y81517D01*
X283853Y82353D01*
X283017Y82994D01*
X282044Y83397D01*
X281500Y83469D01*
D02*
G37*
G36*
X280500D02*
X279956Y83397D01*
X278983Y82994D01*
X278147Y82353D01*
X277506Y81517D01*
X277103Y80544D01*
X277031Y80000D01*
X280500D01*
Y83469D01*
D02*
G37*
G36*
X219000Y86530D02*
X218086Y86410D01*
X217235Y86057D01*
X216504Y85496D01*
X215943Y84765D01*
X215590Y83914D01*
X215470Y83000D01*
X215590Y82086D01*
X215772Y81647D01*
X213063Y78937D01*
X212775Y78507D01*
X212674Y78000D01*
Y67239D01*
X212235Y67057D01*
X211504Y66496D01*
X210943Y65765D01*
X210590Y64914D01*
X210470Y64000D01*
X210590Y63086D01*
X210943Y62235D01*
X211504Y61504D01*
X212235Y60943D01*
X213086Y60590D01*
X214000Y60470D01*
X214914Y60590D01*
X215765Y60943D01*
X216496Y61504D01*
X217057Y62235D01*
X217410Y63086D01*
X217530Y64000D01*
X217410Y64914D01*
X217057Y65765D01*
X216496Y66496D01*
X215765Y67057D01*
X215325Y67239D01*
Y77451D01*
X217647Y79772D01*
X218086Y79590D01*
X219000Y79470D01*
X219914Y79590D01*
X220765Y79943D01*
X221496Y80504D01*
X222057Y81235D01*
X222410Y82086D01*
X222530Y83000D01*
X222410Y83914D01*
X222057Y84765D01*
X221496Y85496D01*
X220765Y86057D01*
X219914Y86410D01*
X219000Y86530D01*
D02*
G37*
G36*
X284969Y79000D02*
X281500D01*
Y75531D01*
X282044Y75603D01*
X283017Y76006D01*
X283853Y76647D01*
X284494Y77483D01*
X284897Y78456D01*
X284969Y79000D01*
D02*
G37*
G36*
X280500D02*
X277031D01*
X277103Y78456D01*
X277506Y77483D01*
X278147Y76647D01*
X278983Y76006D01*
X279956Y75603D01*
X280500Y75531D01*
Y79000D01*
D02*
G37*
G36*
X263500Y83534D02*
X262456Y83397D01*
X261483Y82994D01*
X260647Y82353D01*
X260006Y81517D01*
X259603Y80544D01*
X259466Y79500D01*
X259603Y78456D01*
X260006Y77483D01*
X260647Y76647D01*
X261483Y76006D01*
X262456Y75603D01*
X263500Y75466D01*
X264544Y75603D01*
X265517Y76006D01*
X266353Y76647D01*
X266994Y77483D01*
X267397Y78456D01*
X267534Y79500D01*
X267397Y80544D01*
X266994Y81517D01*
X266353Y82353D01*
X265517Y82994D01*
X264544Y83397D01*
X263500Y83534D01*
D02*
G37*
G36*
X226000Y79030D02*
X225086Y78910D01*
X224235Y78557D01*
X223504Y77996D01*
X222943Y77265D01*
X222590Y76414D01*
X222470Y75500D01*
X222590Y74586D01*
X222772Y74147D01*
X219563Y70937D01*
X219275Y70507D01*
X219175Y70000D01*
Y61239D01*
X218735Y61057D01*
X218004Y60496D01*
X217443Y59765D01*
X217090Y58914D01*
X216970Y58000D01*
X217090Y57086D01*
X217443Y56235D01*
X218004Y55504D01*
X218735Y54943D01*
X219586Y54590D01*
X220500Y54470D01*
X221414Y54590D01*
X222265Y54943D01*
X222996Y55504D01*
X223557Y56235D01*
X223910Y57086D01*
X224030Y58000D01*
X223910Y58914D01*
X223557Y59765D01*
X222996Y60496D01*
X222265Y61057D01*
X221826Y61239D01*
Y69451D01*
X224647Y72272D01*
X225086Y72090D01*
X226000Y71970D01*
X226914Y72090D01*
X227765Y72443D01*
X228496Y73004D01*
X229057Y73735D01*
X229410Y74586D01*
X229530Y75500D01*
X229410Y76414D01*
X229057Y77265D01*
X228496Y77996D01*
X227765Y78557D01*
X226914Y78910D01*
X226000Y79030D01*
D02*
G37*
G36*
X281500Y73469D02*
Y70000D01*
X284969D01*
X284897Y70544D01*
X284494Y71517D01*
X283853Y72353D01*
X283017Y72994D01*
X282044Y73397D01*
X281500Y73469D01*
D02*
G37*
G36*
X57000D02*
Y70000D01*
X60469D01*
X60397Y70544D01*
X59994Y71517D01*
X59353Y72353D01*
X58517Y72994D01*
X57544Y73397D01*
X57000Y73469D01*
D02*
G37*
G36*
X56000D02*
X55456Y73397D01*
X54483Y72994D01*
X53647Y72353D01*
X53006Y71517D01*
X52603Y70544D01*
X52531Y70000D01*
X56000D01*
Y73469D01*
D02*
G37*
G36*
X280500D02*
X279956Y73397D01*
X278983Y72994D01*
X278147Y72353D01*
X277506Y71517D01*
X277103Y70544D01*
X277031Y70000D01*
X280500D01*
Y73469D01*
D02*
G37*
G36*
X194500Y91530D02*
X193586Y91410D01*
X192735Y91057D01*
X192004Y90496D01*
X191443Y89765D01*
X191090Y88914D01*
X190970Y88000D01*
X191090Y87086D01*
X191443Y86235D01*
X192004Y85504D01*
X192735Y84943D01*
X193586Y84590D01*
X194500Y84470D01*
X194638Y84488D01*
X205373Y73753D01*
X205340Y73254D01*
X205004Y72996D01*
X204443Y72265D01*
X204090Y71414D01*
X203970Y70500D01*
X204090Y69586D01*
X204443Y68735D01*
X205004Y68004D01*
X205735Y67443D01*
X206586Y67090D01*
X207500Y66970D01*
X208414Y67090D01*
X209265Y67443D01*
X209996Y68004D01*
X210557Y68735D01*
X210910Y69586D01*
X211030Y70500D01*
X210910Y71414D01*
X210557Y72265D01*
X209996Y72996D01*
X209265Y73557D01*
X208774Y73761D01*
X208725Y74007D01*
X208437Y74437D01*
X197159Y85716D01*
X197557Y86235D01*
X197910Y87086D01*
X198030Y88000D01*
X197910Y88914D01*
X197557Y89765D01*
X196996Y90496D01*
X196265Y91057D01*
X195414Y91410D01*
X194500Y91530D01*
D02*
G37*
G36*
X232500Y73530D02*
X231586Y73410D01*
X230735Y73057D01*
X230004Y72496D01*
X229443Y71765D01*
X229090Y70914D01*
X228970Y70000D01*
X229090Y69086D01*
X229272Y68647D01*
X227063Y66437D01*
X226775Y66007D01*
X226675Y65500D01*
Y54739D01*
X226235Y54557D01*
X225504Y53996D01*
X224943Y53265D01*
X224590Y52414D01*
X224470Y51500D01*
X224590Y50586D01*
X224943Y49735D01*
X225504Y49004D01*
X226235Y48443D01*
X227086Y48090D01*
X228000Y47970D01*
X228914Y48090D01*
X229765Y48443D01*
X230496Y49004D01*
X231057Y49735D01*
X231410Y50586D01*
X231530Y51500D01*
X231410Y52414D01*
X231057Y53265D01*
X230496Y53996D01*
X229765Y54557D01*
X229326Y54739D01*
Y64951D01*
X231147Y66772D01*
X231586Y66590D01*
X232500Y66470D01*
X233414Y66590D01*
X234265Y66943D01*
X234996Y67504D01*
X235557Y68235D01*
X235910Y69086D01*
X236030Y70000D01*
X235910Y70914D01*
X235557Y71765D01*
X234996Y72496D01*
X234265Y73057D01*
X233414Y73410D01*
X232500Y73530D01*
D02*
G37*
G36*
X73500Y74035D02*
X72456Y73897D01*
X71483Y73494D01*
X70647Y72853D01*
X70006Y72017D01*
X69603Y71044D01*
X69466Y70000D01*
X69603Y68956D01*
X70006Y67983D01*
X70647Y67147D01*
X71483Y66506D01*
X72456Y66103D01*
X73500Y65965D01*
X74544Y66103D01*
X75517Y66506D01*
X76353Y67147D01*
X76994Y67983D01*
X77397Y68956D01*
X77535Y70000D01*
X77397Y71044D01*
X76994Y72017D01*
X76353Y72853D01*
X75517Y73494D01*
X74544Y73897D01*
X73500Y74035D01*
D02*
G37*
G36*
X284969Y69000D02*
X281500D01*
Y65531D01*
X282044Y65603D01*
X283017Y66006D01*
X283853Y66647D01*
X284494Y67483D01*
X284897Y68456D01*
X284969Y69000D01*
D02*
G37*
G36*
X60469D02*
X57000D01*
Y65531D01*
X57544Y65603D01*
X58517Y66006D01*
X59353Y66647D01*
X59994Y67483D01*
X60397Y68456D01*
X60469Y69000D01*
D02*
G37*
G36*
X56000D02*
X52531D01*
X52603Y68456D01*
X53006Y67483D01*
X53647Y66647D01*
X54483Y66006D01*
X55456Y65603D01*
X56000Y65531D01*
Y69000D01*
D02*
G37*
G36*
X280500D02*
X277031D01*
X277103Y68456D01*
X277506Y67483D01*
X278147Y66647D01*
X278983Y66006D01*
X279956Y65603D01*
X280500Y65531D01*
Y69000D01*
D02*
G37*
G36*
X263500Y73535D02*
X262456Y73397D01*
X261483Y72994D01*
X260647Y72353D01*
X260006Y71517D01*
X259603Y70544D01*
X259466Y69500D01*
X259603Y68456D01*
X260006Y67483D01*
X260647Y66647D01*
X261483Y66006D01*
X262456Y65603D01*
X263500Y65465D01*
X264544Y65603D01*
X265517Y66006D01*
X266353Y66647D01*
X266994Y67483D01*
X267397Y68456D01*
X267534Y69500D01*
X267397Y70544D01*
X266994Y71517D01*
X266353Y72353D01*
X265517Y72994D01*
X264544Y73397D01*
X263500Y73535D01*
D02*
G37*
G36*
X281500Y63469D02*
Y60000D01*
X284969D01*
X284897Y60544D01*
X284494Y61517D01*
X283853Y62353D01*
X283017Y62994D01*
X282044Y63397D01*
X281500Y63469D01*
D02*
G37*
G36*
X57000D02*
Y60000D01*
X60469D01*
X60397Y60544D01*
X59994Y61517D01*
X59353Y62353D01*
X58517Y62994D01*
X57544Y63397D01*
X57000Y63469D01*
D02*
G37*
G36*
X56000D02*
X55456Y63397D01*
X54483Y62994D01*
X53647Y62353D01*
X53006Y61517D01*
X52603Y60544D01*
X52531Y60000D01*
X56000D01*
Y63469D01*
D02*
G37*
G36*
X280500D02*
X279956Y63397D01*
X278983Y62994D01*
X278147Y62353D01*
X277506Y61517D01*
X277103Y60544D01*
X277031Y60000D01*
X280500D01*
Y63469D01*
D02*
G37*
G36*
X73500Y64034D02*
X72456Y63897D01*
X71483Y63494D01*
X70647Y62853D01*
X70006Y62017D01*
X69603Y61044D01*
X69466Y60000D01*
X69603Y58956D01*
X70006Y57983D01*
X70647Y57147D01*
X71483Y56506D01*
X72456Y56103D01*
X73500Y55966D01*
X74544Y56103D01*
X75517Y56506D01*
X76353Y57147D01*
X76994Y57983D01*
X77397Y58956D01*
X77535Y60000D01*
X77397Y61044D01*
X76994Y62017D01*
X76353Y62853D01*
X75517Y63494D01*
X74544Y63897D01*
X73500Y64034D01*
D02*
G37*
G36*
X60469Y59000D02*
X57000D01*
Y55531D01*
X57544Y55603D01*
X58517Y56006D01*
X59353Y56647D01*
X59994Y57483D01*
X60397Y58456D01*
X60469Y59000D01*
D02*
G37*
G36*
X284969D02*
X281500D01*
Y55531D01*
X282044Y55603D01*
X283017Y56006D01*
X283853Y56647D01*
X284494Y57483D01*
X284897Y58456D01*
X284969Y59000D01*
D02*
G37*
G36*
X56000D02*
X52531D01*
X52603Y58456D01*
X53006Y57483D01*
X53647Y56647D01*
X54483Y56006D01*
X55456Y55603D01*
X56000Y55531D01*
Y59000D01*
D02*
G37*
G36*
X280500D02*
X277031D01*
X277103Y58456D01*
X277506Y57483D01*
X278147Y56647D01*
X278983Y56006D01*
X279956Y55603D01*
X280500Y55531D01*
Y59000D01*
D02*
G37*
G36*
X263500Y63534D02*
X262456Y63397D01*
X261483Y62994D01*
X260647Y62353D01*
X260006Y61517D01*
X259603Y60544D01*
X259466Y59500D01*
X259603Y58456D01*
X260006Y57483D01*
X260647Y56647D01*
X261483Y56006D01*
X262456Y55603D01*
X263500Y55466D01*
X264544Y55603D01*
X265517Y56006D01*
X266353Y56647D01*
X266994Y57483D01*
X267397Y58456D01*
X267534Y59500D01*
X267397Y60544D01*
X266994Y61517D01*
X266353Y62353D01*
X265517Y62994D01*
X264544Y63397D01*
X263500Y63534D01*
D02*
G37*
G36*
X281500Y53469D02*
Y50000D01*
X284969D01*
X284897Y50544D01*
X284494Y51517D01*
X283853Y52353D01*
X283017Y52994D01*
X282044Y53397D01*
X281500Y53469D01*
D02*
G37*
G36*
X57000D02*
Y50000D01*
X60469D01*
X60397Y50544D01*
X59994Y51517D01*
X59353Y52353D01*
X58517Y52994D01*
X57544Y53397D01*
X57000Y53469D01*
D02*
G37*
G36*
X280500D02*
X279956Y53397D01*
X278983Y52994D01*
X278147Y52353D01*
X277506Y51517D01*
X277103Y50544D01*
X277031Y50000D01*
X280500D01*
Y53469D01*
D02*
G37*
G36*
X56000D02*
X55456Y53397D01*
X54483Y52994D01*
X53647Y52353D01*
X53006Y51517D01*
X52603Y50544D01*
X52531Y50000D01*
X56000D01*
Y53469D01*
D02*
G37*
G36*
X207000Y49964D02*
Y47000D01*
X209964D01*
X209910Y47414D01*
X209557Y48265D01*
X208996Y48996D01*
X208265Y49557D01*
X207414Y49910D01*
X207000Y49964D01*
D02*
G37*
G36*
X206000D02*
X205586Y49910D01*
X204735Y49557D01*
X204004Y48996D01*
X203443Y48265D01*
X203090Y47414D01*
X203036Y47000D01*
X206000D01*
Y49964D01*
D02*
G37*
G36*
X133000D02*
Y47000D01*
X135964D01*
X135910Y47414D01*
X135557Y48265D01*
X134996Y48996D01*
X134265Y49557D01*
X133414Y49910D01*
X133000Y49964D01*
D02*
G37*
G36*
X132000D02*
X131586Y49910D01*
X130735Y49557D01*
X130004Y48996D01*
X129443Y48265D01*
X129090Y47414D01*
X129036Y47000D01*
X132000D01*
Y49964D01*
D02*
G37*
G36*
X73500Y54035D02*
X72456Y53897D01*
X71483Y53494D01*
X70647Y52853D01*
X70006Y52017D01*
X69603Y51044D01*
X69466Y50000D01*
X69603Y48956D01*
X70006Y47983D01*
X70647Y47147D01*
X71483Y46506D01*
X72456Y46103D01*
X73500Y45965D01*
X74544Y46103D01*
X75517Y46506D01*
X76353Y47147D01*
X76994Y47983D01*
X77397Y48956D01*
X77535Y50000D01*
X77397Y51044D01*
X76994Y52017D01*
X76353Y52853D01*
X75517Y53494D01*
X74544Y53897D01*
X73500Y54035D01*
D02*
G37*
G36*
X284969Y49000D02*
X281500D01*
Y45531D01*
X282044Y45603D01*
X283017Y46006D01*
X283853Y46647D01*
X284494Y47483D01*
X284897Y48456D01*
X284969Y49000D01*
D02*
G37*
G36*
X60469D02*
X57000D01*
Y45531D01*
X57544Y45603D01*
X58517Y46006D01*
X59353Y46647D01*
X59994Y47483D01*
X60397Y48456D01*
X60469Y49000D01*
D02*
G37*
G36*
X280500D02*
X277031D01*
X277103Y48456D01*
X277506Y47483D01*
X278147Y46647D01*
X278983Y46006D01*
X279956Y45603D01*
X280500Y45531D01*
Y49000D01*
D02*
G37*
G36*
X56000D02*
X52531D01*
X52603Y48456D01*
X53006Y47483D01*
X53647Y46647D01*
X54483Y46006D01*
X55456Y45603D01*
X56000Y45531D01*
Y49000D01*
D02*
G37*
G36*
X263500Y53535D02*
X262456Y53397D01*
X261483Y52994D01*
X260647Y52353D01*
X260006Y51517D01*
X259603Y50544D01*
X259466Y49500D01*
X259603Y48456D01*
X260006Y47483D01*
X260647Y46647D01*
X261483Y46006D01*
X262456Y45603D01*
X263500Y45465D01*
X264544Y45603D01*
X265517Y46006D01*
X266353Y46647D01*
X266994Y47483D01*
X267397Y48456D01*
X267534Y49500D01*
X267397Y50544D01*
X266994Y51517D01*
X266353Y52353D01*
X265517Y52994D01*
X264544Y53397D01*
X263500Y53535D01*
D02*
G37*
G36*
X209964Y46000D02*
X207000D01*
Y43036D01*
X207414Y43090D01*
X208265Y43443D01*
X208996Y44004D01*
X209557Y44735D01*
X209910Y45586D01*
X209964Y46000D01*
D02*
G37*
G36*
X206000D02*
X203036D01*
X203090Y45586D01*
X203443Y44735D01*
X204004Y44004D01*
X204735Y43443D01*
X205586Y43090D01*
X206000Y43036D01*
Y46000D01*
D02*
G37*
G36*
X135964D02*
X133000D01*
Y43036D01*
X133414Y43090D01*
X134265Y43443D01*
X134996Y44004D01*
X135557Y44735D01*
X135910Y45586D01*
X135964Y46000D01*
D02*
G37*
G36*
X132000D02*
X129036D01*
X129090Y45586D01*
X129443Y44735D01*
X130004Y44004D01*
X130735Y43443D01*
X131586Y43090D01*
X132000Y43036D01*
Y46000D01*
D02*
G37*
G36*
X57000Y43469D02*
Y40000D01*
X60469D01*
X60397Y40544D01*
X59994Y41517D01*
X59353Y42353D01*
X58517Y42994D01*
X57544Y43397D01*
X57000Y43469D01*
D02*
G37*
G36*
X281500D02*
Y40000D01*
X284969D01*
X284897Y40544D01*
X284494Y41517D01*
X283853Y42353D01*
X283017Y42994D01*
X282044Y43397D01*
X281500Y43469D01*
D02*
G37*
G36*
X56000D02*
X55456Y43397D01*
X54483Y42994D01*
X53647Y42353D01*
X53006Y41517D01*
X52603Y40544D01*
X52531Y40000D01*
X56000D01*
Y43469D01*
D02*
G37*
G36*
X280500D02*
X279956Y43397D01*
X278983Y42994D01*
X278147Y42353D01*
X277506Y41517D01*
X277103Y40544D01*
X277031Y40000D01*
X280500D01*
Y43469D01*
D02*
G37*
G36*
X73500Y44034D02*
X72456Y43897D01*
X71483Y43494D01*
X70647Y42853D01*
X70006Y42017D01*
X69603Y41044D01*
X69466Y40000D01*
X69603Y38956D01*
X70006Y37983D01*
X70647Y37147D01*
X71483Y36506D01*
X72456Y36103D01*
X73500Y35965D01*
X74544Y36103D01*
X75517Y36506D01*
X76353Y37147D01*
X76994Y37983D01*
X77397Y38956D01*
X77535Y40000D01*
X77397Y41044D01*
X76994Y42017D01*
X76353Y42853D01*
X75517Y43494D01*
X74544Y43897D01*
X73500Y44034D01*
D02*
G37*
G36*
X60469Y39000D02*
X57000D01*
Y35531D01*
X57544Y35603D01*
X58517Y36006D01*
X59353Y36647D01*
X59994Y37483D01*
X60397Y38456D01*
X60469Y39000D01*
D02*
G37*
G36*
X284969D02*
X281500D01*
Y35531D01*
X282044Y35603D01*
X283017Y36006D01*
X283853Y36647D01*
X284494Y37483D01*
X284897Y38456D01*
X284969Y39000D01*
D02*
G37*
G36*
X56000D02*
X52531D01*
X52603Y38456D01*
X53006Y37483D01*
X53647Y36647D01*
X54483Y36006D01*
X55456Y35603D01*
X56000Y35531D01*
Y39000D01*
D02*
G37*
G36*
X280500D02*
X277031D01*
X277103Y38456D01*
X277506Y37483D01*
X278147Y36647D01*
X278983Y36006D01*
X279956Y35603D01*
X280500Y35531D01*
Y39000D01*
D02*
G37*
G36*
X263500Y43534D02*
X262456Y43397D01*
X261483Y42994D01*
X260647Y42353D01*
X260006Y41517D01*
X259603Y40544D01*
X259466Y39500D01*
X259603Y38456D01*
X260006Y37483D01*
X260647Y36647D01*
X261483Y36006D01*
X262456Y35603D01*
X263500Y35465D01*
X264544Y35603D01*
X265517Y36006D01*
X266353Y36647D01*
X266994Y37483D01*
X267397Y38456D01*
X267534Y39500D01*
X267397Y40544D01*
X266994Y41517D01*
X266353Y42353D01*
X265517Y42994D01*
X264544Y43397D01*
X263500Y43534D01*
D02*
G37*
G36*
X215000Y48030D02*
X214086Y47910D01*
X213235Y47557D01*
X212504Y46996D01*
X211943Y46265D01*
X211590Y45414D01*
X211470Y44500D01*
X211590Y43586D01*
X211943Y42735D01*
X212504Y42004D01*
X213235Y41443D01*
X214086Y41090D01*
X215000Y40970D01*
X215914Y41090D01*
X216000Y41126D01*
X217272Y39853D01*
X217090Y39414D01*
X216970Y38500D01*
X217090Y37586D01*
X217443Y36735D01*
X218004Y36004D01*
X218735Y35443D01*
X219586Y35090D01*
X220500Y34970D01*
X221414Y35090D01*
X222265Y35443D01*
X222996Y36004D01*
X223557Y36735D01*
X223910Y37586D01*
X224030Y38500D01*
X223910Y39414D01*
X223557Y40265D01*
X222996Y40996D01*
X222265Y41557D01*
X221414Y41910D01*
X220500Y42030D01*
X219586Y41910D01*
X219147Y41728D01*
X218081Y42793D01*
X218410Y43586D01*
X218530Y44500D01*
X218410Y45414D01*
X218057Y46265D01*
X217496Y46996D01*
X216765Y47557D01*
X215914Y47910D01*
X215000Y48030D01*
D02*
G37*
G36*
X175000Y36030D02*
X174086Y35910D01*
X173235Y35557D01*
X172504Y34996D01*
X171943Y34265D01*
X171590Y33414D01*
X171470Y32500D01*
X171590Y31586D01*
X171749Y31202D01*
X171440Y30825D01*
X167239D01*
X167057Y31265D01*
X166496Y31996D01*
X165765Y32557D01*
X164914Y32910D01*
X164000Y33030D01*
X163086Y32910D01*
X162235Y32557D01*
X161504Y31996D01*
X160943Y31265D01*
X160590Y30414D01*
X160470Y29500D01*
X160590Y28586D01*
X160943Y27735D01*
X161504Y27004D01*
X162235Y26443D01*
X163086Y26090D01*
X164000Y25970D01*
X164914Y26090D01*
X165765Y26443D01*
X166496Y27004D01*
X167057Y27735D01*
X167239Y28174D01*
X172000D01*
X172507Y28275D01*
X172937Y28563D01*
X173647Y29272D01*
X174086Y29090D01*
X175000Y28970D01*
X175914Y29090D01*
X176765Y29443D01*
X177496Y30004D01*
X178057Y30735D01*
X178410Y31586D01*
X178530Y32500D01*
X178410Y33414D01*
X178057Y34265D01*
X177496Y34996D01*
X176765Y35557D01*
X175914Y35910D01*
X175000Y36030D01*
D02*
G37*
G36*
X57000Y33469D02*
Y30000D01*
X60469D01*
X60397Y30544D01*
X59994Y31517D01*
X59353Y32353D01*
X58517Y32994D01*
X57544Y33397D01*
X57000Y33469D01*
D02*
G37*
G36*
X281500D02*
Y30000D01*
X284969D01*
X284897Y30544D01*
X284494Y31517D01*
X283853Y32353D01*
X283017Y32994D01*
X282044Y33397D01*
X281500Y33469D01*
D02*
G37*
G36*
X56000D02*
X55456Y33397D01*
X54483Y32994D01*
X53647Y32353D01*
X53006Y31517D01*
X52603Y30544D01*
X52531Y30000D01*
X56000D01*
Y33469D01*
D02*
G37*
G36*
X280500D02*
X279956Y33397D01*
X278983Y32994D01*
X278147Y32353D01*
X277506Y31517D01*
X277103Y30544D01*
X277031Y30000D01*
X280500D01*
Y33469D01*
D02*
G37*
G36*
X73500Y34034D02*
X72456Y33897D01*
X71483Y33494D01*
X70647Y32853D01*
X70006Y32017D01*
X69603Y31044D01*
X69466Y30000D01*
X69603Y28956D01*
X70006Y27983D01*
X70647Y27147D01*
X71483Y26506D01*
X72456Y26103D01*
X73500Y25965D01*
X74544Y26103D01*
X75517Y26506D01*
X76353Y27147D01*
X76994Y27983D01*
X77397Y28956D01*
X77535Y30000D01*
X77397Y31044D01*
X76994Y32017D01*
X76353Y32853D01*
X75517Y33494D01*
X74544Y33897D01*
X73500Y34034D01*
D02*
G37*
G36*
X60469Y29000D02*
X57000D01*
Y25531D01*
X57544Y25603D01*
X58517Y26006D01*
X59353Y26647D01*
X59994Y27483D01*
X60397Y28456D01*
X60469Y29000D01*
D02*
G37*
G36*
X284969D02*
X281500D01*
Y25531D01*
X282044Y25603D01*
X283017Y26006D01*
X283853Y26647D01*
X284494Y27483D01*
X284897Y28456D01*
X284969Y29000D01*
D02*
G37*
G36*
X280500D02*
X277031D01*
X277103Y28456D01*
X277506Y27483D01*
X278147Y26647D01*
X278983Y26006D01*
X279956Y25603D01*
X280500Y25531D01*
Y29000D01*
D02*
G37*
G36*
X56000D02*
X52531D01*
X52603Y28456D01*
X53006Y27483D01*
X53647Y26647D01*
X54483Y26006D01*
X55456Y25603D01*
X56000Y25531D01*
Y29000D01*
D02*
G37*
G36*
X263500Y33535D02*
X262456Y33397D01*
X261483Y32994D01*
X260647Y32353D01*
X260006Y31517D01*
X259603Y30544D01*
X259466Y29500D01*
X259603Y28456D01*
X260006Y27483D01*
X260647Y26647D01*
X261483Y26006D01*
X262456Y25603D01*
X263500Y25466D01*
X264544Y25603D01*
X265517Y26006D01*
X266353Y26647D01*
X266994Y27483D01*
X267397Y28456D01*
X267534Y29500D01*
X267397Y30544D01*
X266994Y31517D01*
X266353Y32353D01*
X265517Y32994D01*
X264544Y33397D01*
X263500Y33535D01*
D02*
G37*
G36*
X281500Y23469D02*
Y20000D01*
X284969D01*
X284897Y20544D01*
X284494Y21517D01*
X283853Y22353D01*
X283017Y22994D01*
X282044Y23397D01*
X281500Y23469D01*
D02*
G37*
G36*
X57000D02*
Y20000D01*
X60469D01*
X60397Y20544D01*
X59994Y21517D01*
X59353Y22353D01*
X58517Y22994D01*
X57544Y23397D01*
X57000Y23469D01*
D02*
G37*
G36*
X56000D02*
X55456Y23397D01*
X54483Y22994D01*
X53647Y22353D01*
X53006Y21517D01*
X52603Y20544D01*
X52531Y20000D01*
X56000D01*
Y23469D01*
D02*
G37*
G36*
X280500D02*
X279956Y23397D01*
X278983Y22994D01*
X278147Y22353D01*
X277506Y21517D01*
X277103Y20544D01*
X277031Y20000D01*
X280500D01*
Y23469D01*
D02*
G37*
G36*
X198000Y31030D02*
X197086Y30910D01*
X196235Y30557D01*
X195504Y29996D01*
X194943Y29265D01*
X194590Y28414D01*
X194470Y27500D01*
X194590Y26586D01*
X194943Y25735D01*
X195504Y25004D01*
X196235Y24443D01*
X197086Y24090D01*
X198000Y23970D01*
X198914Y24090D01*
X199707Y24419D01*
X202772Y21353D01*
X202590Y20914D01*
X202470Y20000D01*
X202590Y19086D01*
X202943Y18235D01*
X203504Y17504D01*
X204235Y16943D01*
X205086Y16590D01*
X206000Y16470D01*
X206914Y16590D01*
X207765Y16943D01*
X208496Y17504D01*
X209057Y18235D01*
X209410Y19086D01*
X209530Y20000D01*
X209410Y20914D01*
X209057Y21765D01*
X208496Y22496D01*
X207765Y23057D01*
X206914Y23410D01*
X206000Y23530D01*
X205086Y23410D01*
X204647Y23228D01*
X201374Y26500D01*
X201410Y26586D01*
X201530Y27500D01*
X201410Y28414D01*
X201057Y29265D01*
X200496Y29996D01*
X199765Y30557D01*
X198914Y30910D01*
X198000Y31030D01*
D02*
G37*
G36*
X73500Y24035D02*
X72456Y23897D01*
X71483Y23494D01*
X70647Y22853D01*
X70006Y22017D01*
X69603Y21044D01*
X69466Y20000D01*
X69603Y18956D01*
X70006Y17983D01*
X70647Y17147D01*
X71483Y16506D01*
X72456Y16103D01*
X73500Y15966D01*
X74544Y16103D01*
X75517Y16506D01*
X76353Y17147D01*
X76994Y17983D01*
X77397Y18956D01*
X77535Y20000D01*
X77397Y21044D01*
X76994Y22017D01*
X76353Y22853D01*
X75517Y23494D01*
X74544Y23897D01*
X73500Y24035D01*
D02*
G37*
G36*
X284969Y19000D02*
X281500D01*
Y15531D01*
X282044Y15603D01*
X283017Y16006D01*
X283853Y16647D01*
X284494Y17483D01*
X284897Y18456D01*
X284969Y19000D01*
D02*
G37*
G36*
X60469D02*
X57000D01*
Y15531D01*
X57544Y15603D01*
X58517Y16006D01*
X59353Y16647D01*
X59994Y17483D01*
X60397Y18456D01*
X60469Y19000D01*
D02*
G37*
G36*
X280500D02*
X277031D01*
X277103Y18456D01*
X277506Y17483D01*
X278147Y16647D01*
X278983Y16006D01*
X279956Y15603D01*
X280500Y15531D01*
Y19000D01*
D02*
G37*
G36*
X56000D02*
X52531D01*
X52603Y18456D01*
X53006Y17483D01*
X53647Y16647D01*
X54483Y16006D01*
X55456Y15603D01*
X56000Y15531D01*
Y19000D01*
D02*
G37*
G36*
X263500Y23535D02*
X262456Y23397D01*
X261483Y22994D01*
X260647Y22353D01*
X260006Y21517D01*
X259603Y20544D01*
X259466Y19500D01*
X259603Y18456D01*
X260006Y17483D01*
X260647Y16647D01*
X261483Y16006D01*
X262456Y15603D01*
X263500Y15465D01*
X264544Y15603D01*
X265517Y16006D01*
X266353Y16647D01*
X266994Y17483D01*
X267397Y18456D01*
X267534Y19500D01*
X267397Y20544D01*
X266994Y21517D01*
X266353Y22353D01*
X265517Y22994D01*
X264544Y23397D01*
X263500Y23535D01*
D02*
G37*
G36*
X184000Y24039D02*
X182825Y23884D01*
X181731Y23431D01*
X180791Y22709D01*
X180069Y21769D01*
X179616Y20675D01*
X179461Y19500D01*
X179616Y18325D01*
X180069Y17231D01*
X180791Y16291D01*
X181731Y15569D01*
X182825Y15116D01*
X184000Y14961D01*
X185175Y15116D01*
X186269Y15569D01*
X187209Y16291D01*
X187931Y17231D01*
X188384Y18325D01*
X188539Y19500D01*
X188384Y20675D01*
X187931Y21769D01*
X187209Y22709D01*
X186269Y23431D01*
X185175Y23884D01*
X184000Y24039D01*
D02*
G37*
G36*
X174000D02*
X172825Y23884D01*
X171731Y23431D01*
X170791Y22709D01*
X170069Y21769D01*
X169616Y20675D01*
X169461Y19500D01*
X169616Y18325D01*
X170069Y17231D01*
X170791Y16291D01*
X171731Y15569D01*
X172825Y15116D01*
X174000Y14961D01*
X175175Y15116D01*
X176269Y15569D01*
X177209Y16291D01*
X177931Y17231D01*
X178384Y18325D01*
X178539Y19500D01*
X178384Y20675D01*
X177931Y21769D01*
X177209Y22709D01*
X176269Y23431D01*
X175175Y23884D01*
X174000Y24039D01*
D02*
G37*
G36*
X164000D02*
X162825Y23884D01*
X161731Y23431D01*
X160791Y22709D01*
X160069Y21769D01*
X159616Y20675D01*
X159461Y19500D01*
X159616Y18325D01*
X160069Y17231D01*
X160791Y16291D01*
X161731Y15569D01*
X162825Y15116D01*
X164000Y14961D01*
X165175Y15116D01*
X166269Y15569D01*
X167209Y16291D01*
X167931Y17231D01*
X168384Y18325D01*
X168539Y19500D01*
X168384Y20675D01*
X167931Y21769D01*
X167209Y22709D01*
X166269Y23431D01*
X165175Y23884D01*
X164000Y24039D01*
D02*
G37*
G36*
X164500Y13973D02*
Y10000D01*
X168473D01*
X168384Y10675D01*
X167931Y11769D01*
X167209Y12709D01*
X166269Y13431D01*
X165175Y13884D01*
X164500Y13973D01*
D02*
G37*
G36*
X163500D02*
X162825Y13884D01*
X161731Y13431D01*
X160791Y12709D01*
X160069Y11769D01*
X159616Y10675D01*
X159527Y10000D01*
X163500D01*
Y13973D01*
D02*
G37*
G36*
X168473Y9000D02*
X164500D01*
Y5027D01*
X165175Y5116D01*
X166269Y5569D01*
X167209Y6291D01*
X167931Y7231D01*
X168384Y8325D01*
X168473Y9000D01*
D02*
G37*
G36*
X163500D02*
X159527D01*
X159616Y8325D01*
X160069Y7231D01*
X160791Y6291D01*
X161731Y5569D01*
X162825Y5116D01*
X163500Y5027D01*
Y9000D01*
D02*
G37*
G36*
X184000Y14039D02*
X182825Y13884D01*
X181731Y13431D01*
X180791Y12709D01*
X180069Y11769D01*
X179616Y10675D01*
X179461Y9500D01*
X179616Y8325D01*
X180069Y7231D01*
X180791Y6291D01*
X181731Y5569D01*
X182825Y5116D01*
X184000Y4961D01*
X185175Y5116D01*
X186269Y5569D01*
X187209Y6291D01*
X187931Y7231D01*
X188384Y8325D01*
X188539Y9500D01*
X188384Y10675D01*
X187931Y11769D01*
X187209Y12709D01*
X186269Y13431D01*
X185175Y13884D01*
X184000Y14039D01*
D02*
G37*
G36*
X174000D02*
X172825Y13884D01*
X171731Y13431D01*
X170791Y12709D01*
X170069Y11769D01*
X169616Y10675D01*
X169461Y9500D01*
X169616Y8325D01*
X170069Y7231D01*
X170791Y6291D01*
X171731Y5569D01*
X172825Y5116D01*
X174000Y4961D01*
X175175Y5116D01*
X176269Y5569D01*
X177209Y6291D01*
X177931Y7231D01*
X178384Y8325D01*
X178539Y9500D01*
X178384Y10675D01*
X177931Y11769D01*
X177209Y12709D01*
X176269Y13431D01*
X175175Y13884D01*
X174000Y14039D01*
D02*
G37*
%LPD*%
D11*
X215000Y44000D02*
Y44500D01*
Y44000D02*
X220500Y38500D01*
X198500Y27500D02*
X206000Y20000D01*
X198000Y27500D02*
X198500D01*
X220500Y58000D02*
Y70000D01*
X226000Y75500D01*
X214000Y64000D02*
Y78000D01*
X219000Y83000D01*
X226000Y95000D02*
Y121000D01*
X235400Y130400D01*
X219000Y101500D02*
X219500Y102000D01*
Y127375D01*
X226500Y134375D01*
X228000Y51500D02*
Y65500D01*
X232500Y70000D01*
X232250Y89250D02*
Y109750D01*
X243500Y121000D01*
X172000Y29500D02*
X175000Y32500D01*
X164000Y29500D02*
X172000D01*
X243500Y121000D02*
Y126500D01*
X227000Y169500D02*
Y177000D01*
X166500Y130500D02*
X175500D01*
X161000Y125000D02*
X166500Y130500D01*
X175500D02*
X183000Y138000D01*
X196500Y140000D02*
Y148500D01*
X169500Y123500D02*
X176500D01*
X187500Y134500D01*
X205500Y140500D02*
Y149000D01*
X187500Y134500D02*
X190500D01*
X238000Y169500D02*
Y177000D01*
X103500Y119000D02*
X112500Y128000D01*
X147000Y106500D02*
Y115000D01*
X142500Y102000D02*
X147000Y106500D01*
X115500Y100000D02*
X129000D01*
X105500Y110000D02*
X115500Y100000D01*
X194500Y86500D02*
Y88000D01*
Y86500D02*
X207500Y73500D01*
Y70500D02*
Y73500D01*
X103000Y119000D02*
X103500D01*
X134000Y128000D02*
X147000Y115000D01*
X125500Y128000D02*
X134000D01*
X160000Y92500D02*
X181000D01*
X145000Y77500D02*
X160000Y92500D01*
X64500Y185000D02*
X72500Y177000D01*
X64500Y185000D02*
Y189000D01*
X52750Y253250D02*
X53000Y253500D01*
X42750Y253250D02*
X52750D01*
X42500Y253000D02*
X42750Y253250D01*
X121000Y304000D02*
X136000D01*
X79658Y178342D02*
X80500Y177500D01*
X79658Y178342D02*
Y180842D01*
X71500Y189000D02*
X79658Y180842D01*
D54*
X97000Y125000D02*
X104000Y132000D01*
X125000Y155000D02*
X131000Y149000D01*
X124500Y155000D02*
X125000D01*
X121188Y140500D02*
X122000D01*
X119688Y139000D02*
X121188Y140500D01*
X109500Y139000D02*
X119688D01*
X93000Y154500D02*
X101500Y163000D01*
X99000Y149000D02*
X105426Y155426D01*
X107926D01*
X170000Y190500D02*
X179000D01*
X179500Y191000D01*
X169500Y200000D02*
X180000D01*
X169500Y180500D02*
X179500D01*
X148611Y177389D02*
X152611D01*
X144000Y182000D02*
X148611Y177389D01*
X152611D02*
X156500Y173500D01*
X107926Y155426D02*
X108500Y156000D01*
X173500Y173000D02*
X174000Y173500D01*
X140000Y112222D02*
Y112500D01*
X136250Y108472D02*
X140000Y112222D01*
X136250Y96528D02*
Y108472D01*
X132500Y92778D02*
X136250Y96528D01*
X132500Y92500D02*
Y92778D01*
X221000Y238000D02*
X234500D01*
X169500Y238500D02*
X178500D01*
X174000Y109500D02*
X174500Y110000D01*
X165500Y109500D02*
X174000D01*
X165000Y109000D02*
X165500Y109500D01*
X113926Y149426D02*
X114500Y150000D01*
X109426Y149426D02*
X113926D01*
X90000Y130000D02*
X109426Y149426D01*
X135500Y117000D02*
X140000Y112500D01*
X112500Y117000D02*
X135500D01*
X173500Y145500D02*
Y173000D01*
X173000Y145000D02*
X173500Y145500D01*
X107000Y224000D02*
X113500Y217500D01*
X90000Y224000D02*
X107000D01*
X91000Y209500D02*
X97000Y203500D01*
X91000Y209500D02*
Y216500D01*
X103500Y193500D02*
X112500Y184500D01*
D55*
X281000Y193500D02*
D03*
Y183500D02*
D03*
Y173500D02*
D03*
Y163500D02*
D03*
Y153500D02*
D03*
Y143500D02*
D03*
Y133500D02*
D03*
Y123500D02*
D03*
Y113500D02*
D03*
Y103500D02*
D03*
X263500D02*
D03*
Y113500D02*
D03*
Y123500D02*
D03*
Y133500D02*
D03*
Y143500D02*
D03*
Y153500D02*
D03*
Y163500D02*
D03*
Y173500D02*
D03*
Y183500D02*
D03*
Y193500D02*
D03*
X56500Y69500D02*
D03*
Y59500D02*
D03*
Y49500D02*
D03*
Y39500D02*
D03*
Y29500D02*
D03*
Y19500D02*
D03*
Y160000D02*
D03*
Y150000D02*
D03*
Y140000D02*
D03*
Y130000D02*
D03*
Y120000D02*
D03*
Y110000D02*
D03*
Y100000D02*
D03*
Y90000D02*
D03*
X73500D02*
D03*
Y100000D02*
D03*
Y110000D02*
D03*
Y120000D02*
D03*
Y130000D02*
D03*
Y140000D02*
D03*
Y150000D02*
D03*
Y160000D02*
D03*
X263500Y89500D02*
D03*
Y79500D02*
D03*
Y69500D02*
D03*
Y59500D02*
D03*
Y49500D02*
D03*
Y39500D02*
D03*
Y29500D02*
D03*
Y19500D02*
D03*
X73500Y70000D02*
D03*
Y60000D02*
D03*
Y50000D02*
D03*
Y40000D02*
D03*
Y30000D02*
D03*
Y20000D02*
D03*
X281000Y89500D02*
D03*
Y79500D02*
D03*
Y69500D02*
D03*
Y59500D02*
D03*
Y49500D02*
D03*
Y39500D02*
D03*
Y29500D02*
D03*
Y19500D02*
D03*
D56*
X174000Y278000D02*
D03*
Y268000D02*
D03*
Y258000D02*
D03*
X237000Y259500D02*
D03*
Y269500D02*
D03*
Y279500D02*
D03*
X214500Y338000D02*
D03*
X204500D02*
D03*
X194500D02*
D03*
D57*
X184000Y19500D02*
D03*
Y9500D02*
D03*
X174000Y19500D02*
D03*
Y9500D02*
D03*
X164000Y19500D02*
D03*
Y9500D02*
D03*
D58*
X49000Y197500D02*
D03*
Y183500D02*
D03*
D59*
X234996Y307220D02*
D03*
X253500Y319000D02*
D03*
Y295500D02*
D03*
D60*
X119083Y333520D02*
D03*
D61*
Y314819D02*
D03*
X148217D02*
D03*
Y333520D02*
D03*
D62*
X130500Y316000D02*
D03*
X136799D02*
D03*
X127350Y311276D02*
D03*
X133650D02*
D03*
X139949D02*
D03*
D63*
X165500Y211500D02*
D03*
X130500Y215500D02*
D03*
X206000Y20000D02*
D03*
X220500Y38500D02*
D03*
X215000Y44500D02*
D03*
X198000Y27500D02*
D03*
X228000Y51500D02*
D03*
X220500Y58000D02*
D03*
X214000Y64000D02*
D03*
X226000Y75500D02*
D03*
X219000Y83000D02*
D03*
Y101500D02*
D03*
X226500Y134375D02*
D03*
X232250Y89250D02*
D03*
X232500Y70000D02*
D03*
X226000Y95000D02*
D03*
X175000Y32500D02*
D03*
X243500Y126500D02*
D03*
X235400Y130400D02*
D03*
X164000Y29500D02*
D03*
X161000Y125000D02*
D03*
X160500Y145000D02*
D03*
X196500Y148500D02*
D03*
Y140000D02*
D03*
X183000Y138000D02*
D03*
X169500Y123500D02*
D03*
X205500Y140500D02*
D03*
Y149000D02*
D03*
X190500Y134500D02*
D03*
X227000Y169500D02*
D03*
Y177000D02*
D03*
X238000D02*
D03*
Y169500D02*
D03*
X104000Y132000D02*
D03*
X112500Y128000D02*
D03*
X131000Y149000D02*
D03*
X122000Y140500D02*
D03*
X93000Y154500D02*
D03*
X99000Y149000D02*
D03*
X109500Y139000D02*
D03*
X179500Y191000D02*
D03*
X170000Y190500D02*
D03*
X180000Y200000D02*
D03*
X169500D02*
D03*
X156500Y173500D02*
D03*
X144000Y182000D02*
D03*
X179500Y180500D02*
D03*
X169500D02*
D03*
X108500Y156000D02*
D03*
X174000Y173500D02*
D03*
X132500Y92500D02*
D03*
X234500Y238000D02*
D03*
X221000D02*
D03*
X178500Y238500D02*
D03*
X169500D02*
D03*
X142500Y102000D02*
D03*
X129000Y100000D02*
D03*
X124500Y155000D02*
D03*
X97000Y125000D02*
D03*
X174500Y110000D02*
D03*
X165000Y109000D02*
D03*
X194500Y88000D02*
D03*
X207500Y70500D02*
D03*
X101500Y163000D02*
D03*
X114500Y150000D02*
D03*
X90000Y130000D02*
D03*
X105500Y110000D02*
D03*
X103000Y119000D02*
D03*
X112500Y117000D02*
D03*
X140000Y112500D02*
D03*
X181000Y92500D02*
D03*
X145000Y77500D02*
D03*
X72500Y177000D02*
D03*
X64500Y189000D02*
D03*
X125500Y128000D02*
D03*
X80500Y177500D02*
D03*
X71500Y189000D02*
D03*
X165000Y117000D02*
D03*
X173000Y145000D02*
D03*
X42500Y253000D02*
D03*
X53000Y253500D02*
D03*
X113500Y217500D02*
D03*
X112500Y184500D02*
D03*
X103500Y193500D02*
D03*
X90000Y224000D02*
D03*
X83500Y218500D02*
D03*
X97543Y211043D02*
D03*
X136000Y304000D02*
D03*
X121000D02*
D03*
X91000Y216500D02*
D03*
X97000Y203500D02*
D03*
X206500Y46500D02*
D03*
X132500D02*
D03*
X96000Y230000D02*
D03*
X116500Y270000D02*
D03*
X189500Y259000D02*
D03*
X220500Y297000D02*
D03*
X159000Y294000D02*
D03*
X278500Y333500D02*
D03*
M02*
