G04*
G04 #@! TF.GenerationSoftware,Altium Limited,Altium Designer,19.1.7 (138)*
G04*
G04 Layer_Color=65280*
%FSLAX25Y25*%
%MOIN*%
G70*
G01*
G75*
%ADD10C,0.00500*%
%ADD11C,0.00600*%
%ADD13C,0.00000*%
%ADD17C,0.00800*%
%ADD65C,0.00400*%
G36*
X78324Y223199D02*
X74627D01*
Y224484D01*
X78324D01*
Y223199D01*
D02*
G37*
G36*
Y220640D02*
X74631D01*
Y221921D01*
X78324D01*
Y220640D01*
D02*
G37*
G36*
Y218081D02*
X74642D01*
Y219360D01*
X78324D01*
Y218081D01*
D02*
G37*
G36*
Y215522D02*
X74633D01*
Y216798D01*
X78324D01*
Y215522D01*
D02*
G37*
G36*
Y212963D02*
X74644D01*
Y214242D01*
X78324D01*
Y212963D01*
D02*
G37*
G36*
Y210403D02*
X74633D01*
Y211676D01*
X78324D01*
Y210403D01*
D02*
G37*
G36*
Y207844D02*
X74629D01*
Y209112D01*
X78324D01*
Y207844D01*
D02*
G37*
G36*
Y205285D02*
X74643D01*
Y206563D01*
X78324D01*
Y205285D01*
D02*
G37*
G36*
Y202726D02*
X74643D01*
Y204003D01*
X78324D01*
Y202726D01*
D02*
G37*
G36*
X105354Y223199D02*
X101684D01*
Y224482D01*
X105354D01*
Y223199D01*
D02*
G37*
G36*
Y220640D02*
X101695D01*
Y221922D01*
X105354D01*
Y220640D01*
D02*
G37*
G36*
Y218081D02*
X101690D01*
Y219359D01*
X105354D01*
Y218081D01*
D02*
G37*
G36*
Y215522D02*
X101687D01*
Y216798D01*
X105354D01*
Y215522D01*
D02*
G37*
G36*
Y212963D02*
X101689D01*
Y214236D01*
X105354D01*
Y212963D01*
D02*
G37*
G36*
Y210403D02*
X101693D01*
Y211671D01*
X105354D01*
Y210403D01*
D02*
G37*
G36*
Y207844D02*
X101689D01*
Y209112D01*
X105354D01*
Y207844D01*
D02*
G37*
G36*
Y205285D02*
X101678D01*
Y206562D01*
X105354D01*
Y205285D01*
D02*
G37*
G36*
Y202726D02*
X101683D01*
Y203996D01*
X105354D01*
Y202726D01*
D02*
G37*
G36*
X164517Y312994D02*
X160769D01*
Y325992D01*
X164517D01*
Y312994D01*
D02*
G37*
G36*
X179617Y312991D02*
X175885D01*
Y325992D01*
X179617D01*
Y312991D01*
D02*
G37*
G36*
X136335Y273425D02*
X133874D01*
Y274606D01*
X136335D01*
Y273425D01*
D02*
G37*
G36*
X127575D02*
X125114D01*
Y274606D01*
X127575D01*
Y273425D01*
D02*
G37*
G36*
X136335Y269685D02*
X133874D01*
Y270866D01*
X136335D01*
Y269685D01*
D02*
G37*
G36*
X127575D02*
X125114D01*
Y270866D01*
X127575D01*
Y269685D01*
D02*
G37*
G36*
X136335Y265945D02*
X133874D01*
Y267126D01*
X136335D01*
Y265945D01*
D02*
G37*
G36*
X127575D02*
X125114D01*
Y267126D01*
X127575D01*
Y265945D01*
D02*
G37*
G36*
X105354Y235994D02*
X101680D01*
Y237280D01*
X105354D01*
Y235994D01*
D02*
G37*
G36*
X78324D02*
X74631D01*
Y237290D01*
X78324D01*
Y235994D01*
D02*
G37*
G36*
X105354Y233435D02*
X101693D01*
Y234737D01*
X105354D01*
Y233435D01*
D02*
G37*
G36*
X78324D02*
X74623D01*
Y234736D01*
X78324D01*
Y233435D01*
D02*
G37*
G36*
X105354Y230876D02*
X101681D01*
Y232161D01*
X105354D01*
Y230876D01*
D02*
G37*
G36*
X78324D02*
X74634D01*
Y232164D01*
X78324D01*
Y230876D01*
D02*
G37*
G36*
X105354Y228317D02*
X101685D01*
Y229604D01*
X105354D01*
Y228317D01*
D02*
G37*
G36*
X78324D02*
X74638D01*
Y229601D01*
X78324D01*
Y228317D01*
D02*
G37*
G36*
X105354Y225758D02*
X101679D01*
Y227039D01*
X105354D01*
Y225758D01*
D02*
G37*
G36*
X78324D02*
X74626D01*
Y227046D01*
X78324D01*
Y225758D01*
D02*
G37*
D10*
X118492Y310094D02*
Y348874D01*
X148807D01*
Y310094D02*
Y348874D01*
X118492Y310094D02*
X148807D01*
X118492D02*
Y348874D01*
X148807D01*
Y310094D02*
Y348874D01*
X118492Y310094D02*
X148807D01*
D11*
X51000Y237300D02*
X58000D01*
Y226900D02*
Y234300D01*
X51000Y223900D02*
X58000D01*
X51000Y226900D02*
Y234300D01*
X58000Y223900D02*
Y226900D01*
X51000Y223900D02*
Y226900D01*
X58000D01*
X51000Y234300D02*
Y237300D01*
X58000Y234300D02*
Y237300D01*
X51000Y234300D02*
X58000D01*
X51000Y237300D02*
X58000D01*
Y226900D02*
Y234300D01*
X51000Y223900D02*
X58000D01*
X51000Y226900D02*
Y234300D01*
X58000Y223900D02*
Y226900D01*
X51000Y223900D02*
Y226900D01*
X58000D01*
X51000Y234300D02*
Y237300D01*
X58000Y234300D02*
Y237300D01*
X51000Y234300D02*
X58000D01*
X178500Y153800D02*
X185500D01*
Y156800D01*
X178500Y153800D02*
Y156800D01*
Y146400D02*
X185500D01*
X178500Y143400D02*
Y146400D01*
X185500Y143400D02*
Y146400D01*
X178500D02*
Y153800D01*
Y143400D02*
X185500D01*
Y146400D02*
Y153800D01*
X178500Y156800D02*
X185500D01*
X178500Y153800D02*
X185500D01*
Y156800D01*
X178500Y153800D02*
Y156800D01*
Y146400D02*
X185500D01*
X178500Y143400D02*
Y146400D01*
X185500Y143400D02*
Y146400D01*
X178500D02*
Y153800D01*
Y143400D02*
X185500D01*
Y146400D02*
Y153800D01*
X178500Y156800D02*
X185500D01*
X176400Y163800D02*
X179400D01*
X177900Y162300D02*
Y165300D01*
X160100Y161000D02*
X171900D01*
Y167000D01*
X160100D02*
X171900D01*
X160100Y161000D02*
Y167000D01*
X176400Y163800D02*
X179400D01*
X177900Y162300D02*
Y165300D01*
X160100Y161000D02*
X171900D01*
Y167000D01*
X160100D02*
X171900D01*
X160100Y161000D02*
Y167000D01*
X60500Y226800D02*
X67500D01*
Y216400D02*
Y223800D01*
X60500Y213400D02*
X67500D01*
X60500Y216400D02*
Y223800D01*
X67500Y213400D02*
Y216400D01*
X60500Y213400D02*
Y216400D01*
X67500D01*
X60500Y223800D02*
Y226800D01*
X67500Y223800D02*
Y226800D01*
X60500Y223800D02*
X67500D01*
X60500Y226800D02*
X67500D01*
Y216400D02*
Y223800D01*
X60500Y213400D02*
X67500D01*
X60500Y216400D02*
Y223800D01*
X67500Y213400D02*
Y216400D01*
X60500Y213400D02*
Y216400D01*
X67500D01*
X60500Y223800D02*
Y226800D01*
X67500Y223800D02*
Y226800D01*
X60500Y223800D02*
X67500D01*
X158600Y218500D02*
Y225500D01*
X148200Y218500D02*
X155600D01*
X145200D02*
Y225500D01*
X148200D02*
X155600D01*
X145200Y218500D02*
X148200D01*
X145200Y225500D02*
X148200D01*
Y218500D02*
Y225500D01*
X155600D02*
X158600D01*
X155600Y218500D02*
X158600D01*
X155600D02*
Y225500D01*
X158600Y218500D02*
Y225500D01*
X148200Y218500D02*
X155600D01*
X145200D02*
Y225500D01*
X148200D02*
X155600D01*
X145200Y218500D02*
X148200D01*
X145200Y225500D02*
X148200D01*
Y218500D02*
Y225500D01*
X155600D02*
X158600D01*
X155600Y218500D02*
X158600D01*
X155600D02*
Y225500D01*
X218000Y269400D02*
X225000D01*
X218000Y272400D02*
Y279800D01*
Y282800D02*
X225000D01*
Y272400D02*
Y279800D01*
X218000D02*
Y282800D01*
X225000Y279800D02*
Y282800D01*
X218000Y279800D02*
X225000D01*
Y269400D02*
Y272400D01*
X218000Y269400D02*
Y272400D01*
X225000D01*
X218000Y269400D02*
X225000D01*
X218000Y272400D02*
Y279800D01*
Y282800D02*
X225000D01*
Y272400D02*
Y279800D01*
X218000D02*
Y282800D01*
X225000Y279800D02*
Y282800D01*
X218000Y279800D02*
X225000D01*
Y269400D02*
Y272400D01*
X218000Y269400D02*
Y272400D01*
X225000D01*
X120100Y220000D02*
Y226000D01*
X131900D01*
Y220000D02*
Y226000D01*
X120100Y220000D02*
X131900D01*
X137900Y221300D02*
Y224300D01*
X136400Y222800D02*
X139400D01*
X120100Y220000D02*
Y226000D01*
X131900D01*
Y220000D02*
Y226000D01*
X120100Y220000D02*
X131900D01*
X137900Y221300D02*
Y224300D01*
X136400Y222800D02*
X139400D01*
X187300Y286694D02*
X213700D01*
Y272094D02*
Y286694D01*
X187300Y272094D02*
X213700D01*
X187300D02*
Y286694D01*
X206600Y264994D02*
Y272094D01*
X194400Y264994D02*
X206600D01*
X194400D02*
Y272094D01*
X206600D01*
X189900Y286694D02*
Y293794D01*
X193000D01*
Y286694D02*
Y293794D01*
X189900Y286694D02*
X193000D01*
X199000D02*
Y293794D01*
X202100D01*
Y286694D02*
Y293794D01*
X199000Y286694D02*
X202100D01*
X208000D02*
Y293794D01*
X211100D01*
Y286694D02*
Y293794D01*
X208000Y286694D02*
X211100D01*
X187300D02*
X213700D01*
Y272094D02*
Y286694D01*
X187300Y272094D02*
X213700D01*
X187300D02*
Y286694D01*
X206600Y264994D02*
Y272094D01*
X194400Y264994D02*
X206600D01*
X194400D02*
Y272094D01*
X206600D01*
X189900Y286694D02*
Y293794D01*
X193000D01*
Y286694D02*
Y293794D01*
X189900Y286694D02*
X193000D01*
X199000D02*
Y293794D01*
X202100D01*
Y286694D02*
Y293794D01*
X199000Y286694D02*
X202100D01*
X208000D02*
Y293794D01*
X211100D01*
Y286694D02*
Y293794D01*
X208000Y286694D02*
X211100D01*
X127500Y194200D02*
X134500D01*
X127500Y197200D02*
Y204600D01*
Y207600D02*
X134500D01*
Y197200D02*
Y204600D01*
X127500D02*
Y207600D01*
X134500Y204600D02*
Y207600D01*
X127500Y204600D02*
X134500D01*
Y194200D02*
Y197200D01*
X127500Y194200D02*
Y197200D01*
X134500D01*
X127500Y194200D02*
X134500D01*
X127500Y197200D02*
Y204600D01*
Y207600D02*
X134500D01*
Y197200D02*
Y204600D01*
X127500D02*
Y207600D01*
X134500Y204600D02*
Y207600D01*
X127500Y204600D02*
X134500D01*
Y194200D02*
Y197200D01*
X127500Y194200D02*
Y197200D01*
X134500D01*
X136500Y238800D02*
X139500D01*
X138000Y237300D02*
Y240300D01*
X120200Y236000D02*
X132000D01*
Y242000D01*
X120200D02*
X132000D01*
X120200Y236000D02*
Y242000D01*
X136500Y238800D02*
X139500D01*
X138000Y237300D02*
Y240300D01*
X120200Y236000D02*
X132000D01*
Y242000D01*
X120200D02*
X132000D01*
X120200Y236000D02*
Y242000D01*
X155600Y235000D02*
Y242000D01*
Y235000D02*
X158600D01*
X155600Y242000D02*
X158600D01*
X148200Y235000D02*
Y242000D01*
X145200D02*
X148200D01*
X145200Y235000D02*
X148200D01*
Y242000D02*
X155600D01*
X145200Y235000D02*
Y242000D01*
X148200Y235000D02*
X155600D01*
X158600D02*
Y242000D01*
X155600Y235000D02*
Y242000D01*
Y235000D02*
X158600D01*
X155600Y242000D02*
X158600D01*
X148200Y235000D02*
Y242000D01*
X145200D02*
X148200D01*
X145200Y235000D02*
X148200D01*
Y242000D02*
X155600D01*
X145200Y235000D02*
Y242000D01*
X148200Y235000D02*
X155600D01*
X158600D02*
Y242000D01*
X274500Y272800D02*
X281500D01*
Y275800D01*
X274500Y272800D02*
Y275800D01*
Y265400D02*
X281500D01*
X274500Y262400D02*
Y265400D01*
X281500Y262400D02*
Y265400D01*
X274500D02*
Y272800D01*
Y262400D02*
X281500D01*
Y265400D02*
Y272800D01*
X274500Y275800D02*
X281500D01*
X274500Y272800D02*
X281500D01*
Y275800D01*
X274500Y272800D02*
Y275800D01*
Y265400D02*
X281500D01*
X274500Y262400D02*
Y265400D01*
X281500Y262400D02*
Y265400D01*
X274500D02*
Y272800D01*
Y262400D02*
X281500D01*
Y265400D02*
Y272800D01*
X274500Y275800D02*
X281500D01*
X163700Y88000D02*
Y95000D01*
X160700D02*
X163700D01*
X160700Y88000D02*
X163700D01*
X171100D02*
Y95000D01*
Y88000D02*
X174100D01*
X171100Y95000D02*
X174100D01*
X163700Y88000D02*
X171100D01*
X174100D02*
Y95000D01*
X163700D02*
X171100D01*
X160700Y88000D02*
Y95000D01*
X163700Y88000D02*
Y95000D01*
X160700D02*
X163700D01*
X160700Y88000D02*
X163700D01*
X171100D02*
Y95000D01*
Y88000D02*
X174100D01*
X171100Y95000D02*
X174100D01*
X163700Y88000D02*
X171100D01*
X174100D02*
Y95000D01*
X163700D02*
X171100D01*
X160700Y88000D02*
Y95000D01*
X162400Y149500D02*
Y156500D01*
X159400D02*
X162400D01*
X159400Y149500D02*
X162400D01*
X169800D02*
Y156500D01*
Y149500D02*
X172800D01*
X169800Y156500D02*
X172800D01*
X162400Y149500D02*
X169800D01*
X172800D02*
Y156500D01*
X162400D02*
X169800D01*
X159400Y149500D02*
Y156500D01*
X162400Y149500D02*
Y156500D01*
X159400D02*
X162400D01*
X159400Y149500D02*
X162400D01*
X169800D02*
Y156500D01*
Y149500D02*
X172800D01*
X169800Y156500D02*
X172800D01*
X162400Y149500D02*
X169800D01*
X172800D02*
Y156500D01*
X162400D02*
X169800D01*
X159400Y149500D02*
Y156500D01*
X254500Y265400D02*
X261500D01*
X254500Y262400D02*
Y265400D01*
X261500Y262400D02*
Y265400D01*
X254500Y272800D02*
X261500D01*
Y275800D01*
X254500Y272800D02*
Y275800D01*
X261500Y265400D02*
Y272800D01*
X254500Y275800D02*
X261500D01*
X254500Y265400D02*
Y272800D01*
Y262400D02*
X261500D01*
X254500Y265400D02*
X261500D01*
X254500Y262400D02*
Y265400D01*
X261500Y262400D02*
Y265400D01*
X254500Y272800D02*
X261500D01*
Y275800D01*
X254500Y272800D02*
Y275800D01*
X261500Y265400D02*
Y272800D01*
X254500Y275800D02*
X261500D01*
X254500Y265400D02*
Y272800D01*
Y262400D02*
X261500D01*
X172100Y43500D02*
Y50500D01*
Y43500D02*
X175100D01*
X172100Y50500D02*
X175100D01*
X164700Y43500D02*
Y50500D01*
X161700D02*
X164700D01*
X161700Y43500D02*
X164700D01*
Y50500D02*
X172100D01*
X161700Y43500D02*
Y50500D01*
X164700Y43500D02*
X172100D01*
X175100D02*
Y50500D01*
X172100Y43500D02*
Y50500D01*
Y43500D02*
X175100D01*
X172100Y50500D02*
X175100D01*
X164700Y43500D02*
Y50500D01*
X161700D02*
X164700D01*
X161700Y43500D02*
X164700D01*
Y50500D02*
X172100D01*
X161700Y43500D02*
Y50500D01*
X164700Y43500D02*
X172100D01*
X175100D02*
Y50500D01*
X142700Y43500D02*
Y50500D01*
X139700D02*
X142700D01*
X139700Y43500D02*
X142700D01*
X150100D02*
Y50500D01*
Y43500D02*
X153100D01*
X150100Y50500D02*
X153100D01*
X142700Y43500D02*
X150100D01*
X153100D02*
Y50500D01*
X142700D02*
X150100D01*
X139700Y43500D02*
Y50500D01*
X142700Y43500D02*
Y50500D01*
X139700D02*
X142700D01*
X139700Y43500D02*
X142700D01*
X150100D02*
Y50500D01*
Y43500D02*
X153100D01*
X150100Y50500D02*
X153100D01*
X142700Y43500D02*
X150100D01*
X153100D02*
Y50500D01*
X142700D02*
X150100D01*
X139700Y43500D02*
Y50500D01*
X194600Y43500D02*
Y50500D01*
Y43500D02*
X197600D01*
X194600Y50500D02*
X197600D01*
X187200Y43500D02*
Y50500D01*
X184200D02*
X187200D01*
X184200Y43500D02*
X187200D01*
Y50500D02*
X194600D01*
X184200Y43500D02*
Y50500D01*
X187200Y43500D02*
X194600D01*
X197600D02*
Y50500D01*
X194600Y43500D02*
Y50500D01*
Y43500D02*
X197600D01*
X194600Y50500D02*
X197600D01*
X187200Y43500D02*
Y50500D01*
X184200D02*
X187200D01*
X184200Y43500D02*
X187200D01*
Y50500D02*
X194600D01*
X184200Y43500D02*
Y50500D01*
X187200Y43500D02*
X194600D01*
X197600D02*
Y50500D01*
X136600Y211200D02*
X139600D01*
X138100Y209700D02*
Y212700D01*
X144100Y214000D02*
X155900D01*
X144100Y208000D02*
Y214000D01*
Y208000D02*
X155900D01*
Y214000D01*
X136600Y211200D02*
X139600D01*
X138100Y209700D02*
Y212700D01*
X144100Y214000D02*
X155900D01*
X144100Y208000D02*
Y214000D01*
Y208000D02*
X155900D01*
Y214000D01*
X116000Y202400D02*
X123000D01*
X116000Y199400D02*
Y202400D01*
X123000Y199400D02*
Y202400D01*
X116000Y209800D02*
X123000D01*
Y212800D01*
X116000Y209800D02*
Y212800D01*
X123000Y202400D02*
Y209800D01*
X116000Y212800D02*
X123000D01*
X116000Y202400D02*
Y209800D01*
Y199400D02*
X123000D01*
X116000Y202400D02*
X123000D01*
X116000Y199400D02*
Y202400D01*
X123000Y199400D02*
Y202400D01*
X116000Y209800D02*
X123000D01*
Y212800D01*
X116000Y209800D02*
Y212800D01*
X123000Y202400D02*
Y209800D01*
X116000Y212800D02*
X123000D01*
X116000Y202400D02*
Y209800D01*
Y199400D02*
X123000D01*
X94800Y190000D02*
Y197000D01*
Y190000D02*
X97800D01*
X94800Y197000D02*
X97800D01*
X87400Y190000D02*
Y197000D01*
X84400D02*
X87400D01*
X84400Y190000D02*
X87400D01*
Y197000D02*
X94800D01*
X84400Y190000D02*
Y197000D01*
X87400Y190000D02*
X94800D01*
X97800D02*
Y197000D01*
X94800Y190000D02*
Y197000D01*
Y190000D02*
X97800D01*
X94800Y197000D02*
X97800D01*
X87400Y190000D02*
Y197000D01*
X84400D02*
X87400D01*
X84400Y190000D02*
X87400D01*
Y197000D02*
X94800D01*
X84400Y190000D02*
Y197000D01*
X87400Y190000D02*
X94800D01*
X97800D02*
Y197000D01*
X203000Y248200D02*
X210000D01*
X203000Y245200D02*
Y248200D01*
X210000Y245200D02*
Y248200D01*
X203000Y255600D02*
X210000D01*
Y258600D01*
X203000Y255600D02*
Y258600D01*
X210000Y248200D02*
Y255600D01*
X203000Y258600D02*
X210000D01*
X203000Y248200D02*
Y255600D01*
Y245200D02*
X210000D01*
X203000Y248200D02*
X210000D01*
X203000Y245200D02*
Y248200D01*
X210000Y245200D02*
Y248200D01*
X203000Y255600D02*
X210000D01*
Y258600D01*
X203000Y255600D02*
Y258600D01*
X210000Y248200D02*
Y255600D01*
X203000Y258600D02*
X210000D01*
X203000Y248200D02*
Y255600D01*
Y245200D02*
X210000D01*
X196800Y238600D02*
Y241600D01*
X195300Y240100D02*
X198300D01*
X194000Y246100D02*
Y257900D01*
Y246100D02*
X200000D01*
Y257900D01*
X194000D02*
X200000D01*
X196800Y238600D02*
Y241600D01*
X195300Y240100D02*
X198300D01*
X194000Y246100D02*
Y257900D01*
Y246100D02*
X200000D01*
Y257900D01*
X194000D02*
X200000D01*
X214400Y310000D02*
Y317000D01*
X211400D02*
X214400D01*
X211400Y310000D02*
X214400D01*
X221800D02*
Y317000D01*
Y310000D02*
X224800D01*
X221800Y317000D02*
X224800D01*
X214400Y310000D02*
X221800D01*
X224800D02*
Y317000D01*
X214400D02*
X221800D01*
X211400Y310000D02*
Y317000D01*
X214400Y310000D02*
Y317000D01*
X211400D02*
X214400D01*
X211400Y310000D02*
X214400D01*
X221800D02*
Y317000D01*
Y310000D02*
X224800D01*
X221800Y317000D02*
X224800D01*
X214400Y310000D02*
X221800D01*
X224800D02*
Y317000D01*
X214400D02*
X221800D01*
X211400Y310000D02*
Y317000D01*
X192800Y302500D02*
Y309500D01*
Y302500D02*
X195800D01*
X192800Y309500D02*
X195800D01*
X185400Y302500D02*
Y309500D01*
X182400D02*
X185400D01*
X182400Y302500D02*
X185400D01*
Y309500D02*
X192800D01*
X182400Y302500D02*
Y309500D01*
X185400Y302500D02*
X192800D01*
X195800D02*
Y309500D01*
X192800Y302500D02*
Y309500D01*
Y302500D02*
X195800D01*
X192800Y309500D02*
X195800D01*
X185400Y302500D02*
Y309500D01*
X182400D02*
X185400D01*
X182400Y302500D02*
X185400D01*
Y309500D02*
X192800D01*
X182400Y302500D02*
Y309500D01*
X185400Y302500D02*
X192800D01*
X195800D02*
Y309500D01*
X175400Y305800D02*
X178400D01*
X176900Y304300D02*
Y307300D01*
X159100Y303000D02*
X170900D01*
Y309000D01*
X159100D02*
X170900D01*
X159100Y303000D02*
Y309000D01*
X175400Y305800D02*
X178400D01*
X176900Y304300D02*
Y307300D01*
X159100Y303000D02*
X170900D01*
Y309000D01*
X159100D02*
X170900D01*
X159100Y303000D02*
Y309000D01*
X123000Y288200D02*
X130000D01*
X123000Y285200D02*
Y288200D01*
X130000Y285200D02*
Y288200D01*
X123000Y295600D02*
X130000D01*
Y298600D01*
X123000Y295600D02*
Y298600D01*
X130000Y288200D02*
Y295600D01*
X123000Y298600D02*
X130000D01*
X123000Y288200D02*
Y295600D01*
Y285200D02*
X130000D01*
X123000Y288200D02*
X130000D01*
X123000Y285200D02*
Y288200D01*
X130000Y285200D02*
Y288200D01*
X123000Y295600D02*
X130000D01*
Y298600D01*
X123000Y295600D02*
Y298600D01*
X130000Y288200D02*
Y295600D01*
X123000Y298600D02*
X130000D01*
X123000Y288200D02*
Y295600D01*
Y285200D02*
X130000D01*
X133500Y295600D02*
X140500D01*
Y298600D01*
X133500Y295600D02*
Y298600D01*
Y288200D02*
X140500D01*
X133500Y285200D02*
Y288200D01*
X140500Y285200D02*
Y288200D01*
X133500D02*
Y295600D01*
Y285200D02*
X140500D01*
Y288200D02*
Y295600D01*
X133500Y298600D02*
X140500D01*
X133500Y295600D02*
X140500D01*
Y298600D01*
X133500Y295600D02*
Y298600D01*
Y288200D02*
X140500D01*
X133500Y285200D02*
Y288200D01*
X140500Y285200D02*
Y288200D01*
X133500D02*
Y295600D01*
Y285200D02*
X140500D01*
Y288200D02*
Y295600D01*
X133500Y298600D02*
X140500D01*
X274500Y293900D02*
X281500D01*
X274500Y290900D02*
Y293900D01*
X281500Y290900D02*
Y293900D01*
X274500Y301300D02*
X281500D01*
Y304300D01*
X274500Y301300D02*
Y304300D01*
X281500Y293900D02*
Y301300D01*
X274500Y304300D02*
X281500D01*
X274500Y293900D02*
Y301300D01*
Y290900D02*
X281500D01*
X274500Y293900D02*
X281500D01*
X274500Y290900D02*
Y293900D01*
X281500Y290900D02*
Y293900D01*
X274500Y301300D02*
X281500D01*
Y304300D01*
X274500Y301300D02*
Y304300D01*
X281500Y293900D02*
Y301300D01*
X274500Y304300D02*
X281500D01*
X274500Y293900D02*
Y301300D01*
Y290900D02*
X281500D01*
X278300Y308100D02*
Y311100D01*
X276800Y309600D02*
X279800D01*
X275500Y315600D02*
Y327400D01*
Y315600D02*
X281500D01*
Y327400D01*
X275500D02*
X281500D01*
X278300Y308100D02*
Y311100D01*
X276800Y309600D02*
X279800D01*
X275500Y315600D02*
Y327400D01*
Y315600D02*
X281500D01*
Y327400D01*
X275500D02*
X281500D01*
D13*
X154900Y105600D02*
X178700D01*
X153000Y109300D02*
Y129500D01*
X158000Y133200D02*
X175600D01*
X180600Y112400D02*
Y126400D01*
X153000Y110600D02*
X158000Y105600D01*
X154900Y133200D02*
Y137100D01*
X156700D01*
Y133200D02*
Y137100D01*
X154900Y133200D02*
X156700D01*
X158000D02*
Y137100D01*
X159800D01*
Y133200D02*
Y137100D01*
X158000Y133200D02*
X159800D01*
X161200D02*
Y137100D01*
X163000D01*
Y133200D02*
Y137100D01*
X161200Y133200D02*
X163000D01*
X164300D02*
Y137100D01*
X166100D01*
Y133200D02*
Y137100D01*
X164300Y133200D02*
X166100D01*
X167500D02*
Y137100D01*
X169300D01*
Y133200D02*
Y137100D01*
X167500Y133200D02*
X169300D01*
X170600D02*
Y137100D01*
X172400D01*
Y133200D02*
Y137100D01*
X170600Y133200D02*
X172400D01*
X173800D02*
Y137100D01*
X175600D01*
Y133200D02*
Y137100D01*
X173800Y133200D02*
X175600D01*
X176900D02*
Y137100D01*
X178700D01*
Y133200D02*
Y137100D01*
X176900Y133200D02*
X178700D01*
X180600Y131300D02*
X184500D01*
Y129500D02*
Y131300D01*
X180600Y129500D02*
X184500D01*
X180600D02*
Y131300D01*
Y128200D02*
X184500D01*
Y126400D02*
Y128200D01*
X180600Y126400D02*
X184500D01*
X180600D02*
Y128200D01*
Y125000D02*
X184500D01*
Y123200D02*
Y125000D01*
X180600Y123200D02*
X184500D01*
X180600D02*
Y125000D01*
Y121900D02*
X184500D01*
Y120100D02*
Y121900D01*
X180600Y120100D02*
X184500D01*
X180600D02*
Y121900D01*
Y118700D02*
X184500D01*
Y116900D02*
Y118700D01*
X180600Y116900D02*
X184500D01*
X180600D02*
Y118700D01*
Y115600D02*
X184500D01*
Y113800D02*
Y115600D01*
X180600Y113800D02*
X184500D01*
X180600D02*
Y115600D01*
Y112400D02*
X184500D01*
Y110600D02*
Y112400D01*
X180600Y110600D02*
X184500D01*
X180600D02*
Y112400D01*
Y109300D02*
X184500D01*
Y107500D02*
Y109300D01*
X180600Y107500D02*
X184500D01*
X180600D02*
Y109300D01*
X178700Y101700D02*
Y105600D01*
X176900Y101700D02*
X178700D01*
X176900D02*
Y105600D01*
X178700D01*
X175600Y101700D02*
Y105600D01*
X173800Y101700D02*
X175600D01*
X173800D02*
Y105600D01*
X175600D01*
X172400Y101700D02*
Y105600D01*
X170600Y101700D02*
X172400D01*
X170600D02*
Y105600D01*
X172400D01*
X169300Y101700D02*
Y105600D01*
X167500Y101700D02*
X169300D01*
X167500D02*
Y105600D01*
X169300D01*
X166100Y101700D02*
Y105600D01*
X164300Y101700D02*
X166100D01*
X164300D02*
Y105600D01*
X166100D01*
X163000Y101700D02*
Y105600D01*
X161200Y101700D02*
X163000D01*
X161200D02*
Y105600D01*
X163000D01*
X159800Y101700D02*
Y105600D01*
X158000Y101700D02*
X159800D01*
X158000D02*
Y105600D01*
X159800D01*
X156700Y101700D02*
Y105600D01*
X154900Y101700D02*
X156700D01*
X154900D02*
Y105600D01*
X156700D01*
X149100Y107500D02*
X153000D01*
X149100D02*
Y109300D01*
X153000D01*
Y107500D02*
Y109300D01*
X149100Y110600D02*
X153000D01*
X149100D02*
Y112400D01*
X153000D01*
Y110600D02*
Y112400D01*
X149100Y113800D02*
X153000D01*
X149100D02*
Y115600D01*
X153000D01*
Y113800D02*
Y115600D01*
X149100Y116900D02*
X153000D01*
X149100D02*
Y118700D01*
X153000D01*
Y116900D02*
Y118700D01*
X149100Y120100D02*
X153000D01*
X149100D02*
Y121900D01*
X153000D01*
Y120100D02*
Y121900D01*
X149100Y123200D02*
X153000D01*
X149100D02*
Y125000D01*
X153000D01*
Y123200D02*
Y125000D01*
X149100Y126400D02*
X153000D01*
X149100D02*
Y128200D01*
X153000D01*
Y126400D02*
Y128200D01*
X149100Y129500D02*
X153000D01*
X149100D02*
Y131300D01*
X153000D01*
Y129500D02*
Y131300D01*
X178700Y105600D02*
X180600D01*
X175600D02*
X176900D01*
X172400D02*
X173800D01*
X169300D02*
X170600D01*
X166100D02*
X167500D01*
X163000D02*
X164300D01*
X159800D02*
X161200D01*
X156700D02*
X158000D01*
X153000D02*
X154900D01*
X153000D02*
Y107500D01*
Y109300D02*
Y110600D01*
Y112400D02*
Y113800D01*
Y115600D02*
Y116900D01*
Y118700D02*
Y120100D01*
Y121900D02*
Y123200D01*
Y125000D02*
Y126400D01*
Y128200D02*
Y129500D01*
Y131300D02*
Y133200D01*
X154900D01*
X156700D02*
X158000D01*
X159800D02*
X161200D01*
X163000D02*
X164300D01*
X166100D02*
X167500D01*
X169300D02*
X170600D01*
X172400D02*
X173800D01*
X175600D02*
X176900D01*
X178700D02*
X180600D01*
Y131300D02*
Y133200D01*
Y128200D02*
Y129500D01*
Y125000D02*
Y126400D01*
Y121900D02*
Y123200D01*
Y118700D02*
Y120100D01*
Y115600D02*
Y116900D01*
Y112400D02*
Y113800D01*
Y109300D02*
Y110600D01*
Y105600D02*
Y107500D01*
X154900Y105600D02*
X178700D01*
X153000Y109300D02*
Y129500D01*
X158000Y133200D02*
X175600D01*
X180600Y112400D02*
Y126400D01*
X153000Y110600D02*
X158000Y105600D01*
X154900Y133200D02*
Y137100D01*
X156700D01*
Y133200D02*
Y137100D01*
X154900Y133200D02*
X156700D01*
X158000D02*
Y137100D01*
X159800D01*
Y133200D02*
Y137100D01*
X158000Y133200D02*
X159800D01*
X161200D02*
Y137100D01*
X163000D01*
Y133200D02*
Y137100D01*
X161200Y133200D02*
X163000D01*
X164300D02*
Y137100D01*
X166100D01*
Y133200D02*
Y137100D01*
X164300Y133200D02*
X166100D01*
X167500D02*
Y137100D01*
X169300D01*
Y133200D02*
Y137100D01*
X167500Y133200D02*
X169300D01*
X170600D02*
Y137100D01*
X172400D01*
Y133200D02*
Y137100D01*
X170600Y133200D02*
X172400D01*
X173800D02*
Y137100D01*
X175600D01*
Y133200D02*
Y137100D01*
X173800Y133200D02*
X175600D01*
X176900D02*
Y137100D01*
X178700D01*
Y133200D02*
Y137100D01*
X176900Y133200D02*
X178700D01*
X180600Y131300D02*
X184500D01*
Y129500D02*
Y131300D01*
X180600Y129500D02*
X184500D01*
X180600D02*
Y131300D01*
Y128200D02*
X184500D01*
Y126400D02*
Y128200D01*
X180600Y126400D02*
X184500D01*
X180600D02*
Y128200D01*
Y125000D02*
X184500D01*
Y123200D02*
Y125000D01*
X180600Y123200D02*
X184500D01*
X180600D02*
Y125000D01*
Y121900D02*
X184500D01*
Y120100D02*
Y121900D01*
X180600Y120100D02*
X184500D01*
X180600D02*
Y121900D01*
Y118700D02*
X184500D01*
Y116900D02*
Y118700D01*
X180600Y116900D02*
X184500D01*
X180600D02*
Y118700D01*
Y115600D02*
X184500D01*
Y113800D02*
Y115600D01*
X180600Y113800D02*
X184500D01*
X180600D02*
Y115600D01*
Y112400D02*
X184500D01*
Y110600D02*
Y112400D01*
X180600Y110600D02*
X184500D01*
X180600D02*
Y112400D01*
Y109300D02*
X184500D01*
Y107500D02*
Y109300D01*
X180600Y107500D02*
X184500D01*
X180600D02*
Y109300D01*
X178700Y101700D02*
Y105600D01*
X176900Y101700D02*
X178700D01*
X176900D02*
Y105600D01*
X178700D01*
X175600Y101700D02*
Y105600D01*
X173800Y101700D02*
X175600D01*
X173800D02*
Y105600D01*
X175600D01*
X172400Y101700D02*
Y105600D01*
X170600Y101700D02*
X172400D01*
X170600D02*
Y105600D01*
X172400D01*
X169300Y101700D02*
Y105600D01*
X167500Y101700D02*
X169300D01*
X167500D02*
Y105600D01*
X169300D01*
X166100Y101700D02*
Y105600D01*
X164300Y101700D02*
X166100D01*
X164300D02*
Y105600D01*
X166100D01*
X163000Y101700D02*
Y105600D01*
X161200Y101700D02*
X163000D01*
X161200D02*
Y105600D01*
X163000D01*
X159800Y101700D02*
Y105600D01*
X158000Y101700D02*
X159800D01*
X158000D02*
Y105600D01*
X159800D01*
X156700Y101700D02*
Y105600D01*
X154900Y101700D02*
X156700D01*
X154900D02*
Y105600D01*
X156700D01*
X149100Y107500D02*
X153000D01*
X149100D02*
Y109300D01*
X153000D01*
Y107500D02*
Y109300D01*
X149100Y110600D02*
X153000D01*
X149100D02*
Y112400D01*
X153000D01*
Y110600D02*
Y112400D01*
X149100Y113800D02*
X153000D01*
X149100D02*
Y115600D01*
X153000D01*
Y113800D02*
Y115600D01*
X149100Y116900D02*
X153000D01*
X149100D02*
Y118700D01*
X153000D01*
Y116900D02*
Y118700D01*
X149100Y120100D02*
X153000D01*
X149100D02*
Y121900D01*
X153000D01*
Y120100D02*
Y121900D01*
X149100Y123200D02*
X153000D01*
X149100D02*
Y125000D01*
X153000D01*
Y123200D02*
Y125000D01*
X149100Y126400D02*
X153000D01*
X149100D02*
Y128200D01*
X153000D01*
Y126400D02*
Y128200D01*
X149100Y129500D02*
X153000D01*
X149100D02*
Y131300D01*
X153000D01*
Y129500D02*
Y131300D01*
X178700Y105600D02*
X180600D01*
X175600D02*
X176900D01*
X172400D02*
X173800D01*
X169300D02*
X170600D01*
X166100D02*
X167500D01*
X163000D02*
X164300D01*
X159800D02*
X161200D01*
X156700D02*
X158000D01*
X153000D02*
X154900D01*
X153000D02*
Y107500D01*
Y109300D02*
Y110600D01*
Y112400D02*
Y113800D01*
Y115600D02*
Y116900D01*
Y118700D02*
Y120100D01*
Y121900D02*
Y123200D01*
Y125000D02*
Y126400D01*
Y128200D02*
Y129500D01*
Y131300D02*
Y133200D01*
X154900D01*
X156700D02*
X158000D01*
X159800D02*
X161200D01*
X163000D02*
X164300D01*
X166100D02*
X167500D01*
X169300D02*
X170600D01*
X172400D02*
X173800D01*
X175600D02*
X176900D01*
X178700D02*
X180600D01*
Y131300D02*
Y133200D01*
Y128200D02*
Y129500D01*
Y125000D02*
Y126400D01*
Y121900D02*
Y123200D01*
Y118700D02*
Y120100D01*
Y115600D02*
Y116900D01*
Y112400D02*
Y113800D01*
Y109300D02*
Y110600D01*
Y105600D02*
Y107500D01*
D17*
X133677Y264764D02*
Y275787D01*
X127772Y264764D02*
Y275787D01*
X133677Y264764D02*
Y275787D01*
X127772Y264764D02*
Y275787D01*
D65*
X164377Y325800D02*
X175977D01*
X164477Y313200D02*
X175977D01*
X164377Y325800D02*
X175977D01*
X164477Y313200D02*
X175977D01*
M02*
