G04*
G04 #@! TF.GenerationSoftware,Altium Limited,Altium Designer,19.1.7 (138)*
G04*
G04 Layer_Color=8421504*
%FSLAX25Y25*%
%MOIN*%
G70*
G01*
G75*
%ADD18R,0.07480X0.13386*%
%ADD19R,0.07100X0.04400*%
%ADD20R,0.05500X0.06300*%
%ADD21R,0.05500X0.01370*%
%ADD22R,0.04400X0.07100*%
%ADD23R,0.05800X0.02000*%
%ADD24R,0.02000X0.05800*%
%ADD25R,0.12200X0.06300*%
%ADD26R,0.03300X0.06300*%
%ADD27R,0.22047X0.08268*%
%ADD28R,0.06693X0.07480*%
%ADD29R,0.06300X0.05500*%
%ADD30R,0.02756X0.02000*%
D18*
X162500Y319500D02*
D03*
X177854D02*
D03*
D19*
X54500Y224700D02*
D03*
Y236500D02*
D03*
X182000Y156000D02*
D03*
Y144200D02*
D03*
X64000Y214200D02*
D03*
Y226000D02*
D03*
X221500Y282000D02*
D03*
Y270200D02*
D03*
X131000Y206800D02*
D03*
Y195000D02*
D03*
X278000Y275000D02*
D03*
Y263200D02*
D03*
X258000D02*
D03*
Y275000D02*
D03*
X119500Y200200D02*
D03*
Y212000D02*
D03*
X206500Y246000D02*
D03*
Y257800D02*
D03*
X126500Y286000D02*
D03*
Y297800D02*
D03*
X137000D02*
D03*
Y286000D02*
D03*
X278000Y291700D02*
D03*
Y303500D02*
D03*
D20*
X160100Y164000D02*
D03*
X171900D02*
D03*
X131900Y223000D02*
D03*
X120100D02*
D03*
X120200Y239000D02*
D03*
X132000D02*
D03*
X155900Y211000D02*
D03*
X144100D02*
D03*
X159100Y306000D02*
D03*
X170900D02*
D03*
D21*
X75606Y203366D02*
D03*
Y205925D02*
D03*
Y208484D02*
D03*
Y211043D02*
D03*
Y213602D02*
D03*
Y216161D02*
D03*
Y218720D02*
D03*
Y221280D02*
D03*
Y223839D02*
D03*
Y226398D02*
D03*
Y228957D02*
D03*
Y231516D02*
D03*
Y234075D02*
D03*
Y236634D02*
D03*
X104394Y203366D02*
D03*
Y205925D02*
D03*
Y208484D02*
D03*
Y211043D02*
D03*
Y213602D02*
D03*
Y218720D02*
D03*
Y216161D02*
D03*
Y221280D02*
D03*
Y223839D02*
D03*
Y226398D02*
D03*
Y228957D02*
D03*
Y231516D02*
D03*
Y234075D02*
D03*
Y236634D02*
D03*
D22*
X146000Y222000D02*
D03*
X157800D02*
D03*
Y238500D02*
D03*
X146000D02*
D03*
X161500Y91500D02*
D03*
X173300D02*
D03*
X160200Y153000D02*
D03*
X172000D02*
D03*
X174300Y47000D02*
D03*
X162500D02*
D03*
X140500D02*
D03*
X152300D02*
D03*
X196800D02*
D03*
X185000D02*
D03*
X97000Y193500D02*
D03*
X85200D02*
D03*
X212200Y313500D02*
D03*
X224000D02*
D03*
X195000Y306000D02*
D03*
X183200D02*
D03*
D23*
X150600Y108400D02*
D03*
Y111500D02*
D03*
Y114700D02*
D03*
Y117800D02*
D03*
Y121000D02*
D03*
Y124100D02*
D03*
Y127300D02*
D03*
Y130400D02*
D03*
X183000D02*
D03*
Y127300D02*
D03*
Y124100D02*
D03*
Y121000D02*
D03*
Y117800D02*
D03*
Y114700D02*
D03*
Y111500D02*
D03*
Y108400D02*
D03*
D24*
X155800Y135600D02*
D03*
X158900D02*
D03*
X162100D02*
D03*
X165200D02*
D03*
X168400D02*
D03*
X171500D02*
D03*
X174700D02*
D03*
X177800D02*
D03*
Y103200D02*
D03*
X174700D02*
D03*
X171500D02*
D03*
X168400D02*
D03*
X165200D02*
D03*
X162100D02*
D03*
X158900D02*
D03*
X155800D02*
D03*
D25*
X200500Y266794D02*
D03*
D26*
X191400Y291994D02*
D03*
X200500D02*
D03*
X209600D02*
D03*
D27*
X187000Y63500D02*
D03*
X149598D02*
D03*
D28*
X278823Y250826D02*
D03*
X266823D02*
D03*
X278823Y221826D02*
D03*
X266823D02*
D03*
D29*
X197000Y257900D02*
D03*
Y246100D02*
D03*
X278500Y327400D02*
D03*
Y315600D02*
D03*
D30*
X126148Y274016D02*
D03*
Y270276D02*
D03*
Y266535D02*
D03*
X135301D02*
D03*
Y270276D02*
D03*
Y274016D02*
D03*
M02*
