G04*
G04 #@! TF.GenerationSoftware,Altium Limited,Altium Designer,19.1.7 (138)*
G04*
G04 Layer_Physical_Order=1*
G04 Layer_Color=255*
%FSLAX25Y25*%
%MOIN*%
G70*
G01*
G75*
%ADD11C,0.00600*%
%ADD18R,0.07480X0.13386*%
%ADD19R,0.07100X0.04400*%
%ADD20R,0.05500X0.06300*%
%ADD21R,0.05500X0.01370*%
%ADD22R,0.04400X0.07100*%
%ADD23R,0.05800X0.02000*%
%ADD24R,0.02000X0.05800*%
%ADD25R,0.12200X0.06300*%
%ADD26R,0.03300X0.06300*%
%ADD27R,0.22047X0.08268*%
%ADD28R,0.06693X0.07480*%
%ADD29R,0.06300X0.05500*%
%ADD30R,0.02756X0.02000*%
%ADD53C,0.01500*%
%ADD54C,0.02000*%
%ADD55C,0.06000*%
%ADD56C,0.06496*%
%ADD57C,0.07000*%
%ADD58C,0.11000*%
%ADD59C,0.09449*%
%ADD60C,0.10299*%
%ADD61O,0.10299X0.10299*%
%ADD62C,0.04756*%
%ADD63C,0.05000*%
D11*
X156400Y211500D02*
X165500D01*
X155900Y211000D02*
X156400Y211500D01*
X129500Y206800D02*
X131500Y208800D01*
Y209400D02*
X133100Y211000D01*
X144100D01*
X131500Y208800D02*
Y209400D01*
X214500Y45000D02*
X215000Y44500D01*
X214500Y45000D02*
Y63500D01*
X214000Y64000D02*
X214500Y63500D01*
X217021Y38500D02*
X220500D01*
X188400Y9879D02*
X217021Y38500D01*
X184379Y9879D02*
X188400D01*
X184000Y9500D02*
X184379Y9879D01*
X228000Y40626D02*
Y51500D01*
X207374Y20000D02*
X228000Y40626D01*
X206000Y20000D02*
X207374D01*
X195626Y19500D02*
X220500Y44374D01*
X184000Y19500D02*
X195626D01*
X220500Y44374D02*
Y58000D01*
X193000Y32500D02*
X198000Y27500D01*
X175000Y32500D02*
X193000D01*
X232375Y70125D02*
X232500Y70000D01*
X232375Y70125D02*
Y89125D01*
X232250Y89250D02*
X232375Y89125D01*
X226000Y75500D02*
Y95000D01*
X219000Y83000D02*
Y101500D01*
X245000Y25500D02*
Y39874D01*
X209374Y75500D02*
X245000Y39874D01*
X155500Y75500D02*
X209374D01*
X209137Y78000D02*
X257637Y29500D01*
X155500Y78000D02*
X209137D01*
X257637Y29500D02*
X263500D01*
X227000Y51500D02*
X228000D01*
X226500Y134375D02*
Y134500D01*
X236200Y144200D01*
X183000Y130400D02*
X235400D01*
X182000Y144200D02*
X236200D01*
X237700D01*
X218600Y108400D02*
X257500Y69500D01*
X263500D01*
X183000Y108400D02*
X218600D01*
X211500Y84000D02*
X236000Y59500D01*
X211000Y82000D02*
X243500Y49500D01*
X157237Y82000D02*
X211000D01*
X243500Y49500D02*
X263500D01*
X157500Y84000D02*
X211500D01*
X236000Y59500D02*
X263500D01*
X243500Y127500D02*
X249500Y133500D01*
X243500Y126500D02*
Y127500D01*
X235400Y130400D02*
X248500Y143500D01*
X254000Y121500D02*
X257000Y124500D01*
X243126Y121500D02*
X254000D01*
X240526Y124100D02*
X243126Y121500D01*
X183000Y127300D02*
X183800Y126500D01*
X183000Y124100D02*
X240526D01*
X183800Y126500D02*
X243500D01*
X164000Y19500D02*
Y29500D01*
X227000Y175100D02*
Y177000D01*
X157000Y121000D02*
X161000Y125000D01*
X150600Y121000D02*
X157000D01*
X164200Y128800D02*
X169500Y123500D01*
X158800Y128800D02*
X164200D01*
X154100Y124100D02*
X158800Y128800D01*
X160500Y145000D02*
Y151350D01*
X165300Y146550D01*
X160500Y151350D02*
Y152700D01*
X169000Y97150D02*
Y113000D01*
X160200Y153000D02*
X160500Y152700D01*
X161200Y107426D02*
Y113200D01*
Y107426D02*
X161400Y107226D01*
Y103900D02*
Y107226D01*
Y103900D02*
X162100Y103200D01*
X217500Y169500D02*
X227000D01*
X196500Y148500D02*
X217500Y169500D01*
X185808Y140000D02*
X196500D01*
X183808Y138000D02*
X185808Y140000D01*
X183000Y138000D02*
X183808D01*
X150600Y124100D02*
X154100D01*
X199500Y134500D02*
X205500Y140500D01*
X190500Y134500D02*
X199500D01*
X205500Y149000D02*
X228000D01*
X238500Y159500D01*
X227000Y177000D02*
X243500Y193500D01*
X263500D01*
X244500Y183500D02*
X263500D01*
X238000Y177000D02*
X244500Y183500D01*
X238500Y159500D02*
Y169000D01*
X238000Y169500D02*
X238500Y169000D01*
X188500Y150500D02*
X211500Y173500D01*
X263500D01*
X178000Y150500D02*
X188500D01*
X175500Y153000D02*
X178000Y150500D01*
X172000Y153000D02*
X175500D01*
X177900Y139300D02*
X178750Y140150D01*
X177900Y135500D02*
Y139300D01*
X82747Y171000D02*
X115374Y138374D01*
X112500Y128000D02*
X115500Y131000D01*
X115374Y134000D02*
X115500Y133874D01*
X115374Y134000D02*
Y138374D01*
X74500Y171000D02*
X82747D01*
X73074Y172426D02*
X74500Y171000D01*
X73074Y172426D02*
Y176426D01*
X72500Y177000D02*
X73074Y176426D01*
X115500Y131000D02*
Y133874D01*
X125500Y128000D02*
Y131500D01*
X80500Y176500D02*
X125500Y131500D01*
X80500Y176500D02*
Y177500D01*
X165300Y135500D02*
Y146550D01*
X165000Y135200D02*
X165300Y135500D01*
X182000Y156000D02*
Y160500D01*
X178500Y164000D02*
X182000Y160500D01*
X171900Y164000D02*
X178500D01*
X142500Y102000D02*
X145900D01*
X146400Y102500D01*
X137500Y104139D02*
X147362Y114000D01*
X137500Y104000D02*
Y104139D01*
X147362Y114000D02*
X149900D01*
X129000Y100000D02*
X133500D01*
X137500Y104000D01*
X165000Y117000D02*
X169000Y113000D01*
Y97150D02*
X173300Y92850D01*
X161200Y113200D02*
X165000Y117000D01*
X193000Y88000D02*
X194500D01*
X180400Y100600D02*
X193000Y88000D01*
X194000Y70500D02*
X207500D01*
X187000Y63500D02*
X194000Y70500D01*
X73500Y70000D02*
X147500Y144000D01*
X154500D01*
X247000Y153500D02*
X263500D01*
X237700Y144200D02*
X247000Y153500D01*
X257500Y79000D02*
X263000D01*
X263500Y79500D01*
X225000Y111500D02*
X257500Y79000D01*
X183000Y111500D02*
X225000D01*
X256500Y89500D02*
X263500D01*
X231300Y114700D02*
X256500Y89500D01*
X183000Y114700D02*
X231300D01*
X250000Y103000D02*
X263000D01*
X263500Y103500D01*
X235200Y117800D02*
X250000Y103000D01*
X183000Y117800D02*
X235200D01*
X246000Y113000D02*
X263000D01*
X263500Y113500D01*
X238000Y121000D02*
X246000Y113000D01*
X183000Y121000D02*
X238000D01*
X257000Y124500D02*
X262500D01*
X263500Y123500D01*
X249500Y133500D02*
X263500D01*
X248500Y143500D02*
X263500D01*
X178500Y100600D02*
X180400D01*
X177800Y101300D02*
X178500Y100600D01*
X177800Y101300D02*
Y103200D01*
X174700Y98800D02*
X181000Y92500D01*
X174700Y98800D02*
Y103200D01*
X145000Y67334D02*
Y77500D01*
Y67334D02*
X148834Y63500D01*
X149598D01*
X137500Y93500D02*
Y104000D01*
X57750Y195750D02*
X64500Y189000D01*
X57750Y195750D02*
Y222800D01*
X55850Y224700D02*
X57750Y222800D01*
X54500Y224700D02*
X55850D01*
X64000Y196500D02*
X71500Y189000D01*
X64000Y196500D02*
Y214200D01*
X137500Y93500D02*
X155500Y75500D01*
X146400Y102500D02*
Y109939D01*
Y87100D02*
Y102500D01*
X245000Y25500D02*
X251000Y19500D01*
X263500D01*
X149900Y114000D02*
X150600Y114700D01*
X149500Y107300D02*
X150600Y108400D01*
X149500Y87475D02*
Y107300D01*
Y87475D02*
X156974Y80000D01*
X146400Y87100D02*
X155500Y78000D01*
X146400Y109939D02*
X147262Y110800D01*
X149900D01*
X150600Y111500D01*
X251000Y39500D02*
X263500D01*
X210500Y80000D02*
X251000Y39500D01*
X156974Y80000D02*
X210500D01*
X152400Y86837D02*
X157237Y82000D01*
X152400Y86837D02*
Y94700D01*
X155100Y97400D01*
Y102500D01*
X155800Y103200D01*
X154000Y87500D02*
X157500Y84000D01*
X154000Y87500D02*
Y93500D01*
X158200Y97700D01*
Y102500D01*
X158900Y103200D01*
X165300Y96650D02*
Y103100D01*
X161500Y92850D02*
X165300Y96650D01*
X142300Y120300D02*
X149900D01*
X102000Y80000D02*
X142300Y120300D01*
X102000Y48500D02*
Y80000D01*
X141400Y123400D02*
X149900D01*
X99000Y81000D02*
X141400Y123400D01*
X99000Y55500D02*
Y81000D01*
X141300Y127300D02*
X150600D01*
X95000Y81000D02*
X141300Y127300D01*
X95000Y59500D02*
Y81000D01*
X140900Y130400D02*
X150600D01*
X92000Y81500D02*
X140900Y130400D01*
X92000Y68500D02*
Y81500D01*
X149900Y120300D02*
X150600Y121000D01*
X73500Y20000D02*
X102000Y48500D01*
X73500Y30000D02*
X99000Y55500D01*
X149900Y123400D02*
X150600Y124100D01*
X75500Y40000D02*
X95000Y59500D01*
X73500Y40000D02*
X75500D01*
X73500Y50000D02*
X92000Y68500D01*
X88500Y73500D02*
Y81500D01*
X75000Y60000D02*
X88500Y73500D01*
X73500Y60000D02*
X75000D01*
X88500Y81500D02*
X148500Y141500D01*
X154000D01*
X155800Y139700D01*
Y135600D02*
Y139700D01*
X158900Y135600D02*
Y139600D01*
X154500Y144000D02*
X158900Y139600D01*
X168500Y135500D02*
Y148150D01*
X145500Y239000D02*
X146000Y238500D01*
X132000Y239000D02*
X145500D01*
X145000Y223000D02*
X146000Y222000D01*
X131900Y223000D02*
X145000D01*
X112500Y223500D02*
X119600D01*
X120100Y223000D01*
X110280Y221280D02*
X112500Y223500D01*
X104394Y221280D02*
X110280D01*
X113500Y236500D02*
X116000Y239000D01*
X120200D01*
X113500Y230230D02*
Y236500D01*
X107493Y224224D02*
X113500Y230230D01*
X104779Y224224D02*
X107493D01*
X104394Y223839D02*
X104779Y224224D01*
X64398Y226398D02*
X75606D01*
X64000Y226000D02*
X64398Y226398D01*
X54634Y236634D02*
X75606D01*
X54500Y236500D02*
X54634Y236634D01*
X42200Y252700D02*
X42500Y253000D01*
X42200Y190300D02*
Y252700D01*
Y190300D02*
X49000Y183500D01*
X53000Y253500D02*
X129500D01*
X135301Y259301D01*
Y266535D01*
X47500Y199000D02*
X49000Y197500D01*
X47500Y199000D02*
Y255500D01*
X52500Y260500D01*
X119734D01*
X125770Y266535D01*
X126148D01*
X97543Y211043D02*
X104394D01*
X85200Y198700D02*
X97543Y211043D01*
X91000Y216500D02*
X91169Y216331D01*
X100280Y218720D02*
X104394D01*
X96000Y223000D02*
X100280Y218720D01*
X111500Y190500D02*
Y201533D01*
X107493Y205540D02*
X111500Y201533D01*
X109825Y191325D02*
Y200000D01*
X106459Y203366D02*
X109825Y200000D01*
X104000Y183000D02*
X111500Y190500D01*
X103500Y185000D02*
X109825Y191325D01*
X136000Y298800D02*
X137000Y297800D01*
X136000Y298800D02*
Y304000D01*
X115000D02*
X121000D01*
X111500Y307500D02*
X115000Y304000D01*
X111500Y307500D02*
Y320000D01*
X115098Y323598D01*
X134500D01*
X136799Y321299D01*
Y316000D02*
Y321299D01*
X126500Y297800D02*
Y301500D01*
X132998Y307998D01*
Y310624D01*
X133650Y311276D01*
X61500Y185000D02*
X103500D01*
X49000Y197500D02*
X61500Y185000D01*
X104394Y203366D02*
X106459D01*
X49500Y183000D02*
X104000D01*
X49000Y183500D02*
X49500Y183000D01*
X104779Y205540D02*
X107493D01*
X104394Y205925D02*
X104779Y205540D01*
X178750Y140150D02*
Y142300D01*
X180650Y144200D01*
X182000D01*
X160100Y153100D02*
X160200Y153000D01*
X160100Y153100D02*
Y164000D01*
X168500Y148150D02*
X172000Y151650D01*
Y153000D01*
X161500Y91500D02*
Y92850D01*
X173300Y91500D02*
Y92850D01*
X185000Y61500D02*
X187000Y63500D01*
X185000Y47000D02*
Y61500D01*
X174300Y47000D02*
X185000D01*
X149598Y63500D02*
X152300Y60798D01*
Y47000D02*
Y60798D01*
Y47000D02*
X162500D01*
X198800Y46500D02*
X206500D01*
X198300Y47000D02*
X198800Y46500D01*
X133000Y47000D02*
X139700D01*
X132500Y46500D02*
X133000Y47000D01*
X278823Y221826D02*
X280000Y220649D01*
Y194500D02*
Y220649D01*
Y194500D02*
X281000Y193500D01*
X278823Y221826D02*
Y250826D01*
X278000Y251649D02*
X278823Y250826D01*
X278000Y251649D02*
Y263200D01*
X85200Y193500D02*
Y198700D01*
X96000Y223000D02*
Y230000D01*
X96658Y229342D01*
X104009D01*
X104394Y228957D01*
X96000Y230000D02*
X97516Y231516D01*
X104394D01*
D18*
X162500Y319500D02*
D03*
X177854D02*
D03*
D19*
X54500Y224700D02*
D03*
Y236500D02*
D03*
X182000Y156000D02*
D03*
Y144200D02*
D03*
X64000Y214200D02*
D03*
Y226000D02*
D03*
X221500Y282000D02*
D03*
Y270200D02*
D03*
X131000Y206800D02*
D03*
Y195000D02*
D03*
X278000Y275000D02*
D03*
Y263200D02*
D03*
X258000D02*
D03*
Y275000D02*
D03*
X119500Y200200D02*
D03*
Y212000D02*
D03*
X206500Y246000D02*
D03*
Y257800D02*
D03*
X126500Y286000D02*
D03*
Y297800D02*
D03*
X137000D02*
D03*
Y286000D02*
D03*
X278000Y291700D02*
D03*
Y303500D02*
D03*
D20*
X160100Y164000D02*
D03*
X171900D02*
D03*
X131900Y223000D02*
D03*
X120100D02*
D03*
X120200Y239000D02*
D03*
X132000D02*
D03*
X155900Y211000D02*
D03*
X144100D02*
D03*
X159100Y306000D02*
D03*
X170900D02*
D03*
D21*
X75606Y203366D02*
D03*
Y205925D02*
D03*
Y208484D02*
D03*
Y211043D02*
D03*
Y213602D02*
D03*
Y216161D02*
D03*
Y218720D02*
D03*
Y221280D02*
D03*
Y223839D02*
D03*
Y226398D02*
D03*
Y228957D02*
D03*
Y231516D02*
D03*
Y234075D02*
D03*
Y236634D02*
D03*
X104394Y203366D02*
D03*
Y205925D02*
D03*
Y208484D02*
D03*
Y211043D02*
D03*
Y213602D02*
D03*
Y218720D02*
D03*
Y216161D02*
D03*
Y221280D02*
D03*
Y223839D02*
D03*
Y226398D02*
D03*
Y228957D02*
D03*
Y231516D02*
D03*
Y234075D02*
D03*
Y236634D02*
D03*
D22*
X146000Y222000D02*
D03*
X157800D02*
D03*
Y238500D02*
D03*
X146000D02*
D03*
X161500Y91500D02*
D03*
X173300D02*
D03*
X160200Y153000D02*
D03*
X172000D02*
D03*
X174300Y47000D02*
D03*
X162500D02*
D03*
X140500D02*
D03*
X152300D02*
D03*
X196800D02*
D03*
X185000D02*
D03*
X97000Y193500D02*
D03*
X85200D02*
D03*
X212200Y313500D02*
D03*
X224000D02*
D03*
X195000Y306000D02*
D03*
X183200D02*
D03*
D23*
X150600Y108400D02*
D03*
Y111500D02*
D03*
Y114700D02*
D03*
Y117800D02*
D03*
Y121000D02*
D03*
Y124100D02*
D03*
Y127300D02*
D03*
Y130400D02*
D03*
X183000D02*
D03*
Y127300D02*
D03*
Y124100D02*
D03*
Y121000D02*
D03*
Y117800D02*
D03*
Y114700D02*
D03*
Y111500D02*
D03*
Y108400D02*
D03*
D24*
X155800Y135600D02*
D03*
X158900D02*
D03*
X162100D02*
D03*
X165200D02*
D03*
X168400D02*
D03*
X171500D02*
D03*
X174700D02*
D03*
X177800D02*
D03*
Y103200D02*
D03*
X174700D02*
D03*
X171500D02*
D03*
X168400D02*
D03*
X165200D02*
D03*
X162100D02*
D03*
X158900D02*
D03*
X155800D02*
D03*
D25*
X200500Y266794D02*
D03*
D26*
X191400Y291994D02*
D03*
X200500D02*
D03*
X209600D02*
D03*
D27*
X187000Y63500D02*
D03*
X149598D02*
D03*
D28*
X278823Y250826D02*
D03*
X266823D02*
D03*
X278823Y221826D02*
D03*
X266823D02*
D03*
D29*
X197000Y257900D02*
D03*
Y246100D02*
D03*
X278500Y327400D02*
D03*
Y315600D02*
D03*
D30*
X126148Y274016D02*
D03*
Y270276D02*
D03*
Y266535D02*
D03*
X135301D02*
D03*
Y270276D02*
D03*
Y274016D02*
D03*
D53*
X119500Y200200D02*
X124450D01*
X118150D02*
X119500D01*
X124450D02*
X129650Y195000D01*
X112000Y206350D02*
X118150Y200200D01*
X129650Y195000D02*
X131000D01*
X91000Y216161D02*
X103894D01*
X110949Y212551D02*
X112830Y214433D01*
Y216830D01*
X113500Y217500D01*
X109898Y213602D02*
X110949Y212551D01*
X104394Y213602D02*
X109898D01*
X110949Y212551D02*
X112000Y211500D01*
X85043Y228957D02*
X90000Y224000D01*
X75606Y228957D02*
X85043D01*
X112000Y206350D02*
Y211500D01*
X109866Y208484D02*
X112000Y206350D01*
X104394Y208484D02*
X109866D01*
X80720Y221280D02*
X83500Y218500D01*
X75606Y221280D02*
X80720D01*
D54*
X129722Y215500D02*
X130500D01*
X126222Y212000D02*
X129722Y215500D01*
X119500Y212000D02*
X126222D01*
X174800Y135500D02*
Y142700D01*
X167500Y223000D02*
X174500Y216000D01*
X158800Y223000D02*
X167500D01*
X157800Y222000D02*
X158800Y223000D01*
X174500Y210000D02*
Y216000D01*
X161136Y205500D02*
X170000D01*
X140136Y184500D02*
X161136Y205500D01*
X112500Y184500D02*
X140136D01*
X98500Y131136D02*
Y149000D01*
X121500Y81500D02*
X132500Y92500D01*
X121500Y43500D02*
Y81500D01*
Y43500D02*
X130500Y34500D01*
X166000D02*
X174000Y26500D01*
X130500Y34500D02*
X166000D01*
X174700Y110200D02*
Y135600D01*
X174500Y110000D02*
X174700Y110200D01*
X173000Y144500D02*
Y145000D01*
Y144500D02*
X174800Y142700D01*
X105611Y133611D02*
Y135111D01*
X104000Y132000D02*
X105611Y133611D01*
X98500Y131136D02*
X112500Y117136D01*
X122000Y140500D02*
X122500D01*
X131000Y149000D01*
X105611Y135111D02*
X109500Y139000D01*
X89500Y140000D02*
X98500Y149000D01*
X112500Y117000D02*
Y117136D01*
X179500Y191000D02*
X215000D01*
X227500Y203500D01*
X126000Y150000D02*
X166500Y190500D01*
X170000D01*
X174000Y225000D02*
X180000Y219000D01*
Y200000D02*
Y219000D01*
X124500Y155000D02*
X169500Y200000D01*
X170000Y205500D02*
X174500Y210000D01*
X163500Y180500D02*
X169500D01*
X156500Y173500D02*
X163500Y180500D01*
X124500Y162500D02*
X144000Y182000D01*
X115000Y162500D02*
X124500D01*
X108500Y156000D02*
X115000Y162500D01*
X114500Y150000D02*
X126000D01*
X237000Y250500D02*
Y259500D01*
X227500Y241000D02*
X237000Y250500D01*
X227500Y203500D02*
Y241000D01*
X255326Y221826D02*
X266823D01*
X214000Y180500D02*
X255326Y221826D01*
X179500Y180500D02*
X214000D01*
X174000Y173500D02*
X174500Y174000D01*
Y210000D01*
X174000Y19500D02*
Y26500D01*
X73000Y3500D02*
X168000D01*
X174000Y9500D01*
X66000Y10500D02*
X73000Y3500D01*
X66000Y10500D02*
Y122500D01*
X258000Y251000D02*
Y263200D01*
X245000Y238000D02*
X258000Y251000D01*
X234500Y238000D02*
X245000D01*
X220750Y238250D02*
X221000Y238000D01*
X178750Y238250D02*
X220750D01*
X178500Y238500D02*
X178750Y238250D01*
X157800Y238500D02*
X169500D01*
X174000Y225000D02*
Y258000D01*
X94000Y122000D02*
X97000Y125000D01*
X94000Y97000D02*
Y122000D01*
X87000Y90000D02*
X94000Y97000D01*
X73500Y90000D02*
X87000D01*
X171500Y107000D02*
X174500Y110000D01*
X171500Y103200D02*
Y107000D01*
X165000Y109000D02*
X165200Y108800D01*
Y103200D02*
Y108800D01*
X101500Y163000D02*
X112500Y174000D01*
Y184500D01*
X89000Y150000D02*
X91000Y152000D01*
X73500Y150000D02*
X89000D01*
X73500Y130000D02*
X90000D01*
X70000Y149500D02*
X73000D01*
X73500Y150000D01*
X66000Y145500D02*
X70000Y149500D01*
X66000Y122500D02*
Y145500D01*
Y122500D02*
X67735Y120765D01*
X72735D01*
X73500Y120000D01*
X103000Y112500D02*
X105500Y110000D01*
X103000Y112500D02*
Y119000D01*
X140000Y112500D02*
X145300Y117800D01*
X150600D01*
X73500Y140000D02*
X89500D01*
X97000Y193500D02*
X103500D01*
X157800Y222000D02*
Y238500D01*
X174000Y258000D02*
Y268000D01*
X157800Y238500D02*
Y261800D01*
X174000Y278000D01*
X135301Y274016D02*
Y284800D01*
X136501Y286000D01*
X137000D01*
X126148Y274016D02*
Y285648D01*
X126500Y286000D01*
X188500Y319500D02*
X190000D01*
X177854D02*
X188500D01*
X135301Y270276D02*
X141776D01*
X159500Y288000D01*
X173778D01*
X188500Y302722D01*
Y319500D01*
X278000Y303500D02*
X278500Y304000D01*
Y315600D01*
X259924Y291000D02*
X277300D01*
X278000Y291700D01*
X255424Y295500D02*
X259924Y291000D01*
X253500Y295500D02*
X255424D01*
X220748Y337252D02*
X253500Y304500D01*
Y295500D02*
Y304500D01*
X215248Y337252D02*
X220748D01*
X214500Y338000D02*
X215248Y337252D01*
X266823Y221826D02*
Y250826D01*
X259350Y275000D02*
X278000D01*
X267000Y251003D02*
Y267350D01*
X266823Y250826D02*
X267000Y251003D01*
X259350Y275000D02*
X267000Y267350D01*
X258000Y275000D02*
X259350D01*
X221500Y270200D02*
X221850Y269850D01*
X236650D01*
X237000Y269500D01*
Y279500D01*
X170900Y306000D02*
X183200D01*
X206450Y246050D02*
X206500Y246000D01*
X197050Y246050D02*
X206450D01*
X197000Y246100D02*
X197050Y246050D01*
X220150Y270200D02*
X221500D01*
X218894Y268944D02*
X220150Y270200D01*
X202650Y268944D02*
X218894D01*
X200500Y266794D02*
X202650Y268944D01*
X205300Y259000D02*
X206500Y257800D01*
X205300Y259000D02*
Y264644D01*
X203150Y266794D02*
X205300Y264644D01*
X200500Y266794D02*
X203150D01*
X188000Y292000D02*
X191394D01*
X191400Y291994D01*
X184000Y288000D02*
X188000Y292000D01*
X184000Y271500D02*
Y288000D01*
X180500Y268000D02*
X184000Y271500D01*
X174000Y268000D02*
X180500D01*
X200500Y266794D02*
Y291994D01*
X211000Y310500D02*
Y310950D01*
X199500Y299000D02*
X211000Y310500D01*
X196906Y299000D02*
X199500D01*
X211000Y310950D02*
X212200Y312150D01*
Y313500D01*
X191400Y293494D02*
X196906Y299000D01*
X191400Y291994D02*
Y293494D01*
X204500Y322550D02*
X212200Y314850D01*
Y313500D02*
Y314850D01*
X204500Y322550D02*
Y338000D01*
X194000Y323500D02*
X195000Y322500D01*
Y306000D02*
Y322500D01*
X194000Y323500D02*
Y337500D01*
X194500Y338000D01*
X190000Y319500D02*
X194000Y323500D01*
X145500Y322000D02*
X160000D01*
X162500Y319500D01*
X140477Y316977D02*
X145500Y322000D01*
X140477Y311804D02*
Y316977D01*
X139949Y311276D02*
X140477Y311804D01*
X97000Y193500D02*
Y203500D01*
X116500Y270000D02*
X116776Y270276D01*
X126148D01*
X189500Y259000D02*
X190600Y257900D01*
X197000D01*
X220500Y283000D02*
Y297000D01*
Y283000D02*
X221500Y282000D01*
X220500Y297000D02*
Y297778D01*
X224000Y301278D01*
Y313500D01*
X215494Y291994D02*
X220500Y297000D01*
X209600Y291994D02*
X215494D01*
X159000Y294000D02*
X159100Y294100D01*
Y306000D01*
X278500Y327400D02*
Y333500D01*
D55*
X281000Y193500D02*
D03*
Y183500D02*
D03*
Y173500D02*
D03*
Y163500D02*
D03*
Y153500D02*
D03*
Y143500D02*
D03*
Y133500D02*
D03*
Y123500D02*
D03*
Y113500D02*
D03*
Y103500D02*
D03*
X263500D02*
D03*
Y113500D02*
D03*
Y123500D02*
D03*
Y133500D02*
D03*
Y143500D02*
D03*
Y153500D02*
D03*
Y163500D02*
D03*
Y173500D02*
D03*
Y183500D02*
D03*
Y193500D02*
D03*
X56500Y69500D02*
D03*
Y59500D02*
D03*
Y49500D02*
D03*
Y39500D02*
D03*
Y29500D02*
D03*
Y19500D02*
D03*
Y160000D02*
D03*
Y150000D02*
D03*
Y140000D02*
D03*
Y130000D02*
D03*
Y120000D02*
D03*
Y110000D02*
D03*
Y100000D02*
D03*
Y90000D02*
D03*
X73500D02*
D03*
Y100000D02*
D03*
Y110000D02*
D03*
Y120000D02*
D03*
Y130000D02*
D03*
Y140000D02*
D03*
Y150000D02*
D03*
Y160000D02*
D03*
X263500Y89500D02*
D03*
Y79500D02*
D03*
Y69500D02*
D03*
Y59500D02*
D03*
Y49500D02*
D03*
Y39500D02*
D03*
Y29500D02*
D03*
Y19500D02*
D03*
X73500Y70000D02*
D03*
Y60000D02*
D03*
Y50000D02*
D03*
Y40000D02*
D03*
Y30000D02*
D03*
Y20000D02*
D03*
X281000Y89500D02*
D03*
Y79500D02*
D03*
Y69500D02*
D03*
Y59500D02*
D03*
Y49500D02*
D03*
Y39500D02*
D03*
Y29500D02*
D03*
Y19500D02*
D03*
D56*
X174000Y278000D02*
D03*
Y268000D02*
D03*
Y258000D02*
D03*
X237000Y259500D02*
D03*
Y269500D02*
D03*
Y279500D02*
D03*
X214500Y338000D02*
D03*
X204500D02*
D03*
X194500D02*
D03*
D57*
X184000Y19500D02*
D03*
Y9500D02*
D03*
X174000Y19500D02*
D03*
Y9500D02*
D03*
X164000Y19500D02*
D03*
Y9500D02*
D03*
D58*
X49000Y197500D02*
D03*
Y183500D02*
D03*
D59*
X234996Y307220D02*
D03*
X253500Y319000D02*
D03*
Y295500D02*
D03*
D60*
X119083Y333520D02*
D03*
D61*
Y314819D02*
D03*
X148217D02*
D03*
Y333520D02*
D03*
D62*
X130500Y316000D02*
D03*
X136799D02*
D03*
X127350Y311276D02*
D03*
X133650D02*
D03*
X139949D02*
D03*
D63*
X165500Y211500D02*
D03*
X130500Y215500D02*
D03*
X206000Y20000D02*
D03*
X220500Y38500D02*
D03*
X215000Y44500D02*
D03*
X198000Y27500D02*
D03*
X228000Y51500D02*
D03*
X220500Y58000D02*
D03*
X214000Y64000D02*
D03*
X226000Y75500D02*
D03*
X219000Y83000D02*
D03*
Y101500D02*
D03*
X226500Y134375D02*
D03*
X232250Y89250D02*
D03*
X232500Y70000D02*
D03*
X226000Y95000D02*
D03*
X175000Y32500D02*
D03*
X243500Y126500D02*
D03*
X235400Y130400D02*
D03*
X164000Y29500D02*
D03*
X161000Y125000D02*
D03*
X160500Y145000D02*
D03*
X196500Y148500D02*
D03*
Y140000D02*
D03*
X183000Y138000D02*
D03*
X169500Y123500D02*
D03*
X205500Y140500D02*
D03*
Y149000D02*
D03*
X190500Y134500D02*
D03*
X227000Y169500D02*
D03*
Y177000D02*
D03*
X238000D02*
D03*
Y169500D02*
D03*
X104000Y132000D02*
D03*
X112500Y128000D02*
D03*
X131000Y149000D02*
D03*
X122000Y140500D02*
D03*
X93000Y154500D02*
D03*
X99000Y149000D02*
D03*
X109500Y139000D02*
D03*
X179500Y191000D02*
D03*
X170000Y190500D02*
D03*
X180000Y200000D02*
D03*
X169500D02*
D03*
X156500Y173500D02*
D03*
X144000Y182000D02*
D03*
X179500Y180500D02*
D03*
X169500D02*
D03*
X108500Y156000D02*
D03*
X174000Y173500D02*
D03*
X132500Y92500D02*
D03*
X234500Y238000D02*
D03*
X221000D02*
D03*
X178500Y238500D02*
D03*
X169500D02*
D03*
X142500Y102000D02*
D03*
X129000Y100000D02*
D03*
X124500Y155000D02*
D03*
X97000Y125000D02*
D03*
X174500Y110000D02*
D03*
X165000Y109000D02*
D03*
X194500Y88000D02*
D03*
X207500Y70500D02*
D03*
X101500Y163000D02*
D03*
X114500Y150000D02*
D03*
X90000Y130000D02*
D03*
X105500Y110000D02*
D03*
X103000Y119000D02*
D03*
X112500Y117000D02*
D03*
X140000Y112500D02*
D03*
X181000Y92500D02*
D03*
X145000Y77500D02*
D03*
X72500Y177000D02*
D03*
X64500Y189000D02*
D03*
X125500Y128000D02*
D03*
X80500Y177500D02*
D03*
X71500Y189000D02*
D03*
X165000Y117000D02*
D03*
X173000Y145000D02*
D03*
X42500Y253000D02*
D03*
X53000Y253500D02*
D03*
X113500Y217500D02*
D03*
X112500Y184500D02*
D03*
X103500Y193500D02*
D03*
X90000Y224000D02*
D03*
X83500Y218500D02*
D03*
X97543Y211043D02*
D03*
X136000Y304000D02*
D03*
X121000D02*
D03*
X91000Y216500D02*
D03*
X97000Y203500D02*
D03*
X206500Y46500D02*
D03*
X132500D02*
D03*
X96000Y230000D02*
D03*
X116500Y270000D02*
D03*
X189500Y259000D02*
D03*
X220500Y297000D02*
D03*
X159000Y294000D02*
D03*
X278500Y333500D02*
D03*
M02*
