M48
;Layer_Color=9474304
;FILE_FORMAT=2:5
INCH,LZ
;TYPE=PLATED
T1F00S00C0.02756
T2F00S00C0.02800
T3F00S00C0.04331
T4F00S00C0.06000
T5F00S00C0.06299
T6F00S00C0.08000
%
T01
X012735Y0311276
X013365
X0139949
X0136799Y0316
X01305
T02
X01325Y00465
X0164Y00295
X0175Y00325
X0198Y00275
X0206Y002
X02065Y00465
X0215Y00445
X02205Y00385
X0228Y00515
X02205Y0058
X0226Y00755
X02325Y007
X023225Y008925
X0226Y0095
X0219Y01015
Y0083
X02265Y0134375
X02354Y01304
X02435Y01265
X0238Y01695
Y0177
X0227
Y01695
X02055Y0149
Y01405
X01965Y014
Y01485
X01905Y01345
X0183Y0138
X0173Y0145
X01605
X0161Y0125
X01695Y01235
X0165Y0117
Y0109
X01745Y011
X0181Y00925
X01945Y0088
X02075Y00705
X0214Y0064
X0145Y00775
X01425Y0102
X014Y01125
X0129Y01
X01325Y00925
X01255Y0128
X01125
Y0117
X0103Y0119
X01055Y011
X0104Y0132
X01095Y0139
X0122Y01405
X01245Y0155
X0131Y0149
X01145Y015
X01085Y0156
X01015Y0163
X0099Y0149
X0093Y01545
X009Y013
X0097Y0125
X00805Y01775
X00725Y0177
X00715Y0189
X00645
X01035Y01935
X0097Y02035
X01125Y01845
X0144Y0182
X01565Y01735
X0174
X01695Y01805
X01795
Y0191
X018Y02
X01695
X017Y01905
X0053Y02535
X00425Y0253
X00835Y02185
X0091Y02165
X009Y0224
X0096Y023
X0097543Y0211043
X01135Y02175
X01305Y02155
X01655Y02115
X01695Y02385
X01785
X01895Y0259
X0159Y0294
X0136Y0304
X0121
X01165Y027
X02205Y0297
X0221Y0238
X02345
X02785Y03335
T03
X00565Y00195
Y00295
Y00395
Y00495
X00735Y005
Y004
Y003
Y002
X0164Y00195
X0174
X0184
Y00095
X0174
X0164
X02635Y00195
Y00295
Y00395
Y00495
X0281
Y00395
Y00295
Y00195
Y00595
Y00695
Y00795
Y00895
Y01035
Y01135
Y01235
Y01335
Y01435
Y01535
Y01635
Y01735
Y01835
Y01935
X02635
Y01835
Y01735
Y01635
Y01535
Y01435
Y01335
Y01235
Y01135
Y01035
Y00895
Y00795
Y00695
Y00595
X00735Y006
Y007
Y009
Y01
Y011
Y012
Y013
Y014
Y015
Y016
X00565
Y015
Y014
Y013
Y012
Y011
Y01
Y009
Y00695
Y00595
X0174Y0258
Y0268
Y0278
X01945Y0338
X02045
X02145
X0237Y02795
Y02695
Y02595
T04
X0049Y01835
Y01975
T05
X0234996Y030722
X02535Y02955
Y0319
T06
X0119083Y0314819
Y033352
X0148217
Y0314819
M30
